<svg width="222" height="48" viewBox="0 0 222 48" fill="none" xmlns="http://www.w3.org/2000/svg">
<path d="M4.75222 47.7162L4.6917 47.6675L4.59354 47.5868L4.54938 47.5465L4.49212 47.4592L4.47085 47.4122L4.46758 47.2845L4.47576 47.2123L4.53956 47.0141L4.58046 46.9016L4.72441 46.5976L4.76531 46.5136L4.86347 46.3205L4.91581 46.2197L5.0385 45.988L5.10394 45.8687L5.25117 45.5966L5.32805 45.4556L5.50309 45.1381L5.5947 44.9736L5.79755 44.6057L6.13618 43.9961L7.68208 41.2031L9.60424 42.1839L9.88888 42.3283L10.504 42.6139L10.8148 42.7549L11.4462 43.0169L11.7603 43.1412L12.3591 43.3595L13.1623 43.6115L13.3504 43.6635L13.6808 43.7492L13.8412 43.7895L14.1373 43.855L14.4317 43.9155L15.0403 43.9894L15.2038 44.0045L15.5703 44.0263L15.7633 44.0364L16.2099 44.0481L16.4455 44.0532L17.0017 44.0582L17.9881 44.0633H18.3562L18.9794 44.0616L19.2739 44.0599L19.7729 44.0532L20.0084 44.0481L20.4092 44.033L20.6006 44.023L20.936 43.9978L21.2582 43.9675L21.8242 43.8634L21.9698 43.8332L22.2757 43.7576L22.7878 43.6199L23.1902 43.5073L23.982 43.247L24.3762 43.111L25.1451 42.8003L25.5279 42.6407L26.2738 42.2847L26.6435 42.1016L27.365 41.7002L27.7216 41.4953L28.4152 41.0519L28.7587 40.8252L29.4245 40.3398L29.7533 40.0929L30.3881 39.5673L30.7021 39.3002L31.3041 38.7376L31.6019 38.4504L32.1712 37.8508L32.4509 37.5468L32.9842 36.9136L33.2459 36.5912L33.7416 35.9244L33.9854 35.5868L34.4418 34.8882L34.6659 34.5355L35.0814 33.8066L35.2842 33.4388L35.6572 32.6813L35.8388 32.3001L36.1676 31.5157L36.6109 30.3132L36.7811 29.801L37.0559 28.7412L37.1819 28.2071L37.3667 27.1155L37.4485 26.5663L37.5434 25.4544L37.5794 24.8969L37.5859 23.7749L37.5777 23.2157L37.4943 22.1005L37.442 21.5446L37.2702 20.4445L37.172 19.8987L36.9119 18.8305L36.4212 17.2753L36.2069 16.6925L35.7292 15.5874L35.4822 15.0449L34.9358 14.0137L34.6528 13.5065L34.0312 12.5458L33.7105 12.0722L33.0104 11.1737L32.6488 10.7303L31.862 9.88887L31.4579 9.47404L30.5811 8.68132L30.1312 8.28999L29.1611 7.54262L27.5907 6.46438L27.5351 6.42743L27.4942 6.30819L27.4909 6.26956L27.5089 6.17047L27.5236 6.11505L27.576 5.97229L27.6087 5.89503L27.7003 5.70021L27.7527 5.59608L27.8901 5.33744L27.9637 5.2014L28.1469 4.87054L28.4823 4.28104L28.7996 3.7268L29.4638 2.52428L29.6192 2.23877L29.9546 1.61232L30.0658 1.4007L30.2032 1.13198L30.2801 0.975789L30.4322 0.691954L30.5058 0.555915L30.6367 0.330861L30.6972 0.228412L30.7938 0.0890131L30.8821 0H30.9606L31.2224 0.0587834L31.363 0.0957325L31.669 0.198182L31.8162 0.250246L32.055 0.356055L32.1057 0.381246L32.1761 0.424912L32.2202 0.475298V0.500492L32.1597 0.658362L32.1205 0.754095L31.9945 1.02953L31.9241 1.17901L31.7475 1.5401L31.6542 1.72988L31.4432 2.1464L31.2256 2.57299L30.7561 3.45808L30.64 3.67138L30.4208 4.06942L30.123 4.58838L29.472 5.68846L30.9573 6.8557L31.5626 7.38307L31.8636 7.65347L32.4624 8.23793L32.7601 8.5352L33.3408 9.16501L33.6287 9.48412L34.1833 10.1475L34.4549 10.4801L34.9718 11.1619L35.2237 11.5045L35.6916 12.1931L35.919 12.5374L36.3263 13.2193L36.8612 14.222L37.051 14.6099L37.3994 15.4463L37.5679 15.8729L37.8722 16.7714L38.0178 17.2283L38.2746 18.1688L38.3973 18.6441L38.6018 19.6098L38.6967 20.0935L38.8472 21.0626L38.9143 21.5463L39.0042 22.5002L39.0419 22.9722L39.068 23.8908L39.032 25.2092L39.001 25.6812L38.8995 26.6066L38.8439 27.0684L38.695 27.9703L38.6165 28.4188L38.4202 29.2971L38.3172 29.7321L38.075 30.5853L37.9474 31.0085L37.6579 31.8349L37.509 32.2446L37.1737 33.0441L37.0003 33.4404L36.6208 34.213L36.4244 34.5959L35.9991 35.34L35.7799 35.7078L35.3104 36.4216L35.0699 36.7759L34.5546 37.4612L34.2913 37.8004L33.7334 38.4537L33.4488 38.7779L32.8468 39.401L32.5409 39.7083L31.8963 40.2995L31.5675 40.5917L30.8805 41.151L30.532 41.4265L29.8008 41.9521L28.6606 42.7012L28.3367 42.9011L27.6709 43.2705L27.3355 43.4519L26.6484 43.7811L26.3033 43.9407L25.5966 44.2295L25.2416 44.3689L24.5185 44.6175L23.7906 44.856L22.2937 45.2104L21.5396 45.3665L20.0019 45.5547L19.2281 45.6286L17.6675 45.6504L16.8872 45.6386L15.32 45.4925L14.538 45.3985L12.984 45.081L10.6872 44.4109L10.3338 44.2866L9.60096 43.9994L9.43083 43.9306L9.13474 43.8029L8.79939 43.6467L8.19902 43.336L7.85876 44.0465L7.77369 44.2211L7.56757 44.6175L7.4596 44.819L7.22076 45.249L6.97538 45.6806L6.45681 46.5271L6.32921 46.7286L6.09201 47.0931L5.97586 47.2661L5.77465 47.5516L5.67977 47.6826L5.52927 47.864L5.38367 47.9882L5.31824 48L5.10067 47.9244L4.98616 47.8757M90.927 46.8613L90.7945 46.821L90.5344 46.6934L90.4051 46.6245L90.1532 46.4448L90.0289 46.3491L89.7917 46.124L89.6755 46.0064L89.4596 45.7444L89.2502 45.474L88.9181 44.8526L88.8445 44.6948L88.7267 44.3656L88.5991 43.8634L88.5648 43.6753L88.5729 43.2218L88.5877 42.9884L88.6842 42.4896L88.7431 42.2393L88.9132 41.754L89.2387 41.1073L89.3827 40.8823L89.7295 40.5229L89.9144 40.3583L90.3495 40.1164L90.5785 40.0106L91.1151 39.8796L92.0459 39.8041L92.216 39.8057L92.5187 39.8175L92.6643 39.8259L92.9195 39.8561L93.0405 39.8729L93.2516 39.9199L93.3513 39.9468L93.5198 40.014L93.5984 40.0509L93.7276 40.1383L93.7865 40.1836L93.8797 40.2945L94.0286 40.7093L94.0417 40.8235L94.0466 40.9747L94.0433 41.0402L93.9975 41.1057L93.9664 41.1292L93.8421 41.1309L93.5378 41.0805L93.3481 41.0418L93.0144 40.9814L92.8557 40.9545L92.5759 40.9125L92.4418 40.8957L92.2062 40.8739L92.095 40.8655L91.897 40.8638L91.7073 40.8672L91.4046 40.936L90.9973 41.1292L90.7961 41.2585L90.4853 41.539L90.343 41.6868L90.1418 42.0176L90.0534 42.1923L89.9504 42.6021L89.8898 43.3293V43.5107L89.9225 43.8466L89.9438 44.0078L90.0191 44.3034L90.0616 44.4462L90.1777 44.7031L90.2415 44.8258L90.4019 45.0424L90.4869 45.1449L90.6898 45.3229L90.7945 45.4052L91.0398 45.5429L91.1675 45.605L91.4521 45.7024L91.9298 45.8032L92.1555 45.8335L92.5923 45.7982L93.2516 45.5916L93.4037 45.5211L93.618 45.4321L93.7129 45.3951L93.8486 45.3749L93.9108 45.3733L94.0122 45.4203L94.1775 45.5647L94.2396 45.6286L94.3149 45.7276L94.3443 45.7747L94.3476 45.8637L94.3394 45.9107L94.2658 46.0266L94.0597 46.2651L93.9828 46.3491L93.7947 46.4968L93.6949 46.5691L93.4659 46.69L93.2303 46.8042L92.6774 46.9436L92.3944 46.9973L91.7973 47.0074L91.4995 46.9957M100.909 46.8025L100.664 46.7085L100.243 46.4868L100.044 46.3709L99.7018 46.0921L99.5399 45.9443L99.2618 45.595L98.897 44.9752L98.8103 44.7972L98.6778 44.4411L98.6189 44.2631L98.542 43.9087L98.5109 43.7324L98.488 43.3814L98.4831 43.2084L98.5142 42.8641L98.5371 42.6928L98.6221 42.3569L98.6712 42.1906L98.8103 41.8648L98.8855 41.7052L99.0786 41.3929L99.4254 40.9411L99.6168 40.7227L99.9865 40.3952L100.173 40.2474L100.572 40.0442L100.778 39.9569L101.254 39.8595L102.108 39.8057L102.401 39.8074L102.938 39.878L103.199 39.9233L103.67 40.0795L103.898 40.1685L104.297 40.407L104.488 40.5363L104.814 40.8521L104.966 41.0183L105.213 41.408L105.324 41.6095L105.486 42.0663L105.557 42.3032L105.632 42.8221L105.64 43.6686L105.617 43.9726L105.485 44.5285L105.404 44.7972L105.153 45.2792L105.014 45.511L104.645 45.9174L103.965 46.4381L103.744 46.5707L103.234 46.7656L102.972 46.8495L102.424 46.9419L102.149 46.9738L101.619 46.957L101.362 46.9352M103.221 45.5412L103.417 45.4337L103.734 45.1398L103.881 44.9819L104.099 44.6074L104.196 44.4126L104.313 43.9877L104.359 43.771L104.377 43.326L104.374 43.1026L104.292 42.6659L104.238 42.4526L104.058 42.0546L103.957 41.8631L103.679 41.5356L103.15 41.1527L102.947 41.0519L102.606 40.9209L102.442 40.8672L102.144 40.8286L101.995 40.8202L101.696 40.8689L101.195 41.0418L101.038 41.109L100.762 41.2871L100.631 41.3828L100.407 41.6129L100.302 41.7338L100.132 42.0042L100.055 42.1436L99.9439 42.4476L99.8949 42.6021L99.8441 42.9279L99.8261 43.0925L99.8392 43.4301L99.854 43.5997L99.9341 43.9423L100.13 44.4479L100.212 44.6091L100.4 44.8929L100.498 45.0273L100.719 45.254L100.832 45.3598L101.079 45.5295L101.205 45.6084L101.473 45.7193L101.609 45.7663L101.891 45.8167L102.035 45.8351L102.327 45.8217L102.475 45.8083L102.772 45.731L102.921 45.684M123.252 46.8462L123.11 46.8025L122.82 46.653L122.678 46.5707L122.426 46.3709L122.31 46.2684L122.141 46.0602L122.03 45.778V45.647L122.108 45.4673L122.161 45.3901L122.342 45.3162L122.445 45.2943L122.725 45.3313L123.25 45.5093L123.489 45.6151L123.882 45.7478L124.067 45.8015L124.368 45.8318L124.508 45.8335L124.739 45.7629L125.032 45.5412L125.1 45.464L125.199 45.3162L125.241 45.2439L125.285 45.1062L125.302 45.0374L125.289 44.903L125.275 44.8358L125.204 44.6998L125.159 44.6326L125.025 44.4932L124.95 44.4227L124.75 44.2749L124.641 44.1993L124.372 44.0381L123.892 43.7761L123.671 43.6635L123.293 43.4167L123.113 43.289L122.818 43.0186L122.681 42.8826L122.47 42.5954L122.377 42.4509L122.254 42.152L122.203 42.0025L122.171 41.7002L122.166 41.5491L122.223 41.2467L122.264 41.0973L122.416 40.8017L122.75 40.3734L122.879 40.2407L123.082 40.061L123.18 39.9821L123.38 39.8897L123.487 39.8511L123.764 39.8175L123.841 39.8108L124.024 39.8057L124.35 39.8024H124.649L125.138 39.8612L125.364 39.8998L125.699 40.0342L125.773 40.0728L125.889 40.1618L125.943 40.2088L126.018 40.3163L126.051 40.3717L126.085 40.496L126.089 40.7009L126.075 40.7966L125.992 40.9243L125.938 40.978L125.738 41.0251L125.68 41.0318L125.531 41.0301L125.451 41.0284L125.257 41.0099L125.154 40.9982L124.911 40.9612L124.48 40.8873L124.366 40.8672L124.183 40.8504L124.098 40.8487L123.959 40.8739L123.892 40.8924L123.774 40.9646L123.595 41.1325L123.535 41.2014L123.453 41.3374L123.419 41.4046L123.391 41.5407L123.383 41.6078L123.409 41.7456L123.429 41.8144L123.51 41.9555L123.558 42.0277L123.697 42.1755L123.774 42.2494L123.97 42.4039L124.076 42.4829L124.333 42.6474L124.788 42.9078L124.961 43.0018L125.257 43.1698L125.397 43.2504L125.634 43.3999L125.745 43.4721L125.928 43.6115L126.013 43.6803L126.151 43.8147L126.28 43.9507L126.43 44.248L126.56 44.7938L126.578 44.9299L126.584 45.1465L126.583 45.249L126.542 45.4287L126.515 45.516L126.414 45.6957L126.185 46.0048L125.999 46.2348L125.578 46.5724L125.362 46.7219L124.886 46.9033L124.641 46.9721L124.109 46.994L123.836 46.9839M133.399 46.7824L133.218 46.7135L132.897 46.5405L132.745 46.4465L132.483 46.2164L132.359 46.0938L132.151 45.7965L132.053 45.6403L131.896 45.2691L131.822 45.0743L131.713 44.6209L131.662 44.384L131.597 43.8382L131.569 43.5544L131.543 42.9078L131.547 41.8178L131.6 39.8864L132.199 39.836L132.796 39.7839L132.853 42.2158L132.858 42.4862L132.871 42.943L132.877 43.158L132.892 43.5208L132.9 43.6904L132.92 43.9726L132.931 44.1036L132.956 44.3202L132.971 44.421L133.005 44.5873L133.023 44.6645L133.067 44.7938L133.252 45.123L133.344 45.2507L133.561 45.4522L133.674 45.5429L133.923 45.6722L134.049 45.7276L134.31 45.7864L134.441 45.8066L134.703 45.7948L134.832 45.7814L135.079 45.7024L135.199 45.6554L135.416 45.511L135.519 45.4304L135.693 45.2221L135.884 44.8392L135.899 44.7972L135.925 44.6746L135.938 44.6074L135.963 44.4361L135.987 44.2547L136.026 43.7794L136.044 43.5258L136.071 42.9464L136.089 42.0176L136.098 39.7822L137.325 39.8864L137.378 41.4819L137.389 41.8682L137.396 42.5517L137.394 42.8809L137.373 43.4603L137.356 43.7374L137.302 44.2245L137.271 44.4563L137.183 44.8627L137.134 45.0575L137.006 45.3968L136.938 45.5597L136.769 45.8435L136.681 45.9796L136.468 46.2214L136.097 46.5506L136.026 46.6027L135.853 46.695L135.761 46.7387L135.554 46.8092L135.338 46.8747L134.844 46.9419L134.593 46.9638L134.086 46.9352L133.839 46.91M181.19 46.7891L181.041 46.732L180.766 46.5892L180.632 46.5136L180.383 46.3373L180.143 46.1509L179.749 45.6924L179.565 45.4522L179.294 44.9081L179.173 44.6292L179.027 44.0313L178.972 43.7307L178.96 43.1143L178.972 42.807L179.101 42.2041L179.183 41.9085L179.457 41.3526L179.536 41.2199L179.721 40.9646L180.041 40.6102L180.205 40.4557L180.524 40.2223L180.688 40.1164L181.047 39.9737L181.236 39.9115L181.681 39.841L182.494 39.8024H182.791L183.3 39.8578L183.539 39.8948L183.925 40.0224L184.102 40.0946L184.354 40.2861L184.569 40.6455L184.599 40.7664L184.573 40.9344L184.545 41.0083L184.391 41.0838L184.298 41.1107L184.005 41.099L183.923 41.0906L183.73 41.057L183.397 40.9831L183.153 40.9226L182.665 40.889L182.423 40.8857L181.964 40.9612L181.739 41.0116L181.337 41.188L180.832 41.5591L180.742 41.6515L180.594 41.885L180.527 42.0092L180.423 42.2931L180.377 42.4392L180.318 42.7549L180.293 42.9162L180.277 43.2453L180.275 43.4116L180.303 43.7391L180.324 43.9004L180.396 44.206L180.439 44.3555L180.557 44.6242L180.786 44.9635L180.907 45.0978L181.183 45.3212L181.326 45.4237L181.631 45.5849L181.787 45.6571L182.107 45.7528L182.268 45.7915L182.584 45.8234L182.739 45.8301L183.035 45.7965L183.179 45.7713L183.436 45.6705L183.559 45.6118L183.763 45.4438L183.987 45.1163L184.048 44.9769L184.09 44.7603L184.098 44.6612L184.031 44.5184L183.984 44.4546L183.801 44.3807L183.393 44.337H183.208L182.893 44.2799L182.745 44.2413L182.516 44.1187L182.415 44.0515L182.294 43.8768L182.255 43.5695L182.268 43.499L182.333 43.3965L182.376 43.3512L182.546 43.2924L182.598 43.2789L182.732 43.2588L182.806 43.2487L182.988 43.2336L183.084 43.2252L183.321 43.2134L183.745 43.1966L185.175 43.1479V44.6444L185.167 44.945L185.16 45.0894L185.137 45.333L185.122 45.4505L185.078 45.6487L185.052 45.7428L184.982 45.9074L184.905 46.0619L184.65 46.3104L184.576 46.3709L184.398 46.4885L184.079 46.6698L184.002 46.7085L183.809 46.7773L183.706 46.8092L183.469 46.8613L183.225 46.9083L182.669 46.9486L182.389 46.9604L181.851 46.9268L181.721 46.9151L181.489 46.8731L181.378 46.8495M110.906 39.8024H111.405L111.668 39.888L112.01 40.0963L112.031 40.1148L112.098 40.187L112.136 40.2273L112.233 40.3381L112.336 40.4557L112.612 40.7882L112.759 40.9663L113.1 41.3845L113.273 41.5994L113.828 42.2948L114.192 42.76L114.371 42.9884L114.698 43.4133L114.853 43.6165L115.109 43.9574L115.166 44.0364L115.262 44.1707L115.375 44.332L115.408 44.3824L115.462 44.4563L115.488 44.4865L115.529 44.5117L115.549 44.5167L115.578 44.4815L115.591 44.4546L115.611 44.3421L115.621 44.2749L115.632 44.0717L115.639 43.9591L115.643 43.6518L115.647 43.4838L115.648 43.0606L115.65 42.2746V39.8024H116.795V46.8563H116.28L116.155 46.8244L116.09 46.8025L115.944 46.7169L115.868 46.6665L115.689 46.512L115.593 46.4246L115.367 46.1878L115.246 46.0585L114.96 45.7243L114.808 45.5429L114.448 45.0995L114.258 44.861L113.813 44.2917L113.695 44.1405L113.442 43.813L112.133 42.1083L112.043 46.8563H110.906V39.8024ZM142.806 39.8024H144.114V45.6806H147.222V46.8563H142.806V39.8024ZM152.457 40.978H150.167V39.8024H155.914L155.861 40.3482L155.811 40.8941L154.707 40.9444L153.602 40.9931V46.8563H152.457V40.978ZM160.583 46.7437L160.574 46.737L160.56 46.6514L160.553 46.5993L160.54 46.4314L160.534 46.3373L160.52 46.0971L160.516 45.9678L160.506 45.6621L160.501 45.5026L160.491 45.1432L160.488 44.9568L160.481 44.552L160.473 43.2168V39.8024H161.945V46.8563H161.145L160.843 46.8227L160.777 46.8126L160.674 46.7874L160.628 46.774M167.834 39.8024H168.422L168.61 39.8544L168.705 39.8914L168.919 40.0476L168.976 40.0946L169.104 40.2172L169.171 40.2827L169.321 40.4439L169.4 40.5313L169.58 40.7379L169.891 41.104L170.04 41.2837L170.375 41.7019L170.545 41.9169L170.892 42.3653L171.062 42.5887L171.379 43.0169L171.777 43.5712L172.579 44.7384L172.58 43.1513V42.7163L172.611 41.7708L172.621 41.5457L172.646 41.146L172.685 40.6757L172.698 40.5665L172.721 40.3852L172.732 40.3012L172.754 40.1668L172.778 40.0442L172.842 39.9082L172.881 39.8544L173.005 39.8225L173.298 39.836L173.805 39.8864L173.894 46.8563H173.352L173.217 46.8311L173.148 46.8126L173.002 46.7404L172.925 46.6967L172.755 46.5657L172.665 46.4918L172.457 46.2869L172.348 46.1727L172.089 45.8822L171.954 45.7243L171.633 45.333L171.463 45.123L171.065 44.6175L170.37 43.719L169.061 42.0143L168.971 46.8563H167.834V39.8024ZM14.6067 42.0731L13.9475 41.9505L12.6568 41.5826L12.0172 41.3794L10.7739 40.8588L10.1604 40.58L8.97933 39.9166L8.3986 39.5673L7.29274 38.7695L6.74963 38.3563L5.73048 37.4343L5.23317 36.959L4.31381 35.9244L3.86885 35.3937L3.064 34.255L1.99577 32.4395L1.83382 32.122L1.53773 31.4721L1.39377 31.1429L1.13857 30.4728L0.891555 29.7976L0.52021 28.4003L0.35335 27.6949L0.142323 26.2539L0.0572567 25.53L0.00654491 24.0689L0 23.3366L0.109606 21.8771L0.184855 21.1499L0.456411 19.7156L0.611819 19.0035L1.04369 17.6162L1.16147 17.2719L1.42812 16.6001L1.87308 15.6109L1.96305 15.4279L2.19208 15.0147L2.31477 14.8014L2.59777 14.3429L2.8906 13.8794L3.57276 12.9069L3.9212 12.4266L4.6279 11.5415L4.79967 11.3332L5.12848 10.9604L5.58489 10.4901L5.74684 10.3339L6.11 10.0132L6.29649 9.85025L6.69728 9.52442L7.10625 9.19692L7.99126 8.56207L8.43622 8.25304L9.32287 7.70385L9.5388 7.57453L9.95759 7.34276L10.5481 7.04549L11.07 6.80364L12.0891 6.42239L12.6028 6.24605L13.6612 5.98572L13.9311 5.92862L14.4922 5.83121L14.7769 5.78587L15.3723 5.71533L15.675 5.68174L16.3146 5.63303L17.3338 5.58432L17.7918 5.56921L18.6376 5.56753L19.0498 5.57089L19.8203 5.60616L20.1965 5.62799L20.9082 5.70525L21.2566 5.74892L21.9257 5.87152L22.2577 5.9387L22.9023 6.11001L23.2246 6.20238L23.8625 6.42575L24.1832 6.545L24.8343 6.82547L25.8403 7.31253L26.2198 7.50735L26.9527 7.93226L27.3142 8.14892L28.0095 8.61246L28.3514 8.84927L29.0074 9.35311L29.3313 9.6084L29.9464 10.1492L30.249 10.423L30.8232 10.999L31.1046 11.2913L31.6362 11.9009L31.8963 12.2099L32.3838 12.8515L32.6227 13.1756L33.066 13.8474L33.2836 14.1867L33.6811 14.8871L33.8741 15.2414L34.2258 15.9686L34.3943 16.3365L34.6986 17.0889L34.8442 17.4684L35.0994 18.2444L35.2204 18.6357L35.4249 19.4335L35.5198 19.8348L35.6736 20.6528L35.7439 21.0642L35.8453 21.9006L35.9386 23.1754L35.9648 23.8505L35.9206 25.1706L35.883 25.8256L35.7079 27.1054L35.6032 27.7402L35.299 28.978L35.1321 29.5894L34.6986 30.7801L34.4663 31.3696L33.9068 32.51L33.6107 33.0743L32.9237 34.1643L32.5654 34.7018L31.754 35.7363L30.3979 37.2227L30.0756 37.5435L29.4049 38.1397L29.0646 38.4302L28.3596 38.9677L28.0029 39.2297L27.2619 39.7066L26.8873 39.9384L26.1119 40.3549L25.7193 40.5565L24.9062 40.9159L24.4956 41.0872L23.6482 41.3878L23.2196 41.5289L22.3346 41.7708L20.9654 42.0647L20.7527 42.1033L20.2685 42.1654L20.0199 42.194L19.48 42.2377L18.932 42.2763L17.7542 42.2964L17.1685 42.2981L16.0447 42.2427L15.7748 42.2242L15.2758 42.1721L15.0354 42.1436M21.5069 40.4792L22.0893 40.3617L23.2425 40.0022L23.8151 39.8041L24.9357 39.2918L25.4902 39.0164L26.5634 38.3647L27.0918 38.0204L28.1011 37.2395L28.5968 36.8347L29.5276 35.9379L29.9824 35.476L30.8199 34.4767L31.2256 33.9661L31.9552 32.8761L32.9089 31.153L33.0284 30.9044L33.2525 30.3686L33.3621 30.0949L33.5633 29.5188L33.758 28.9344L34.0688 27.6949L34.2095 27.0718L34.3943 25.8223L34.4319 25.5132L34.481 24.9086L34.5105 24.0353V23.874L34.4941 23.5045L34.4827 23.3114L34.4467 22.8915L34.4074 22.4616L34.2814 21.5261L34.2111 21.0575L34.0426 20.1506L33.9984 19.9323L33.9052 19.5258L33.7629 18.9766L33.6647 18.639L33.4357 17.974L33.3146 17.6448L33.0431 16.9965L32.9008 16.674L32.5867 16.0442L32.4247 15.7318L32.0697 15.1222L31.8882 14.8216L31.4972 14.2337L31.2976 13.9432L30.8723 13.3822L30.4371 12.8263L29.4736 11.7985L28.9763 11.2997L27.8999 10.3994L27.6251 10.1845L27.0558 9.77803L26.7679 9.57985L26.1773 9.21204L25.8796 9.03233L25.2678 8.70483L24.9602 8.54528L24.3304 8.25808L24.0147 8.12204L23.3701 7.87852L22.3886 7.56781L22.0205 7.46536L21.286 7.29909L20.9196 7.22183L20.1867 7.10595L19.8219 7.05221L19.0923 6.98503L18.7292 6.95815L18.0061 6.93968L17.6446 6.93632L16.9281 6.96655L16.5714 6.98838L15.8631 7.06564L15.5098 7.11099L14.8112 7.23695L14.4644 7.30581L13.7774 7.48048L13.4338 7.57285L12.7598 7.79286L12.4245 7.90875L11.7652 8.17579L11.4364 8.31519L10.7919 8.62757L10.4712 8.79048L9.84471 9.1499L9.5339 9.33464L8.92535 9.7394L8.62271 9.94598L8.03543 10.3961L7.74425 10.6262L7.17823 11.1199L6.35538 11.9093L6.11328 12.1562L5.63723 12.7004L5.40331 12.9791L4.94689 13.5787L4.72114 13.8827L4.29091 14.5226L4.08152 14.8467L3.684 15.5152L3.49096 15.8528L3.13434 16.538L2.96257 16.8806L2.65503 17.5692L2.5078 17.9135L2.25424 18.5937L1.94506 19.5896L1.88453 19.8164L1.78147 20.3488L1.7324 20.6259L1.6506 21.2406L1.61461 21.5547L1.55736 22.2214L1.53282 22.559L1.50174 23.2493L1.49028 23.5936L1.48538 24.2788L1.48701 24.6181L1.50992 25.2714L1.52464 25.5905L1.57535 26.1817L1.68495 26.966L1.77002 27.4161L1.99741 28.3163L2.12173 28.7647L2.42437 29.6515L2.58469 30.0932L2.9544 30.9565L3.14743 31.3847L3.58094 32.2127L3.80341 32.6225L4.29254 33.4052L4.54283 33.7898L5.0794 34.5136L5.35423 34.868L5.93497 35.523L6.84615 36.4148L7.39744 36.9019L8.51311 37.7534L9.07258 38.1598L10.2128 38.8501L10.7853 39.1759L11.9517 39.7083L12.539 39.9552L13.7397 40.3281L14.3434 40.496L15.5817 40.7143L16.205 40.8034L17.4859 40.8672L18.1304 40.8789L19.4588 40.7882L20.1278 40.7227M194.663 15.0836L197.976 15.1491L198.345 15.1575L198.972 15.1709L199.268 15.1793L199.767 15.1961L200.002 15.2045L200.397 15.2263L200.581 15.2381L200.892 15.2666L201.04 15.2817L201.288 15.3187L201.408 15.3388L201.617 15.3875L202.211 15.5891L202.399 15.6647L202.734 15.8175L202.896 15.8948L203.189 16.0543L203.472 16.2155L203.932 16.5817L204.148 16.7748L204.509 17.235L204.993 18.0781L205.113 18.3283L205.28 18.7197L205.353 18.9044L205.443 19.2369L205.479 19.4049L205.512 19.7744L205.517 19.8752L205.52 20.0985L205.519 20.4815L205.514 20.8526L205.432 21.5731L205.407 21.7428L205.345 22.0384L205.237 22.3927L205.16 22.5808L204.977 22.9386L204.881 23.1132L204.661 23.4407L204.547 23.6003L204.293 23.8942L204.162 24.0386L203.876 24.3006L203.729 24.4266L203.413 24.6533L203.251 24.7625L202.908 24.9506L202.733 25.0413L202.361 25.1924L201.779 25.3721L201.553 25.4293L201.183 25.5317L201.103 25.5552L200.987 25.5922L200.899 25.6291L200.891 25.6358L200.927 25.7131L200.951 25.7601L201.046 25.9029L201.098 25.9801L201.237 26.1699L201.483 26.4857L201.612 26.6452L201.941 27.0684L202.116 27.2952L202.512 27.8141L202.916 28.3499L203.773 29.502L203.979 29.7808L204.36 30.2998L204.54 30.5484L204.845 30.9699L204.913 31.0673L205.033 31.2353L205.087 31.3142L205.175 31.4418L205.213 31.499L205.265 31.5796L205.296 31.6417V31.6551L205.226 31.6803L205.182 31.6921L205.034 31.7122L204.954 31.7206L204.751 31.7324L204.406 31.7408H203.518L202.551 30.5232L202.391 30.3199L201.792 29.539L201.337 28.931L200.874 28.3079L199.914 26.9845L199.683 26.6637L199.256 26.0641L199.054 25.7752L198.708 25.2781L198.628 25.1622L198.491 24.959L198.425 24.8616L198.319 24.7003L198.272 24.6248L198.203 24.5122L198.146 24.4048L198.124 24.346L198.115 24.267L198.118 24.2334L198.172 24.1982L198.208 24.1847L198.34 24.1881L198.646 24.2301L198.818 24.2586L199.198 24.2721L199.391 24.2738L199.804 24.2351L200.222 24.1847L201.08 23.953L201.291 23.8858L201.695 23.7262L201.893 23.6439L202.26 23.4558L202.437 23.3584L202.744 23.1468L203.124 22.8092L203.228 22.6934L203.434 22.3457L203.536 22.1593L203.713 21.7276L203.794 21.5076L203.91 21.071L203.987 20.4983V20.2766L203.904 19.7878L203.852 19.5393L203.681 19.0455L203.588 18.8036L203.358 18.372L202.97 17.8631L202.738 17.6397L202.265 17.3106L202.14 17.235L201.874 17.1124L201.735 17.0536L201.426 16.9579L201.264 16.9125L200.899 16.842L200.709 16.8084L200.272 16.758L200.045 16.7345L199.523 16.7009L198.63 16.6623L196.299 16.5884V31.7408H194.663V15.0836Z" fill="white"/>
<path d="M76.7227 15.1152H78.3585V31.7422H76.7227V15.1152Z" fill="white"/>
<path d="M78.3585 15.1152H85.5564V16.6268H78.3585V15.1152Z" fill="white"/>
<path d="M78.3585 22.673H85.2292V24.1845H78.3585V22.673Z" fill="white"/>
<path d="M78.3585 30.2307H85.5564V31.7422H78.3585V30.2307Z" fill="white"/>
<path d="M141.34 15.1152H142.976V31.7422H141.34V15.1152Z" fill="white"/>
<path d="M142.976 15.1152H150.174V16.6268H142.976V15.1152Z" fill="white"/>
<path d="M142.976 22.673H149.846V24.1845H142.976V22.673Z" fill="white"/>
<path d="M142.976 30.2307H150.174V31.7422H142.976V30.2307Z" fill="white"/>
<path d="M213.156 15.1152H214.792V31.7422H213.156V15.1152Z" fill="white"/>
<path d="M214.792 15.1152H221.99V16.6268H214.792V15.1152Z" fill="white"/>
<path d="M214.792 22.673H221.663V24.1845H214.792V22.673Z" fill="white"/>
<path d="M214.792 30.2307H221.99V31.7422H214.792V30.2307Z" fill="white"/>
<path fill-rule="evenodd" clip-rule="evenodd" d="M101.425 32.2465C106.123 32.2465 109.931 28.3365 109.931 23.5132C109.931 18.6899 106.123 14.7798 101.425 14.7798C96.7265 14.7798 92.918 18.6899 92.918 23.5132C92.918 28.3365 96.7265 32.2465 101.425 32.2465ZM101.425 30.735C105.309 30.735 108.459 27.5017 108.459 23.5132C108.459 19.5247 105.309 16.2913 101.425 16.2913C97.5396 16.2913 94.3903 19.5247 94.3903 23.5132C94.3903 27.5017 97.5396 30.735 101.425 30.735Z" fill="white"/>
<path d="M133.676 27.544C132.257 30.3385 129.41 32.2465 126.128 32.2465C121.43 32.2465 117.621 28.3365 117.621 23.5132C117.621 18.6899 121.43 14.7798 126.128 14.7798C129.41 14.7798 132.257 16.6878 133.676 19.4824H131.965C130.702 17.5574 128.559 16.2913 126.128 16.2913C122.243 16.2913 119.093 19.5247 119.093 23.5132C119.093 27.5017 122.243 30.735 126.128 30.735C128.559 30.735 130.702 29.4689 131.965 27.544H133.676Z" fill="white"/>
<path d="M182.235 15.1152H183.871V31.7422H182.235V15.1152Z" fill="white"/>
<path d="M178.473 15.1152H187.634V16.6268H178.473V15.1152Z" fill="white"/>
<path d="M171.111 15.1152H169.475V29.0551L160.755 16.4602C160.171 15.6179 159.212 15.1152 158.188 15.1152V31.7422H159.823V18.0544L168.532 30.4053C169.123 31.2436 170.085 31.7422 171.111 31.7422V15.1152Z" fill="white"/>
<path d="M68.6836 24.185C68.3495 28.6944 64.6798 32.2465 60.2019 32.2465C55.5038 32.2465 51.6953 28.3365 51.6953 23.5132C51.6953 18.6899 55.5038 14.7798 60.2019 14.7798C63.4837 14.7798 66.3315 16.6878 67.7502 19.4824H66.0394C64.7759 17.5574 62.6329 16.2913 60.2019 16.2913C56.317 16.2913 53.1676 19.5247 53.1676 23.5132C53.1676 27.5017 56.317 30.735 60.2019 30.735C63.3455 30.735 66.0076 28.6178 66.909 25.6965H57.9116V24.185H68.6836Z" fill="white"/>
</svg>
