<svg width="22" height="22" viewBox="0 0 22 22" fill="none" xmlns="http://www.w3.org/2000/svg">
<path d="M9.18126 17.4914C13.6436 17.4914 17.261 13.874 17.261 9.41173C17.261 4.94944 13.6436 1.33203 9.18126 1.33203C4.71897 1.33203 1.10156 4.94944 1.10156 9.41173C1.10156 13.874 4.71897 17.4914 9.18126 17.4914Z" fill="#FE7D00"/>
<path d="M15.4453 4.23709L14.2075 5.16484C13.9154 5.38382 13.5601 5.5022 13.195 5.5022H10.3617C10.0871 5.50231 9.81932 5.58726 9.59494 5.74543C9.37055 5.90359 9.20057 6.12723 9.10827 6.38572C9.01598 6.6442 9.00589 6.92489 9.07938 7.18933C9.15287 7.45377 9.30635 7.68903 9.5188 7.86289L11.2063 9.2427C11.8599 9.77722 12.3693 10.4667 12.6882 11.2483C13.0071 12.0299 13.1254 12.8788 13.0322 13.7178L13.0153 13.8696C12.9482 14.4735 12.7997 15.0656 12.574 15.6298L12.0703 16.8882M1.10156 8.03241L3.83362 7.57697C4.09863 7.53275 4.37038 7.55243 4.62625 7.63436C4.88212 7.71629 5.11472 7.8581 5.30471 8.04801C5.49469 8.23791 5.63656 8.47042 5.71853 8.72619C5.80049 8.98196 5.82017 9.25359 5.77593 9.51849L5.66203 10.1991C5.56356 10.7928 5.65789 11.4024 5.93119 11.9386C6.2045 12.4749 6.64241 12.9095 7.18078 13.1789C7.61077 13.3934 7.95456 13.7483 8.15526 14.1849C8.35596 14.6214 8.40152 15.1133 8.2844 15.5792L7.85156 17.3099M17.261 9.41173C17.261 13.874 13.6436 17.4914 9.18126 17.4914C4.71897 17.4914 1.10156 13.874 1.10156 9.41173C1.10156 4.94944 4.71897 1.33203 9.18126 1.33203C13.6436 1.33203 17.261 4.94944 17.261 9.41173Z" stroke="white"/>
<path d="M20.8 11.696C20.8 13.1693 18.1581 14.3626 14.9 14.3626C11.6419 14.3626 9 13.1693 9 11.696V15.0293C9 16.5026 11.6419 17.696 14.9 17.696C18.1581 17.696 20.8 16.5026 20.8 15.0293V11.696Z" fill="white"/>
<path d="M14.9 14.3626C18.1581 14.3626 20.8 13.1693 20.8 11.696C20.8 10.2226 18.1581 9.0293 14.9 9.0293C11.6419 9.0293 9 10.2226 9 11.696C9 13.1693 11.6419 14.3626 14.9 14.3626Z" fill="white"/>
<path d="M20.8 15.0293C20.8 16.5026 18.1581 17.696 14.9 17.696C11.6419 17.696 9 16.5026 9 15.0293V18.3626C9 19.836 11.6419 21.0293 14.9 21.0293C18.1581 21.0293 20.8 19.836 20.8 18.3626V15.0293Z" fill="white"/>
<path d="M20.8 11.696C20.8 13.1693 18.1581 14.3626 14.9 14.3626C11.6419 14.3626 9 13.1693 9 11.696M20.8 11.696C20.8 10.2226 18.1581 9.0293 14.9 9.0293C11.6419 9.0293 9 10.2226 9 11.696M20.8 11.696V15.0293M9 11.696V15.0293M20.8 15.0293C20.8 16.5026 18.1581 17.696 14.9 17.696C11.6419 17.696 9 16.5026 9 15.0293M20.8 15.0293V18.3626C20.8 19.836 18.1581 21.0293 14.9 21.0293C11.6419 21.0293 9 19.836 9 18.3626V15.0293" stroke="#FE7D00" stroke-linecap="round" stroke-linejoin="round"/>
</svg>
