<svg width="18" height="14" viewBox="0 0 18 14" fill="none" xmlns="http://www.w3.org/2000/svg">
<path d="M7.36078 0.400391H2.44078C1.53878 0.400391 0.808981 1.14289 0.808981 2.05039L0.800781 11.9504C0.800781 12.8579 1.53878 13.6004 2.44078 13.6004H15.5608C16.4628 13.6004 17.2008 12.8579 17.2008 11.9504V3.70039C17.2008 2.79289 16.4628 2.05039 15.5608 2.05039H9.00078L7.36078 0.400391Z" fill="#FE7D00"/>
<path d="M13.7258 10.5297L14.9984 11.8002M14.5964 8.29395C14.5964 9.11446 14.2699 9.90137 13.6887 10.4816C13.1076 11.0617 12.3193 11.3877 11.4974 11.3877C10.6755 11.3877 9.88728 11.0617 9.30611 10.4816C8.72494 9.90137 8.39844 9.11446 8.39844 8.29395C8.39844 7.47343 8.72494 6.68652 9.30611 6.10633C9.88728 5.52614 10.6755 5.2002 11.4974 5.2002C12.3193 5.2002 13.1076 5.52614 13.6887 6.10633C14.2699 6.68652 14.5964 7.47343 14.5964 8.29395Z" stroke="white" stroke-linecap="round" stroke-linejoin="round"/>
</svg>
