<svg width="20" height="20" viewBox="0 0 20 20" fill="none" xmlns="http://www.w3.org/2000/svg">
<path d="M10.002 19.5177C15.2585 19.5177 19.5197 15.2565 19.5197 10.0001C19.5197 4.74362 15.2585 0.482422 10.002 0.482422C4.74557 0.482422 0.484375 4.74362 0.484375 10.0001C0.484375 15.2565 4.74557 19.5177 10.002 19.5177Z" fill="white"/>
<path d="M10.0017 18.4232C14.6538 18.4232 18.4252 14.6519 18.4252 9.9997C18.4252 5.34751 14.6538 1.57617 10.0017 1.57617C5.34947 1.57617 1.57812 5.34751 1.57812 9.9997C1.57812 14.6519 5.34947 18.4232 10.0017 18.4232Z" fill="white"/>
<path d="M6.67629 14.1023C5.46975 15.3088 5.53797 17.3449 7.14114 17.9292C8.03846 18.2562 9.00644 18.4352 10.0139 18.4352V18.4352C12.1652 18.4352 12.6076 15.8525 11.0865 14.3313L10.8574 14.1023C9.70285 12.9477 7.83088 12.9477 6.67629 14.1023V14.1023Z" fill="#FFEAD5"/>
<path d="M14.3435 13.1998V13.1998C13.9731 12.8294 13.9731 12.2289 14.3435 11.8586V11.8586L15.3376 10.8645C16.3479 9.85412 16.3479 8.21601 15.3376 7.20565L14.3996 6.26766C13.9073 5.77534 13.9073 4.97714 14.3996 4.48482L14.9652 3.91919C15.1871 3.69735 15.1707 3.33143 14.9159 3.14832C14.463 2.82278 13.9779 2.54166 13.4671 2.31153C13.318 2.24437 13.2018 2.42283 13.3174 2.53845V2.53845C13.3773 2.59833 13.3774 2.69539 13.3176 2.75534L10.6366 5.44279C9.49351 6.58867 7.638 6.59116 6.49181 5.44836L5.32741 4.28741C4.9104 3.87164 4.23743 3.83926 3.83702 4.27104V4.27104C3.45463 4.68337 3.50823 5.31747 3.90587 5.7151L5.02679 6.83603C6.18931 7.99854 6.18931 9.88335 5.02679 11.0459L2.95412 13.1185C2.63058 13.4421 2.54076 13.9385 2.77636 14.3307V14.3307C3.10496 14.8779 3.85357 14.9143 4.30546 14.4636L7.767 11.0115V11.0115C8.31929 10.4592 9.21472 10.4592 9.767 11.0115V11.0115L14.7129 15.9574C15.0512 16.2958 15.5925 16.3294 15.9348 15.9951V15.9951C16.2819 15.6561 16.2557 15.1016 15.9117 14.7595L14.3435 13.1998Z" fill="#FFEAD5"/>
<path d="M18.4016 10.2453C18.3966 10.252 18.3868 10.2527 18.3809 10.2468L18.096 9.9619C17.9541 9.82006 17.7242 9.82006 17.5823 9.9619L15.9386 11.6056C15.4289 12.1154 15.4289 12.9418 15.9386 13.4516L16.1448 13.6577C16.6242 14.1371 17.4272 14.0536 17.704 13.4348C18.1402 12.4597 18.3959 11.3832 18.4263 10.2539C18.4267 10.2405 18.4097 10.2346 18.4016 10.2453V10.2453Z" fill="#FFEAD5"/>
<path d="M15 9.17059C15 6.4203 12.7556 4.2002 10 4.2002C7.24444 4.2002 5 6.43135 5 9.17059C5 10.5292 5.54444 11.7552 6.42222 12.6499C6.42222 12.6499 6.43333 12.6609 6.44444 12.672C6.45556 12.683 6.46667 12.694 6.48889 12.7161C6.9 13.1248 9.3 15.5106 9.52222 15.7315C9.62224 15.8309 9.87221 16.1678 10.1444 15.8972C10.4222 15.61 13.0111 13.2132 13.3444 12.8818C14.3667 11.9651 15 10.6396 15 9.17059Z" fill="#FE7D00"/>
<path d="M10 11C11.1046 11 12 10.1046 12 9C12 7.89543 11.1046 7 10 7C8.89543 7 8 7.89543 8 9C8 10.1046 8.89543 11 10 11Z" fill="white"/>
</svg>
