<svg width="16" height="12" viewBox="0 0 16 12" fill="none" xmlns="http://www.w3.org/2000/svg">
<path d="M15.2769 0.763285C15.4174 0.903911 15.4963 1.09453 15.4963 1.29329C15.4963 1.49204 15.4174 1.68266 15.2769 1.82329L5.85992 11.2403C5.71929 11.3807 5.52867 11.4596 5.32992 11.4596C5.13117 11.4596 4.94054 11.3807 4.79992 11.2403L0.716917 7.15728C0.584437 7.01511 0.512314 6.82706 0.515742 6.63276C0.51917 6.43846 0.597882 6.25308 0.735295 6.11566C0.872708 5.97825 1.05809 5.89954 1.25239 5.89611C1.4467 5.89268 1.63474 5.96481 1.77692 6.09729L5.32992 9.64929L14.2169 0.763285C14.3575 0.622835 14.5482 0.543945 14.7469 0.543945C14.9457 0.543945 15.1363 0.622835 15.2769 0.763285Z" fill="#478ED0"/>
</svg>
