<svg width="40" height="34" viewBox="0 0 40 34" fill="none" xmlns="http://www.w3.org/2000/svg">
<path d="M39.8281 0.320629L38.9309 6.84601C36.9525 6.70568 35.4112 7.07989 34.3069 7.96865C33.2027 8.85741 32.4665 10.097 32.0985 11.6874C31.7304 13.2778 31.6614 15.0787 31.8914 17.0901L39.8281 17.0901L39.8281 34L24.5758 34L24.5758 15.6868C24.5758 10.1672 25.8871 6.00402 28.5097 3.19741C31.0862 0.390796 34.8591 -0.568131 39.8281 0.320629Z" fill="#FE7D00"/>
<path d="M15.4138 0.320627L14.5166 6.84601C12.5382 6.70567 10.9968 7.07989 9.89258 7.96865C8.78834 8.85741 8.05218 10.097 7.6841 11.6874C7.31602 13.2778 7.24701 15.0787 7.47706 17.0901L15.4138 17.0901L15.4138 34L0.161469 34L0.16147 15.6868C0.161471 10.1672 1.47275 6.00402 4.09532 3.19741C6.67188 0.390794 10.4447 -0.568133 15.4138 0.320627Z" fill="#FE7D00"/>
</svg>
