<svg width="40" height="34" viewBox="0 0 40 34" fill="none" xmlns="http://www.w3.org/2000/svg">
<path d="M0.171875 33.6794L1.06907 27.154C3.0475 27.2943 4.58883 26.9201 5.69307 26.0313C6.79731 25.1426 7.53347 23.903 7.90155 22.3126C8.26963 20.7222 8.33864 18.9213 8.10859 16.9099H0.171875V0H15.4242V18.3132C15.4242 23.8328 14.1129 27.996 11.4903 30.8026C8.91377 33.6092 5.14095 34.5681 0.171875 33.6794Z" fill="#FE7D00"/>
<path d="M24.5862 33.6794L25.4834 27.154C27.4619 27.2943 29.0032 26.9201 30.1074 26.0313C31.2117 25.1426 31.9478 23.903 32.3159 22.3126C32.684 20.7222 32.753 18.9213 32.5229 16.9099H24.5862V0H39.8385V18.3132C39.8385 23.8328 38.5272 27.996 35.9047 30.8026C33.3281 33.6092 29.5553 34.5681 24.5862 33.6794Z" fill="#FE7D00"/>
</svg>
