<svg width="32" height="32" xmlns="http://www.w3.org/2000/svg" fill="none">

 <g>
  <title>Layer 1</title>
  <path id="svg_1" stroke-linecap="round" stroke-width="2" stroke="white" d="m16,31c-1.9698,0 -3.9204,-0.388 -5.7403,-1.1418c-1.8198,-0.7538 -3.4734,-1.8587 -4.8663,-3.2516c-1.39288,-1.3929 -2.49777,-3.0465 -3.25159,-4.8663c-0.75382,-1.8199 -1.14181,-3.7705 -1.14181,-5.7403c0,-1.9698 0.38799,-3.9204 1.14181,-5.7403c0.75382,-1.8198 1.85871,-3.4734 3.25159,-4.8663c1.3929,-1.39288 3.0465,-2.49777 4.8664,-3.25159c1.8198,-0.75382 3.7704,-1.14181 5.7402,-1.14181c1.9698,0 3.9204,0.38799 5.7403,1.14181c1.8198,0.75382 3.4734,1.85871 4.8663,3.25159c1.3929,1.3929 2.4978,3.0465 3.2516,4.8664c0.7538,1.8198 1.1418,3.7704 1.1418,5.7402c0,1.9698 -0.388,3.9204 -1.1418,5.7403c-0.7538,1.8198 -1.8587,3.4734 -3.2516,4.8663c-1.3929,1.3929 -3.0465,2.4978 -4.8664,3.2516c-1.8198,0.7538 -3.7704,1.1418 -5.7402,1.1418l0,0z"/>
  <path id="svg_2" stroke-linecap="round" stroke-width="2" stroke="white" d="m11,11l10,10"/>
  <path id="svg_3" stroke-linecap="round" stroke-width="2" stroke="white" d="m21,11l-10,10"/>
 </g>
</svg>