<svg width="12" height="10" viewBox="0 0 12 10" fill="none" xmlns="http://www.w3.org/2000/svg">
<path d="M0 3.5V8.3C0 8.61826 0.126428 8.92348 0.351472 9.14853C0.576516 9.37357 0.88174 9.5 1.2 9.5H10.8C11.1183 9.5 11.4235 9.37357 11.6485 9.14853C11.8736 8.92348 12 8.61826 12 8.3V3.5L6 5.9L0 3.5Z" fill="#478ED0"/>
<path d="M1.2 0.5C0.88174 0.5 0.576516 0.605357 0.351472 0.792893C0.126428 0.98043 0 1.23478 0 1.5L0 2.5L6 4.5L12 2.5V1.5C12 1.23478 11.8736 0.98043 11.6485 0.792893C11.4235 0.605357 11.1183 0.5 10.8 0.5H1.2Z" fill="#478ED0"/>
</svg>
