<svg width="21" height="18" viewBox="0 0 21 18" fill="none" xmlns="http://www.w3.org/2000/svg">
<path fill-rule="evenodd" clip-rule="evenodd" d="M9.52934 0.970317C9.66979 1.11094 9.74868 1.30157 9.74868 1.50032C9.74868 1.69907 9.66979 1.88969 9.52934 2.03032L3.30934 8.25032H19.4993C19.6983 8.25032 19.889 8.32933 20.0297 8.46999C20.1703 8.61064 20.2493 8.8014 20.2493 9.00032C20.2493 9.19923 20.1703 9.38999 20.0297 9.53065C19.889 9.6713 19.6983 9.75032 19.4993 9.75032H3.30934L9.52934 15.9703C9.60303 16.039 9.66213 16.1218 9.70312 16.2138C9.74411 16.3058 9.76616 16.4051 9.76793 16.5058C9.76971 16.6065 9.75118 16.7065 9.71346 16.7999C9.67574 16.8933 9.6196 16.9781 9.54838 17.0494C9.47716 17.1206 9.39233 17.1767 9.29894 17.2144C9.20555 17.2522 9.10552 17.2707 9.00482 17.2689C8.90412 17.2671 8.8048 17.2451 8.7128 17.2041C8.6208 17.1631 8.538 17.104 8.46934 17.0303L0.96934 9.53032C0.82889 9.38969 0.75 9.19907 0.75 9.00032C0.75 8.80157 0.82889 8.61094 0.96934 8.47032L8.46934 0.970317C8.60997 0.829866 8.80059 0.750977 8.99934 0.750977C9.19809 0.750977 9.38872 0.829866 9.52934 0.970317Z" fill="white"/>
</svg>
