<svg width="15" height="14" viewBox="0 0 15 14" fill="none" xmlns="http://www.w3.org/2000/svg">
<path d="M7.66407 0C11.5302 0 14.6641 3.1339 14.6641 7C14.6641 10.8661 11.5302 14 7.66407 14C6.42701 14.002 5.21173 13.6746 4.14307 13.0515L1.5106 13.7698C1.13745 13.8716 0.794959 13.5293 0.896526 13.1561L1.61327 10.5224C0.989637 9.4534 0.662006 8.23759 0.664072 7C0.664072 3.1339 3.79797 0 7.66407 0ZM5.27847 3.71L5.13847 3.7156C5.04783 3.72112 4.95926 3.74493 4.87807 3.7856C4.80213 3.8286 4.73282 3.88235 4.67227 3.9452C4.58827 4.0243 4.54067 4.0929 4.48957 4.1594C4.23065 4.49603 4.09125 4.90932 4.09337 5.334C4.09477 5.677 4.18437 6.0109 4.32437 6.3231C4.61067 6.9545 5.08177 7.62299 5.70337 8.24249C5.85317 8.39159 6.00017 8.54139 6.15837 8.68069C6.93074 9.36072 7.85114 9.85112 8.84637 10.1129L9.24397 10.1738C9.37347 10.1808 9.50297 10.171 9.63317 10.1647C9.83703 10.1542 10.0361 10.099 10.2163 10.003C10.3079 9.95578 10.3974 9.90439 10.4844 9.84899C10.4844 9.84899 10.5145 9.82939 10.5719 9.78599C10.6664 9.71599 10.7245 9.66629 10.8029 9.58439C10.861 9.52419 10.9114 9.45349 10.9499 9.37299C11.0045 9.25889 11.0591 9.04119 11.0815 8.85989C11.0983 8.72129 11.0934 8.64569 11.0913 8.59879C11.0885 8.52389 11.0262 8.44619 10.9583 8.41329L10.5509 8.23059C10.5509 8.23059 9.94187 7.96529 9.56947 7.79589C9.5305 7.77888 9.48874 7.76915 9.44627 7.76719C9.39837 7.76228 9.34998 7.76767 9.30434 7.783C9.2587 7.79833 9.21687 7.82325 9.18167 7.85609C9.17817 7.85469 9.13127 7.89459 8.62517 8.50779C8.59612 8.54683 8.55611 8.57633 8.51023 8.59253C8.46435 8.60874 8.41469 8.61092 8.36757 8.59879C8.32197 8.58657 8.27729 8.57113 8.23387 8.55259C8.14707 8.51619 8.11697 8.50219 8.05747 8.47699C7.65571 8.30168 7.28375 8.0648 6.95497 7.7749C6.86677 7.6979 6.78487 7.61389 6.70087 7.53269C6.42548 7.26896 6.18547 6.9706 5.98687 6.6451L5.94557 6.5786C5.9159 6.53391 5.89192 6.48571 5.87417 6.4351C5.84757 6.3322 5.91687 6.2496 5.91687 6.2496C5.91687 6.2496 6.08697 6.0634 6.16607 5.9626C6.24307 5.8646 6.30817 5.7694 6.35017 5.7015C6.43277 5.5685 6.45867 5.432 6.41527 5.3263C6.21927 4.8475 6.01627 4.3708 5.80767 3.8976C5.76637 3.8038 5.64387 3.7366 5.53257 3.7233C5.49477 3.7191 5.45697 3.7149 5.41917 3.7121C5.32516 3.70743 5.23096 3.70836 5.13707 3.7149L5.27777 3.7093L5.27847 3.71Z" fill="#08A652"/>
</svg>
