<svg width="188" height="40" viewBox="0 0 188 40" fill="none" xmlns="http://www.w3.org/2000/svg">
<path d="M4.02441 39.7635L3.97315 39.7229L3.89003 39.6557L3.85263 39.6221L3.80414 39.5493L3.78613 39.5101L3.78336 39.4038L3.79028 39.3436L3.84431 39.1784L3.87895 39.0847L4.00086 38.8314L4.03549 38.7614L4.11861 38.6004L4.16294 38.5164L4.26684 38.3233L4.32225 38.2239L4.44693 37.9972L4.51205 37.8796L4.66028 37.6151L4.73786 37.478L4.90964 37.1715L5.1964 36.6634L6.50555 34.3359L8.13332 35.1533L8.37437 35.2736L8.89525 35.5115L9.15847 35.6291L9.69321 35.8474L9.95919 35.951L10.4662 36.133L11.1464 36.3429L11.3057 36.3863L11.5856 36.4577L11.7213 36.4913L11.9721 36.5458L12.2215 36.5962L12.7368 36.6578L12.8753 36.6704L13.1856 36.6886L13.3491 36.697L13.7273 36.7068L13.9268 36.711L14.3978 36.7152L15.2332 36.7194H15.5449L16.0727 36.718L16.322 36.7166L16.7446 36.711L16.9441 36.7068L17.2835 36.6942L17.4456 36.6858L17.7295 36.6648L18.0025 36.6396L18.4818 36.5528L18.6051 36.5276L18.8641 36.4647L19.2978 36.3499L19.6385 36.2561L20.3091 36.0392L20.6429 35.9258L21.294 35.6669L21.6182 35.5339L22.2499 35.2372L22.563 35.0847L23.1739 34.7502L23.4759 34.5794L24.0633 34.2099L24.3542 34.021L24.9181 33.6165L25.1965 33.4108L25.734 32.9727L26 32.7502L26.5098 32.2813L26.762 32.042L27.2441 31.5423L27.4809 31.289L27.9326 30.7614L28.1542 30.4927L28.574 29.937L28.7804 29.6557L29.1669 29.0735L29.3567 28.7796L29.7086 28.1721L29.8803 27.8656L30.1962 27.2344L30.35 26.9167L30.6284 26.2631L31.0039 25.261L31.1479 24.8342L31.3807 23.951L31.4873 23.5059L31.6439 22.5962L31.7131 22.1386L31.7935 21.212L31.824 20.7474L31.8295 19.8125L31.8226 19.3464L31.7519 18.4171L31.7076 17.9538L31.5621 17.0371L31.479 16.5822L31.2588 15.6921L30.8432 14.3961L30.6617 13.9104L30.2572 12.9895L30.048 12.5374L29.5853 11.6781L29.3456 11.2554L28.8192 10.4549L28.5477 10.0602L27.9547 9.31141L27.6486 8.94192L26.9822 8.24073L26.64 7.89503L25.8975 7.23443L25.5165 6.90833L24.695 6.28552L23.3651 5.38699L23.318 5.35619L23.2834 5.25683L23.2806 5.22463L23.2958 5.14206L23.3083 5.09587L23.3526 4.97691L23.3803 4.91253L23.4579 4.75018L23.5023 4.6634L23.6186 4.44787L23.681 4.3345L23.8361 4.05878L24.1201 3.56753L24.3889 3.10567L24.9513 2.10357L25.0829 1.86564L25.3669 1.3436L25.4611 1.16725L25.5775 0.943318L25.6426 0.813158L25.7714 0.576629L25.8338 0.463263L25.9446 0.275717L25.9959 0.190343L26.0776 0.0741776L26.1524 0H26.2189L26.4406 0.0489862L26.5597 0.0797771L26.8188 0.165152L26.9434 0.208538L27.1457 0.296712L27.1886 0.317705L27.2482 0.354094L27.2856 0.396081V0.417076L27.2344 0.548635L27.2011 0.628412L27.0944 0.857943L27.0349 0.982506L26.8852 1.28341L26.8063 1.44157L26.6276 1.78866L26.4433 2.14416L26.0457 2.88174L25.9474 3.05948L25.7617 3.39118L25.5096 3.82365L24.9582 4.74038L26.2161 5.71309L26.7287 6.15256L26.9836 6.37789L27.4906 6.86494L27.7428 7.11267L28.2346 7.63751L28.4784 7.90343L28.948 8.45626L29.178 8.73338L29.6157 9.30161L29.8291 9.58712L30.2253 10.161L30.4179 10.4479L30.7628 11.0161L31.2158 11.8516L31.3765 12.1749L31.6716 12.8719L31.8143 13.2274L32.0719 13.9762L32.1952 14.3569L32.4127 15.1407L32.5166 15.5367L32.6898 16.3415L32.7702 16.7446L32.8976 17.5521L32.9544 17.9552L33.0306 18.7502L33.0625 19.1435L33.0846 19.909L33.0542 21.0077L33.0278 21.401L32.9419 22.1721L32.8948 22.557L32.7688 23.3086L32.7023 23.6823L32.536 24.4143L32.4488 24.7768L32.2437 25.4878L32.1357 25.8405L31.8905 26.529L31.7644 26.8705L31.4804 27.5367L31.3336 27.867L31.0122 28.5109L30.8459 28.83L30.4857 29.45L30.3001 29.7565L29.9025 30.3513L29.6989 30.6466L29.2625 31.2176L29.0394 31.5004L28.567 32.0448L28.326 32.3149L27.8162 32.8342L27.5571 33.0903L27.0113 33.5829L26.7329 33.8265L26.151 34.2925L25.8559 34.522L25.2367 34.9601L24.2711 35.5843L23.9968 35.7509L23.433 36.0588L23.149 36.2099L22.5672 36.4843L22.2748 36.6172L21.6764 36.8579L21.3758 36.9741L20.7634 37.1813L20.147 37.38L18.8794 37.6753L18.2407 37.8055L16.9385 37.9622L16.2833 38.0238L14.9616 38.042L14.3008 38.0322L12.9737 37.9104L12.3115 37.8321L10.9954 37.5675L9.05041 37.0091L8.75118 36.9055L8.13055 36.6662L7.98647 36.6088L7.73573 36.5025L7.45173 36.3723L6.94331 36.1134L6.65516 36.7054L6.58312 36.8509L6.40857 37.1813L6.31714 37.3492L6.11488 37.7075L5.90708 38.0672L5.46793 38.7726L5.35987 38.9405L5.159 39.2442L5.06064 39.3884L4.89024 39.6263L4.80989 39.7355L4.68244 39.8866L4.55915 39.9902L4.50373 40L4.31948 39.937L4.22251 39.8964M77.0012 39.0511L76.889 39.0175L76.6687 38.9111L76.5593 38.8537L76.346 38.704L76.2407 38.6242L76.0398 38.4367L75.9414 38.3387L75.7586 38.1204L75.5812 37.895L75.3 37.3772L75.2377 37.2456L75.1379 36.9713L75.0299 36.5528L75.0008 36.3961L75.0077 36.0182L75.0202 35.8237L75.1019 35.408L75.1518 35.1994L75.2959 34.795L75.5716 34.2561L75.6935 34.0686L75.9872 33.7691L76.1437 33.6319L76.5122 33.4304L76.7061 33.3422L77.1605 33.233L77.9488 33.1701L78.0929 33.1715L78.3492 33.1812L78.4724 33.1882L78.6886 33.2134L78.7911 33.2274L78.9698 33.2666L79.0543 33.289L79.197 33.345L79.2635 33.3758L79.3729 33.4486L79.4228 33.4864L79.5018 33.5787L79.6278 33.9244L79.6389 34.0196L79.6431 34.1456L79.6403 34.2001L79.6015 34.2547L79.5752 34.2743L79.4699 34.2757L79.2122 34.2337L79.0515 34.2015L78.7689 34.1512L78.6345 34.1288L78.3976 34.0938L78.284 34.0798L78.0846 34.0616L77.9904 34.0546L77.8227 34.0532L77.662 34.056L77.4057 34.1134L77.0608 34.2743L76.8904 34.3821L76.6272 34.6158L76.5067 34.739L76.3363 35.0147L76.2615 35.1603L76.1742 35.5018L76.1229 36.1078V36.2589L76.1506 36.5388L76.1686 36.6732L76.2324 36.9195L76.2684 37.0385L76.3667 37.2526L76.4208 37.3548L76.5565 37.5353L76.6286 37.6207L76.8003 37.7691L76.889 37.8376L77.0968 37.9524L77.2049 38.0042L77.4459 38.0854L77.8504 38.1694L78.0416 38.1945L78.4115 38.1652L78.9698 37.993L79.0986 37.9342L79.2801 37.86L79.3605 37.8293L79.4754 37.8125L79.5281 37.8111L79.614 37.8502L79.7539 37.9706L79.8065 38.0238L79.8703 38.1064L79.8952 38.1456L79.898 38.2197L79.891 38.2589L79.8287 38.3555L79.6541 38.5542L79.589 38.6242L79.4297 38.7474L79.3452 38.8076L79.1513 38.9083L78.9518 39.0035L78.4835 39.1197L78.2439 39.1645L77.7382 39.1729L77.4861 39.1631M85.4546 39.0021L85.2468 38.9237L84.8907 38.739L84.7217 38.6424L84.4322 38.4101L84.295 38.2869L84.0595 37.9958L83.7506 37.4794L83.6772 37.331L83.565 37.0343L83.5151 36.8859L83.45 36.5906L83.4236 36.4437L83.4043 36.1512L83.4001 36.007L83.4264 35.7201L83.4458 35.5773L83.5178 35.2974L83.5594 35.1589L83.6772 34.8873L83.7409 34.7544L83.9044 34.4941L84.1981 34.1176L84.3601 33.9356L84.6732 33.6627L84.8312 33.5395L85.1692 33.3702L85.3437 33.2974L85.7469 33.2162L86.47 33.1715L86.718 33.1729L87.1724 33.2316L87.394 33.2694L87.793 33.3996L87.9856 33.4738L88.3236 33.6725L88.4857 33.7803L88.7614 34.0434L88.8902 34.1819L89.0994 34.5067L89.1936 34.6746L89.3307 35.0553L89.3903 35.2526L89.454 35.6851L89.4609 36.3905L89.4415 36.6438L89.3293 37.1071L89.2615 37.331L89.0481 37.7327L88.9304 37.9258L88.6187 38.2645L88.0424 38.6984L87.8553 38.809L87.4231 38.9713L87.2015 39.0413L86.7374 39.1183L86.5046 39.1449L86.0558 39.1309L85.8383 39.1127M87.412 37.951L87.5783 37.8614L87.847 37.6165L87.9717 37.485L88.156 37.1728L88.2377 37.0105L88.3374 36.6564L88.3762 36.4759L88.3915 36.105L88.3887 35.9188L88.3194 35.5549L88.2737 35.3772L88.1213 35.0455L88.0354 34.8859L87.7999 34.613L87.3525 34.2939L87.1807 34.2099L86.8911 34.1008L86.7526 34.056L86.5005 34.0238L86.3744 34.0168L86.1209 34.0574L85.697 34.2015L85.564 34.2575L85.3299 34.4059L85.219 34.4857L85.0293 34.6774L84.9406 34.7782L84.7965 35.0035L84.7314 35.1197L84.6372 35.373L84.5956 35.5018L84.5527 35.7733L84.5375 35.9104L84.5485 36.1917L84.561 36.3331L84.6289 36.6186L84.7951 37.0399L84.8644 37.1742L85.0237 37.4108L85.1068 37.5227L85.2938 37.7117L85.3894 37.7999L85.5986 37.9412L85.7053 38.007L85.9325 38.0994L86.0475 38.1386L86.2858 38.1805L86.4077 38.1959L86.6556 38.1848L86.7803 38.1736L87.0325 38.1092L87.1585 38.07M104.375 39.0385L104.255 39.0021L104.01 38.8775L103.889 38.809L103.676 38.6424L103.578 38.557L103.435 38.3835L103.341 38.1484V38.0392L103.407 37.8894L103.451 37.8251L103.605 37.7635L103.693 37.7453L103.929 37.7761L104.374 37.9244L104.576 38.0126L104.909 38.1232L105.065 38.168L105.32 38.1931L105.439 38.1945L105.635 38.1358L105.883 37.951L105.941 37.8866L106.024 37.7635L106.06 37.7033L106.097 37.5885L106.111 37.5311L106.1 37.4192L106.089 37.3632L106.028 37.2498L105.991 37.1938L105.877 37.0777L105.813 37.0189L105.644 36.8957L105.552 36.8328L105.324 36.6984L104.917 36.4801L104.73 36.3863L104.41 36.1806L104.258 36.0742L104.008 35.8489L103.892 35.7355L103.713 35.4962L103.634 35.3758L103.53 35.1267L103.487 35.0021L103.46 34.7502L103.456 34.6242L103.504 34.3723L103.539 34.2477L103.668 34.0014L103.95 33.6445L104.06 33.5339L104.231 33.3842L104.315 33.3184L104.484 33.2414L104.575 33.2092L104.809 33.1812L104.874 33.1756L105.029 33.1715L105.305 33.1687H105.559L105.973 33.2176L106.164 33.2498L106.448 33.3618L106.51 33.394L106.609 33.4682L106.654 33.5074L106.718 33.5969L106.746 33.6431L106.775 33.7467L106.778 33.9174L106.767 33.9972L106.696 34.1036L106.65 34.1484L106.481 34.1875L106.431 34.1931L106.305 34.1917L106.237 34.1903L106.074 34.175L105.987 34.1652L105.78 34.1344L105.416 34.0728L105.319 34.056L105.164 34.042L105.092 34.0406L104.974 34.0616L104.917 34.077L104.817 34.1372L104.666 34.2771L104.615 34.3345L104.546 34.4479L104.517 34.5039L104.493 34.6172L104.486 34.6732L104.508 34.788L104.525 34.8454L104.594 34.9629L104.635 35.0231L104.752 35.1463L104.817 35.2078L104.984 35.3366L105.074 35.4024L105.291 35.5395L105.676 35.7565L105.823 35.8348L106.074 35.9748L106.192 36.042L106.393 36.1666L106.487 36.2267L106.642 36.3429L106.714 36.4003L106.83 36.5122L106.94 36.6256L107.067 36.8733L107.177 37.3282L107.192 37.4416L107.197 37.6221L107.196 37.7075L107.161 37.8572L107.139 37.93L107.053 38.0798L106.859 38.3373L106.701 38.529L106.345 38.8104L106.163 38.9349L105.759 39.0861L105.552 39.1435L105.101 39.1617L104.87 39.1533M112.969 38.9853L112.815 38.9279L112.543 38.7838L112.415 38.7054L112.193 38.5136L112.088 38.4115L111.912 38.1638L111.829 38.0336L111.696 37.7243L111.633 37.5619L111.54 37.184L111.498 36.9867L111.442 36.5318L111.419 36.2953L111.396 35.7565L111.401 34.8481L111.445 33.2386L111.952 33.1966L112.458 33.1533L112.506 35.1798L112.51 35.4052L112.521 35.7859L112.527 35.965L112.539 36.2673L112.546 36.4087L112.563 36.6438L112.573 36.753L112.593 36.9335L112.606 37.0175L112.635 37.1561L112.65 37.2204L112.688 37.3282L112.844 37.6025L112.922 37.7089L113.106 37.8768L113.201 37.9524L113.412 38.0602L113.519 38.1064L113.74 38.1554L113.851 38.1722L114.073 38.1624L114.182 38.1512L114.391 38.0854L114.493 38.0462L114.677 37.9258L114.764 37.8586L114.911 37.6851L115.073 37.366L115.086 37.331L115.108 37.2288L115.119 37.1728L115.14 37.0301L115.16 36.8789L115.194 36.4829L115.209 36.2715L115.231 35.7887L115.246 35.0147L115.255 33.1519L116.294 33.2386L116.338 34.5682L116.348 34.8901L116.353 35.4598L116.352 35.7341L116.334 36.2169L116.32 36.4479L116.274 36.8537L116.248 37.0469L116.173 37.3856L116.131 37.5479L116.023 37.8307L115.965 37.9664L115.823 38.2029L115.748 38.3163L115.568 38.5179L115.253 38.7922L115.194 38.8355L115.047 38.9125L114.969 38.9489L114.793 39.0077L114.61 39.0623L114.192 39.1183L113.98 39.1365L113.551 39.1127L113.341 39.0917M153.44 38.9909L153.314 38.9433L153.081 38.8244L152.968 38.7614L152.757 38.6144L152.553 38.4591L152.219 38.077L152.064 37.8768L151.834 37.4234L151.732 37.191L151.609 36.6928L151.561 36.4423L151.552 35.9286L151.561 35.6725L151.671 35.1701L151.74 34.9237L151.973 34.4605L152.039 34.3499L152.196 34.1372L152.467 33.8419L152.606 33.7131L152.876 33.5185L153.015 33.4304L153.319 33.3114L153.479 33.2596L153.856 33.2008L154.544 33.1687H154.796L155.227 33.2148L155.429 33.2456L155.756 33.352L155.906 33.4122L156.119 33.5717L156.302 33.8712L156.327 33.972L156.305 34.112L156.281 34.1736L156.151 34.2365L156.072 34.2589L155.824 34.2491L155.755 34.2421L155.591 34.2141L155.309 34.1526L155.102 34.1022L154.69 34.0742L154.485 34.0714L154.095 34.1344L153.905 34.1764L153.565 34.3233L153.137 34.6326L153.06 34.7096L152.936 34.9041L152.879 35.0077L152.79 35.2442L152.751 35.366L152.702 35.6291L152.681 35.7635L152.667 36.0378L152.666 36.1763L152.689 36.4493L152.707 36.5836L152.768 36.8384L152.804 36.9629L152.904 37.1868L153.098 37.4696L153.2 37.5815L153.434 37.7677L153.555 37.8531L153.814 37.9874L153.946 38.0476L154.217 38.1274L154.353 38.1596L154.62 38.1862L154.752 38.1917L155.003 38.1638L155.125 38.1428L155.342 38.0588L155.446 38.0098L155.619 37.8698L155.809 37.5969L155.86 37.4808L155.896 37.3002L155.903 37.2176L155.846 37.0987L155.806 37.0455L155.651 36.9839L155.306 36.9475H155.149L154.882 36.8999L154.757 36.8677L154.563 36.7656L154.478 36.7096L154.375 36.564L154.342 36.3079L154.353 36.2491L154.408 36.1638L154.444 36.126L154.588 36.077L154.633 36.0658L154.746 36.049L154.809 36.0406L154.962 36.028L155.044 36.021L155.245 36.0112L155.604 35.9972L156.815 35.9566V37.2036L156.808 37.4542L156.802 37.5745L156.783 37.7775L156.77 37.8754L156.733 38.0406L156.711 38.119L156.651 38.2561L156.586 38.3849L156.37 38.592L156.308 38.6424L156.157 38.7404L155.886 38.8915L155.821 38.9237L155.658 38.9811L155.571 39.0077L155.37 39.0511L155.163 39.0903L154.692 39.1239L154.455 39.1337L154 39.1057L153.89 39.0959L153.693 39.0609L153.599 39.0413M93.9203 33.1687H94.3429L94.5659 33.24L94.8555 33.4136L94.8735 33.429L94.9303 33.4892L94.9621 33.5227L95.0439 33.6151L95.1311 33.7131L95.3653 33.9902L95.4899 34.1386L95.7781 34.4871L95.9249 34.6662L96.3946 35.2456L96.7035 35.6333L96.8545 35.8237L97.1316 36.1777L97.2632 36.3471L97.4793 36.6312L97.5278 36.697L97.6095 36.809L97.7051 36.9433L97.7328 36.9853L97.7785 37.0469L97.8007 37.0721L97.8353 37.0931L97.8519 37.0973L97.8769 37.0679L97.888 37.0455L97.9046 36.9517L97.9129 36.8957L97.9226 36.7264L97.9281 36.6326L97.9323 36.3765L97.9351 36.2365L97.9364 35.8838L97.9378 35.2288V33.1687H98.9076V39.0469H98.4712L98.3659 39.0203L98.3105 39.0021L98.1872 38.9307L98.1221 38.8887L97.9711 38.76L97.8893 38.6872L97.6982 38.4899L97.5957 38.3821L97.3532 38.1036L97.2244 37.9524L96.9196 37.5829L96.7589 37.3842L96.3821 36.9097L96.2823 36.7838L96.0676 36.5108L94.9594 35.0903L94.8832 39.0469H93.9203V33.1687ZM120.934 33.1687H122.043V38.0672H124.675V39.0469H120.934V33.1687ZM129.108 34.1484H127.168V33.1687H132.035L131.991 33.6235L131.948 34.0784L131.013 34.1204L130.078 34.161V39.0469H129.108V34.1484ZM135.989 38.9531L135.982 38.9475L135.97 38.8761L135.964 38.8328L135.953 38.6928L135.947 38.6144L135.936 38.4143L135.932 38.3065L135.924 38.0518L135.92 37.9188L135.911 37.6193L135.909 37.464L135.903 37.1267L135.896 36.014V33.1687H137.143V39.0469H136.465L136.209 39.0189L136.154 39.0105L136.066 38.9895L136.028 38.9783M142.13 33.1687H142.627L142.787 33.212L142.867 33.2428L143.049 33.373L143.097 33.4122L143.205 33.5143L143.262 33.5689L143.389 33.7033L143.456 33.7761L143.608 33.9482L143.871 34.2533L143.998 34.4031L144.282 34.7516L144.426 34.9307L144.719 35.3044L144.863 35.4906L145.132 35.8474L145.469 36.3093L146.148 37.282L146.149 35.9594V35.5969L146.175 34.809L146.184 34.6214L146.204 34.2883L146.238 33.8964L146.249 33.8055L146.268 33.6543L146.278 33.5843L146.296 33.4724L146.317 33.3702L146.371 33.2568L146.404 33.212L146.509 33.1854L146.757 33.1966L147.187 33.2386L147.261 39.0469H146.803L146.688 39.0259L146.63 39.0105L146.506 38.9503L146.441 38.9139L146.297 38.8048L146.221 38.7432L146.045 38.5724L145.952 38.4773L145.733 38.2351L145.618 38.1036L145.347 37.7775L145.203 37.6025L144.866 37.1813L144.277 36.4325L143.169 35.0119L143.093 39.0469H142.13V33.1687ZM12.3697 35.0609L11.8114 34.9587L10.7184 34.6522L10.1767 34.4829L9.12383 34.049L8.60433 33.8167L7.60412 33.2638L7.11232 32.9727L6.17584 32.3079L5.7159 31.9636L4.85284 31.1952L4.4317 30.7992L3.65314 29.937L3.27632 29.4948L2.59474 28.5458L1.69011 27.0329L1.55296 26.7684L1.30222 26.2267L1.18031 25.9524L0.964196 25.394L0.755011 24.8314L0.440538 23.6669L0.299233 23.0791L0.120526 21.8782L0.0484877 21.275L0.00554253 20.0574L0 19.4472L0.0928195 18.2309L0.156544 17.6249L0.38651 16.4297L0.518117 15.8363L0.883846 14.6802L0.983591 14.3933L1.2094 13.8335L1.58621 13.0091L1.66241 12.8565L1.85635 12.5122L1.96025 12.3345L2.19992 11.9524L2.44789 11.5661L3.02558 10.7558L3.32065 10.3555L3.91912 9.61792L4.06458 9.44437L4.34303 9.13366L4.72954 8.74178L4.86669 8.61162L5.17424 8.3443L5.33217 8.20854L5.67157 7.93702L6.01791 7.6641L6.76737 7.13506L7.14419 6.87754L7.89504 6.41988L8.07791 6.31211L8.43255 6.11896L8.93266 5.87124L9.37458 5.6697L10.2376 5.352L10.6726 5.20504L11.569 4.9881L11.7975 4.94052L12.2727 4.85934L12.5138 4.82156L13.018 4.76277L13.2743 4.73478L13.816 4.69419L14.679 4.6536L15.0669 4.64101L15.7832 4.63961L16.1323 4.64241L16.7848 4.6718L17.1034 4.68999L17.706 4.75437L18.0011 4.79076L18.5677 4.89293L18.8489 4.94892L19.3947 5.09167L19.6676 5.16865L20.2079 5.3548L20.4794 5.45416L21.0308 5.68789L21.8828 6.09377L22.2042 6.25613L22.8248 6.61022L23.131 6.79076L23.7198 7.17705L24.0093 7.37439L24.5648 7.79426L24.8391 8.007L25.36 8.45766L25.6163 8.6858L26.1025 9.16585L26.3408 9.40938L26.791 9.91743L27.0113 10.175L27.4241 10.7096L27.6264 10.9797L28.0018 11.5395L28.1861 11.8223L28.5227 12.4059L28.6862 12.7012L28.984 13.3072L29.1267 13.6137L29.3844 14.2407L29.5077 14.557L29.7238 15.2036L29.8263 15.5297L29.9995 16.1945L30.0798 16.529L30.2101 17.2106L30.2696 17.5535L30.3555 18.2505L30.4345 19.3128L30.4566 19.8754L30.4192 20.9755L30.3874 21.5213L30.2392 22.5878L30.1505 23.1169L29.8928 24.1484L29.7515 24.6578L29.3844 25.6501L29.1877 26.1414L28.7139 27.0917L28.4631 27.5619L27.8813 28.4703L27.5779 28.9181L26.8908 29.7803L25.7423 31.0189L25.4694 31.2862L24.9014 31.7831L24.6133 32.0252L24.0162 32.4731L23.7142 32.6914L23.0867 33.0889L22.7694 33.282L22.1128 33.6291L21.7803 33.7971L21.0918 34.0966L20.744 34.2393L20.0264 34.4899L19.6635 34.6074L18.914 34.809L17.7545 35.0539L17.5744 35.0861L17.1643 35.1379L16.9538 35.1617L16.4966 35.198L16.0325 35.2302L15.0351 35.247L14.5391 35.2484L13.5874 35.2022L13.3588 35.1868L12.9363 35.1435L12.7326 35.1197M18.213 33.7327L18.7062 33.6347L19.6829 33.3352L20.1677 33.1701L21.1167 32.7432L21.5863 32.5137L22.4951 31.9706L22.9426 31.6837L23.7973 31.0329L24.2171 30.6956L25.0053 29.9482L25.3905 29.5633L26.0998 28.7306L26.4433 28.3051L27.0612 27.3968L27.8688 25.9608L27.97 25.7537L28.1598 25.3072L28.2526 25.0791L28.423 24.599L28.5878 24.112L28.851 23.0791L28.9702 22.5598L29.1267 21.5185L29.1586 21.261L29.2001 20.7572L29.2251 20.0294V19.895L29.2112 19.5871L29.2015 19.4262L29.1711 19.0763L29.1378 18.718L29.0311 17.9384L28.9716 17.5479L28.8289 16.7922L28.7915 16.6102L28.7125 16.2715L28.592 15.8139L28.5089 15.5325L28.3149 14.9783L28.2124 14.704L27.9824 14.1638L27.8619 13.895L27.5959 13.3702L27.4588 13.1099L27.1582 12.6018L27.0044 12.3513L26.6733 11.8614L26.5043 11.6193L26.1441 11.1519L25.7756 10.6886L24.9596 9.83205L24.5385 9.41638L23.6269 8.6662L23.3942 8.48705L22.9121 8.14836L22.6683 7.98321L22.1682 7.6767L21.916 7.52694L21.3979 7.25402L21.1375 7.12106L20.6041 6.88174L20.3368 6.76837L19.7909 6.56543L18.9597 6.30651L18.648 6.22114L18.026 6.08258L17.7157 6.0182L17.0951 5.92163L16.7861 5.87684L16.1683 5.82086L15.8607 5.79846L15.2484 5.78307L14.9423 5.78027L14.3355 5.80546L14.0335 5.82365L13.4336 5.88804L13.1344 5.92582L12.5428 6.03079L12.2492 6.08817L11.6673 6.23373L11.3764 6.31071L10.8056 6.49405L10.5216 6.59062L9.96335 6.81316L9.6849 6.92932L9.13907 7.18965L8.86754 7.3254L8.33696 7.62491L8.07375 7.77887L7.5584 8.11617L7.30212 8.28831L6.80478 8.6634L6.55819 8.85514L6.07886 9.26662L5.38204 9.92442L5.17701 10.1302L4.77387 10.5836L4.57577 10.816L4.18926 11.3156L3.99808 11.5689L3.63374 12.1022L3.45642 12.3723L3.11978 12.9293L2.95631 13.2106L2.65431 13.7817L2.50885 14.0672L2.2484 14.641L2.12372 14.9279L1.909 15.4948L1.64717 16.3247L1.59591 16.5136L1.50863 16.9573L1.46707 17.1882L1.39781 17.7005L1.36733 17.9622L1.31884 18.5178L1.29806 18.7992L1.27174 19.3744L1.26204 19.6613L1.25789 20.2323L1.25927 20.515L1.27867 21.0595L1.29114 21.3254L1.33408 21.8181L1.4269 22.4717L1.49894 22.8467L1.6915 23.5969L1.79678 23.9706L2.05307 24.7096L2.18883 25.0777L2.50192 25.7971L2.66539 26.154L3.0325 26.8439L3.22091 27.1854L3.63513 27.8377L3.84708 28.1582L4.30147 28.7614L4.53421 29.0567L5.02601 29.6025L5.79764 30.3457L6.2645 30.7516L7.2093 31.4612L7.68308 31.7999L8.64866 32.3751L9.13353 32.6466L10.1213 33.0903L10.6186 33.296L11.6355 33.6067L12.1466 33.7467L13.1953 33.9286L13.7232 34.0028L14.8079 34.056L15.3537 34.0658L16.4786 33.9902L17.0452 33.9356M164.85 12.5696L167.655 12.6242L167.968 12.6312L168.499 12.6424L168.749 12.6494L169.172 12.6634L169.371 12.6704L169.705 12.6886L169.862 12.6984L170.125 12.7222L170.25 12.7348L170.46 12.7656L170.561 12.7824L170.739 12.823L171.242 12.9909L171.401 13.0539L171.685 13.1812L171.822 13.2456L172.07 13.3786L172.31 13.5129L172.699 13.8181L172.882 13.979L173.188 14.3625L173.598 15.0651L173.699 15.2736L173.84 15.5997L173.903 15.7537L173.979 16.0308L174.009 16.1707L174.037 16.4787L174.041 16.5626L174.044 16.7488L174.043 17.0679L174.039 17.3772L173.969 17.9776L173.949 18.119L173.896 18.3653L173.804 18.6606L173.739 18.8174L173.584 19.1155L173.502 19.261L173.317 19.5339L173.22 19.6669L173.005 19.9118L172.894 20.0322L172.652 20.2505L172.527 20.3555L172.26 20.5444L172.123 20.6354L171.832 20.7922L171.683 20.8677L171.369 20.9937L170.876 21.1435L170.685 21.191L170.372 21.2764L170.304 21.296L170.205 21.3268L170.131 21.3576L170.124 21.3632L170.154 21.4276L170.175 21.4668L170.255 21.5857L170.3 21.6501L170.417 21.8083L170.625 22.0714L170.735 22.2043L171.013 22.557L171.161 22.746L171.496 23.1784L171.839 23.6249L172.565 24.585L172.739 24.8174L173.062 25.2498L173.214 25.457L173.472 25.8083L173.53 25.8894L173.631 26.0294L173.677 26.0952L173.752 26.2015L173.784 26.2491L173.828 26.3163L173.854 26.3681V26.3793L173.795 26.4003L173.757 26.4101L173.633 26.4269L173.565 26.4339L173.393 26.4437L173.101 26.4507H172.348L171.53 25.436L171.394 25.2666L170.887 24.6158L170.502 24.1092L170.11 23.5899L169.297 22.4871L169.101 22.2197L168.74 21.7201L168.568 21.4794L168.276 21.0651L168.208 20.9685L168.091 20.7992L168.036 20.718L167.946 20.5836L167.906 20.5206L167.847 20.4269L167.799 20.3373L167.781 20.2883L167.773 20.2225L167.775 20.1945L167.821 20.1652L167.852 20.154L167.964 20.1568L168.223 20.1917L168.368 20.2155L168.69 20.2267L168.853 20.2281L169.204 20.1959L169.557 20.154L170.284 19.9608L170.463 19.9048L170.805 19.7719L170.973 19.7033L171.283 19.5465L171.433 19.4654L171.693 19.289L172.015 19.0077L172.103 18.9111L172.278 18.6214L172.364 18.4661L172.513 18.1064L172.583 17.923L172.681 17.5591L172.746 17.0819V16.8971L172.675 16.4899L172.631 16.2827L172.487 15.8712L172.408 15.6697L172.213 15.31L171.884 14.8859L171.688 14.6998L171.287 14.4255L171.182 14.3625L170.956 14.2603L170.838 14.2113L170.577 14.1316L170.439 14.0938L170.131 14.035L169.97 14.007L169.6 13.965L169.407 13.9454L168.965 13.9174L168.209 13.8852L166.235 13.8237V26.4507H164.85V12.5696Z" fill="#030F17"/>
<path d="M64.9688 12.5957H66.3541V26.4515H64.9688V12.5957Z" fill="#030F17"/>
<path d="M66.3541 12.5957H72.4496V13.8553H66.3541V12.5957Z" fill="#030F17"/>
<path d="M66.3541 18.8938H72.1725V20.1534H66.3541V18.8938Z" fill="#030F17"/>
<path d="M66.3541 25.1919H72.4496V26.4515H66.3541V25.1919Z" fill="#030F17"/>
<path d="M119.688 12.5957H121.073V26.4515H119.688V12.5957Z" fill="#030F17"/>
<path d="M121.073 12.5957H127.168V13.8553H121.073V12.5957Z" fill="#030F17"/>
<path d="M121.073 18.8938H126.891V20.1534H121.073V18.8938Z" fill="#030F17"/>
<path d="M121.073 25.1919H127.168V26.4515H121.073V25.1919Z" fill="#030F17"/>
<path d="M180.508 12.5957H181.893V26.4515H180.508V12.5957Z" fill="#030F17"/>
<path d="M181.893 12.5957H187.989V13.8553H181.893V12.5957Z" fill="#030F17"/>
<path d="M181.893 18.8938H187.712V20.1534H181.893V18.8938Z" fill="#030F17"/>
<path d="M181.893 25.1919H187.989V26.4515H181.893V25.1919Z" fill="#030F17"/>
<path fill-rule="evenodd" clip-rule="evenodd" d="M85.8913 26.872C89.8698 26.872 93.095 23.6137 93.095 19.5942C93.095 15.5748 89.8698 12.3164 85.8913 12.3164C81.9127 12.3164 78.6875 15.5748 78.6875 19.5942C78.6875 23.6137 81.9127 26.872 85.8913 26.872ZM85.8913 25.6124C89.1812 25.6124 91.8482 22.918 91.8482 19.5942C91.8482 16.2705 89.1812 13.576 85.8913 13.576C82.6013 13.576 79.9343 16.2705 79.9343 19.5942C79.9343 22.918 82.6013 25.6124 85.8913 25.6124Z" fill="#030F17"/>
<path d="M113.205 22.9532C112.004 25.282 109.592 26.872 106.813 26.872C102.835 26.872 99.6094 23.6137 99.6094 19.5942C99.6094 15.5748 102.835 12.3164 106.813 12.3164C109.592 12.3164 112.004 13.9065 113.205 16.2352H111.757C110.687 14.6311 108.872 13.576 106.813 13.576C103.523 13.576 100.856 16.2705 100.856 19.5942C100.856 22.918 103.523 25.6124 106.813 25.6124C108.872 25.6124 110.687 24.5573 111.757 22.9532H113.205Z" fill="#030F17"/>
<path d="M154.327 12.5957H155.712V26.4515H154.327V12.5957Z" fill="#030F17"/>
<path d="M151.141 12.5957H158.899V13.8553H151.141V12.5957Z" fill="#030F17"/>
<path d="M144.905 12.5957H143.52V24.2122L136.143 13.7287C135.644 13.0184 134.829 12.5957 133.961 12.5957V26.4515H135.346V15.045L142.713 25.3255C143.219 26.0323 144.036 26.4515 144.905 26.4515V12.5957Z" fill="#030F17"/>
<path d="M58.1678 20.1541C57.8848 23.9119 54.7771 26.872 50.985 26.872C47.0065 26.872 43.7812 23.6137 43.7812 19.5942C43.7812 15.5748 47.0065 12.3164 50.985 12.3164C53.7642 12.3164 56.1759 13.9065 57.3773 16.2352H55.9285C54.8585 14.6311 53.0437 13.576 50.985 13.576C47.6951 13.576 45.0281 16.2705 45.0281 19.5942C45.0281 22.918 47.6951 25.6124 50.985 25.6124C53.6472 25.6124 55.9015 23.8481 56.6649 21.4137H49.0455V20.1541H58.1678Z" fill="#030F17"/>
</svg>
