<?xml version="1.0" encoding="utf-8"?><svg viewBox="0 0 48 48" xmlns="http://www.w3.org/2000/svg" xmlns:xlink="http://www.w3.org/1999/xlink"><style>:root>svg{display:none}:root>svg:target{display:block}</style><svg viewBox="0 0 16 16" id="calendar" xmlns="http://www.w3.org/2000/svg"><rect x=".5" y="3" width="15" height="12.5" rx="2"/><path d="M.5 7.167h15M5.5 11.334h5M4.666.5v3.333M11.334.5v3.333" stroke-linecap="round"/></svg><svg viewBox="0 0 14 14" id="clock" xmlns="http://www.w3.org/2000/svg"><circle cx="7" cy="7" r="6"/><path d="M7 3.5v3.7l2.3 2.3" stroke-linecap="round" stroke-linejoin="round"/></svg><svg viewBox="0 0 32 32" id="close" xmlns="http://www.w3.org/2000/svg"><path stroke-linecap="round" stroke-width="2" d="M16 31A15 15 0 1116 .998 15 15 0 0116 31h0zM11 11l10 10M21 11L11 21"/></svg><svg viewBox="0 0 20 20" id="date" xmlns="http://www.w3.org/2000/svg"><rect x="2.5" y="5" width="15" height="12.5" rx="2"/><path d="M2.5 9.166h15M7.5 13.334h5M6.666 2.5v3.333M13.334 2.5v3.333" stroke-linecap="round"/></svg><svg viewBox="0 0 12 10" id="email" xmlns="http://www.w3.org/2000/svg"><path d="M0 3.5v4.8a1.2 1.2 0 001.2 1.2h9.6A1.2 1.2 0 0012 8.3V3.5L6 5.9 0 3.5z"/><path d="M1.2.5C.882.5.577.605.351.793A.924.924 0 000 1.5v1l6 2 6-2v-1a.924.924 0 00-.351-.707A1.331 1.331 0 0010.8.5H1.2z"/></svg><svg data-name="Layer 1" viewBox="0 0 48 48" id="filter" xmlns="http://www.w3.org/2000/svg"><path d="M47 12a2 2 0 00-2-2H24a2 2 0 000 4h21a2 2 0 002-2zM3 14h5.35a6 6 0 100-4H3a2 2 0 000 4zm11-4a2 2 0 11-2 2 2 2 0 012-2zM45 22h-7.35a6 6 0 100 4H45a2 2 0 000-4zm-13 4a2 2 0 112-2 2 2 0 01-2 2zM22 22H3a2 2 0 000 4h19a2 2 0 000-4zM45 34H28a2 2 0 000 4h17a2 2 0 000-4zM18 30a6 6 0 00-5.65 4H3a2 2 0 000 4h9.35A6 6 0 1018 30zm0 8a2 2 0 112-2 2 2 0 01-2 2z"/></svg><svg viewBox="0 0 22 22" id="link" xmlns="http://www.w3.org/2000/svg"><path d="M9.046 13c-1.506-1.512-1.37-4.1.303-5.78l4.848-4.865c1.673-1.68 4.25-1.816 5.757-.305 1.507 1.51 1.37 4.1-.303 5.78l-2.424 2.433" stroke-width="1.5" stroke-linecap="round"/><path d="M12.955 9c1.506 1.512 1.37 4.1-.303 5.779l-2.424 2.433-2.424 2.433c-1.673 1.68-4.25 1.816-5.757.305-1.507-1.511-1.37-4.1.303-5.78l2.424-2.433" stroke-width="1.5" stroke-linecap="round"/></svg><svg viewBox="0 0 10 14" id="location" xmlns="http://www.w3.org/2000/svg"><path d="M5 6.65c-.474 0-.928-.184-1.263-.513A1.732 1.732 0 013.214 4.9c0-.464.188-.91.523-1.237.335-.329.79-.513 1.263-.513.474 0 .928.184 1.263.513A1.732 1.732 0 016.65 5.57c-.09.212-.221.405-.387.567A1.789 1.789 0 015 6.65zM5 0a5.052 5.052 0 00-3.536 1.435A4.85 4.85 0 000 4.9C0 8.575 5 14 5 14s5-5.425 5-9.1a4.85 4.85 0 00-1.464-3.465A5.052 5.052 0 005 0z"/></svg><svg viewBox="0 0 17 14" id="next" xmlns="http://www.w3.org/2000/svg"><path d="M15.5 7l.354-.354.353.354-.353.354L15.5 7zm-15 .5a.5.5 0 010-1v1zm9-6.5l.354-.354 6 6L15.5 7l-.354.354-6-6L9.5 1zm6 6l.354.354-6 6L9.5 13l-.354-.354 6-6L15.5 7zm0 0v.5H.5v-1h15V7z"/></svg><svg viewBox="0 0 11 18" id="next-arrow" xmlns="http://www.w3.org/2000/svg"><path d="M1 1l8 8-8 8" stroke-width="2"/></svg><svg viewBox="0 0 12 12" id="phone" xmlns="http://www.w3.org/2000/svg"><path d="M10.824 8.183L9.127 7.99a1.33 1.33 0 00-1.095.381L6.802 9.6a10.054 10.054 0 01-4.401-4.403l1.235-1.236a1.33 1.33 0 00.381-1.095l-.194-1.684A1.336 1.336 0 002.494 0H1.338C.584 0-.044.628.002 1.383c.354 5.705 4.917 10.26 10.615 10.614.755.047 1.383-.58 1.383-1.335V9.505a1.324 1.324 0 00-1.176-1.323z"/></svg><svg viewBox="0 0 21 18" id="prev" xmlns="http://www.w3.org/2000/svg"><path fill-rule="evenodd" clip-rule="evenodd" d="M9.53.97a.75.75 0 010 1.06L3.31 8.25H19.5a.75.75 0 110 1.5H3.31l6.22 6.22a.75.75 0 11-1.06 1.06l-7.5-7.5a.75.75 0 010-1.06l7.5-7.5a.75.75 0 011.06 0z"/></svg><svg viewBox="0 0 11 18" id="prev-arrow" xmlns="http://www.w3.org/2000/svg"><path d="M10 1L2 9l8 8" stroke-width="2"/></svg><svg viewBox="0 0 18 18" id="search" xmlns="http://www.w3.org/2000/svg"><circle cx="6" cy="6" r="6" transform="matrix(-1 0 0 1 17 1)"/><path d="M2 16l3-3" stroke-linecap="round"/></svg><svg viewBox="0 0 16 14" id="telegram" xmlns="http://www.w3.org/2000/svg"><path d="M1.364 5.794L14.652.092c.606-.305 1.192.163.96 1.196L13.35 13.154c-.158.844-.615 1.044-1.25.655l-3.447-2.833-1.657 1.793c-.193.208-.345.384-.69.384l.235-3.914 6.395-6.423c.28-.277-.06-.413-.434-.16L4.61 8.198 1.2 7.013c-.736-.25-.741-.814.165-1.219z"/></svg><svg viewBox="0 0 14 14" id="time" xmlns="http://www.w3.org/2000/svg"><g clip-path="url(#pclip0_678_33057)"><mask id="pa" maskUnits="userSpaceOnUse" x="0" y="0" width="14" height="14"><path d="M7 13A6 6 0 107 1a6 6 0 000 12z" stroke-width="2" stroke-linejoin="round"/><path d="M7 3.572v3.516l2.571 2.484" stroke-linecap="round" stroke-linejoin="round"/></mask><g mask="url(#pa)"><path d="M-1.234-1.229h16.457V15.23H-1.234V-1.23z"/></g></g><defs><clipPath id="pclip0_678_33057"><path d="M0 0h14v14H0z"/></clipPath></defs></svg><svg viewBox="0 0 15 14" id="whatsapp" xmlns="http://www.w3.org/2000/svg"><path d="M7.664 0a7 7 0 11-3.52 13.052l-2.633.718a.5.5 0 01-.614-.614l.716-2.634A7 7 0 017.663 0zM5.278 3.71l-.14.006a.673.673 0 00-.26.07.905.905 0 00-.206.16c-.084.078-.131.147-.182.213-.26.337-.399.75-.397 1.175.002.343.091.677.231.99.287.63.758 1.299 1.38 1.918.15.15.296.3.454.439a6.614 6.614 0 002.688 1.432l.398.06c.13.008.259-.002.39-.008.203-.01.402-.066.582-.162.092-.047.181-.099.268-.154 0 0 .03-.02.088-.063.094-.07.153-.12.23-.202a.803.803 0 00.148-.211 1.95 1.95 0 00.132-.513c.016-.139.011-.214.01-.261-.004-.075-.066-.153-.134-.186l-.407-.182s-.61-.266-.982-.435a.348.348 0 00-.123-.029.338.338 0 00-.264.09c-.004-.002-.05.038-.557.65a.245.245 0 01-.257.092.999.999 0 01-.134-.046l-.177-.076a4.217 4.217 0 01-1.102-.702c-.088-.077-.17-.161-.254-.242a4.407 4.407 0 01-.714-.888l-.041-.066a.646.646 0 01-.072-.144c-.026-.103.043-.185.043-.185s.17-.187.25-.287a2.99 2.99 0 00.183-.261c.083-.133.109-.27.065-.376a58.28 58.28 0 00-.607-1.428c-.042-.094-.164-.161-.275-.175a3.107 3.107 0 00-.114-.01 2.369 2.369 0 00-.282.002l.14-.006.001.001z"/></svg></svg>