<svg width="50" height="68" viewBox="0 0 50 68" fill="none" xmlns="http://www.w3.org/2000/svg">
<path d="M25.0026 32.3087C22.7135 32.3087 20.5182 31.4175 18.8996 29.8313C17.281 28.245 16.3717 26.0936 16.3717 23.8503C16.3717 21.607 17.281 19.4556 18.8996 17.8694C20.5182 16.2831 22.7135 15.392 25.0026 15.392C27.2917 15.392 29.487 16.2831 31.1056 17.8694C32.7242 19.4556 33.6336 21.607 33.6336 23.8503C33.6336 24.9611 33.4103 26.061 32.9766 27.0872C32.5428 28.1134 31.9071 29.0458 31.1056 29.8313C30.3042 30.6167 29.3527 31.2397 28.3055 31.6648C27.2584 32.0899 26.136 32.3087 25.0026 32.3087ZM25.0026 0.166992C18.5932 0.166992 12.4463 2.66219 7.91419 7.10368C3.38206 11.5452 0.835938 17.5691 0.835938 23.8503C0.835938 41.6128 25.0026 67.8337 25.0026 67.8337C25.0026 67.8337 49.1693 41.6128 49.1693 23.8503C49.1693 17.5691 46.6231 11.5452 42.091 7.10368C37.5589 2.66219 31.412 0.166992 25.0026 0.166992Z" fill="#478ED0"/>
</svg>
