<svg width="26" height="26" viewBox="0 0 26 26" fill="none" xmlns="http://www.w3.org/2000/svg">
<path d="M12.6448 1.26273C12.6689 1.18642 12.7164 1.11987 12.7802 1.07265C12.844 1.02544 12.921 1 13 1C13.079 1 13.156 1.02544 13.2198 1.07265C13.2836 1.11987 13.3311 1.18642 13.3552 1.26273L15.9315 9.31075C15.9558 9.38692 16.0032 9.45332 16.0671 9.50039C16.1309 9.54747 16.2078 9.5728 16.2867 9.57275H24.6273C24.706 9.57285 24.7827 9.59819 24.8463 9.64517C24.91 9.69214 24.9574 9.75833 24.9817 9.83428C25.006 9.91023 25.0061 9.99204 24.9819 10.068C24.9576 10.144 24.9103 10.2103 24.8467 10.2573L18.1002 15.2324C18.0362 15.2794 17.9886 15.3458 17.9642 15.422C17.9398 15.4982 17.9399 15.5803 17.9644 15.6565L20.5406 23.703C20.5649 23.7789 20.5649 23.8607 20.5407 23.9366C20.5164 24.0126 20.4691 24.0788 20.4055 24.1259C20.3419 24.1729 20.2653 24.1983 20.1867 24.1986C20.108 24.1988 20.0312 24.1737 19.9674 24.127L13.2194 19.1519C13.1556 19.1049 13.0788 19.0796 13 19.0796C12.9212 19.0796 12.8444 19.1049 12.7806 19.1519L6.03407 24.127C5.97028 24.1744 5.89333 24.1999 5.81432 24.2C5.7353 24.2001 5.65829 24.1747 5.59438 24.1276C5.53048 24.0804 5.48298 24.0139 5.45872 23.9376C5.43447 23.8613 5.43472 23.7791 5.45942 23.703L8.03564 15.655C8.06029 15.5789 8.06056 15.497 8.03643 15.4208C8.0123 15.3446 7.96499 15.2781 7.90131 15.2309L1.1533 10.2588C1.0897 10.2118 1.0424 10.1455 1.01815 10.0695C0.993901 9.99355 0.993952 9.91174 1.01829 9.83579C1.04264 9.75984 1.09002 9.69365 1.15368 9.64668C1.21734 9.59971 1.294 9.57436 1.37271 9.57427H9.71331C9.79222 9.57432 9.86911 9.54898 9.93294 9.50191C9.99677 9.45483 10.0442 9.38843 10.0686 9.31226L12.6448 1.26273Z" stroke="white" stroke-width="2"/>
</svg>
