<svg xmlns="http://www.w3.org/2000/svg" width="26" height="26" fill="none" viewBox="0 0 26 26">
  <path fill="#fff" d="M7.673 17.353A1 1 0 0 0 9.6 16.82l-1.928.533ZM1.93 3.3a1 1 0 1 0-.536 1.926L1.931 3.3Zm22.651 14.666a1 1 0 1 0-.504-1.934l.504 1.934ZM11.26 20.412c.413 1.493-.494 3.07-2.099 3.488l.503 1.934c2.636-.684 4.246-3.336 3.524-5.956l-1.928.534ZM9.162 23.9c-1.616.42-3.237-.519-3.653-2.026l-1.928.534c.72 2.606 3.458 4.11 6.084 3.426L9.162 23.9Zm-3.653-2.026c-.414-1.493.493-3.07 2.098-3.488l-.502-1.933c-2.636.684-4.248 3.335-3.524 5.955l1.928-.534Zm2.098-3.488c1.616-.42 3.238.52 3.654 2.026l1.928-.534c-.72-2.606-3.459-4.109-6.084-3.426l.502 1.934Zm1.994-1.566L6.73 6.433l-1.928.533 2.87 10.387L9.6 16.82ZM4.203 3.93 1.931 3.3l-.536 1.926 2.274.631.534-1.928Zm2.528 2.503A3.613 3.613 0 0 0 4.203 3.93l-.532 1.928a1.61 1.61 0 0 1 1.132 1.11l1.928-.534Zm5.747 14.68 12.104-3.147-.503-1.934-12.105 3.146.504 1.935Z"/>
  <path stroke="#fff" stroke-width="2" d="M10.417 8.64c-.646-2.34-.969-3.51-.42-4.432.548-.923 1.755-1.236 4.168-1.864l2.56-.664c2.414-.627 3.62-.942 4.571-.41.95.534 1.275 1.703 1.92 4.044l.687 2.483c.646 2.34.97 3.51.421 4.433-.55.922-1.756 1.236-4.17 1.863l-2.56.665c-2.413.627-3.62.94-4.57.408-.95-.533-1.273-1.702-1.92-4.042l-.687-2.484Z"/>
</svg>
