<svg width="27" height="26" viewBox="0 0 27 26" fill="none" xmlns="http://www.w3.org/2000/svg">
<path d="M17.3097 21.357C16.6846 20.7319 16.3334 19.8841 16.3334 19C16.3334 18.1159 16.6846 17.2681 17.3097 16.643C17.9348 16.0179 18.7827 15.6667 19.6667 15.6667C20.5508 15.6667 21.3986 16.0179 22.0238 16.643C22.6489 17.2681 23.0001 18.1159 23.0001 19C23.0001 19.8841 22.6489 20.7319 22.0238 21.357C21.3986 21.9821 20.5508 22.3333 19.6667 22.3333C18.7827 22.3333 17.9348 21.9821 17.3097 21.357ZM17.3097 21.357L13.6667 25M10.0238 4.64298L13.6667 1M10.0238 4.64298C10.6489 5.2681 11.0001 6.11595 11.0001 7C11.0001 7.88406 10.6489 8.7319 10.0238 9.35702C9.39865 9.98214 8.5508 10.3333 7.66675 10.3333C6.78269 10.3333 5.93485 9.98214 5.30973 9.35702C4.6846 8.7319 4.33341 7.88406 4.33341 7C4.33341 6.11595 4.6846 5.2681 5.30973 4.64298C5.93485 4.01786 6.78269 3.66667 7.66675 3.66667C8.5508 3.66667 9.39865 4.01786 10.0238 4.64298ZM7.3571 19.3096L19.9764 6.69036M7.3571 19.3096C7.98223 19.9348 8.33341 20.7826 8.33341 21.6667C8.33341 22.5507 7.98223 23.3986 7.3571 24.0237C6.73198 24.6488 5.88414 25 5.00008 25C4.11603 25 3.26818 24.6488 2.64306 24.0237C2.01794 23.3986 1.66675 22.5507 1.66675 21.6667C1.66675 20.7826 2.01794 19.9348 2.64306 19.3096C3.26818 18.6845 4.11603 18.3333 5.00008 18.3333C5.88414 18.3333 6.73198 18.6845 7.3571 19.3096ZM19.9764 6.69036C19.3513 6.06523 19.0001 5.21739 19.0001 4.33333C19.0001 3.44928 19.3513 2.60143 19.9764 1.97631C20.6015 1.35119 21.4494 1 22.3334 1C23.2175 1 24.0653 1.35119 24.6904 1.97631C25.3156 2.60143 25.6667 3.44928 25.6667 4.33333C25.6667 5.21739 25.3156 6.06523 24.6904 6.69036C24.0653 7.31548 23.2175 7.66667 22.3334 7.66667C21.4494 7.66667 20.6015 7.31548 19.9764 6.69036Z" stroke="white" stroke-width="2" stroke-linecap="round" stroke-linejoin="round"/>
</svg>
