<svg width="33" height="32" viewBox="0 0 33 32" fill="none" xmlns="http://www.w3.org/2000/svg">
<g clip-path="url(#clip0_717_15485)">
<path d="M7.80971 23.9076C5.49688 21.8033 4.04103 18.9202 3.72066 15.8099C3.40029 12.6995 4.23789 9.58019 6.07324 7.04867C7.90858 4.51715 10.6128 2.75115 13.6686 2.08849C16.7244 1.42583 19.9173 1.91304 22.6364 3.45692M3.35238 23.8169C1.73771 26.6463 1.19638 28.8422 2.10838 29.7556C3.49371 31.1396 7.82571 29.1822 12.843 25.2049M18.5857 24.1996L13.819 19.4329L24.4137 8.83825C25.2781 7.97466 26.3613 7.36257 27.547 7.06758L30.271 6.38358C30.4591 6.33672 30.6562 6.3393 30.843 6.39107C31.0298 6.44284 31.2 6.54205 31.3372 6.67906C31.4743 6.81607 31.5737 6.98622 31.6257 7.17298C31.6776 7.35974 31.6804 7.55677 31.6337 7.74492L30.9524 10.4716C30.6564 11.6572 30.0434 12.7398 29.179 13.6036L18.5857 24.1996Z" stroke="white" stroke-width="2" stroke-linecap="round" stroke-linejoin="round"/>
<path d="M13.82 19.433L9.91595 18.133C9.82464 18.1028 9.74259 18.0497 9.67763 17.9788C9.61267 17.9079 9.56698 17.8215 9.54492 17.7279C9.52285 17.6342 9.52515 17.5365 9.55159 17.4441C9.57803 17.3516 9.62773 17.2675 9.69595 17.1997L11.056 15.8397C11.6477 15.2482 12.3925 14.8331 13.2068 14.641C14.0211 14.4488 14.8729 14.4871 15.6666 14.7517L17.7973 15.4597L13.82 19.433ZM18.5866 24.1997L19.888 28.105C19.9176 28.1966 19.9704 28.2789 20.0412 28.3441C20.112 28.4094 20.1983 28.4553 20.292 28.4774C20.3857 28.4995 20.4835 28.4971 20.576 28.4704C20.6684 28.4437 20.7525 28.3936 20.82 28.325L22.18 26.9637C22.7712 26.372 23.1861 25.6275 23.3782 24.8134C23.5704 23.9994 23.5322 23.1479 23.268 22.3543L22.56 20.2237L18.5866 24.1997Z" stroke="white" stroke-width="2" stroke-linecap="round" stroke-linejoin="round"/>
</g>
<defs>
<clipPath id="clip0_717_15485">
<rect width="32" height="32" fill="white" transform="translate(0.666626)"/>
</clipPath>
</defs>
</svg>
