<svg xmlns="http://www.w3.org/2000/svg" width="22" height="32" fill="none" viewBox="0 0 22 32">
  <path fill="#fff" d="m13.604 2.022-2.256 11.856 8.175.027L8.396 29.977l2.256-13.043-8.174-.028L13.605 2.022Zm.002-2a2.16 2.16 0 0 0-.16.006c-.354.029-.588.147-.865.333a2.006 2.006 0 0 0-.522.507L.853 15.7a1.99 1.99 0 0 0-.168 2.076 2.01 2.01 0 0 0 1.779 1.099l5.773.041L6.422 29.61a2.006 2.006 0 0 0 1.973 2.367c.628 0 1.145-.294 1.533-.825l11.22-16.072a1.99 1.99 0 0 0 .168-2.076 2.01 2.01 0 0 0-1.779-1.098l-5.773-.01 1.796-9.403a2.003 2.003 0 0 0-1.883-2.47h-.071Z"/>
</svg>
