<svg width="27" height="27" viewBox="0 0 27 27" fill="none" xmlns="http://www.w3.org/2000/svg">
<path d="M9.33337 26H17.3334M13.3334 15.3331V26" stroke="white" stroke-width="2" stroke-linecap="round" stroke-linejoin="round"/>
<path d="M13.2668 14H13.4" stroke="white" stroke-width="2" stroke-linecap="round" stroke-linejoin="round"/>
<path d="M4.85338 22.48C3.17366 20.8024 2.02928 18.6642 1.56505 16.336C1.10082 14.0078 1.33758 11.5943 2.2454 9.40069C3.15321 7.2071 4.69127 5.33208 6.66498 4.01284C8.6387 2.69361 10.9594 1.98944 13.3334 1.98944C15.7074 1.98944 18.0281 2.69361 20.0018 4.01284C21.9755 5.33208 23.5135 7.2071 24.4214 9.40069C25.3292 11.5943 25.5659 14.0078 25.1017 16.336C24.6375 18.6642 23.4931 20.8024 21.8134 22.48" stroke="white" stroke-width="2" stroke-linecap="round" stroke-linejoin="round"/>
<path d="M18.0516 18.7196C18.9822 17.7866 19.6153 16.5988 19.8711 15.3061C20.1269 14.0135 19.9938 12.674 19.4888 11.457C18.9837 10.2399 18.1292 9.19983 17.0334 8.46812C15.9375 7.73641 14.6494 7.34589 13.3316 7.34589C12.0139 7.34589 10.7258 7.73641 9.62992 8.46812C8.53405 9.19983 7.67961 10.2399 7.17454 11.457C6.66947 12.674 6.53642 14.0135 6.79221 15.3061C7.04799 16.5988 7.68113 17.7866 8.61165 18.7196" stroke="white" stroke-width="2" stroke-linecap="round" stroke-linejoin="round"/>
</svg>
