<svg xmlns="http://www.w3.org/2000/svg" width="30" height="30" fill="none" viewBox="0 0 30 30">
  <path stroke="#fff" stroke-linecap="round" stroke-linejoin="round" stroke-width="2" d="M28.335 15c0-7.364-5.97-13.333-13.334-13.333S1.668 7.637 1.668 15c0 7.364 5.97 13.334 13.333 13.334"/>
  <path stroke="#fff" stroke-linecap="round" stroke-linejoin="round" stroke-width="2" d="M16.334 1.733s4 5.267 4 13.267m-6.666 13.267s-4-5.267-4-13.267c0-8 4-13.267 4-13.267M2.508 19.667H15M2.508 10.333h24.986"/>
  <path stroke="#fff" stroke-width="2" d="M28.172 22.89c.659.405.618 1.39-.06 1.468l-3.422.388-1.535 3.082c-.304.613-1.244.313-1.4-.445l-1.673-8.154c-.132-.64.444-1.043 1-.7l7.09 4.36Z"/>
</svg>
