<svg xmlns="http://www.w3.org/2000/svg" version="1.1" xmlns:xlink="http://www.w3.org/1999/xlink" width="39.7" height="48"><svg version="1.1" id="SvgjsSvg1011" xmlns="http://www.w3.org/2000/svg" xmlns:xlink="http://www.w3.org/1999/xlink" x="0px" y="0px" viewBox="0 0 39.7 48" style="enable-background:new 0 0 39.7 48;" xml:space="preserve">
<path d="M4.8,47.7L4.8,47.7l-0.2-0.1l0,0l-0.1-0.1l0,0l0-0.1l0-0.1L4.5,47l0-0.1l0.1-0.3l0-0.1l0.1-0.2l0.1-0.1L5,46l0.1-0.1
	l0.1-0.3l0.1-0.1l0.2-0.3L5.6,45l0.2-0.4L6.1,44l1.5-2.8l1.9,1l0.3,0.1l0.6,0.3l0.3,0.1l0.6,0.3l0.3,0.1l0.6,0.2l0.8,0.3l0.2,0.1
	l0.3,0.1l0.2,0l0.3,0.1l0.3,0.1L15,44l0.2,0l0.4,0l0.2,0l0.4,0l0.2,0l0.6,0l1,0h0.4l0.6,0l0.3,0l0.5,0l0.2,0l0.4,0l0.2,0l0.3,0
	l0.3,0l0.6-0.1l0.1,0l0.3-0.1l0.5-0.1l0.4-0.1l0.8-0.3l0.4-0.1l0.8-0.3l0.4-0.2l0.7-0.4l0.4-0.2l0.7-0.4l0.4-0.2l0.7-0.4l0.3-0.2
	l0.7-0.5l0.3-0.2l0.6-0.5l0.3-0.3l0.6-0.6l0.3-0.3l0.6-0.6l0.3-0.3l0.5-0.6l0.3-0.3l0.5-0.7l0.2-0.3l0.5-0.7l0.2-0.4l0.4-0.7
	l0.2-0.4l0.4-0.8l0.2-0.4l0.3-0.8l0.4-1.2l0.2-0.5l0.3-1.1l0.1-0.5l0.2-1.1l0.1-0.5l0.1-1.1l0-0.6l0-1.1l0-0.6l-0.1-1.1l-0.1-0.6
	l-0.2-1.1l-0.1-0.5l-0.3-1.1l-0.5-1.6l-0.2-0.6l-0.5-1.1L35.5,15l-0.5-1l-0.3-0.5l-0.6-1l-0.3-0.5L33,11.2l-0.4-0.4l-0.8-0.8
	l-0.4-0.4l-0.9-0.8l-0.4-0.4l-1-0.7l-1.6-1.1l-0.1,0l0-0.1l0,0l0-0.1l0-0.1L27.6,6l0-0.1l0.1-0.2l0.1-0.1l0.1-0.3L28,5.2l0.2-0.3
	l0.3-0.6l0.3-0.6l0.7-1.2l0.2-0.3L30,1.6l0.1-0.2l0.1-0.3L30.3,1l0.2-0.3l0.1-0.1l0.1-0.2l0.1-0.1l0.1-0.1L30.9,0H31l0.3,0.1l0.1,0
	l0.3,0.1l0.1,0.1l0.2,0.1l0.1,0l0.1,0l0,0.1v0l-0.1,0.2l0,0.1L32,1l-0.1,0.1l-0.2,0.4l-0.1,0.2l-0.2,0.4l-0.2,0.4l-0.5,0.9l-0.1,0.2
	l-0.2,0.4l-0.3,0.5l-0.7,1.1L31,6.9l0.6,0.5l0.3,0.3l0.6,0.6l0.3,0.3l0.6,0.6l0.3,0.3l0.6,0.7l0.3,0.3l0.5,0.7l0.3,0.3l0.5,0.7
	l0.2,0.3l0.4,0.7l0.5,1l0.2,0.4l0.3,0.8l0.2,0.4l0.3,0.9l0.1,0.5l0.3,0.9l0.1,0.5l0.2,1l0.1,0.5l0.2,1l0.1,0.5l0.1,1l0,0.5l0,0.9
	l0,1.3l0,0.5l-0.1,0.9l-0.1,0.5L38.7,28l-0.1,0.4l-0.2,0.9l-0.1,0.4l-0.2,0.9L37.9,31l-0.3,0.8l-0.1,0.4L37.2,33L37,33.4l-0.4,0.8
	l-0.2,0.4L36,35.3l-0.2,0.4l-0.5,0.7l-0.2,0.4l-0.5,0.7l-0.3,0.3l-0.6,0.7l-0.3,0.3l-0.6,0.6l-0.3,0.3l-0.6,0.6l-0.3,0.3l-0.7,0.6
	l-0.3,0.3L29.8,42l-1.1,0.7l-0.3,0.2l-0.7,0.4l-0.3,0.2l-0.7,0.3l-0.3,0.2l-0.7,0.3l-0.4,0.1l-0.7,0.2l-0.7,0.2l-1.5,0.4l-0.8,0.2
	L20,45.6l-0.8,0.1l-1.6,0l-0.8,0l-1.6-0.1l-0.8-0.1L13,45.1l-2.3-0.7l-0.4-0.1L9.6,44l-0.2-0.1l-0.3-0.1l-0.3-0.2l-0.6-0.3L7.9,44
	l-0.1,0.2l-0.2,0.4l-0.1,0.2l-0.2,0.4L7,45.7l-0.5,0.8l-0.1,0.2l-0.2,0.4L6,47.3l-0.2,0.3l-0.1,0.1l-0.2,0.2L5.4,48l-0.1,0l-0.2-0.1
	l-0.1,0 M14.6,42.1L13.9,42l-1.3-0.4L12,41.4l-1.2-0.5l-0.6-0.3L9,39.9l-0.6-0.3l-1.1-0.8l-0.5-0.4l-1-0.9L5.2,37l-0.9-1l-0.4-0.5
	l-0.8-1.1L2,32.4l-0.2-0.3l-0.3-0.6l-0.1-0.3l-0.3-0.7l-0.2-0.7l-0.4-1.4l-0.2-0.7l-0.2-1.4l-0.1-0.7L0,24.1l0-0.7l0.1-1.5l0.1-0.7
	l0.3-1.4L0.6,19L1,17.6l0.1-0.3l0.3-0.7l0.4-1L2,15.4L2.2,15l0.1-0.2l0.3-0.5l0.3-0.5l0.7-1l0.3-0.5l0.7-0.9l0.2-0.2L5.1,11l0.5-0.5
	l0.2-0.2L6.1,10l0.2-0.2l0.4-0.3l0.4-0.3L8,8.6l0.4-0.3l0.9-0.5l0.2-0.1L10,7.3L10.5,7l0.5-0.2l1-0.4l0.5-0.2L13.7,6l0.3-0.1
	l0.6-0.1l0.3,0l0.6-0.1l0.3,0l0.6,0l1,0l0.5,0l0.8,0l0.4,0l0.8,0l0.4,0l0.7,0.1l0.3,0l0.7,0.1l0.3,0.1l0.6,0.2l0.3,0.1l0.6,0.2
	l0.3,0.1l0.7,0.3l1,0.5l0.4,0.2L27,7.9l0.4,0.2L28,8.6l0.3,0.2L29,9.4l0.3,0.3l0.6,0.5l0.3,0.3l0.6,0.6l0.3,0.3l0.5,0.6l0.3,0.3
	l0.5,0.6l0.2,0.3l0.4,0.7l0.2,0.3l0.4,0.7l0.2,0.4l0.4,0.7l0.2,0.4l0.3,0.8l0.1,0.4l0.3,0.8l0.1,0.4l0.2,0.8l0.1,0.4l0.2,0.8
	l0.1,0.4l0.1,0.8l0.1,1.3l0,0.7l0,1.3l0,0.7l-0.2,1.3l-0.1,0.6L35.3,29l-0.2,0.6l-0.4,1.2l-0.2,0.6l-0.6,1.1l-0.3,0.6l-0.7,1.1
	l-0.4,0.5l-0.8,1l-1.4,1.5l-0.3,0.3l-0.7,0.6l-0.3,0.3L28.4,39L28,39.2l-0.7,0.5l-0.4,0.2l-0.8,0.4l-0.4,0.2l-0.8,0.4l-0.4,0.2
	l-0.8,0.3l-0.4,0.1l-0.9,0.2L21,42.1l-0.2,0l-0.5,0.1l-0.2,0l-0.5,0l-0.5,0l-1.2,0l-0.6,0L16,42.2l-0.3,0l-0.5-0.1l-0.2,0
	 M21.5,40.5l0.6-0.1l1.2-0.4l0.6-0.2l1.1-0.5l0.6-0.3l1.1-0.7l0.5-0.3l1-0.8l0.5-0.4l0.9-0.9l0.5-0.5l0.8-1l0.4-0.5l0.7-1.1l1-1.7
	l0.1-0.2l0.2-0.5l0.1-0.3l0.2-0.6l0.2-0.6l0.3-1.2l0.1-0.6l0.2-1.2l0-0.3l0-0.6l0-0.9v-0.2l0-0.4l0-0.2l0-0.4l0-0.4l-0.1-0.9
	l-0.1-0.5L34,20.2l0-0.2l-0.1-0.4L33.8,19l-0.1-0.3L33.4,18l-0.1-0.3L33,17l-0.1-0.3L32.6,16l-0.2-0.3l-0.4-0.6l-0.2-0.3l-0.4-0.6
	l-0.2-0.3l-0.4-0.6l-0.4-0.6l-1-1L29,11.3l-1.1-0.9l-0.3-0.2l-0.6-0.4l-0.3-0.2l-0.6-0.4L25.9,9l-0.6-0.3L25,8.5l-0.6-0.3L24,8.1
	l-0.6-0.2l-1-0.3L22,7.5l-0.7-0.2l-0.4-0.1l-0.7-0.1l-0.4-0.1L19.1,7l-0.4,0l-0.7,0l-0.4,0l-0.7,0l-0.4,0l-0.7,0.1l-0.4,0l-0.7,0.1
	l-0.3,0.1l-0.7,0.2l-0.3,0.1l-0.7,0.2l-0.3,0.1l-0.7,0.3l-0.3,0.1l-0.6,0.3l-0.3,0.2L9.8,9.1L9.5,9.3L8.9,9.7L8.6,9.9L8,10.4
	l-0.3,0.2l-0.6,0.5l-0.8,0.8l-0.2,0.2l-0.5,0.5L5.4,13l-0.5,0.6l-0.2,0.3l-0.4,0.6l-0.2,0.3l-0.4,0.7l-0.2,0.3l-0.4,0.7L3,16.9
	l-0.3,0.7l-0.1,0.3l-0.3,0.7l-0.3,1l-0.1,0.2l-0.1,0.5l0,0.3l-0.1,0.6l0,0.3l-0.1,0.7l0,0.3l0,0.7l0,0.3l0,0.7l0,0.3l0,0.7l0,0.3
	l0.1,0.6L1.7,27l0.1,0.5L2,28.3l0.1,0.4l0.3,0.9l0.2,0.4L3,31l0.2,0.4l0.4,0.8l0.2,0.4l0.5,0.8l0.3,0.4l0.5,0.7l0.3,0.4l0.6,0.7
	l0.9,0.9l0.6,0.5l1.1,0.9l0.6,0.4l1.1,0.7l0.6,0.3l1.2,0.5l0.6,0.2l1.2,0.4l0.6,0.2l1.2,0.2l0.6,0.1l1.3,0.1l0.6,0l1.3-0.1l0.7-0.1"></path>
</svg><style>@media (prefers-color-scheme: light) { :root { filter: none; } }
@media (prefers-color-scheme: dark) { :root { filter: none; } }
</style></svg>