<svg width="233" height="133" viewBox="0 0 233 133" fill="none" xmlns="http://www.w3.org/2000/svg">
<path d="M216.215 145.315C216.336 145.012 216.382 144.684 216.347 144.36L215.16 133.182C215.111 132.721 214.904 132.291 214.573 131.967L209.748 127.226C209.091 126.58 208.078 126.467 207.295 126.951L203.503 129.295C202.845 129.703 202.009 129.693 201.36 129.27L199.677 128.174C198.832 127.624 198.529 126.53 198.97 125.624L207.113 108.882C207.263 108.574 207.489 108.31 207.77 108.115L218.591 100.587C218.955 100.334 219.393 100.209 219.836 100.232L223.064 100.397C224.072 100.449 224.96 99.742 225.136 98.7486L227.226 86.9464C227.313 86.4516 227.584 86.008 227.984 85.7036L232.744 82.0799C233.713 81.3419 235.112 81.6349 235.704 82.7001L236.509 84.1502C236.693 84.4808 236.779 84.8566 236.758 85.2341L235.836 101.564C235.818 101.886 235.878 102.207 236.01 102.5L237.839 106.547C237.945 106.78 238.093 106.99 238.278 107.167L245.827 114.406C247.103 115.63 249.224 114.716 249.211 112.948L249.084 95.0219C249.078 94.2399 248.618 93.5328 247.904 93.212L243.196 91.0946C242.688 90.8664 242.299 90.4373 242.121 89.9102L240.545 85.2405C240.361 84.6945 240.421 84.0956 240.71 83.5972L245.78 74.8584C245.908 74.6374 245.993 74.3939 246.029 74.141L248.135 59.5794C248.198 59.1476 248.117 58.7073 247.906 58.3255L244.274 51.7548C244.099 51.4392 244.013 51.0824 244.025 50.722L244.171 46.2443C244.196 45.4801 244.654 44.797 245.352 44.4843L248.713 42.9781C249.771 42.504 250.206 41.2323 249.659 40.2098L248.045 37.1928C247.382 35.9534 245.681 35.7663 244.765 36.8322L242.367 39.6213C242.116 39.914 241.785 40.1276 241.414 40.2364L229.164 43.8347C228.881 43.9179 228.62 44.0629 228.399 44.2591L221.492 50.402C221.209 50.6534 221.004 50.9797 220.899 51.3432L219.92 54.7453C219.729 55.407 219.212 55.9241 218.55 56.1143L207.924 59.167C207.656 59.2441 207.407 59.3765 207.193 59.5558L203.091 62.9899C202.494 63.4897 201.661 63.5976 200.957 63.2665L197.687 61.7305C197.299 61.5481 196.863 61.4953 196.442 61.58L189.117 63.0552C188.404 63.1987 187.826 63.7171 187.606 64.4095L186.663 67.3722C186.489 67.9198 186.088 68.366 185.562 68.597L178.682 71.6185C177.531 72.124 176.205 71.4547 175.927 70.2284L175.371 67.7689C175.137 66.7337 174.135 66.0616 173.089 66.2377L168.653 66.9839C168.334 67.0376 168.006 67.013 167.699 66.9121L155.81 63.0151C155.774 63.0033 155.734 63.0082 155.702 63.0284C155.599 63.0935 155.473 62.9895 155.516 62.8756L158.184 55.9511C158.558 54.9809 158.126 53.8862 157.191 53.4326L154.834 52.2895C154.63 52.1905 154.41 52.1269 154.185 52.1016L138.826 50.3753C138.384 50.3256 137.939 50.4245 137.56 50.6564L133.207 53.3176C132.632 53.6693 131.918 53.7075 131.309 53.4192L127.319 51.532C126.844 51.3071 126.299 51.2785 125.803 51.4524L122.583 52.5805C122.097 52.7507 121.564 52.727 121.095 52.5142L117.289 50.7868C116.68 50.5106 116.25 49.9486 116.141 49.289L115.695 46.5617C115.501 45.382 114.323 44.6343 113.173 44.9616L103.911 47.5987C103.058 47.8415 102.147 47.4936 101.673 46.7441L92.2882 31.9047C92.1947 31.7568 92.0822 31.6219 91.9535 31.5033L74.9025 15.7834C74.6748 15.5734 74.3818 15.4481 74.0727 15.4285C72.7931 15.3473 72.3363 13.6958 73.3922 12.9685L78.8882 9.18327C78.9473 9.14257 78.9896 9.08183 79.0073 9.01231L78.1808 15.0893C78.069 15.9108 78.4757 16.7161 79.2032 17.1138L82.5318 18.9334C83.5709 19.5014 84.8732 19.0472 85.3337 17.9563L89.9649 6.98567C90.3341 6.11087 90.0374 5.097 89.2547 4.55934L86.5487 2.70047C86.1476 2.42488 85.6596 2.30504 85.1764 2.36342L69.3517 4.27543C68.9327 4.32606 68.5405 4.50793 68.2311 4.795L66.6095 6.2999C66.0843 6.78731 65.3385 6.95651 64.6544 6.74347L55.7232 3.96217C55.3677 3.85145 55.0501 3.64365 54.8062 3.36217L52.4846 0.682201C52.0709 0.204659 51.4558 -0.0493183 50.8257 -0.0028179L42.8118 0.588572C41.9842 0.649653 41.2802 1.21551 41.0427 2.01068L39.9545 5.65351C39.8264 6.08222 39.5583 6.45559 39.193 6.71394L24.8577 16.8522C24.4633 17.1312 24.1831 17.5435 24.0691 18.013L21.6466 27.9843C21.3886 29.0465 20.3255 29.7047 19.2596 29.4623L11.5447 27.7077C11.4191 27.6791 11.2965 27.6385 11.1787 27.5863L7.64075 26.0202C6.65068 25.582 5.49161 26.0112 5.02577 26.9886L1.33925 34.7234C1.2118 34.9908 1.14534 35.2831 1.14468 35.5794L1.11218 50.0561C1.11175 50.2481 1.08368 50.439 1.02883 50.623L0.392185 52.7586C-0.129222 54.5076 1.77221 55.9838 3.33741 55.0452L8.70565 51.826C9.16671 51.5495 9.71968 51.4703 10.2398 51.6062L12.0813 52.0874C12.4035 52.1715 12.6995 52.3348 12.9426 52.5624L14.7317 54.2373C15.6593 55.1057 17.151 54.9002 17.8092 53.8133L21.4029 47.8796C21.7814 47.2546 22.4706 46.8858 23.2005 46.9175L27.5562 47.1068C28.0021 47.1262 28.4286 47.2941 28.768 47.5839L38.4977 55.8913C38.8156 56.1627 39.0404 56.5269 39.1407 56.9327L43.0442 72.7363C43.2981 73.7642 44.3092 74.4162 45.3503 74.2232L52.5504 72.8888C53.1464 72.7784 53.7603 72.9442 54.2197 73.3396L68.2044 85.3788C68.6656 85.7759 68.9209 86.3613 68.8981 86.9695L68.6396 93.8641C68.6074 94.7213 69.1256 95.5036 69.9275 95.8085L72.6085 96.8277C73.3931 97.1259 73.9079 97.8823 73.8977 98.7215L73.7383 111.777C73.7311 112.366 73.984 112.928 74.4294 113.314L81.0739 119.064C81.3045 119.264 81.4864 119.513 81.6057 119.794L84.8335 127.388C85.1293 128.084 85.7922 128.553 86.5469 128.601L96.9712 129.266C97.3826 129.292 97.776 129.445 98.0973 129.703L107.425 137.204C108.192 137.821 109.293 137.788 110.022 137.127L114.309 133.241C115.038 132.58 116.14 132.547 116.906 133.165L121.686 137.014C121.928 137.209 122.121 137.458 122.25 137.741L123.975 141.521C124.21 142.035 124.652 142.426 125.191 142.597L133.923 145.361C134.074 145.409 134.22 145.475 134.355 145.557L140.352 149.19C140.828 149.479 141.403 149.556 141.938 149.403L149.915 147.124C150.329 147.006 150.769 147.024 151.172 147.176L158.045 149.776C158.707 150.027 159.453 149.909 160.005 149.465L162.419 147.525C162.589 147.389 162.735 147.226 162.852 147.043L168.81 137.717C169.221 137.074 169.962 136.721 170.721 136.807L177.136 137.533C177.788 137.607 178.362 137.996 178.673 138.574L183.327 147.239C183.598 147.744 184.073 148.108 184.631 148.24L191.203 149.783C191.793 149.922 192.288 150.321 192.55 150.868L193.06 151.935C193.549 152.959 194.792 153.371 195.796 152.842L199.377 150.955C200.649 150.285 202.191 151.136 202.303 152.569L202.511 155.226C202.53 155.462 202.506 155.698 202.442 155.925L199.533 166.243C199.207 167.398 199.965 168.578 201.151 168.762L202.48 168.968C203.043 169.056 203.618 168.898 204.058 168.535L207.92 165.354C208.179 165.14 208.38 164.865 208.504 164.554L216.215 145.315Z" fill="#FE7D00"/>
</svg>
