<svg width="209" height="154" viewBox="0 0 209 154" fill="none" xmlns="http://www.w3.org/2000/svg">
<path d="M165.969 70.612C160.864 68.2922 148.593 64.8995 137.635 64.3814C137.089 63.7655 136.545 63.1343 135.998 62.5557C134.325 60.7936 132.639 59.2312 130.899 57.9276C129.21 56.6691 127.464 55.6461 125.52 55.0137L125.523 55.0052C122.633 53.974 119.795 53.0991 117.158 52.3927C113.143 51.3232 109.66 50.6278 107.009 50.3713L107.019 50.374C106.654 50.3335 106.261 50.2631 105.843 50.1512C103.643 49.59 100.887 47.7349 98.5371 45.4927C96.9473 44.0005 94.5057 43.911 92.811 45.285L51.4239 78.8628C50.0147 80.0052 49.4628 81.917 50.0406 83.6395C50.4996 84.9939 50.8211 86.3584 50.9246 87.6654C51.0817 89.5132 51.5525 91.2799 52.1703 93.0418C52.7911 94.7978 53.5681 96.5482 54.4134 98.2473L54.7669 98.8303C54.7669 98.8303 56.4621 101.208 59.1646 104.991C57.9122 106.046 57.0025 107.452 56.5499 109.069C55.955 111.201 56.2221 113.444 57.3103 115.376C58.4155 117.338 60.2205 118.739 62.3953 119.321C63.9187 119.729 65.4924 119.682 66.9761 119.219C65.7856 120.271 64.9156 121.634 64.4781 123.196C63.8815 125.327 64.1522 127.567 65.2396 129.496C66.3411 131.46 68.1477 132.861 70.3238 133.444C72.0332 133.902 73.8004 133.779 75.432 133.15C72.1136 135.599 71.0305 140.18 73.1028 143.867C74.2063 145.826 76.0108 147.226 78.1839 147.809L78.1856 147.809C80.2937 148.374 82.5044 148.094 84.4177 147.017L86.2938 145.942C85.3688 146.913 84.6607 148.075 84.2895 149.401C83.6939 151.535 83.9617 153.774 85.0496 155.706C86.1543 157.665 87.9605 159.066 90.1353 159.649C92.2417 160.213 94.4499 159.936 96.3792 158.853L97.5262 158.18C97.8823 158.656 98.2085 159.086 98.4745 159.437C98.6941 159.718 98.8808 159.958 99.0539 160.17L99.3121 160.48L99.6888 160.88C101.135 162.264 102.648 163.101 103.861 163.73C104.467 164.036 104.994 164.275 105.387 164.44L105.867 164.639L106.019 164.696L106.076 164.717L106.111 164.733L106.15 164.747L106.203 164.764C106.252 164.777 106.227 164.777 106.482 164.852L106.789 164.921C109.668 165.471 112.602 165.215 115.245 164.128C116.297 163.693 117.278 163.089 118.199 162.388C119.433 163.188 120.795 163.832 122.284 164.231C128.326 165.847 134.442 163.357 137.847 158.526C138.07 158.569 138.29 158.619 138.521 158.621C139.25 158.965 140.001 159.274 140.806 159.49C146.802 161.09 152.887 158.672 156.306 153.92C156.322 153.912 156.337 153.91 156.353 153.904L156.811 154.075C164.555 156.15 172.504 151.555 174.581 143.817C175.162 141.668 175.501 139.211 175.345 136.519C181.918 133.248 191.65 128.081 194.113 124.52C195.298 122.807 200.328 119.284 201.851 118.032L182.946 68.6447C178.541 69.7854 169.887 72.3981 165.969 70.612ZM166.169 141.561C165.336 144.654 162.162 146.488 159.066 145.665C158.299 145.459 157.624 145.113 157.031 144.656C156.972 144.608 156.904 144.584 156.843 144.545L153.341 136.832C152.434 134.958 150.178 134.169 148.302 135.075C146.425 135.981 145.639 138.24 146.547 140.117L149.931 147.589C148.863 150.289 145.937 151.844 143.061 151.076C141.697 150.708 140.616 149.898 139.844 148.818L136.486 141.4C135.578 139.526 133.321 138.74 131.445 139.647C129.568 140.553 128.783 142.812 129.69 144.685L132.005 149.945C131.927 150.213 131.828 150.475 131.803 150.758C131.772 151.114 131.718 151.429 131.642 151.714C130.808 154.81 127.633 156.64 124.539 155.817C123.73 155.601 123.036 155.215 122.43 154.729L118.063 146.711C116.966 144.938 114.64 144.391 112.867 145.49C111.093 146.586 110.546 148.914 111.642 150.683L113.598 154.793C113.148 155.33 112.619 155.781 111.92 156.076C111.026 156.446 109.901 156.563 108.706 156.383C108.381 156.242 107.941 156.041 107.428 155.764C106.79 155.429 106.14 154.985 105.821 154.689C105.718 154.561 105.454 154.23 105.079 153.729C104.865 153.449 104.623 153.131 104.355 152.767C105.664 150.345 105.761 147.33 104.311 144.752C103.207 142.791 101.401 141.39 99.2264 140.807C98.0036 140.479 96.7504 140.467 95.5319 140.703L95.5068 140.667L95.5549 140.635C97.4856 139.547 98.8775 137.775 99.4751 135.638C100.071 133.503 99.8001 131.263 98.7114 129.334C97.608 127.375 95.8017 125.971 93.6282 125.389C91.9286 124.933 90.1706 125.052 88.548 125.671C90.0191 124.58 91.1083 123.069 91.6089 121.278C92.2063 119.143 91.9355 116.903 90.8477 114.974C89.745 113.01 87.9387 111.609 85.764 111.026C83.6576 110.462 81.4488 110.739 79.5348 111.819L77.8232 112.801C80.2994 110.228 80.9508 106.258 79.1122 102.992C78.007 101.03 76.2008 99.6291 74.026 99.0464C71.9196 98.482 69.711 98.7594 67.7939 99.8389L66.6593 100.497C66.1647 99.8019 65.6786 99.1229 65.2493 98.5223C63.6352 96.2681 62.5251 94.7078 62.0793 94.0805C61.4072 92.7168 60.8088 91.3664 60.3847 90.1487C59.9246 88.8578 59.6623 87.7053 59.6057 86.957C59.5183 85.8737 59.347 84.8316 59.1261 83.8268L95.5086 54.312C97.8408 56.1142 100.493 57.7099 103.589 58.5622C104.415 58.7835 105.276 58.9506 106.171 59.0384L106.181 59.0412C108.031 59.2133 111.248 59.8208 114.903 60.807C117.316 61.4473 119.942 62.2588 122.595 63.2045L122.777 63.266C123.439 63.4623 124.484 63.9964 125.685 64.902L125.952 65.123C113.231 67.207 94.5062 72.7575 88.7482 73.1055C82.1739 73.4987 79.512 81.4137 92.688 86.5592C105.865 91.7114 120.229 86.3895 123.649 85.694C126.105 85.1908 139.51 90.2012 146.908 93.078C149.379 97.2976 151.5 101.166 153.024 104.069L164.28 129.018L164.331 129.121C165.811 132.18 166.434 134.508 166.631 136.414C166.821 138.318 166.62 139.863 166.169 141.561Z" fill="#FE7D00"/>
<path d="M238.648 115.132L213.146 48.5068C212.53 46.8914 210.723 46.0901 209.111 46.7053L187.713 54.8965C186.101 55.5117 185.294 57.3202 185.913 58.9329L211.415 125.558C212.031 127.17 213.836 127.978 215.448 127.362L236.85 119.169C238.46 118.55 239.268 116.745 238.648 115.132ZM223.541 116.456C220.858 117.482 217.846 116.136 216.816 113.451C215.788 110.768 217.133 107.758 219.82 106.729C222.506 105.701 225.515 107.046 226.545 109.727C227.572 112.414 226.227 115.428 223.541 116.456Z" fill="#FE7D00"/>
<path d="M96.6427 30.4912L82.2036 12.6974C81.1181 11.3594 79.1515 11.1496 77.809 12.2402L22.4097 57.1884C21.0679 58.276 20.8674 60.2437 21.9521 61.5847L36.3871 79.3801C37.4755 80.7189 39.442 80.9222 40.7808 79.8338L96.1804 34.8862C97.5221 33.7986 97.7277 31.829 96.6427 30.4912ZM82.9987 33.5121C80.7665 35.3227 77.4859 34.983 75.6744 32.7492C73.8603 30.5179 74.2031 27.2331 76.4352 25.4261C78.6677 23.6124 81.9488 23.9523 83.7602 26.1865C85.5748 28.4207 85.23 31.6981 82.9987 33.5121Z" fill="#FE7D00"/>
</svg>
