<svg width="18" height="18" viewBox="0 0 18 18" fill="none" xmlns="http://www.w3.org/2000/svg">
<path d="M4.80078 17.4004H13.2008" stroke="#FE7D00" stroke-linecap="round" stroke-linejoin="round"/>
<path d="M0.601562 13.129V2.2702C0.601562 1.82713 0.778562 1.40221 1.09362 1.08891C1.40868 0.775617 1.836 0.599609 2.28156 0.599609H15.7216C16.1671 0.599609 16.5944 0.775617 16.9095 1.08891C17.2246 1.40221 17.4016 1.82713 17.4016 2.2702V13.129C17.4016 13.5721 17.2246 13.997 16.9095 14.3103C16.5944 14.6236 16.1671 14.7996 15.7216 14.7996H2.28156C1.836 14.7996 1.40868 14.6236 1.09362 14.3103C0.778562 13.997 0.601563 13.5721 0.601562 13.129Z" fill="#FE7D00" stroke="#FE7D00"/>
<path d="M13.2008 7.58655C13.0723 6.68307 12.6438 5.84594 11.981 5.2041C11.3183 4.56227 10.4582 4.15132 9.53313 4.03456C8.70706 3.92976 7.86772 4.06454 7.11929 4.42217C6.37086 4.77979 5.7463 5.34451 5.32316 6.04622M4.80078 8.61344C4.92224 9.46837 5.31268 10.2652 5.91797 10.8933C6.52325 11.5215 7.3134 11.95 8.17884 12.1192C9.04428 12.2885 9.94213 12.1902 10.7479 11.8381C11.5537 11.4859 12.2274 10.8973 12.6758 10.1538" stroke="white" stroke-linecap="round" stroke-linejoin="round"/>
<path d="M12.1508 10.0602C12.1508 10.2034 12.2061 10.3408 12.3045 10.442C12.403 10.5433 12.5365 10.6002 12.6758 10.6002C12.815 10.6002 12.9486 10.5433 13.047 10.442C13.1455 10.3408 13.2008 10.2034 13.2008 10.0602C13.2008 9.91698 13.1455 9.77963 13.047 9.67836C12.9486 9.57709 12.815 9.5202 12.6758 9.5202C12.5365 9.5202 12.403 9.57709 12.3045 9.67836C12.2061 9.77963 12.1508 9.91698 12.1508 10.0602ZM4.80078 5.7402C4.80078 5.88341 4.85609 6.02076 4.95455 6.12203C5.05301 6.2233 5.18654 6.2802 5.32578 6.2802C5.46502 6.2802 5.59856 6.2233 5.69701 6.12203C5.79547 6.02076 5.85078 5.88341 5.85078 5.7402C5.85078 5.59698 5.79547 5.45963 5.69701 5.35836C5.59856 5.25709 5.46502 5.2002 5.32578 5.2002C5.18654 5.2002 5.05301 5.25709 4.95455 5.35836C4.85609 5.45963 4.80078 5.59698 4.80078 5.7402ZM7.42578 7.9002C7.42578 8.32985 7.59172 8.7419 7.88709 9.04571C8.18246 9.34952 8.58307 9.5202 9.00078 9.5202C9.4185 9.5202 9.8191 9.34952 10.1145 9.04571C10.4098 8.7419 10.5758 8.32985 10.5758 7.9002C10.5758 7.47054 10.4098 7.05849 10.1145 6.75468C9.8191 6.45087 9.4185 6.2802 9.00078 6.2802C8.58307 6.2802 8.18246 6.45087 7.88709 6.75468C7.59172 7.05849 7.42578 7.47054 7.42578 7.9002Z" stroke="white" stroke-linecap="round" stroke-linejoin="round"/>
</svg>
