<svg xmlns="http://www.w3.org/2000/svg" width="26" height="30" fill="none" viewBox="0 0 26 30">
  <path stroke="#fff" stroke-linecap="round" stroke-linejoin="round" stroke-width="2" d="M1.001 1.667h18.667c2.515 0 3.77 0 4.552.78.781.782.781 2.038.781 4.553v8c0 2.515 0 3.77-.781 4.552-.781.781-2.037.781-4.552.781h-9.333m1.333-12.666h8m-18.667 14v-5.334c0-1.257 0-1.885.391-2.276.39-.39 1.019-.39 2.276-.39h2.667m-5.334 8h5.334m-5.334 0v6.666m5.334-14.666v8m0-8h8m-8 8v6.666"/>
  <path stroke="#fff" stroke-linecap="round" stroke-linejoin="round" stroke-width="2" d="M6.335 7.667a2.667 2.667 0 1 1-5.334 0 2.667 2.667 0 0 1 5.334 0Z"/>
</svg>
