<svg xmlns="http://www.w3.org/2000/svg" width="33" height="32" fill="none" viewBox="0 0 33 32">
  <path fill="#fff" fill-rule="evenodd" d="M10.001 1.667a1 1 0 0 1 1 1V5h.394c.577 0 1.106 0 1.536.057.474.064.974.213 1.386.627.412.413.563.912.627 1.386.057.431.057.96.057 1.537v1.902c.09.07.175.147.259.23.608.609.856 1.365.968 2.2.077.58.099 1.268.104 2.06h.67v-4.72c0-1.677 0-3.048.154-4.095.16-1.086.516-2.054 1.424-2.683.907-.63 1.94-.623 3.012-.392 1.033.224 2.319.705 3.89 1.293l.127.05c.794.297 1.467.55 1.994.817.56.285 1.046.63 1.413 1.157.365.529.517 1.103.587 1.729.065.588.065 1.306.065 2.154v18.024H30a1 1 0 1 1 0 2H3.335a1 1 0 0 1 0-2h.333V15.931c0-1.2 0-2.198.107-2.99.112-.837.36-1.593.966-2.2a3.09 3.09 0 0 1 .26-.232V8.607c0-.578 0-1.107.058-1.536.064-.475.213-.975.626-1.387.414-.412.912-.563 1.387-.627C7.502 5 8.032 5 8.608 5H9V2.667a1 1 0 0 1 1-1Zm-3 8.098c.784-.099 1.763-.099 2.93-.099h.14c1.168 0 2.146 0 2.93.1v-1.1c0-.657-.002-1.049-.04-1.329a.939.939 0 0 0-.056-.236l-.001-.004-.004-.001-.013-.007a.933.933 0 0 0-.223-.05c-.28-.036-.672-.04-1.33-.04H8.669c-.657 0-1.05.004-1.33.04a.933.933 0 0 0-.235.057l-.004.001-.002.004-.006.013a.934.934 0 0 0-.05.223c-.037.28-.04.672-.04 1.33v1.098ZM5.668 28.333H9v-7.07c0-1.198 0-2.197.107-2.989.112-.837.36-1.593.967-2.2.608-.608 1.364-.856 2.2-.968.578-.077 1.264-.098 2.057-.104-.005-.76-.024-1.333-.085-1.796-.084-.614-.227-.878-.4-1.051-.174-.174-.438-.316-1.054-.4-.641-.085-1.505-.089-2.792-.089-1.286 0-2.15.003-2.793.09-.615.082-.879.225-1.052.4-.173.175-.316.436-.4 1.05-.085.645-.088 1.508-.088 2.794v12.333Zm5.333 0h11.334v-7c0-1.285-.003-2.15-.09-2.793-.082-.615-.225-.879-.4-1.052-.174-.174-.436-.316-1.05-.4C20.15 17.003 19.287 17 18 17h-2.666c-1.286 0-2.15.003-2.794.088-.614.084-.878.226-1.052.4-.173.173-.316.437-.4 1.053-.085.643-.088 1.507-.088 2.792v7Zm13.334 0h3.333v-17.97c0-.916-.001-1.522-.053-1.987-.05-.44-.134-.653-.244-.81-.108-.158-.28-.314-.674-.514-.417-.21-.982-.425-1.84-.747-1.668-.625-2.813-1.053-3.686-1.24-.854-.184-1.212-.087-1.452.08-.24.166-.458.468-.584 1.33-.131.884-.134 2.107-.134 3.888v4.64c.794.005 1.482.026 2.059.104.837.112 1.593.36 2.2.968.608.606.856 1.362.968 2.2.107.792.107 1.792.107 2.989v7.07ZM13 20a1 1 0 0 1 1-1h5.334a1 1 0 0 1 0 2H14a1 1 0 0 1-1-1Zm0 4a1 1 0 0 1 1-1h5.334a1 1 0 0 1 0 2H14a1 1 0 0 1-1-1Z" clip-rule="evenodd"/>
</svg>
