<svg width="27" height="26" viewBox="0 0 27 26" fill="none" xmlns="http://www.w3.org/2000/svg">
<path d="M15.9755 14.7919C15.2839 15.6041 14.4417 16.2686 13.4939 16.7504V19.5194C13.4939 19.7641 13.3995 19.9989 13.2315 20.172C13.0635 20.3451 12.8356 20.4423 12.598 20.4423H7.22266C6.98506 20.4423 6.75718 20.3451 6.58917 20.172C6.42116 19.9989 6.32677 19.7641 6.32677 19.5194V16.7504C4.43886 15.7796 2.99557 14.085 2.30664 12.0303C1.6177 9.97556 1.73802 7.7245 2.64177 5.76015C3.54552 3.79581 5.16068 2.27471 7.14065 1.52329C9.12062 0.771869 11.3076 0.850004 13.2323 1.74093M6.32677 25H13.4939M14.164 7.34156C13.5351 7.22896 13.5351 6.2986 14.164 6.18599C15.2772 5.9854 16.3073 5.4483 17.1235 4.64299C17.9396 3.83768 18.5049 2.80053 18.7474 1.6634L18.785 1.48249C18.9212 0.841946 19.8063 0.838254 19.9479 1.47696L19.9945 1.68555C20.2447 2.81828 20.8146 3.84944 21.6324 4.64926C22.4502 5.44908 23.4794 5.98183 24.5904 6.18046C25.2229 6.29491 25.2229 7.22896 24.5904 7.34341C23.4797 7.54237 22.4509 8.07527 21.6335 8.87507C20.816 9.67486 20.2464 10.7058 19.9963 11.8383L19.9497 12.0469C19.8081 12.6856 18.923 12.6819 18.7868 12.0414L18.751 11.8623C18.5082 10.7247 17.9424 9.68717 17.1256 8.88181C16.3088 8.07645 15.2778 7.5415 14.164 7.34156Z" stroke="white" stroke-width="2" stroke-linecap="round" stroke-linejoin="round"/>
</svg>
