<svg width="26" height="26" viewBox="0 0 26 26" fill="none" xmlns="http://www.w3.org/2000/svg">
<path d="M4.6 17.8L10.6 14.35M10.6 14.35L13 15.7M10.6 14.35V11.65M15.4 11.65L21.4802 8.13292M15.4 11.65L13 10.3M15.4 11.65V14.35M13 4.6V10.3M13 4.6C13.9941 4.6 14.8 3.79411 14.8 2.8M13 4.6C12.0059 4.6 11.2 3.79411 11.2 2.8M13 10.3L10.6 11.65M13 15.7V21.4M13 15.7L15.4 14.35M13 21.4C12.0059 21.4 11.2 22.2059 11.2 23.2M13 21.4C13.9941 21.4 14.8 22.2059 14.8 23.2M4.50042 8.19189L10.6 11.65M15.4 14.35L21.5678 17.6402M23.2 9.4V16M23.2 9.4C24.1941 9.4 25 8.59411 25 7.6C25 6.60589 24.1941 5.8 23.2 5.8C22.2059 5.8 21.4 6.60589 21.4 7.6C21.4 8.59411 22.2059 9.4 23.2 9.4ZM14.8 23.2L21.4 19.6M14.8 23.2C14.8 24.1941 13.9941 25 13 25C12.0059 25 11.2 24.1941 11.2 23.2M4.0971 19.648L11.2 23.2M2.8 16.6V9.4M2.8 16.6C1.80589 16.6 1 17.4059 1 18.4C1 19.3941 1.80589 20.2 2.8 20.2C3.79411 20.2 4.6 19.3941 4.6 18.4C4.6 17.4059 3.79411 16.6 2.8 16.6ZM2.8 9.4C3.79411 9.4 4.6 8.59411 4.6 7.6C4.6 6.60589 3.79411 5.8 2.8 5.8C1.80589 5.8 1 6.60589 1 7.6C1 8.59411 1.80589 9.4 2.8 9.4ZM4.09741 6.35231L11.2 2.8M11.2 2.8C11.2 1.80589 12.0059 1 13 1C13.9941 1 14.8 1.80589 14.8 2.8M21.9057 6.34905L14.8 2.8M25 18.4C25 19.3941 24.1941 20.2 23.2 20.2C22.2059 20.2 21.4 19.3941 21.4 18.4C21.4 17.4059 22.2059 16.6 23.2 16.6C24.1941 16.6 25 17.4059 25 18.4Z" stroke="white" stroke-width="2" stroke-linecap="round" stroke-linejoin="round"/>
</svg>
