<svg xmlns="http://www.w3.org/2000/svg" width="27" height="30" fill="none" viewBox="0 0 27 30">
  <path stroke="#fff" stroke-linecap="round" stroke-linejoin="round" stroke-width="2" d="M9.333 25.667c-5.028-1.158-8-5.764-8-9.987 0-5.021 4.494-9.983 7.648-12.847a4.49 4.49 0 0 1 6.038 0c2.009 1.824 4.413 4.5 5.982 7.5"/>
  <path stroke="#fff" stroke-linecap="round" stroke-linejoin="round" stroke-width="2" d="M20.001 19.667c-2 1.333-5.333 4-8 8.667m2.667-4c-3.552-7.814 3.78-10.352 9.233-10.646.659-.036.987-.053 1.224.175.236.227.222.553.195 1.203-.225 5.404-2.659 12.744-10.652 9.268Z"/>
</svg>
