<svg xmlns="http://www.w3.org/2000/svg" width="33" height="32" fill="none" viewBox="0 0 33 32">
  <path stroke="#fff" stroke-linecap="round" stroke-linejoin="round" stroke-width="2" d="M16.33 9.333h.011m-10.673 4v11.333m5.333-11.333v11.333m10.667-11.333v11.333m5.333-11.333v11.333m-24-13.24c0-1.596.643-2.573 1.974-3.315l5.48-3.049c2.87-1.596 4.306-2.396 5.88-2.396 1.573 0 3.009.8 5.88 2.396l5.48 3.05c1.329.74 1.973 1.718 1.973 3.314 0 .432 0 .65-.047.827-.248.933-1.094 1.081-1.912 1.081H4.96c-.817 0-1.663-.147-1.912-1.081-.047-.179-.047-.395-.047-.827Zm22.667 13.24H7.001a4 4 0 0 0-4 4 .667.667 0 0 0 .667.667h25.333a.667.667 0 0 0 .667-.667 4 4 0 0 0-4-4Z"/>
</svg>
