<svg width="191" height="147" viewBox="0 0 191 147" fill="none" xmlns="http://www.w3.org/2000/svg">
<path fill-rule="evenodd" clip-rule="evenodd" d="M108.486 2.6254C103.968 0.0196797 98.5951 -0.68075 93.55 0.678202C88.505 2.03716 84.2006 5.34417 81.5838 9.87174L76.6505 18.4074C74.3915 17.1045 71.7052 16.7543 69.1827 17.4338C66.6601 18.1132 64.5079 19.7667 63.1995 22.0305C61.8911 24.2943 61.5337 26.9829 62.2059 29.5049C62.8781 32.0269 64.5249 34.1757 66.7839 35.4786L61.8506 44.0142C59.5916 42.7113 56.9053 42.3611 54.3828 43.0406C51.8602 43.7201 49.708 45.3736 48.3996 47.6374C47.0912 49.9012 46.7338 52.5898 47.406 55.1118C48.0782 57.6338 49.725 59.7826 51.984 61.0854L47.0507 69.6211C44.7917 68.3182 42.1054 67.968 39.5829 68.6475C37.0603 69.3269 34.9081 70.9804 33.5997 73.2442C32.2914 75.508 31.9339 78.1966 32.6062 80.7186C33.2784 83.2406 34.9251 85.3894 37.1841 86.6923L32.2508 95.2279C29.9918 93.925 27.3055 93.5748 24.783 94.2543C22.2604 94.9338 20.1082 96.5873 18.7999 98.8511C17.4915 101.115 17.1341 103.803 17.8063 106.325C18.4785 108.847 20.1252 110.996 22.3842 112.299L17.4509 120.835C15.1919 119.532 12.5057 119.182 9.98312 119.861C7.46057 120.541 5.30837 122.194 3.99997 124.458C2.69158 126.722 2.33417 129.41 3.00637 131.932C3.67858 134.454 5.32533 136.603 7.58435 137.906L2.65106 146.442C0.034276 150.969 -0.680537 156.346 0.663867 161.39C2.00827 166.434 5.30177 170.732 9.81983 173.338L103.514 227.375C108.032 229.98 113.405 230.681 118.45 229.322C123.495 227.963 127.799 224.656 130.416 220.128L209.349 83.5584C211.966 79.0308 212.681 73.6536 211.336 68.6096C209.992 63.5656 206.698 59.268 202.18 56.6623L108.486 2.6254ZM94.5724 85.6477C98.4976 78.8563 104.954 73.8958 112.522 71.8573C120.089 69.8189 128.148 70.8696 134.925 74.7781C141.702 78.6867 146.643 85.1331 148.659 92.6991C150.676 100.265 149.604 108.331 145.678 115.122C141.753 121.914 135.297 126.874 127.729 128.913C120.161 130.951 112.103 129.9 105.326 125.992C98.5485 122.083 93.6082 115.637 91.5916 108.071C89.575 100.505 90.6472 92.439 94.5724 85.6477ZM51.5217 140.485C55.4468 133.693 61.9034 128.733 69.4711 126.694C77.0387 124.656 85.0975 125.706 91.8746 129.615L108.91 139.44C115.687 143.348 120.627 149.795 122.644 157.361C124.66 164.927 123.588 172.993 119.663 179.784C118.355 182.048 116.202 183.701 113.68 184.381C111.157 185.06 108.471 184.71 106.212 183.407L55.106 153.933C52.847 152.63 51.2003 150.481 50.5281 147.959C49.8559 145.437 50.2133 142.748 51.5217 140.485Z" fill="#478ED0"/>
</svg>
