<svg width="178" height="149" viewBox="0 0 178 149" fill="none" xmlns="http://www.w3.org/2000/svg">
<path d="M160.966 108.655V58.2765L92.4067 95.6332C89.8517 97.0563 87.1547 97.7679 84.3158 97.7679C81.4769 97.7679 78.7799 97.0563 76.2249 95.6332L4.25844 56.3553C2.69704 55.5015 1.59554 54.4341 0.953949 53.1533C0.312355 51.8725 -0.00560312 50.4494 7.47083e-05 48.884C0.00575253 47.3186 0.326551 45.8955 0.962468 44.6147C1.59838 43.3339 2.69704 42.2665 4.25844 41.4127L76.2249 2.1348C77.5024 1.42324 78.8168 0.888153 80.1681 0.529529C81.5195 0.170905 82.902 -0.00555903 84.3158 0.000133418C85.7296 0.00582586 87.115 0.185138 88.472 0.538069C89.829 0.891001 91.1405 1.42324 92.4067 2.1348L173.529 46.5359C174.948 47.2474 176.05 48.2806 176.833 49.6354C177.617 50.9902 178.006 52.4475 178 54.0072V108.655C178 111.074 177.182 113.103 175.547 114.743C173.912 116.382 171.891 117.199 169.483 117.193C167.076 117.188 165.055 116.368 163.419 114.734C161.784 113.1 160.966 111.074 160.966 108.655ZM76.2249 146.865L33.6412 123.811C30.8023 122.245 28.6021 120.111 27.0407 117.407C25.4793 114.703 24.6986 111.786 24.6986 108.655V76.2077L76.2249 104.172C78.7799 105.595 81.4769 106.307 84.3158 106.307C87.1547 106.307 89.8517 105.595 92.4067 104.172L143.933 76.2077V108.655C143.933 111.786 143.152 114.703 141.591 117.407C140.029 120.111 137.829 122.245 134.99 123.811L92.4067 146.865C91.1292 147.577 89.8176 148.112 88.472 148.47C87.1263 148.829 85.7409 149.006 84.3158 149C82.8907 148.994 81.5053 148.818 80.1596 148.47C78.814 148.123 77.5024 147.588 76.2249 146.865Z" fill="#478ED0"/>
</svg>
