<svg width="1877" height="1877" viewBox="0 0 1877 1877" fill="none" xmlns="http://www.w3.org/2000/svg">
<g opacity="0.7">
<path d="M938.5 1876.78C1456.7 1876.78 1876.78 1456.7 1876.78 938.5C1876.78 420.299 1456.7 0.214844 938.5 0.214844C420.3 0.214844 0.215088 420.299 0.215088 938.5C0.215088 1456.7 420.3 1876.78 938.5 1876.78Z" fill="#3680C4"/>
<path d="M1529.25 437.724C1538.83 442.86 1547.82 448.983 1557.79 453.428C1568.56 458.169 1566.98 453.625 1566.09 451.255C1566.88 452.243 1567.57 453.23 1568.36 454.317C1568.66 452.539 1568.86 451.156 1571.82 450.267L1571.62 449.773C1570.9 445.625 1572.02 441.839 1574.98 438.415C1574.29 442.366 1575.67 446.415 1574.68 450.465C1574.09 450.564 1573.4 450.761 1572.91 450.959C1572.91 450.959 1572.81 450.959 1572.71 450.959C1574.09 456.786 1573.89 457.28 1573.4 459.255C1572.91 459.255 1572.21 459.255 1571.72 458.959C1571.72 458.959 1571.62 458.86 1571.52 458.761C1574.49 462.613 1579.33 463.601 1582.88 466.564C1582.68 468.835 1580.91 480.391 1566.68 486.021C1583.37 500.046 1595.62 523.849 1612.61 556.837C1611.82 555.191 1611.36 554.005 1611.23 553.281C1611.23 553.281 1626.93 575.405 1626.73 587.257C1626.54 587.454 1626.34 587.652 1626.14 587.849C1621 584.886 1621.7 578.368 1617.94 574.615C1617.75 574.911 1617.55 575.207 1617.35 575.504C1617.84 577.479 1619.03 579.158 1619.33 581.133C1618.34 580.212 1617.48 579.784 1616.76 579.849C1616.96 583.109 1619.33 586.072 1618.14 589.43C1616.46 589.035 1612.41 585.775 1614.49 583.01C1614.09 582.615 1613.4 582.22 1612.81 582.022C1611.92 583.207 1611.33 583.998 1613.79 590.022C1612.02 589.529 1611.33 589.43 1608.86 589.528H1607.97C1605.1 589.528 1604.71 589.331 1602.83 588.64C1603.13 590.319 1604.12 595.257 1602.93 601.776C1601.25 609.282 1597.3 603.553 1595.92 601.776C1594.54 599.8 1593.84 598.615 1592.07 595.553C1592.46 597.627 1592.86 599.702 1593.25 601.776C1593.25 602.269 1593.45 602.862 1593.55 603.257C1594.14 606.813 1594.83 610.368 1595.42 613.924C1592.07 611.455 1590.49 611.06 1589.6 612.344C1589 613.134 1589 615.702 1589 616.887C1589 621.035 1589 621.825 1588.41 623.603C1582.98 617.282 1578.14 613.924 1571.82 612.146C1577.05 611.85 1579.23 608.689 1582.19 601.677C1584.76 595.356 1585.84 593.084 1589 590.813C1581.7 581.825 1559.18 590.516 1555.92 599.109C1557.99 599.8 1558.58 600.097 1560.76 601.677C1571.72 610.665 1578.24 628.541 1579.52 635.258C1581.3 644.542 1577.25 643.159 1576.16 642.27C1567.67 635.751 1563.72 625.776 1557 617.875C1557 617.875 1556.77 617.71 1556.31 617.381C1556.31 617.381 1556.02 617.875 1555.82 620.146C1554.83 617.479 1554.24 616.492 1550.98 613.134C1547.13 609.183 1546.53 606.911 1548.02 601.578C1550.29 594.467 1562.53 559.701 1585.25 572.738C1572.12 547.355 1577.84 547.158 1581.3 547.158C1588.12 547.059 1588.21 515.651 1563.03 491.848C1566.19 494.021 1569.94 495.404 1572.71 498.07C1571.65 496.49 1569.35 493.461 1565.79 488.984C1565.79 488.984 1565.79 489.181 1565.79 489.873C1565 490.663 1564.51 491.157 1560.95 489.873C1560.66 489.774 1533.89 476.243 1549.3 467.947C1547.52 467.255 1545.25 465.675 1544.26 464.095C1539.62 456.687 1536.86 448.193 1532.31 440.786C1531.42 439.798 1530.24 438.514 1529.35 437.625L1529.25 437.724ZM568.545 128.979C571.212 128.584 574.175 127.102 581.188 123.547C589.78 119.201 590.966 118.707 592.546 119.102C592.941 119.892 592.546 121.67 586.126 125.127C587.509 125.818 589.385 125.719 594.719 124.633C598.768 123.744 599.262 123.744 601.336 123.547C602.126 120.979 602.225 120.287 601.237 118.806C599.756 116.732 597.089 116.435 595.114 115.053C598.867 114.855 605.879 114.559 618.324 112.485C628.201 110.806 625.04 105.472 625.04 105.472C623.855 104.682 621.188 104.682 619.707 104.781C609.632 105.472 600.546 108.336 597.78 109.818C597.78 109.917 597.78 110.016 597.78 110.114C596.398 110.312 594.916 110.114 593.632 110.608C593.04 110.806 592.941 111.695 592.249 111.793C592.941 112.09 593.435 112.287 595.114 112.386C594.521 112.583 593.83 112.88 593.237 113.176C590.669 111.892 588.2 112.781 584.743 116.238C584.546 114.756 582.274 113.571 583.657 111.892C582.472 112.386 578.916 114.065 576.052 112.88C575.657 112.682 575.064 112.88 574.768 112.979C573.286 113.867 572.792 115.942 571.113 116.633C571.311 116.04 571.311 115.579 571.113 115.25C569.829 115.25 568.052 118.114 568.545 118.806C569.336 119.991 569.928 118.806 570.718 117.226C574.57 118.312 578.62 116.633 582.373 118.213C570.718 122.691 564.661 125.324 564.2 126.115C564.792 127.794 568.743 128.88 568.842 128.88L568.545 128.979ZM345.135 212.536C350.666 209.079 376.148 191.696 376.345 191.498C376.049 191.794 375.753 192.091 375.456 192.387C378.222 191.992 378.913 191.893 387.407 187.054C395.704 181.819 407.358 182.412 412.691 172.14C410.42 172.337 408.346 173.325 406.173 173.918C410.321 171.449 414.469 168.979 418.716 166.708C417.136 168.387 415.259 169.868 413.482 171.35C416.84 170.856 425.235 165.424 425.926 164.634C425.136 164.93 424.05 165.522 423.358 165.918C425.926 164.436 428.494 163.053 430.963 161.276C430.173 161.671 429.185 162.263 428.395 162.658C428.395 162.658 432.148 159.201 439.655 152.288C440.84 152.584 443.803 153.275 445.284 149.819C445.383 150.214 445.482 150.609 445.68 151.004C449.729 152.288 451.704 148.436 454.865 147.448C453.68 147.514 452.165 148.041 450.322 149.028C457.433 144.584 457.729 144.485 463.458 143.399C470.668 141.028 475.31 134.608 481.927 131.349C481.532 131.349 481.038 131.547 480.742 131.645C480.742 131.25 480.742 130.658 480.841 130.263C485.285 127.596 491.014 128.584 495.063 124.929C494.668 124.929 494.273 124.929 493.878 124.929C495.359 124.139 497.137 123.744 498.421 122.559C497.763 122.559 496.149 122.954 493.581 123.744C509.088 115.645 526.174 111.497 542.175 104.781C543.261 104.287 544.644 103.694 545.73 103.201C541.714 102.147 533.055 103.991 519.755 108.732C525.779 99.5463 541.582 107.546 545.237 94.1141C544.348 93.8178 543.162 93.5215 542.273 93.5215C537.829 94.1141 532.002 95.7931 529.533 96.7808C529.236 96.9783 528.94 97.0771 528.545 97.2746L529.039 97.0771H528.841L528.15 97.4721C528.15 97.4721 527.952 97.4722 527.952 97.5709H528.15V97.3734H528.249C528.249 97.3734 529.039 96.8795 529.434 96.7808C524.825 97.8343 520.084 99.7108 515.211 102.41C516.002 101.752 517.285 100.863 519.063 99.7438C517.187 100.435 515.508 101.522 513.631 102.213C514.026 102.015 514.421 101.719 514.816 101.522C513.927 101.917 512.742 102.509 511.853 102.904C512.742 102.411 514.026 101.719 514.915 101.324C512.742 102.411 510.075 103.793 507.31 105.176C464.248 127.497 423.161 152.979 384.345 181.523C362.518 197.523 341.382 214.511 321.036 232.388C330.221 224.486 347.604 209.869 352.839 206.61C350.468 208.881 347.703 210.758 345.135 212.832V212.536ZM1529.94 427.551C1527.28 423.501 1524.81 420.835 1512.36 409.575C1501.2 399.501 1499.13 397.229 1498.14 394.464C1498.24 394.266 1498.44 393.871 1498.53 393.674C1500.21 393.279 1501.1 393.18 1507.13 395.057C1505.55 390.612 1504.06 387.452 1496.85 381.624C1486.09 372.933 1472.46 369.081 1461.4 360.883C1449.94 352.488 1441.35 340.932 1430.09 332.438C1426.43 329.673 1421 326.414 1416.36 326.512C1415.17 326.611 1414.88 326.71 1413.69 327.105C1417.15 331.154 1422.58 332.735 1425.84 337.08C1443.13 348.142 1481.05 387.945 1499.23 407.205C1515.03 423.798 1518.98 427.748 1522.53 430.415C1519.47 426.464 1517.89 423.897 1515.92 419.452C1516.77 419.65 1518.58 420.736 1521.35 422.711C1525.4 425.576 1528.95 427.946 1529.94 427.452V427.551ZM684.004 167.103C684.201 167.695 684.498 168.288 686.868 168.979C687.362 168.584 687.955 167.992 688.251 167.399C688.053 167.004 687.658 166.609 687.362 166.313C687.559 165.918 687.955 165.325 688.35 165.029C694.473 174.411 701.584 176.189 710.078 170.362C707.905 165.918 704.251 162.461 702.374 157.917C708.498 156.337 714.128 151.3 715.807 146.065C719.066 147.646 723.017 145.275 732.4 139.744C742.474 133.818 754.425 135.201 765.091 131.942C766.375 131.547 768.153 130.757 769.437 130.263C762.03 129.078 754.721 128.485 747.511 128.682C743.264 128.979 741.387 129.078 738.029 130.065C735.856 130.757 734.375 132.633 732.202 133.325C724.696 135.892 716.696 136.979 709.189 139.843C710.473 141.621 709.881 142.312 704.646 144.88C704.449 144.979 680.942 159.893 681.337 163.053C683.214 164.14 685.584 163.942 687.263 165.226C684.893 166.016 684.498 166.115 684.004 167.004V167.103ZM1526.09 585.479C1526.09 585.479 1526.29 585.775 1526.48 585.973C1526.39 585.775 1526.29 585.578 1526.09 585.479ZM281.825 338.068C277.15 341.163 270.5 347.583 261.874 357.328C261.874 357.328 260.689 361.377 264.146 361.377C266.418 361.377 269.48 359.501 270.764 358.71C269.381 359.797 268.689 360.389 267.603 361.081C282.22 353.673 285.183 357.13 286.171 360.883C288.048 354.562 294.566 352.784 298.319 348.241C303.159 342.414 298.715 342.809 296.443 343.105C295.159 343.204 295.06 343.204 294.468 343.105C297.233 339.846 301.381 335.006 300.492 332.834C304.048 334.117 309.678 308.833 309.579 308.537C309.48 308.241 308.986 307.944 308.789 307.648C316.986 304.191 330.517 292.438 331.011 288.29C329.925 287.006 328.246 287.796 320.937 291.055C328.904 285.129 333.908 281.113 335.95 279.006C335.061 279.894 333.777 281.08 332.789 281.969C322.419 289.672 315.406 291.648 313.431 292.142C313.925 291.253 314.616 290.364 314.912 289.376C314.813 289.376 314.616 289.376 314.517 289.376C318.369 286.512 321.036 284.043 323.209 281.08C321.53 281.08 320.443 282.067 316.986 285.129C313.497 288.092 311.752 289.672 311.752 289.87C308.394 292.635 306.32 295.401 305.924 295.895C307.9 294.018 309.776 291.944 311.752 289.969C311.752 290.067 311.752 290.265 311.752 290.463C311.85 290.463 311.949 290.66 312.048 290.759C312.443 290.693 312.871 290.528 313.332 290.265C309.678 293.722 307.702 296.981 307.702 296.981C308.69 297.376 309.085 296.586 309.875 295.203C309.875 295.302 309.875 295.5 309.974 295.598C310.665 295.598 311.06 295.598 313.431 294.018C313.332 294.018 299.505 305.771 298.715 306.66C298.715 306.66 306.813 302.117 309.579 299.845C308.262 301.228 305.595 303.599 301.579 306.957C301.579 306.957 302.665 305.969 303.06 305.574C299.373 308.01 296.377 310.545 294.072 313.179C295.653 312.092 296.64 311.302 298.319 309.92C297.431 310.809 295.06 313.278 294.072 315.549C294.566 315.549 295.653 315.549 302.566 308.932C297.035 315.055 296.048 316.339 295.85 318.611C296.64 319.401 296.64 319.401 300.097 319.5C297.134 321.673 293.184 326.019 292.196 328.587C292.295 328.685 292.393 328.784 292.492 328.982C292.788 328.982 293.085 328.784 293.381 328.685C289.233 333.031 287.653 334.315 282.023 338.068H281.825ZM1577.65 419.057C1577.65 418.464 1577.05 416.785 1575.77 414.119C1575.77 414.02 1575.67 413.921 1575.57 413.822C1575.57 413.921 1575.57 414.02 1575.57 414.119C1575.47 414.81 1575.28 415.995 1575.67 417.378C1575.47 417.279 1575.18 417.082 1574.98 416.983C1575.67 417.773 1577.55 420.045 1577.65 419.057ZM383.456 205.326C381.382 205.918 379.111 204.93 377.037 205.819C374.271 207.005 372.493 208.289 368.938 211.449C370.814 209.572 371.506 208.684 371.604 207.992C370.518 207.4 365.777 210.066 359.259 215.005C369.728 205.622 370.913 204.042 371.703 203.054C371.604 203.054 371.506 203.054 371.407 203.054C369.827 204.14 367.555 206.017 364.789 208.585C365.382 207.795 365.382 207.696 365.481 207.301C365.086 207.301 364.691 207.103 359.555 211.844C359.555 211.745 359.752 211.548 359.752 211.35C359.357 211.35 359.16 211.35 355.802 213.721C355.999 213.721 356.197 213.721 356.296 213.721C356.394 214.215 356.197 214.708 356.296 215.202C356.296 215.202 356.493 215.301 356.592 215.4C356.098 215.696 355.505 216.19 355.012 216.486C354.715 216.98 354.715 216.98 354.715 217.276C354.715 217.276 354.913 217.375 354.913 217.474C354.913 217.474 347.209 220.437 347.308 222.61C347.703 222.708 347.703 222.807 348.394 222.61C336.641 231.104 341.777 232.486 341.876 232.486C344.048 232.98 352.345 230.511 360.543 225.375C362.222 224.388 364.296 222.906 365.876 221.82C368.641 219.745 370.814 216.98 373.975 215.4C373.876 215.4 373.679 215.202 373.58 215.103C373.876 214.313 374.469 212.733 383.654 205.523L383.456 205.326ZM316.295 236.042H316.196L315.604 236.733C317.381 235.153 319.258 233.573 321.036 231.993C319.06 233.672 317.381 235.153 316.394 236.042H316.295ZM857.438 112.188C857.438 112.188 857.438 112.09 857.438 111.991C860.895 111.003 863.957 110.608 869.883 110.213C865.537 110.707 864.648 111.793 863.76 113.374C870.278 115.546 875.908 119.695 882.723 120.88C888.55 121.966 892.007 119.695 893.39 118.806C893.785 118.509 894.871 117.719 896.056 116.337C896.056 116.337 895.365 116.04 893.982 115.448C891.711 114.559 891.908 113.966 893.982 112.485C886.871 112.682 883.908 111.102 880.254 109.225C875.908 106.954 872.55 105.867 864.846 105.966C862.08 105.966 860.401 106.164 857.735 106.361C858.13 108.238 858.229 110.213 854.574 109.522C857.241 110.114 858.92 110.312 861.488 110.608C858.525 110.608 856.747 110.608 854.179 110.312C854.673 110.904 856.056 112.485 857.438 112.287V112.188ZM1094.48 137.571C1094.15 137.703 1093.82 137.769 1093.49 137.769C1095.76 138.065 1098.13 137.868 1100.4 138.164C1108.4 139.152 1116.11 141.818 1124.11 142.609C1129.34 143.102 1133 142.609 1133.79 141.72C1133 139.843 1119.47 137.769 1119.37 137.769C1116.01 137.473 1112.75 136.485 1109.39 136.09C1103.27 136.386 1098.53 131.645 1092.5 131.843C1090.73 131.942 1090.53 132.534 1090.43 133.028C1091.42 134.905 1093.69 135.695 1094.58 137.67L1094.48 137.571ZM902.674 123.152H902.871C912.55 123.053 918.871 120.88 921.736 119.497C922.131 119.3 922.526 119.102 922.921 118.905C919.464 115.843 910.97 112.88 905.834 112.979C899.118 113.374 898.229 120.584 900.402 122.263C901.39 123.053 902.377 123.053 902.772 123.053L902.674 123.152ZM1163.81 141.028C1163.81 141.028 1163.91 140.633 1164.01 140.436C1157.1 136.09 1151.37 134.411 1144.16 134.608C1141.1 134.806 1139.02 135.201 1135.76 136.485C1136.65 136.288 1138.73 136.979 1142.78 138.362C1150.38 141.028 1161.84 144.979 1163.81 140.93V141.028ZM1562.44 387.254C1562.44 387.254 1562.44 386.76 1562.14 386.365C1561.45 385.081 1559.18 382.316 1558.09 381.921C1558.29 382.711 1559.57 384.686 1560.56 385.773C1561.05 386.365 1562.24 387.649 1562.53 387.254H1562.44ZM1570.24 402.365C1570.24 402.365 1570.24 402.267 1570.24 402.069C1570.14 401.674 1569.35 401.378 1568.76 401.18V401.378C1568.95 402.76 1570.04 402.662 1570.24 402.365ZM1577.05 426.86C1577.05 426.86 1576.95 426.563 1576.86 426.465C1576.46 426.333 1576.16 426.3 1575.97 426.366C1575.18 426.662 1574.88 427.65 1575.08 429.427C1575.08 429.23 1574.88 429.032 1574.78 428.835C1574.78 429.032 1574.78 429.23 1577.25 434.465C1578.34 433.773 1579.52 432.193 1576.95 426.958L1577.05 426.86ZM1572.71 407.007C1572.71 407.007 1573.1 407.007 1573.1 406.514C1572.51 405.921 1571.72 405.131 1571.42 405.23C1571.13 405.427 1572.12 406.909 1572.71 407.106V407.007ZM716.004 109.522L720.844 110.707C722.227 110.904 723.609 110.608 724.103 110.509C724.103 109.917 724.103 109.818 723.609 109.423C724.004 109.423 724.498 109.225 724.795 109.127C727.626 110.246 731.873 109.588 737.536 107.151C738.194 109.127 743.527 108.402 753.536 104.978C753.536 104.978 753.141 105.769 752.943 106.065C751.955 107.053 751.857 107.151 751.758 107.448C752.054 107.448 753.042 107.448 754.523 106.954L755.017 105.966V105.67C755.511 104.485 755.412 104.386 755.314 103.892C753.536 103.102 753.042 103.003 748.499 103.398C749.091 102.806 749.98 102.114 750.573 101.62C747.61 101.62 744.943 103.102 741.98 103.201C741.98 103.299 742.178 104.583 745.042 104.386C743.363 104.978 741.486 105.275 739.807 105.867C738.819 105.867 737.239 106.065 730.721 107.645C730.721 107.843 730.918 108.139 730.918 108.435C729.832 108.238 728.943 108.238 727.659 108.238C729.634 107.645 730.819 107.151 732.4 106.46C730.029 105.769 728.251 105.571 725.288 105.472C726.77 105.275 729.14 104.682 730.523 104.188C732.4 104.682 736.943 105.769 737.437 103.892C737.338 103.694 737.14 103.497 736.943 103.398C735.659 103.003 734.276 103.299 733.091 102.707C729.832 101.225 729.437 101.324 729.042 101.423C729.042 101.423 729.173 101.982 729.437 103.102C725.19 103.892 721.14 105.769 716.696 105.472L715.807 105.966C716.004 106.559 716.004 106.559 715.906 106.954C715.609 107.151 715.412 107.25 714.128 106.657C714.128 107.151 714.128 107.151 714.325 107.843C714.325 107.843 714.128 107.843 714.029 107.843C712.646 107.546 711.165 107.25 708.202 107.448C708.202 108.238 708.202 108.732 708.202 109.62C713.14 109.423 715.675 109.357 715.807 109.423L716.004 109.522ZM1565.2 392.291C1564.91 391.797 1564.51 391.402 1564.31 391.205H1564.21C1564.21 391.205 1564.21 392.192 1565.4 394.266C1565.7 393.871 1565.7 393.081 1565.2 392.291ZM684.597 108.139C686.572 107.843 690.127 107.349 694.177 107.645C692.531 107.909 691.609 108.106 691.411 108.238C691.411 108.238 691.411 108.435 691.609 108.534C689.831 108.929 688.843 109.127 687.461 109.127C688.35 111.102 690.918 111.3 697.436 109.719C696.942 109.917 696.35 110.114 695.955 110.312C696.547 110.509 697.14 110.509 697.831 110.411C697.239 111.102 696.152 112.386 698.918 112.09C700.498 111.892 702.967 111.201 703.856 110.904C704.054 110.904 704.251 110.806 704.35 110.806C702.473 109.917 700.695 109.818 698.226 110.312C699.214 110.114 699.708 109.818 700.695 109.225C700.498 109.225 700.103 109.127 699.905 109.028C701.979 108.534 703.955 107.941 706.029 107.448C705.93 106.164 705.733 103.892 698.72 103.991C693.782 104.287 688.35 105.472 682.72 107.645C683.806 107.843 684.3 107.941 684.794 107.941L684.597 108.139ZM1488.06 1687.12C1484.9 1688.8 1481.94 1690.68 1478.78 1692.36C1485.04 1688.08 1488.26 1685.58 1488.46 1684.85C1487.67 1685.05 1486.68 1685.25 1485.99 1685.45C1469.2 1694.73 1453.99 1706.58 1436.31 1714.38C1419.72 1721.69 1409.18 1726.6 1404.71 1729.1C1391.27 1736.71 1389.89 1738.58 1389.69 1739.77C1395.82 1742.14 1464.85 1703.03 1483.23 1690.38C1484.71 1689.4 1486.68 1688.01 1488.06 1687.03V1687.12ZM1479.18 1693.94C1483.62 1693.64 1522.53 1667.47 1535.67 1656.51C1535.87 1656.31 1536.07 1656.11 1536.26 1656.01C1533.3 1657 1531.52 1659.67 1528.66 1660.85C1529.25 1660 1534.98 1654.86 1545.84 1645.44C1543.37 1647.42 1540.81 1649.3 1538.34 1651.27C1539.52 1650.19 1540.61 1649.1 1541.79 1648.01C1525.79 1661.64 1479.67 1693.54 1479.08 1693.94H1479.18ZM1566.58 1624.7C1558.88 1631.12 1551.87 1638.33 1544.36 1645.05C1545.35 1644.46 1546.14 1643.67 1547.13 1643.07C1546.93 1643.37 1546.53 1643.77 1546.14 1644.16C1553.55 1637.15 1560.95 1630.14 1568.66 1623.32C1568.07 1623.72 1567.28 1624.31 1566.68 1624.7H1566.58ZM1446.19 217.869C1446.19 217.869 1446.09 217.869 1445.99 217.77C1445.99 217.77 1446.09 217.77 1446.19 217.869ZM1445.79 217.671C1445.79 217.671 1445.89 217.671 1445.99 217.77C1445.99 217.77 1445.89 217.77 1445.79 217.671ZM248.64 358.908C251.01 357.92 263.652 351.895 283.406 327.796C285.48 325.327 291.603 317.821 287.356 317.92C287.06 317.92 286.764 317.92 286.467 318.018C278.764 320.488 273.529 327.204 266.121 330.364C264.838 333.821 263.554 335.401 260.689 337.179C262.171 338.858 259.504 341.92 252.59 348.834C248.936 352.488 237.775 363.451 248.64 358.908ZM1420.51 1636.06C1420.51 1636.06 1420.51 1636.06 1420.61 1635.96C1420.41 1636.06 1420.21 1636.26 1420.11 1636.46C1420.21 1636.36 1420.41 1636.26 1420.51 1636.06ZM1613.4 1519.12C1613.89 1518.53 1614.39 1517.94 1614.88 1517.34C1614.39 1517.94 1613.99 1518.53 1613.5 1519.12H1613.4ZM1546.04 1644.16C1544.66 1645.44 1543.28 1646.73 1541.89 1648.01C1543.77 1646.43 1545.15 1645.15 1546.04 1644.16ZM1404.31 1688.31C1402.04 1688.31 1399.87 1687.91 1397.59 1687.91C1395.32 1688.01 1390.58 1688.21 1382.48 1693.45C1373.2 1699.47 1365.5 1707.47 1356.7 1714.19C1367.27 1712.31 1368.56 1711.52 1380.71 1703.32C1392.26 1695.62 1401.45 1689.49 1403.62 1688.51C1403.82 1688.51 1404.11 1688.31 1404.21 1688.31H1404.31ZM607.558 702.123C610.324 702.518 611.015 702.32 611.213 702.123C611.509 701.728 610.423 701.135 609.336 701.234C608.25 701.234 607.855 701.728 607.657 702.221L607.558 702.123ZM246.664 497.478V497.873C246.368 499.256 245.874 500.836 244.195 505.774C241.133 514.861 235.998 529.972 240.343 527.207C244.294 524.737 251.603 512.194 255.06 504.589C259.405 495.107 256.837 495.206 255.948 495.305C255.455 495.305 253.776 495.799 249.726 498.07C246.664 499.848 246.664 499.651 246.566 497.577L246.664 497.478ZM142.564 526.812C142.564 526.812 142.762 526.614 142.86 526.416C142.86 526.416 142.663 526.614 142.564 526.812ZM255.455 492.243C256.837 490.268 260.986 484.441 265.331 475.453C266.813 472.292 267.899 469.724 268.294 468.737C267.998 468.835 267.603 469.033 267.405 469.132C261.677 473.082 256.047 483.552 256.245 484.243C254.368 488.391 254.171 490.268 255.356 492.243H255.455ZM1541 978.571C1541.5 971.756 1539.03 967.509 1537.65 965.04C1537.45 965.336 1537.25 965.83 1537.05 966.127C1535.37 969.88 1532.71 976.497 1533.69 977.88C1534.29 977.682 1534.58 977.485 1536.36 975.114C1528.46 988.448 1519.87 1002.08 1519.08 1003.16L1517.99 1004.74C1515.23 1009.19 1513.84 1012.05 1511.97 1017.19C1523.42 1011.16 1539.92 994.374 1541.1 978.472L1541 978.571ZM1594.04 1131.96C1594.54 1130.28 1594.34 1127.81 1594.04 1126.03C1592.46 1126.33 1590.49 1126.82 1588.91 1127.12C1575.37 1129.88 1561.55 1130.67 1548.02 1133.93C1544.26 1134.82 1541.5 1136.5 1539.82 1138.97C1538.73 1140.45 1538.14 1141.93 1537.55 1143.12C1534.58 1149.83 1533.4 1157.04 1531.03 1163.96C1526.58 1177.09 1516.41 1187.27 1512.46 1200.7C1508.51 1214.13 1511.67 1228.15 1509.5 1241.69C1514.04 1240.2 1517.4 1240.2 1521.25 1241.49C1521.25 1241.09 1528.76 1204.25 1534.88 1198.23C1537.65 1202.18 1538.04 1202.77 1536.56 1215.02C1534.39 1232.2 1543.67 1228.95 1545.55 1228.15C1544.76 1229.93 1542.49 1235.36 1543.28 1241.88C1543.57 1242.08 1543.97 1242.28 1544.26 1242.48C1549.7 1239.91 1554.34 1225.98 1554.14 1220.85C1552.07 1221.54 1550.78 1222.23 1548.9 1223.91C1551.18 1209.88 1545.05 1196.65 1544.66 1182.82C1553.35 1193.88 1558.29 1167.81 1568.66 1165.14C1557.3 1163.07 1545.84 1169.68 1534.58 1164.35C1530.14 1162.28 1532.02 1158.72 1541.2 1152.1C1551.18 1144.99 1557.4 1145.78 1569.74 1147.26C1580.51 1148.65 1581.3 1147.86 1585.84 1143.41C1585.35 1144.1 1584.66 1145.09 1584.07 1145.78C1590.19 1138.54 1593.51 1133.93 1594.04 1131.96ZM1614.19 1199.61C1609.15 1199.91 1601.94 1202.67 1607.87 1207.91C1608.66 1208.6 1609.65 1209.19 1610.34 1209.69C1609.94 1209.98 1609.94 1209.98 1609.84 1210.18C1609.84 1210.18 1609.84 1210.18 1609.94 1210.18C1610.14 1210.18 1610.24 1210.08 1610.44 1209.69C1619.13 1214.43 1628.02 1214.92 1630.68 1210.67C1632.56 1207.71 1629.99 1204.94 1629.5 1204.65C1629.5 1205.73 1630.59 1206.92 1631.08 1207.91C1626.24 1199.81 1616.17 1199.51 1614.19 1199.61ZM1565.3 956.25C1565.3 956.25 1565.3 956.052 1565.2 956.052C1565.2 956.052 1565.2 956.25 1565.3 956.25ZM1569.45 1165.44C1569.15 1165.24 1568.95 1165.14 1568.76 1165.14C1568.95 1165.14 1569.15 1165.34 1569.45 1165.44ZM1563.82 980.151C1565.99 984.892 1574.58 977.09 1574.68 976.991C1576.16 975.608 1577.05 974.127 1577.15 972.744C1577.35 970.67 1576.56 969.682 1574.09 966.917C1568.66 960.793 1567.37 958.916 1566.39 957.237C1565.99 957.435 1565.79 957.237 1565.3 956.151C1565.3 956.151 1565.3 956.348 1565.3 956.447C1565.3 957.435 1565.1 958.324 1564.61 961.781C1563.72 967.41 1562.34 976.991 1563.72 980.151H1563.82ZM1535.87 1282.28L1540.31 1283.56C1540.31 1283.56 1540.11 1284.06 1540.02 1284.35C1538.53 1284.75 1536.66 1285.14 1535.18 1285.44C1535.77 1286.1 1537.12 1286.82 1539.23 1287.61L1539.62 1287.32C1542.78 1286.43 1545.65 1284.95 1548.71 1283.96C1548.51 1284.45 1548.21 1285.04 1548.02 1285.44C1549.2 1285.24 1550.88 1285.04 1551.77 1284.35C1552.95 1283.46 1553.05 1281.88 1554.14 1281C1554.34 1280.8 1554.63 1280.7 1554.93 1280.6C1554.73 1280.6 1554.44 1280.4 1554.24 1280.3H1554.14C1552.76 1280.11 1551.47 1280.9 1550.09 1280.5C1547.13 1280.8 1545.65 1281.09 1543.87 1281.69C1540.41 1277.74 1535.37 1281.49 1535.37 1281.49C1526.58 1278.92 1512.56 1280.01 1505.35 1281.29C1500.61 1282.18 1496.66 1285.14 1491.82 1285.83C1488.26 1286.33 1485 1284.95 1481.55 1284.65C1482.34 1285.83 1482.83 1286.43 1484.41 1287.02C1481.45 1289.19 1480.16 1287.51 1477.89 1284.55C1472.46 1284.55 1470.29 1285.34 1468.81 1285.93C1467.13 1280.6 1464.36 1279.41 1463.18 1279.41C1458.24 1281 1461.6 1285.14 1466.53 1291.56L1466.83 1291.37C1474.83 1293.54 1482.83 1289.88 1490.83 1291.27C1488.46 1285.24 1518.78 1288.6 1519.08 1288.7C1518.98 1288.9 1518.78 1289.19 1518.58 1289.49C1524.41 1287.22 1529.65 1283.96 1535.77 1282.28H1535.87ZM1385.54 1273.79H1385.84C1369.15 1270.33 1358.58 1266.77 1342.58 1259.37C1351.07 1256.8 1357.3 1250.18 1365.4 1246.92C1379.03 1244.95 1387.32 1258.97 1400.36 1258.48C1411.62 1258.08 1422.29 1252.85 1433.74 1254.03C1434.53 1254.03 1435.62 1254.23 1436.41 1254.33C1444.11 1255.91 1445.1 1259.66 1445.89 1262.92C1441.55 1265.88 1436.61 1268.25 1430.29 1265.79C1433.55 1271.02 1434.14 1272.01 1444.41 1273.59C1460.01 1275.96 1458.34 1282.08 1457.45 1283.86C1457.25 1284.16 1456.95 1284.65 1456.76 1284.95C1454.78 1287.12 1444.61 1291.17 1444.61 1281.09C1442.73 1288.21 1428.31 1284.55 1385.54 1273.69H1385.64L1385.54 1273.79ZM1386.63 1273.79C1387.22 1273.79 1388.41 1273.79 1388.61 1273.69C1388.61 1273.69 1385.84 1273.29 1385.64 1273.49C1385.64 1273.49 1385.74 1273.59 1386.53 1273.88L1386.63 1273.79ZM1575.37 1281.49C1576.16 1279.81 1574.49 1279.91 1572.51 1280.11C1548.41 1285.74 1533.2 1306.28 1529.35 1313.79C1530.73 1313.29 1534.09 1312.3 1544.86 1306.38C1554.73 1300.95 1573 1286.33 1575.28 1281.49H1575.37ZM1477.89 1211.86C1477.89 1211.86 1486.98 1208.99 1479.67 1217.98C1481.84 1215.51 1484.51 1211.96 1485.99 1208.99C1490.24 1200.6 1489.15 1190.72 1493.2 1182.23C1498.14 1171.86 1507.52 1164.55 1512.16 1153.98C1515.42 1146.57 1515.13 1143.41 1514.73 1137.98C1520.66 1145.39 1523.23 1141.14 1524.02 1138.97C1526.09 1133.54 1525.4 1122.67 1510.98 1101.73C1512.3 1102.59 1513.38 1103.21 1514.24 1103.61C1514.24 1103.61 1514.34 1103.12 1509.69 1095.51C1511.67 1095.71 1517.99 1095.71 1516.21 1088.99C1516.41 1089.19 1516.61 1089.59 1516.71 1089.78C1516.9 1089.68 1517.3 1089.49 1517.5 1089.39C1517.5 1088.5 1517.2 1086.72 1516.11 1083.07C1521.05 1087.51 1524.21 1081.78 1523.92 1078.13C1523.92 1077.04 1523.23 1075.66 1522.83 1074.67L1523.03 1074.47C1524.61 1072.7 1538.34 1057.09 1530.63 1056.89C1527.97 1056.89 1522.93 1059.07 1520.56 1060.25C1521.88 1059.4 1522.73 1058.57 1523.13 1057.78C1522.07 1057.32 1520.06 1057.26 1517.1 1057.58C1521.94 1046.82 1513.74 1041.58 1511.67 1041.78C1510.19 1042.28 1509.89 1042.57 1508.81 1043.86C1508.81 1043.56 1508.81 1043.16 1508.81 1042.87C1508.71 1042.87 1494.29 1043.66 1488.56 1079.61C1488.26 1076.35 1487.87 1075.66 1485.79 1073.58C1483.13 1078.82 1481.94 1082.18 1480.56 1087.91C1475.82 1086.82 1477.5 1080.1 1472.85 1078.92C1467.42 1094.03 1442.63 1114.77 1439.27 1109.54C1439.08 1109.34 1439.08 1108.94 1438.98 1108.65C1435.62 1116.55 1434.43 1121.78 1434.04 1130.08C1429.2 1126.23 1418.24 1128.1 1418.93 1119.41C1410.43 1127.81 1406.88 1131.36 1408.16 1148.65C1408.16 1149.24 1415.87 1205.54 1425.45 1206.13C1428.41 1206.33 1431.08 1201.59 1432.36 1199.32C1434.04 1208.9 1454.68 1209.88 1460.71 1206.72C1457.55 1219.96 1471.67 1214.82 1477.89 1211.96V1211.86ZM1445 783.408C1445 783.408 1444.51 784.099 1444.31 784.494C1444.61 784.198 1444.8 783.902 1445 783.408ZM1519.77 750.716C1523.72 743.605 1525.1 740.839 1524.31 737.876C1524.31 737.679 1524.11 737.382 1524.02 737.185C1524.81 738.469 1525.79 740.247 1525.99 744.296C1526.29 749.531 1524.9 756.049 1523.72 761.778C1521.55 772.543 1520.46 778.371 1522.24 783.902C1520.2 781.399 1518.19 779.391 1516.21 777.877C1516.21 777.877 1516.51 778.074 1516.71 778.173C1516.05 777.646 1515.65 777.251 1515.52 776.988C1515.52 776.988 1516.31 777.383 1516.61 777.581C1510.58 770.173 1512.86 762.963 1519.67 750.716H1519.77ZM1518.68 779.655L1517.1 778.074C1517.1 778.074 1517.1 778.173 1517.1 778.272L1518.29 779.26L1518.68 779.655ZM1525.3 787.753C1525.3 787.753 1525.3 787.753 1525.4 787.753C1524.41 786.47 1523.42 785.087 1522.24 783.803C1522.24 783.803 1522.24 783.902 1522.24 784C1522.73 785.087 1523.52 786.568 1525.2 787.655L1525.3 787.753ZM1344.56 1257.39C1343.96 1256.7 1343.57 1256.3 1343.37 1256.3C1343.37 1256.3 1343.27 1256.3 1343.27 1256.5C1343.27 1256.8 1343.86 1258.08 1344.56 1257.49V1257.39ZM1239.67 881.977C1239.07 881.088 1238.28 879.903 1237.79 878.915C1226.99 885.895 1220.04 887.376 1216.95 883.36C1210.53 874.866 1208.75 861.927 1207.86 855.705C1204.21 829.038 1182.38 813.433 1169.64 792.198C1168.16 789.729 1166.38 786.272 1164.8 783.803C1163.32 781.334 1160.95 778.371 1159.37 776C1157.1 776.198 1154.04 776.494 1151.76 776.593C1150.84 783.968 1148.9 789.334 1145.94 792.692C1144.65 790.914 1143.17 788.247 1142.18 786.272C1141.1 788.05 1139.22 790.124 1137.44 791.21C1135.37 790.618 1132.41 790.223 1130.23 790.322C1129.54 791.21 1128.55 792.494 1127.76 793.383C1127.07 792.692 1126.08 791.704 1125.39 790.914C1124.5 791.507 1123.42 792.198 1122.53 792.791C1121.05 791.309 1119.96 788.544 1119.76 786.47C1102.68 825.878 1057.44 841.285 1040.16 880.397C1023.47 918.225 1034.63 961.682 1015.76 999.115C1013 1004.65 1009.34 1012.94 1004.01 1016.1C982.378 1029.14 884.007 851.656 914.723 792.692C913.735 792 912.452 791.112 911.464 790.42C911.266 788.346 910.674 785.581 909.884 783.605C908.896 783.309 907.513 782.914 906.525 782.716C907.118 784 908.205 785.581 908.501 786.963C911.266 797.828 896.748 808.988 888.254 807.704C872.55 805.334 875.315 786.667 864.253 780.346C875.216 779.062 876.599 775.803 877.883 772.543C868.402 773.037 860.401 771.457 847.463 761.679C827.808 745.086 825.142 734.913 824.253 731.555C788.697 712.592 748.301 743.901 713.239 720.79C709.782 718.518 705.239 715.357 701.683 713.185C685.189 703.407 665.831 714.073 649.139 706.073C628.003 695.9 630.077 665.381 606.373 657.48C604.99 656.986 603.015 657.184 601.534 656.986C601.534 656.986 596.398 663.011 588.002 668.641C596.299 670.715 597.484 672.591 601.04 688.888L626.225 742.913C639.954 758.222 690.621 756.938 692.992 715.555C702.572 725.827 694.769 740.741 702.671 751.407C710.572 762.074 726.869 759.506 734.079 771.259C736.35 774.914 736.745 781.235 735.856 785.482C733.091 799.21 713.831 836.347 660.3 878.619C659.213 879.409 555.409 961.089 532.397 939.064L446.371 713.382C445.383 710.814 444.099 707.357 443.21 704.789C437.679 688.295 438.963 678.616 440.445 667.357C429.877 681.579 429.976 686.419 430.371 696.197C420 681.974 416.642 673.875 415.358 660.048C404.691 678.517 403.704 692.246 424.939 729.975C435.605 748.938 448.972 787.26 465.038 844.94C475.31 881.78 486.174 901.434 503.853 915.163C512.15 921.583 527.755 933.632 531.113 941.731C535.557 952.299 530.817 956.052 522.224 962.867C551.459 973.863 569.731 978.275 577.039 976.102C615.098 964.711 634.324 960.036 634.719 962.077C635.213 964.546 644.695 1024.4 554.027 1138.18C464.248 1250.87 530.817 1313.59 531.607 1314.08C531.409 1315.46 531.212 1317.24 531.113 1318.63C532.594 1340.65 547.014 1359.12 548.199 1381.24C549.681 1408.9 518.273 1413.94 510.767 1435.37C501.088 1463.12 535.36 1479.52 528.94 1506.38C526.57 1516.46 518.273 1522.58 513.829 1525.84C527.063 1538.38 539.607 1550.23 523.014 1594.18C506.915 1636.75 469.779 1626.09 469.384 1625.89C462.174 1622.63 375.851 1530.88 372.197 1526.92C345.234 1498.18 288.739 1412.75 288.443 1412.16C273.233 1382.82 277.282 1348.35 264.047 1318.43L262.665 1315.76C262.368 1315.17 228.689 1258.97 235.603 1245.04C213.676 1234.28 169.626 1180.65 186.614 1150.52C167.651 1129.98 187.503 1096.89 163.206 1078.13C162.318 1079.02 161.034 1080.2 160.046 1081.19C158.762 1080.79 157.182 1080.2 155.898 1079.81C154.416 1081.68 151.354 1083.36 148.984 1083.76C126.399 1061.11 111.914 1052.15 105.527 1056.89C60.0939 1090.57 54.5629 1077.63 45.2788 1056C45.0813 1055.51 23.5502 993.485 17.8217 906.965C15.4513 871.705 29.6737 838.026 28.5872 802.865C28.3897 804.149 28.0934 805.927 27.8959 807.211C33.1305 732.938 112.934 602.368 113.724 601.282C125.971 583.504 131.502 576.59 134.959 575.207C139.897 573.133 143.157 577.479 147.305 578.269C151.058 579.059 152.638 578.467 167.651 568.096C181.38 558.614 186.713 555.849 194.911 553.775C197.215 553.182 210.187 552.03 233.825 550.318C241.726 550.121 246.961 549.923 239.553 566.615C234.417 578.17 225.331 588.047 223.849 601.282C227.306 625.578 285.183 671.209 295.949 636.344C300.887 620.245 307.011 616.788 311.258 616.788C313.036 616.788 315.505 616.591 317.283 616.887C334.764 620.146 345.332 636.443 362.222 640.887C378.617 645.233 392.938 631.603 409.333 635.258C410.519 637.727 412.494 640.887 414.173 642.961C438.272 639.998 448.741 618.566 457.235 601.282C473.334 566.615 467.705 559.503 465.63 558.219C465.63 558.219 426.124 559.306 417.729 559.898C400.839 560.985 391.16 557.726 388 556.738C388.592 555.75 389.284 554.368 389.876 553.38C387.407 552.689 383.95 552.195 381.382 552.195C382.568 545.676 381.876 538.861 384.938 532.738C374.469 521.478 389.382 511.305 388 500.243C380.691 495.305 374.469 493.428 365.481 499.157C365.283 501.824 365.876 505.379 366.962 507.75C364.592 507.75 361.431 508.243 359.061 508.836C358.863 510.021 358.567 511.602 358.37 512.885C357.283 510.219 355.505 506.762 353.826 504.392C350.962 516.54 360.147 527.207 358.271 539.256C357.58 538.269 356.592 536.886 355.9 535.799C355.9 537.972 354.715 541.034 353.135 542.614C351.357 541.232 348.197 540.343 346.024 540.54C346.814 541.627 347.9 543.009 348.691 544.096C346.814 545.775 344.345 547.849 342.369 549.429C342.172 552.293 341.777 556.145 341.481 558.911C340.394 559.602 339.011 560.491 337.925 561.182C322.32 550.812 331.801 538.664 334.863 534.713C332.295 534.515 327.061 534.219 325.579 526.713C323.9 517.824 326.764 503.996 326.764 503.799C329.925 489.28 319.752 477.922 317.777 464.687C317.283 461.23 314.814 456.983 314.517 453.527C314.221 450.366 315.505 446.02 317.184 443.452C316.591 442.267 315.9 440.786 315.307 439.699C314.221 440.094 312.739 440.588 311.653 440.983C310.567 440.391 309.085 439.699 307.999 439.107C296.443 447.403 292.097 450.564 293.875 467.255C295.653 484.342 312.641 493.922 315.307 510.515C309.875 512.589 304.838 509.034 299.505 509.33L299.307 509.527C299.307 509.527 297.727 530.96 287.85 542.516C279.653 541.528 274.319 549.627 266.319 549.232C259.8 537.873 281.134 537.972 286.665 530.268C303.752 506.367 278.467 463.107 278.27 462.613C269.578 448.885 255.356 462.613 243.899 462.416C243.899 462.416 243.8 462.416 241.035 462.613C240.837 462.613 203.701 492.539 184.244 526.12C171.305 548.639 157.774 561.676 142.86 565.923C137.428 561.973 138.12 555.059 134.762 550.022C133.576 550.318 131.996 550.713 130.91 551.108C136.046 539.52 139.865 531.289 142.367 526.416C142.367 526.416 141.774 527.108 141.576 527.503C161.527 485.231 179.964 464.457 196.886 465.181C210.219 465.675 243.405 425.082 230.565 402.563C238.17 397.822 238.566 397.723 250.22 394.662C257.825 375.6 338.419 330.957 339.209 330.661C340.098 331.451 341.184 332.537 341.974 333.327C350.863 323.747 355.999 311.5 364.789 301.919C366.271 300.438 368.246 298.561 369.827 297.277L370.222 297.08C377.037 291.45 379.901 291.055 383.753 290.463C377.037 297.673 372.296 306.759 363.703 312.389C364.987 312.29 366.765 312.092 368.148 311.994C365.25 316.405 362.024 318.776 358.468 319.105C358.962 317.821 359.752 316.142 360.246 314.858C355.802 322.068 356.098 322.562 358.468 326.908C358.468 326.908 365.58 326.117 375.259 325.327C374.271 326.019 372.987 326.907 371.999 327.5C372.592 328.587 373.481 330.068 374.074 331.154C374.469 331.154 411.111 327.796 418.914 322.759C430.469 305.475 440.346 294.216 448.247 289.277C450.322 290.463 452.593 292.734 453.877 294.71C467.013 293.228 463.951 278.907 471.063 272.586C474.091 269.886 487.754 267.812 512.051 266.363C511.656 264.882 511.162 263.005 510.668 261.524C509.384 260.832 507.705 260.042 506.52 259.351C506.322 258.561 506.125 257.474 506.026 256.586C484.297 260.47 471.425 261.721 467.408 260.339C473.993 250.33 489.795 235.68 514.816 216.387C499.606 205.622 495.359 218.56 493.977 222.807C443.112 242.462 445.68 257.869 446.865 265.277C410.584 296.882 388 312.981 379.111 313.574C379.605 312.191 380.197 310.315 380.691 308.932C373.382 316.438 368.641 321.014 366.469 322.661C365.382 322.167 363.901 321.475 362.814 320.981C367.423 319.27 370.09 315.681 370.814 310.216C386.024 313.179 395.704 282.858 399.753 269.919C388.395 279.104 383.555 281.771 374.666 285.03C373.678 284.339 372.395 283.45 371.506 282.857C372.197 278.709 374.962 275.154 375.061 270.907C384.345 262.215 389.679 249.573 402.123 244.042C410.321 240.19 411.407 239.696 418.321 236.338C438.371 226.462 456.346 213.029 475.705 201.967H476.1C484.89 196.239 486.964 194.856 488.841 193.177C489.433 192.683 489.927 192.091 490.717 191.301C488.05 191.992 484.297 192.585 481.532 192.782C488.742 188.436 496.742 186.165 504.149 182.313C503.359 183.202 502.372 184.387 501.582 185.276C510.964 184.585 517.977 177.77 526.668 175.202C526.668 176.387 526.57 177.868 526.471 179.054C532.858 177.407 536.578 176.091 537.631 175.103C538.915 175.3 540.693 175.597 541.977 175.794C545.533 171.053 546.125 170.165 554.718 167.202C555.805 167.794 557.187 168.683 558.274 169.276C556.002 170.658 552.94 172.732 550.767 174.313C558.768 170.461 566.768 169.276 570.225 168.683C569.237 169.374 568.052 170.263 567.064 170.955C568.447 170.56 570.323 169.967 571.706 169.572C572.891 170.263 574.471 171.152 575.657 171.844C572.891 172.732 569.336 174.016 566.57 174.905C575.064 175.498 579.838 175.86 580.891 175.992C581.089 177.078 581.385 178.658 581.681 179.745C603.114 184.387 611.114 186.066 613.386 191.498C616.447 198.708 603.509 207.597 597.385 208.782C585.83 211.054 577.336 202.165 566.669 200.782C571.146 218.89 575.92 227.318 580.99 226.067C580.397 223.696 579.114 220.536 577.928 218.462C593.533 217.968 605.188 204.733 621.089 205.227C621.88 206.214 622.867 207.4 623.559 208.387C627.509 199.498 629.88 193.539 630.67 190.511C630.077 189.523 629.287 188.14 628.596 187.152C638.966 181.819 644.3 183.893 644.596 193.572C635.509 193.967 633.83 194.264 632.448 201.177C653.682 202.955 668.695 183.004 689.831 184.486C687.757 185.967 684.992 188.14 683.016 189.819C714.819 188.239 719.461 185.868 725.387 182.708C725.124 182.379 721.107 179.284 713.338 173.424C748.235 183.893 766.375 188.897 767.758 188.436C761.24 181.622 758.573 175.202 759.659 169.473C761.536 160.387 773.289 159.597 775.363 150.707C777.832 150.905 781.092 151.596 783.462 152.485C783.462 152.485 783.462 152.485 784.153 152.485C785.24 152.88 786.82 153.374 787.907 153.769C793.339 165.522 791.166 179.152 797.191 190.609C793.931 199.202 793.536 200.091 782.079 204.93C808.944 203.153 805.981 192.683 804.499 187.054C815.956 181.128 821.882 192.98 830.87 195.153C818.524 184.486 801.438 179.745 792.845 164.436C796.796 161.868 799.298 158.51 800.351 154.362C801.339 155.053 802.623 156.041 803.61 156.732C803.709 159.794 804.203 163.745 804.894 166.708C806.541 167.498 812.236 168.222 821.981 168.881C821.059 167.498 817.076 165.062 810.03 161.572C811.117 161.868 812.697 162.164 813.783 162.461C814.672 161.769 815.858 160.782 816.746 159.992C815.759 159.399 814.475 158.51 813.487 157.917C813.487 157.917 831.66 161.967 842.92 162.461C837.586 155.053 834.623 153.275 825.339 151.794C825.339 151.794 825.339 151.794 827.117 151.004C837.29 148.436 848.154 151.399 858.13 147.251C857.043 146.757 855.562 146.164 854.377 145.67C852.204 135.201 857.636 135.3 880.55 135.695C882.229 133.917 885.192 132.436 887.562 131.942C887.562 131.942 893.982 133.818 909.982 133.028C908.995 132.238 907.711 131.25 906.723 130.559C907.81 130.559 909.192 130.559 910.279 130.559C912.978 127.069 916.139 124.929 919.76 124.139C965.786 123.152 1002.92 157.522 1048.95 156.732C1049.54 155.843 1050.43 154.559 1051.02 153.67C1050.73 152.485 1050.23 151.004 1049.93 149.819C1072.55 155.448 1092.11 172.831 1117.59 167.695C1117.2 166.411 1116.7 164.634 1116.31 163.35C1127.76 159.596 1138.43 165.424 1149.39 166.411C1149.39 166.411 1149.39 166.411 1146.83 165.819C1146.04 165.127 1144.85 164.14 1144.06 163.35C1146.89 163.218 1150.74 163.415 1155.62 163.942C1152.95 162.757 1149.39 161.276 1146.63 160.09C1146.23 159.004 1145.64 157.522 1145.24 156.436C1187.71 152.88 1190.68 155.251 1201.74 164.041C1221 179.547 1243.32 168.881 1264.16 171.449C1282.43 173.72 1300.9 174.016 1319.27 176.288C1321.54 176.584 1324.41 177.967 1326.28 179.152C1325.2 178.856 1323.82 178.362 1322.73 178.066C1337.84 183.597 1340.31 183.992 1347.42 185.177C1336.49 180.568 1330.37 176.947 1329.05 174.313C1365.1 172.337 1452.9 196.437 1467.22 212.239C1466.04 212.239 1464.46 212.239 1463.27 212.239C1465.05 213.029 1474.14 217.375 1481.64 223.202C1460.71 234.165 1449.05 212.536 1432.16 209.079C1437.83 212.832 1441.64 215.466 1443.62 216.98C1443.03 217.869 1442.14 219.153 1441.55 220.042C1456.16 227.746 1471.87 233.178 1485.5 242.857C1480.66 240.98 1479.77 240.684 1472.85 240.091C1473.74 241.573 1474.83 243.647 1475.62 245.227C1474.83 246.215 1473.84 247.499 1473.05 248.388C1477.6 252.536 1478.58 253.425 1483.62 262.018C1483.13 263.005 1482.43 264.289 1481.84 265.277C1463.87 261.326 1459.42 262.413 1455.57 263.4C1457.05 272.981 1482.04 287.203 1482.24 287.302C1482.43 287.401 1510.98 304.487 1525.6 321.475C1525.5 322.858 1525.3 324.735 1525.1 326.216C1527.47 329.113 1532.08 333.953 1538.93 340.735C1538.93 340.735 1538.93 340.735 1537.25 341.426C1539.52 350.216 1546.14 356.636 1550.39 364.34C1551.18 365.229 1552.07 369.772 1552.86 373.723C1551.97 372.735 1550.78 371.451 1549.89 370.562H1549.79C1549.2 369.18 1550.09 367.106 1550.39 365.822C1521.65 334.71 1483.32 315.549 1451.92 287.697H1452.11C1452.9 286.512 1453.99 284.932 1454.78 283.746C1442.63 250.758 1420.01 240.388 1413.5 240.487C1420.21 245.425 1421.99 246.61 1428.21 250.363C1427.13 250.363 1425.55 250.462 1424.46 250.561C1425.15 253.425 1426.63 257.079 1427.92 259.746C1408.46 246.61 1406.38 246.116 1397.59 243.943C1396.9 244.734 1395.92 245.82 1395.13 246.709C1395.72 251.186 1404.44 260.372 1421.3 274.265C1412.61 286.314 1402.83 277.623 1400.95 275.746C1401.84 275.055 1403.03 274.166 1403.92 273.475C1403.92 273.475 1403.92 273.475 1403.42 273.178C1401.25 272.882 1398.29 272.586 1396.11 272.586H1394.93C1394.93 272.586 1394.83 272.586 1392.36 272.586C1389.69 272.586 1386.14 272.191 1383.57 271.796C1383.67 271.894 1383.87 272.092 1384.06 272.191C1372.31 275.252 1359.57 262.215 1348.41 274.364C1339.52 284.043 1338.73 330.957 1380.51 331.747C1372.41 324.438 1367.9 319.5 1366.98 316.932C1366.98 316.932 1383.17 327.006 1386.14 335.401C1387.92 334.315 1390.58 333.13 1392.56 332.537C1390.78 330.957 1388.8 328.29 1388.01 326.019C1397.5 326.019 1411.03 328.685 1422.09 341.229C1421 341.031 1419.52 340.834 1418.43 340.735C1482.34 378.76 1498.44 450.662 1488.56 472.095C1487.27 472.589 1485.6 473.181 1484.31 473.576C1481.09 471.996 1477.76 469.329 1474.34 465.576C1473.64 466.366 1472.66 467.453 1471.87 468.342C1471.27 467.453 1470.48 466.169 1469.89 465.28C1471.08 467.848 1471.87 471.7 1471.67 474.564C1470.48 474.366 1468.9 474.169 1467.72 473.971C1484.02 487.897 1468.9 509.33 1479.67 524.639C1489.15 538.071 1507.72 541.231 1515.52 556.639C1517.56 560.721 1520.13 569.841 1523.23 583.998C1521.05 584.294 1518.29 585.084 1516.21 585.874C1516.21 586.961 1516.21 588.343 1516.21 589.43C1495.08 597.529 1486.68 557.429 1487.27 553.676C1488.16 554.368 1489.35 555.256 1490.24 556.047C1489.25 549.923 1488.56 548.046 1478.98 543.108L1479.37 542.812H1478.39C1478.39 542.812 1478.68 543.009 1478.78 543.009C1471.77 540.639 1464.36 540.046 1457.55 537.083C1456.95 534.812 1457.15 531.355 1458.34 529.38C1449.84 525.33 1446.19 513.873 1434.93 513.873C1424.56 513.873 1429.79 529.775 1419.42 529.577C1418.24 529.577 1416.85 528.787 1415.77 528.491C1414.68 519.799 1413.59 519.503 1409.15 518.12C1409.84 516.836 1411.32 515.355 1411.52 513.873C1411.92 510.811 1406.78 497.083 1397.2 500.935C1396.9 501.033 1369.54 519.898 1382.68 534.417C1398.88 552.293 1422.78 540.145 1441.15 549.725C1439.37 559.306 1428.61 565.133 1429.99 575.997C1430.48 580.244 1430.88 583.504 1447.57 601.973C1461.99 617.381 1473.45 627.949 1484.61 636.245C1483.72 636.838 1482.63 637.628 1481.74 638.221C1476.01 635.653 1472.46 629.628 1466.04 628.146C1466.63 628.443 1481.05 634.665 1482.93 653.332C1482.24 654.122 1481.35 655.11 1480.66 655.801C1491.26 658.106 1497.58 663.143 1499.62 670.912C1499.32 671.9 1498.14 672.888 1497.55 673.777C1501.6 682.468 1501.5 683.357 1500.71 689.085C1499.62 689.283 1498.14 689.481 1497.05 689.579C1495.27 694.913 1493 719.999 1497.64 730.37C1497.64 730.37 1497.65 730.37 1498.83 729.185C1496.66 743.21 1496.26 745.383 1485.69 755.852C1474.04 767.309 1457.64 771.161 1445.5 781.729C1444.31 777.679 1443.82 776.198 1438.88 772.938C1442.83 780.939 1443.52 782.321 1434.04 794.47C1433.84 794.272 1411.82 776.988 1407.08 816.198C1415.08 822.816 1418.43 828.939 1414.68 844.248C1411.03 855.705 1399.87 858.174 1393.45 858.668C1394.73 856.397 1396.41 853.236 1397.59 850.865C1398.52 830.19 1400.62 818.832 1403.92 816.791C1403.92 812.346 1403.92 801.877 1397.2 798.914C1393.54 797.235 1352.85 800.89 1355.62 823.803C1360.75 866.668 1406.98 887.409 1412.9 929.78C1415.08 944.892 1408.85 996.843 1386.33 980.151C1385.64 991.312 1375.27 1020.84 1360.16 1012.84C1361.64 1010.47 1363.72 1007.21 1365.2 1004.84C1356.9 971.559 1319.77 960.793 1307.42 930.57C1280.95 948.25 1289.35 991.114 1290.43 995.954C1294.68 1015.71 1312.36 1025.98 1322.73 1041.39C1340.51 1067.86 1334.98 1100.84 1347.42 1128.8C1348.01 1130.08 1349.99 1130.97 1350.98 1131.96C1324.7 1136.8 1315.12 1115.36 1304.75 1068.45C1295.96 1029.04 1291.62 1016.2 1277.2 1027.66C1273.64 1014.42 1272.26 1008.89 1275.32 985.386C1283.42 923.163 1255.67 877.137 1246.97 864.594C1247.37 878.816 1244.31 880.101 1239.76 882.175L1239.67 881.977ZM593.435 456.983C595.147 457.774 597.089 457.741 599.262 456.885C590.57 470.317 592.348 476.539 609.139 490.07C619.608 498.564 622.077 501.626 623.065 507.157C611.311 505.379 605.682 526.614 606.571 533.824C607.953 545.38 618.225 550.911 626.522 555.355C628.991 556.639 628.991 557.034 629.287 557.923H629.583V558.219C641.139 565.232 650.818 553.38 661.979 554.96H662.176C661.683 513.577 661.288 488.688 643.608 471.305C631.164 459.156 630.769 456.292 630.077 451.65C631.559 449.773 634.917 448.588 637.287 448.094C635.312 443.749 640.974 440.226 654.275 437.526C651.213 435.057 650.621 434.465 652.201 427.65C653.287 422.81 654.868 415.6 639.954 414.909C623.657 414.119 617.83 432.193 603.608 435.156C601.632 435.057 600.447 434.366 599.064 432.786C598.966 441.28 591.756 448.193 593.632 457.082L593.435 456.983ZM484.297 426.958C480.742 433.082 487.853 434.267 506.816 437.526C508.495 433.181 511.162 425.971 516.298 427.946C516.298 425.576 516.199 425.279 513.631 423.897C511.261 422.711 511.162 422.316 511.261 419.748C515.705 420.341 520.051 419.057 524.693 415.798C525.187 415.403 525.878 414.909 526.372 414.514C516.989 409.575 499.804 415.699 487.655 424.193C488.116 423.732 488.413 423.403 488.544 423.205C488.544 423.205 485.976 425.082 484.791 426.366C485.186 426.069 485.68 425.576 486.075 425.279L484.791 426.465H484.594L484.199 426.86L484.297 426.958ZM505.433 498.762C520.94 500.145 529.434 490.169 531.607 487.107C539.804 475.749 524.002 456.292 504.051 444.045C489.828 435.354 475.507 451.354 461.285 444.045C460.758 442.004 464.742 437.296 473.235 429.921C462.766 424.193 455.655 421.032 445.976 425.872L444.692 424.39L445.383 425.674L445.778 425.971C436.692 430.81 430.667 441.279 423.753 453.428C415.753 467.453 412.691 470.021 405.383 476.045C408.247 478.12 409.333 478.91 411.704 483.552C413.679 487.404 416.642 493.33 419.803 494.021C437.581 498.07 449.927 478.811 467.606 482.86C481.137 485.922 491.014 497.577 505.335 498.861L505.433 498.762ZM1049.93 1011.76C1049.44 1011.86 1048.85 1012.35 1047.66 1013.73C1048.85 1016.3 1049.14 1016.6 1049.24 1016.3C1049.24 1016.1 1049.24 1015.51 1049.14 1015.11C1049.24 1015.11 1049.44 1015.02 1049.54 1014.92L1049.84 1014.62C1050.23 1014.03 1050.53 1013.44 1050.53 1012.84C1050.53 1012.55 1050.53 1011.66 1049.93 1011.76ZM1777.85 1223.02L1777.65 1223.12C1781.99 1208.11 1780.91 1193.49 1776.86 1193.98C1775.87 1194.28 1775.28 1194.87 1774.09 1196.55C1774.29 1197.34 1774.29 1198.03 1774.39 1200.01C1774.29 1199.91 1774.09 1199.71 1773.9 1199.71C1773.11 1200.3 1772.81 1201.09 1772.81 1201.49C1772.81 1201.49 1773.3 1201.22 1774.29 1200.7C1774.78 1205.24 1773.7 1219.66 1773.7 1219.76C1773.4 1220.65 1772.22 1221.34 1771.72 1222.13C1769.15 1226.18 1767.48 1230.62 1764.51 1234.38C1762.74 1236.65 1761.75 1236.35 1761.06 1235.76C1758.09 1233.49 1756.61 1232.3 1752.07 1236.85C1751.54 1237.31 1750.72 1240.73 1749.6 1247.12C1750.09 1247.41 1763.13 1254.03 1773.6 1223.61C1773.4 1228.25 1773.6 1229.74 1774.09 1230.53C1774.19 1230.53 1774.39 1230.53 1774.49 1230.53V1230.82C1776.17 1229.04 1776.66 1227.96 1777.35 1225.98L1778.04 1224.3V1223.61L1777.85 1223.91C1777.85 1223.71 1778.04 1223.51 1778.04 1223.32L1777.85 1223.02ZM1047.86 1015.31C1048.75 1032.99 1048.16 1045.83 1045.98 1053.54C1040.85 1072.2 1029.1 1055.12 1029 1054.92C1023.96 1046.13 1026.23 1035.76 1028.8 1023.71C1031.56 1011.07 1032.95 1002.87 1028.6 995.954C1027.91 995.954 1026.33 995.46 1025.93 993.189L1027.02 993.88C1027.02 993.88 1026.63 993.386 1026.53 993.189C1027.42 992.497 1028.01 992.3 1029.19 992.201C1030.48 992.201 1037.19 992.497 1045.19 1002.37C1047.27 1004.94 1050.33 1009.88 1047.47 1013.63C1047.37 1013.83 1047.17 1013.93 1047.86 1015.21V1015.31ZM1034.33 997.337C1032.45 995.065 1031.47 996.25 1031.47 996.349C1031.47 996.349 1030.97 997.633 1032.55 997.633C1032.75 997.633 1033.24 997.633 1034.13 997.436C1034.13 997.436 1034.13 997.436 1034.23 997.436L1034.33 997.337ZM1705.15 1180.15C1687.97 1180.45 1686.29 1202.48 1670.59 1204.94C1664.26 1205.93 1667.92 1186.18 1667.92 1185.98C1667.82 1186.28 1667.62 1186.57 1667.52 1186.87C1669.6 1168.6 1670.49 1160.2 1658.24 1161.39C1652.91 1162.87 1648.17 1165.34 1642.14 1172.65C1643.13 1166.92 1641.15 1165.64 1640.36 1165.04C1639.28 1165.44 1638.88 1165.64 1637.6 1167.81C1644.91 1180.35 1651.23 1191.22 1662.98 1187.86C1658.63 1193.49 1651.13 1192.99 1645.8 1196.75C1653.5 1203.36 1643.82 1211.56 1647.87 1218.48C1649.35 1218.57 1650.44 1218.67 1656.26 1207.22C1655.67 1212.45 1655.38 1215.32 1658.04 1219.17C1661.1 1223.51 1666.73 1224.01 1670.39 1227.46C1676.12 1232.9 1676.12 1233.59 1677.5 1269.93C1676.71 1268.06 1674.24 1262.33 1662.49 1285.14C1668.51 1282.48 1675.43 1282.67 1681.45 1280.01C1675.23 1297.59 1688.17 1296.9 1689.25 1296.3C1690.54 1295.61 1701.4 1287.12 1699.62 1282.97C1699.33 1282.97 1699.03 1282.87 1698.83 1282.77C1702.72 1280.86 1705.09 1279.51 1705.94 1278.72C1705.94 1278.72 1705.94 1277.93 1705.94 1277.64L1706.24 1278.53C1707.62 1276.75 1708.51 1275.56 1709.99 1271.41C1711.48 1276.85 1717.3 1279.61 1718.59 1285.14C1720.76 1293.93 1716.02 1303.02 1719.87 1311.81C1724.51 1322.48 1729.94 1317.24 1730.04 1317.24C1732.02 1315.17 1732.22 1310.92 1732.71 1308.16C1734.29 1297.79 1729.55 1287.71 1731.03 1277.34C1732.51 1266.58 1739.72 1257.78 1741.11 1247.02C1741.5 1243.96 1741.11 1239.81 1740.61 1236.75C1740.51 1236.15 1725.3 1180.25 1705.35 1180.55L1705.15 1180.15ZM1340.7 1243.96C1340.05 1242.25 1339.62 1241.03 1339.42 1240.3C1339.42 1240.3 1339.52 1240.3 1339.62 1240.3C1342.98 1238.62 1346.93 1240.01 1350.19 1237.93C1353.64 1235.76 1357.89 1231.61 1359.17 1227.76C1364.41 1212.75 1359.57 1198.13 1357 1190.23C1366.48 1206.43 1368.75 1210.18 1377.94 1205.14C1374.68 1201.88 1376.95 1198.62 1378.24 1198.13C1378.83 1198.52 1379.72 1199.02 1380.21 1198.62L1378.63 1197.04H1379.12C1379.12 1197.04 1378.53 1196.45 1378.33 1196.25H1378.24C1366.38 1184.8 1358.25 1180.58 1353.84 1183.61C1348.21 1173.54 1340.8 1164.35 1336.66 1153.49C1334.28 1147.17 1335.67 1140.05 1332.51 1133.93C1330.33 1129.49 1327.96 1128.7 1323.42 1127.22C1322.04 1129.59 1321.94 1130.08 1322.24 1132.25C1319.96 1129.29 1318.38 1127.81 1315.62 1126.03C1316.87 1126.56 1317.96 1126.69 1318.88 1126.43C1320.65 1119.91 1311.37 1112.2 1311.27 1112.1C1303.77 1106.08 1294.48 1102.82 1287.07 1096.7C1277.59 1088.89 1271.47 1077.83 1261.3 1070.72C1257.84 1068.35 1250.63 1063.31 1241.15 1063.41C1240.26 1063.41 1239.47 1063.41 1238.58 1063.61C1253 1066.47 1275.32 1112.7 1304.36 1181.14C1324.41 1228.25 1333.49 1248.8 1340.61 1244.25L1340.7 1243.96ZM1645.4 1196.94C1645.4 1196.94 1645.7 1196.75 1645.8 1196.65C1645.8 1196.65 1645.5 1196.85 1645.4 1196.94ZM1683.23 1318.92C1661.2 1347.27 1652.51 1383.91 1626.63 1409.79C1611.62 1424.8 1607.97 1394.48 1607.97 1394.18C1607.57 1388.12 1616.36 1368.47 1634.34 1335.22C1633.22 1336.4 1630.98 1338.61 1627.62 1341.84C1627.62 1338.58 1629.7 1335.81 1629.99 1332.55C1627.82 1337.29 1618.54 1334.56 1602.14 1324.35C1595.82 1336.54 1591.05 1343.05 1587.82 1343.91C1577.45 1346.68 1563.13 1358.43 1556.91 1382.72C1552.16 1380.26 1551.47 1380.06 1544.66 1382.72C1545.55 1373.93 1535.77 1371.56 1533.79 1364.45C1532.51 1366.03 1507.13 1392.01 1494.48 1397.05C1493.89 1402.58 1493.5 1404.06 1490.83 1409.89C1490.63 1409.29 1490.34 1408.5 1490.14 1407.91C1488.82 1409.23 1487.5 1411.37 1486.19 1414.33C1486.19 1411.47 1486.19 1408.5 1488.26 1399.32C1482.04 1403.17 1477.1 1406.23 1464.26 1421.34C1451.72 1436.06 1447.47 1439.22 1440.85 1442.87C1429.69 1449.1 1416.66 1450.28 1405.1 1455.42C1390.58 1461.94 1380.11 1476.26 1362.93 1477.84C1362.83 1476.16 1363.32 1473.79 1364.21 1472.31C1339.32 1485.05 1331.91 1513.29 1328.75 1525.34C1327.7 1529.49 1326.48 1532.26 1325.1 1533.64C1325.2 1532.36 1325.1 1530.68 1324.7 1529.49C1308.9 1547.96 1314.53 1574.43 1300.8 1593.59C1292.31 1605.35 1278.48 1612.06 1271.37 1625.1C1270.88 1625.99 1271.07 1627.47 1270.98 1628.46C1278.28 1634.48 1298.83 1626.28 1313.84 1620.36C1314.83 1619.96 1413.2 1583.81 1431.27 1597.25C1431.47 1599.49 1425.68 1610.68 1413.89 1630.83C1427.22 1621.64 1441.74 1614.23 1454.19 1603.86C1446.09 1619.67 1428.61 1623.42 1416.16 1633.49C1421.4 1632.8 1423.17 1631.52 1437.4 1621.25C1437.07 1621.71 1431.54 1626.58 1420.8 1635.86C1420.8 1635.86 1421 1635.77 1421 1635.67C1421.59 1635.86 1422.38 1636.16 1422.98 1636.36C1418.93 1648.7 1402.83 1652.36 1401.35 1666.58C1402.66 1667.63 1411.55 1665.56 1428.01 1660.36C1425.91 1662.33 1423.83 1663.78 1421.79 1664.7C1422.48 1664.7 1423.37 1664.7 1424.06 1664.7C1423.41 1666.55 1421.79 1668.95 1419.22 1671.91C1523.72 1622.93 1586.63 1552.8 1608.86 1524.95C1607.67 1526.23 1606.19 1528.11 1605.1 1529.39C1607.28 1526.73 1609.55 1524.06 1611.72 1521.29C1611.33 1521.79 1610.73 1522.48 1610.34 1523.07L1611.03 1522.18L1611.42 1521.69C1612.02 1521 1612.81 1520.01 1613.4 1519.22C1613 1519.71 1612.51 1520.41 1612.12 1520.9C1614.78 1517.25 1623.08 1505.99 1628.51 1491.66C1633.15 1479.32 1638.98 1467.37 1643.23 1454.82C1646.88 1443.76 1644.21 1431.61 1649.55 1420.85C1663.84 1392.34 1671.18 1373.08 1671.57 1363.07C1672.66 1336.4 1677.7 1328.6 1684.02 1318.63C1684.02 1318.63 1684.02 1318.63 1683.82 1318.63C1683.72 1318.63 1683.62 1318.63 1683.43 1318.82L1683.23 1318.92ZM1589.4 1213.04C1592.46 1214.82 1597.5 1212.85 1598.78 1209.49C1599.08 1208.8 1599.08 1208.2 1599.08 1207.71C1598.68 1204.25 1594.73 1201.49 1590.68 1201.78C1587.42 1202.57 1587.13 1205.04 1587.03 1205.83C1586.83 1207.32 1586.44 1211.36 1589.5 1213.04H1589.4ZM1535.47 845.038V844.841C1535.47 844.841 1535.47 844.742 1535.37 844.643C1535.37 844.643 1535.37 844.742 1535.37 844.841V845.038H1535.47ZM1568.56 1038.82C1567.97 1039.51 1567.37 1040.2 1566.98 1040.5C1567.77 1039.71 1568.26 1039.21 1568.46 1038.82H1568.56ZM1607.97 1040.3C1608.46 1049.68 1608.76 1049.98 1610.54 1051.46C1611.23 1048.89 1612.12 1045.44 1612.41 1042.77C1612.41 1042.37 1617.15 1007.41 1604.81 992.596C1604.81 992.596 1604.91 992.398 1605 992.3C1605.86 991.839 1606.12 988.118 1605.79 981.139C1605 983.213 1604.12 985.287 1603.33 987.46C1603.52 988.349 1603.72 989.435 1603.92 990.324C1601.15 988.481 1599.44 981.139 1598.78 968.299C1607.28 971.855 1604.71 958.818 1602.24 952.991C1598.98 945.287 1597.99 945.385 1590.39 946.373C1586.57 933.204 1583.84 926.488 1582.19 926.225C1580.54 925.961 1579.88 927.146 1580.21 929.78C1578.73 920.595 1568.36 920.595 1566.19 922.471C1565.3 923.262 1565 924.941 1564.81 926.126C1564.21 922.768 1563.92 920.397 1563.82 915.755C1563.82 915.755 1563.82 915.755 1563.92 915.755C1564.21 914.076 1564.21 913.187 1564.21 911.41C1564.21 910.916 1564.02 910.224 1564.02 909.731C1563.23 893.533 1568.36 877.039 1561.94 861.039C1557.2 849.187 1540.81 856.989 1535.77 845.631L1535.47 845.038C1535.47 845.038 1535.77 846.026 1535.97 846.322C1537.84 860.347 1531.92 874.866 1538.63 888.594C1537.55 888.298 1536.16 888.99 1535.18 889.483C1533 897.681 1537.15 913.286 1544.86 919.212C1547.62 917.632 1548.02 915.755 1546.24 912.595C1548.87 914.307 1549.6 919.706 1548.41 928.793C1547.62 928.891 1546.53 929.089 1545.74 929.188C1543.67 934.521 1546.53 937.78 1557.3 949.929C1563.62 942.225 1556.11 933.731 1551.08 929.385C1553.35 928.694 1556.02 928.101 1561.65 928.891C1560.46 932.249 1562.14 933.533 1563.82 934.324C1565 933.83 1566.19 933.237 1564.81 929.682C1571.52 931.953 1573.89 938.966 1579.33 942.719C1578.34 937.583 1575.77 935.706 1574.98 935.212C1575.18 933.138 1575.57 926.916 1581.99 933.731C1585.84 937.78 1589.2 944.101 1590.19 946.176C1589.89 946.176 1589.5 946.176 1589.2 946.176C1588.61 949.863 1591.24 955.888 1597.1 964.25C1595.23 965.83 1593.94 966.225 1592.46 964.25C1592.76 964.25 1593.25 964.052 1593.55 963.954C1593.68 962.571 1593.35 961.188 1592.56 959.805C1591.67 960.694 1591.28 961.089 1592.07 963.558L1591.47 962.373C1589.79 966.917 1589.79 970.768 1591.77 977.287C1591.57 977.287 1591.37 977.188 1591.18 977.09C1591.18 977.09 1592.2 978.999 1594.24 982.818L1603.13 998.621C1601.88 1002.9 1596.54 1010.24 1587.13 1020.65C1587.33 1020.15 1587.52 1019.46 1587.72 1018.97C1585.75 1015.51 1574.09 1016.2 1571.92 1024C1570.53 1028.74 1570.93 1033.88 1568.76 1038.52C1573.3 1032.79 1574.39 1030.03 1574.88 1028.65C1579.23 1034.57 1590.78 1024 1590.88 1031.71C1590.88 1037.34 1587.23 1042.57 1589 1048.5C1590.78 1054.23 1596.91 1055.91 1599.87 1060.65C1599.87 1052.65 1606.39 1047.41 1608.17 1040.2L1607.97 1040.3ZM1572.81 1000.69C1574.88 1000.79 1579.33 993.584 1581.3 989.633C1581.3 989.633 1582.39 983.509 1582.58 980.546C1583.37 970.867 1578.93 971.756 1578.93 971.756C1574.39 975.312 1569.15 1000.4 1572.91 1000.69H1572.81ZM1578.53 955.163C1581.1 949.731 1582.39 946.472 1582.39 943.904C1582.39 943.805 1582.39 943.608 1582.39 943.41C1585.65 946.373 1588.81 952.003 1588.41 957.237C1588.31 958.62 1587.92 959.608 1587.72 960.2C1585.05 954.176 1581.99 953.385 1577.65 957.534V957.731C1577.65 957.336 1577.84 956.744 1577.84 956.349C1577.84 954.571 1578.04 954.472 1578.24 954.274C1578.34 954.274 1578.44 954.373 1578.73 955.065L1578.53 955.163ZM1579.23 954.867H1579.52V954.274L1579.13 954.867H1579.23ZM1535.37 844.643C1535.37 844.643 1535.37 844.643 1535.37 844.544C1535.37 844.544 1535.37 844.545 1535.37 844.643ZM1621.99 1134.52C1621.3 1135.51 1620.61 1136.6 1619.82 1137.59C1620.41 1133.04 1619.82 1128.4 1620.61 1123.86C1621 1121.36 1621.73 1119.61 1622.78 1118.62C1622.78 1118.62 1622.09 1119.02 1621.79 1119.22C1618.73 1121.59 1615.47 1126.03 1613.99 1140.55C1613.86 1140.15 1613.73 1139.86 1613.6 1139.66C1613 1141.54 1613.79 1157.04 1614.49 1160.5C1615.77 1167.61 1617.45 1167.91 1618.63 1167.51C1614.39 1149.54 1626.04 1149.93 1626.24 1149.93C1624.66 1143.31 1624.86 1140.05 1628.61 1128.3C1626.34 1127.61 1621.79 1132.94 1622.09 1134.52H1621.99ZM1049.14 1017.78C1049.14 1017.78 1049.34 1018.08 1049.44 1018.28C1048.85 1016.7 1048.26 1015.21 1047.66 1013.73C1047.66 1014.23 1047.76 1014.82 1047.86 1015.31C1048.26 1016.2 1048.75 1016.99 1049.24 1017.78H1049.14ZM657.633 1379.86L656.942 1378.38C656.942 1378.38 657.139 1378.87 657.139 1379.17C656.053 1376.7 656.053 1376.7 654.769 1376.01C654.44 1376.86 654.176 1382.53 653.979 1393C652.398 1390.33 652.102 1389.64 651.213 1386.68C647.065 1396.85 646.966 1401.89 650.127 1427.76C653.979 1459.96 647.954 1522.78 629.485 1524.16C623.065 1524.65 610.324 1515.37 605.879 1500.36C601.632 1486.23 596.2 1412.75 596.299 1412.26C596.892 1402.28 606.669 1399.52 611.41 1392.8C612.892 1390.73 613.386 1388.26 614.867 1386.28C615.558 1385.29 616.842 1384.11 617.731 1383.22C625.04 1375.71 625.929 1364.95 631.262 1356.45C634.423 1351.32 635.608 1345.09 640.151 1340.85C645.781 1339.27 650.226 1352.5 652.991 1363.86C655.065 1372.75 655.855 1375.71 657.732 1379.86H657.633ZM655.954 1376.21C655.658 1375.61 655.559 1374.92 655.164 1374.33C655.164 1374.63 655.361 1374.92 655.46 1375.22C655.559 1375.52 655.757 1375.91 655.954 1376.21ZM1535.57 845.335L1535.37 844.643C1535.37 844.643 1535.47 845.137 1535.57 845.335Z" fill="#2B6AA6"/>
</g>
</svg>
