<svg xmlns="http://www.w3.org/2000/svg" width="3947" height="3947" fill="none"><g opacity=".7"><path fill="#F3F3F3" d="M3670.47 2248.54c152.18-937.48-484.44-1820.827-1421.93-1973.002C1311.06 123.362 427.713 759.982 275.538 1697.47c-152.175 937.48 484.444 1820.83 1421.932 1973 937.48 152.18 1820.83-484.44 1973-1421.93Z"/><path fill="#DEDEDE" d="M3055.74 1055.18c17.56 9.42 34.03 20.64 52.32 28.79 19.73 8.68 16.83.36 15.2-3.99 1.45 1.81 2.72 3.62 4.16 5.61.55-3.25.91-5.79 6.34-7.42l-.36-.9c-1.33-7.6.72-14.54 6.15-20.82-1.26 7.24 1.27 14.66-.54 22.09-1.09.18-2.35.54-3.26.9h-.36c2.53 10.68 2.17 11.59 1.27 15.21-.91 0-2.18 0-3.08-.55l-.36-.36c5.43 7.06 14.3 8.87 20.81 14.3-.36 4.16-3.62 25.34-29.68 35.66 30.59 25.71 53.04 69.33 84.17 129.79-1.45-3.01-2.29-5.19-2.53-6.51 0 0 28.78 40.54 28.42 62.27-.37.36-.73.72-1.09 1.08-9.41-5.43-8.15-17.37-15.02-24.25-.37.54-.73 1.08-1.09 1.63.9 3.62 3.08 6.69 3.62 10.31-1.81-1.69-3.38-2.47-4.71-2.35.37 5.97 4.71 11.41 2.54 17.56-3.08-.72-10.5-6.7-6.7-11.77-.72-.72-1.99-1.44-3.08-1.81-1.63 2.18-2.71 3.62 1.81 14.67-3.26-.91-4.52-1.09-9.05-.91h-1.63c-5.25 0-5.97-.36-9.41-1.63.54 3.08 2.35 12.13.18 24.08-3.08 13.75-10.32 3.26-12.85 0-2.54-3.62-3.8-5.8-7.06-11.41.72 3.8 1.45 7.61 2.17 11.41 0 .9.36 1.99.54 2.71 1.09 6.52 2.36 13.04 3.44 19.55-6.15-4.52-9.05-5.25-10.68-2.89-1.08 1.44-1.08 6.15-1.08 8.32 0 7.61 0 9.05-1.09 12.31-9.96-11.58-18.82-17.74-30.41-21 9.59-.54 13.58-6.33 19.01-19.18 4.7-11.59 6.69-15.75 12.49-19.92-13.4-16.47-54.67-.54-60.64 15.21 3.8 1.27 4.88 1.81 8.87 4.71 20.09 16.47 32.04 49.23 34.39 61.54 3.26 17.02-4.16 14.48-6.16 12.86-15.56-11.95-22.8-30.24-35.11-44.72 0 0-.43-.3-1.27-.9 0 0-.54.9-.91 5.07-1.81-4.89-2.89-6.7-8.87-12.86-7.06-7.24-8.14-11.4-5.43-21.17 4.17-13.04 26.61-76.76 68.25-52.86-24.08-46.52-13.58-46.89-7.24-46.89 12.49-.18 12.67-57.74-33.49-101.37 5.79 3.98 12.67 6.52 17.74 11.41-1.93-2.9-6.16-8.45-12.67-16.66v1.63c-1.45 1.45-2.36 2.36-8.87 0-.55-.18-49.6-24.98-21.36-40.18-3.26-1.27-7.42-4.17-9.23-7.06-8.51-13.58-13.58-29.15-21.91-42.72-1.63-1.81-3.8-4.17-5.43-5.8l-.18.18ZM1294.96 489.317c4.89-.724 10.32-3.44 23.17-9.956 15.75-7.965 17.92-8.87 20.82-8.146.73 1.448 0 4.706-11.77 11.042 2.54 1.267 5.98 1.086 15.75-.905 7.43-1.629 8.33-1.629 12.13-1.991 1.45-4.707 1.63-5.974-.18-8.689-2.71-3.802-7.6-4.345-11.22-6.879 6.88-.362 19.73-.905 42.54-4.707 18.1-3.077 12.31-12.852 12.31-12.852-2.18-1.448-7.06-1.448-9.78-1.267-18.46 1.267-35.12 6.516-40.18 9.232v.543c-2.54.362-5.25 0-7.61.905-1.08.362-1.26 1.991-2.53 2.172 1.27.543 2.17.905 5.25 1.086a27.23 27.23 0 0 0-3.44 1.448c-4.71-2.353-9.23-.724-15.57 5.612-.36-2.715-4.52-4.887-1.99-7.965-2.17.905-8.69 3.983-13.94 1.81-.72-.362-1.81 0-2.35.181-2.72 1.63-3.62 5.431-6.7 6.698.36-1.086.36-1.931 0-2.534-2.35 0-5.61 5.249-4.71 6.517 1.45 2.172 2.54 0 3.99-2.897 7.06 1.991 14.48-1.086 21.36 1.81-21.36 8.207-32.47 13.034-33.31 14.482 1.08 3.077 8.33 5.069 8.51 5.069l-.55.181ZM885.497 642.459c10.137-6.336 56.84-38.195 57.203-38.557l-1.63 1.629c5.069-.724 6.336-.905 21.904-9.775 15.205-9.594 36.566-8.508 46.336-27.334-4.16.362-7.96 2.172-11.943 3.258 7.603-4.525 15.203-9.051 22.993-13.214-2.9 3.077-6.34 5.793-9.6 8.508 6.16-.905 21.54-10.861 22.81-12.309-1.45.543-3.44 1.629-4.71 2.353 4.71-2.715 9.42-5.25 13.94-8.508-1.44.724-3.26 1.81-4.7 2.534 0 0 6.88-6.335 20.63-19.007 2.18.543 7.61 1.81 10.32-4.525.18.724.36 1.448.73 2.172 7.42 2.353 11.04-4.707 16.83-6.517-2.17.121-4.95 1.086-8.33 2.897 13.04-8.146 13.58-8.327 24.08-10.319 13.21-4.344 21.72-16.11 33.85-22.084-.72 0-1.63.362-2.17.543 0-.724 0-1.81.18-2.534 8.14-4.888 18.64-3.077 26.06-9.775h-2.17c2.72-1.448 5.98-2.172 8.33-4.345-1.21 0-4.16.724-8.87 2.172 28.42-14.843 59.74-22.446 89.06-34.755 1.99-.905 4.53-1.991 6.52-2.897-7.36-1.93-23.23 1.449-47.61 10.138 11.04-16.835 40.01-2.173 46.7-26.791-1.63-.543-3.8-1.086-5.43-1.086-8.14 1.086-18.82 4.163-23.35 5.973-.54.362-1.09.543-1.81.905l.91-.362h-.37l-1.26.724s-.37 0-.37.181h.37v-.362h.18s1.45-.905 2.17-1.086c-8.45 1.931-17.14 5.37-26.07 10.318 1.45-1.207 3.8-2.836 7.06-4.887-3.44 1.267-6.51 3.258-9.95 4.525.72-.362 1.44-.905 2.17-1.267-1.63.724-3.8 1.81-5.43 2.534 1.63-.905 3.98-2.172 5.61-2.896-3.98 1.991-8.87 4.526-13.94 7.06-78.92 40.91-154.23 87.613-225.368 139.928a1686.028 1686.028 0 0 0-116.033 93.225c16.834-14.482 48.694-41.272 58.288-47.246-4.345 4.163-9.413 7.603-14.12 11.404v-.543ZM3057.01 1036.54c-4.89-7.42-9.42-12.31-32.22-32.95-20.46-18.461-24.26-22.624-26.07-27.693l.72-1.448c3.08-.724 4.71-.905 15.75 2.534-2.89-8.146-5.61-13.938-18.82-24.618-19.74-15.93-44.72-22.99-64.99-38.015-21-15.386-36.75-36.566-57.38-52.133-6.7-5.069-16.66-11.042-25.16-10.861-2.18.181-2.72.362-4.89 1.086 6.33 7.422 16.29 10.318 22.26 18.283 31.68 20.274 101.19 93.225 134.5 128.524 28.96 30.411 36.2 37.651 42.72 42.541-5.61-7.24-8.51-11.95-12.13-20.1 1.57.37 4.89 2.36 9.96 5.98 7.42 5.25 13.94 9.59 15.75 8.69v.18ZM1506.58 559.19c.36 1.086.9 2.172 5.24 3.439.91-.724 2-1.81 2.54-2.896-.36-.724-1.09-1.448-1.63-1.991.36-.724 1.09-1.81 1.81-2.353 11.22 17.197 24.26 20.455 39.82 9.775-3.98-8.146-10.68-14.482-14.12-22.809 11.23-2.896 21.55-12.128 24.62-21.722 5.98 2.896 13.22-1.448 30.41-11.585 18.47-10.861 40.37-8.327 59.92-14.301 2.36-.724 5.61-2.172 7.97-3.077-13.58-2.172-26.97-3.259-40.19-2.897-7.78.544-11.22.725-17.38 2.535-3.98 1.267-6.69 4.706-10.68 5.973-13.75 4.707-28.42 6.698-42.17 11.948 2.35 3.258 1.26 4.525-8.33 9.232-.36.181-43.45 27.515-42.72 33.307 3.44 1.992 7.78 1.629 10.86 3.983-4.35 1.448-5.07 1.629-5.97 3.258v.181Zm1543.37 766.8s.36.54.72.9c-.18-.36-.36-.72-.72-.9ZM769.464 872.535c-8.568 5.672-20.757 17.438-36.566 35.299 0 0-2.172 7.422 4.163 7.422 4.164 0 9.775-3.44 12.129-4.888-2.535 1.991-3.802 3.077-5.793 4.344 26.791-13.576 32.222-7.24 34.032-.362 3.439-11.585 15.386-14.843 22.265-23.17 8.87-10.68.724-9.956-3.439-9.413-2.353.181-2.535.181-3.621 0 5.069-5.974 12.672-14.844 11.043-18.826 6.516 2.353 16.834-43.988 16.653-44.531-.181-.543-1.086-1.086-1.448-1.629 15.025-6.336 39.824-27.877 40.73-35.48-1.992-2.353-5.069-.905-18.464 5.069 14.602-10.862 23.773-18.223 27.515-22.085-1.63 1.629-3.983 3.802-5.793 5.431-19.007 14.119-31.859 17.74-35.48 18.645.905-1.629 2.172-3.259 2.715-5.069h-.724c7.06-5.249 11.948-9.775 15.93-15.205-3.077 0-5.068 1.81-11.404 7.421-6.396 5.431-9.594 8.327-9.594 8.689-6.155 5.069-9.956 10.137-10.68 11.043 3.62-3.44 7.059-7.241 10.68-10.862v.905c.181 0 .362.363.543.544.724-.121 1.508-.423 2.353-.906-6.698 6.336-10.318 12.31-10.318 12.31 1.81.724 2.534-.724 3.982-3.259 0 .181 0 .543.181.725 1.268 0 1.992 0 6.336-2.897-.181 0-25.524 21.542-26.972 23.171 0 0 14.844-8.327 19.912-12.491-2.413 2.535-7.301 6.879-14.662 13.034 0 0 1.991-1.81 2.715-2.535-6.758 4.466-12.249 9.112-16.473 13.939 2.897-1.991 4.707-3.439 7.784-5.974-1.629 1.63-5.974 6.155-7.784 10.318.905 0 2.897 0 15.568-12.128-10.137 11.223-11.947 13.577-12.309 17.74 1.448 1.448 1.448 1.448 7.783 1.629-5.43 3.983-12.671 11.948-14.481 16.654.181.181.362.362.543.724.543 0 1.086-.362 1.629-.543-7.603 7.965-10.499 10.318-20.817 17.197h-.362ZM3144.44 1020.97c0-1.09-1.09-4.16-3.44-9.05 0-.18-.18-.36-.36-.54v.54c-.18 1.27-.54 3.44.18 5.97-.36-.18-.91-.54-1.27-.72 1.27 1.45 4.71 5.61 4.89 3.8ZM955.733 629.245c-3.801 1.086-7.965-.724-11.766.905-5.069 2.172-8.327 4.525-14.844 10.318 3.439-3.44 4.707-5.069 4.888-6.336-1.992-1.086-10.681 3.802-22.628 12.853 19.188-17.197 21.36-20.094 22.809-21.904h-.543c-2.897 1.991-7.06 5.431-12.129 10.137 1.086-1.448 1.086-1.629 1.267-2.353-.724 0-1.448-.362-10.861 8.327 0-.181.362-.543.362-.905-.724 0-1.086 0-7.241 4.344h.906c.181.905-.181 1.811 0 2.716 0 0 .362.181.543.362-.905.543-1.992 1.448-2.897 1.991-.543.905-.543.905-.543 1.448 0 0 .362.181.362.362 0 0-14.119 5.431-13.938 9.413.724.181.724.362 1.991 0-21.541 15.568-12.128 18.102-11.947 18.102 3.982.905 19.188-3.62 34.212-13.033 3.078-1.811 6.879-4.526 9.775-6.517 5.069-3.802 9.051-8.87 14.844-11.766-.181 0-.543-.362-.724-.543.543-1.449 1.629-4.345 18.464-17.559l-.362-.362ZM832.64 685.542h-.181l-1.086 1.267c3.258-2.896 6.697-5.793 9.956-8.689a417.593 417.593 0 0 0-8.508 7.422h-.181Zm991.81-226.999v-.362c6.33-1.81 11.94-2.534 22.8-3.258-7.96.905-9.59 2.896-11.22 5.792 11.95 3.983 22.27 11.586 34.76 13.758 10.68 1.991 17.01-2.172 19.55-3.801.72-.544 2.71-1.992 4.88-4.526 0 0-1.26-.543-3.8-1.629-4.16-1.629-3.8-2.715 0-5.431-13.03.362-18.46-2.534-25.16-5.973-7.96-4.164-14.12-6.155-28.24-5.974-5.07 0-8.14.362-13.03.724.72 3.439.9 7.06-5.79 5.793 4.88 1.086 7.96 1.448 12.67 1.991-5.43 0-8.69 0-13.4-.543.91 1.086 3.44 3.982 5.98 3.62v-.181Zm434.44 46.522c-.6.242-1.2.362-1.81.362 4.17.543 8.51.181 12.67.724 14.67 1.811 28.79 6.698 43.45 8.146 9.59.905 16.29 0 17.74-1.629-1.45-3.439-26.25-7.241-26.43-7.241-6.16-.543-12.13-2.353-18.28-3.077-11.23.543-19.92-8.146-30.96-7.784-3.26.181-3.62 1.267-3.8 2.172 1.81 3.44 5.97 4.888 7.6 8.508l-.18-.181Zm-351.54-26.429h.36c17.74-.181 29.33-4.163 34.58-6.697.72-.362 1.45-.724 2.17-1.086-6.33-5.612-21.9-11.043-31.31-10.862-12.31.724-13.94 13.939-9.96 17.016 1.81 1.448 3.62 1.448 4.34 1.448l-.18.181Zm478.62 32.765s.18-.724.36-1.086c-12.67-7.965-23.17-11.042-36.38-10.68-5.62.362-9.42 1.086-15.39 3.439 1.63-.362 5.43.905 12.85 3.439 13.94 4.888 34.94 12.129 38.56 4.707v.181Zm730.59 451.282s0-.905-.54-1.63c-1.27-2.353-5.43-7.421-7.42-8.145.36 1.448 2.71 5.068 4.52 7.059.91 1.086 3.08 3.44 3.62 2.716h-.18Zm14.3 27.696v-.543c-.18-.724-1.63-1.268-2.71-1.63v.362c.36 2.535 2.35 2.354 2.71 1.811Zm12.49 44.891s-.18-.54-.36-.72c-.72-.24-1.27-.3-1.63-.18-1.45.54-1.99 2.35-1.63 5.61 0-.36-.36-.73-.54-1.09 0 .36 0 .73 4.53 10.32 1.99-1.27 4.16-4.16-.55-13.76l.18-.18Zm-7.96-36.383s.72 0 .72-.906c-1.08-1.086-2.53-2.534-3.07-2.353-.55.362 1.26 3.077 2.35 3.44v-.181ZM1565.23 453.656l8.87 2.172c2.53.362 5.06-.181 5.97-.362 0-1.086 0-1.267-.91-1.991.73 0 1.63-.362 2.18-.543 5.19 2.051 12.97.844 23.35-3.621 1.2 3.621 10.98 2.293 29.32-3.982 0 0-.72 1.448-1.08 1.991-1.81 1.81-1.99 1.991-2.18 2.534.55 0 2.36 0 5.07-.905l.91-1.81v-.543c.9-2.172.72-2.353.54-3.258-3.26-1.449-4.16-1.63-12.49-.905 1.09-1.087 2.72-2.354 3.8-3.259-5.43 0-10.32 2.715-15.75 2.896 0 .181.37 2.535 5.62 2.173-3.08 1.086-6.52 1.629-9.6 2.715-1.81 0-4.71.362-16.65 3.258 0 .362.36.905.36 1.448-1.99-.362-3.62-.362-5.97-.362 3.62-1.086 5.79-1.991 8.68-3.258-4.34-1.267-7.6-1.629-13.03-1.81 2.72-.362 7.06-1.448 9.6-2.353 3.43.905 11.76 2.896 12.67-.543a2.199 2.199 0 0 0-.91-.905c-2.35-.725-4.89-.181-7.06-1.268-5.97-2.715-6.7-2.534-7.42-2.353l.72 3.077c-7.78 1.449-15.2 4.888-23.35 4.345l-1.63.905c.37 1.086.37 1.086.18 1.81-.54.362-.9.543-3.25-.543 0 .905 0 .905.36 2.172h-.54c-2.54-.543-5.25-1.086-10.68-.724v3.983c9.05-.362 13.69-.483 13.93-.362l.37.181Zm1556.4 518.259c-.54-.906-1.27-1.63-1.63-1.992h-.18s0 1.811 2.17 5.612c.55-.724.55-2.172-.36-3.62ZM1507.66 451.121c3.62-.543 10.14-1.448 17.56-.905-3.02.483-4.71.845-5.07 1.086 0 0 0 .363.36.544-3.25.724-5.06 1.086-7.6 1.086 1.63 3.62 6.34 3.982 18.28 1.086-.9.362-1.99.724-2.71 1.086 1.08.362 2.17.362 3.44.181-1.09 1.267-3.08 3.62 1.99 3.077 2.9-.362 7.42-1.629 9.05-2.172.36 0 .72-.181.91-.181-3.44-1.629-6.7-1.81-11.23-.905 1.81-.362 2.72-.905 4.53-1.991-.36 0-1.09-.181-1.45-.362 3.8-.905 7.42-1.992 11.22-2.897-.18-2.353-.54-6.516-13.39-6.335-9.05.543-19.01 2.715-29.33 6.697 1.99.362 2.9.543 3.8.543l-.36.362Zm1472.6 2893.959c-5.8 3.08-11.23 6.52-17.02 9.59 11.46-7.84 17.38-12.43 17.74-13.75-1.45.36-3.26.72-4.53 1.08-30.77 17.02-58.65 38.74-91.05 53.04-30.41 13.4-49.72 22.39-57.93 26.97-24.61 13.94-27.15 17.38-27.51 19.55 11.22 4.35 137.76-67.33 171.43-90.51 2.71-1.81 6.33-4.34 8.87-6.15v.18Zm-16.3 12.49c8.15-.54 79.47-48.51 103.55-68.61.36-.36.72-.72 1.08-.9-5.43 1.81-8.69 6.7-13.94 8.87 1.09-1.57 11.59-10.98 31.5-28.24-4.52 3.62-9.23 7.06-13.76 10.68 2.18-1.99 4.17-3.98 6.34-5.97-29.33 24.98-113.86 83.45-114.95 84.17h.18Zm160.21-126.89c-14.12 11.76-26.98 24.98-40.73 37.29 1.81-1.09 3.25-2.54 5.06-3.62-.36.54-1.08 1.26-1.81 1.99 13.58-12.86 27.16-25.71 41.28-38.2-1.09.73-2.54 1.81-3.62 2.54h-.18ZM2903.5 652.234s-.18 0-.36-.181c0 0 .18 0 .36.181Zm-.72-.362s.18 0 .36.181c0 0-.18 0-.36-.181ZM708.641 910.73c4.345-1.81 27.515-12.852 63.719-57.021 3.802-4.526 15.025-18.283 7.241-18.102-.543 0-1.086 0-1.629.181-14.12 4.525-23.714 16.835-37.29 22.627-2.353 6.336-4.707 9.232-9.956 12.491 2.715 3.077-2.173 8.689-14.844 21.36-6.698 6.698-27.153 26.791-7.241 18.464ZM2856.44 3251.49l.18-.18c-.36.18-.73.55-.91.91.18-.18.55-.36.73-.73Zm353.53-214.32c.9-1.09 1.81-2.18 2.71-3.26-.9 1.08-1.62 2.17-2.53 3.26h-.18Zm-123.46 229.17-7.6 7.06c3.44-2.9 5.97-5.25 7.6-7.06Zm-259.76 80.91c-4.16 0-8.15-.72-12.31-.72-4.16.18-12.85.54-27.69 10.14-17.02 11.04-31.14 25.7-47.25 38.01 19.37-3.44 21.72-4.89 43.99-19.91 21.18-14.12 38.01-25.34 41.99-27.15.37 0 .91-.37 1.09-.37h.18ZM1366.47 1539.77c5.06.73 6.33.36 6.69 0 .55-.72-1.44-1.81-3.44-1.63-1.99 0-2.71.91-3.07 1.81l-.18-.18ZM705.021 1164.7v.72c-.543 2.54-1.448 5.44-4.526 14.49-5.611 16.65-15.024 44.35-7.059 39.28 7.24-4.53 20.636-27.52 26.972-41.46 7.964-17.37 3.258-17.19 1.629-17.01-.905 0-3.983.9-11.404 5.07-5.612 3.25-5.612 2.89-5.793-.91l.181-.18Zm-190.795 53.76s.362-.36.543-.72c0 0-.362.36-.543.72Zm206.906-63.35c2.534-3.62 10.137-14.3 18.102-30.78 2.715-5.79 4.706-10.5 5.43-12.31-.543.18-1.267.55-1.629.73-10.499 7.24-20.817 26.43-20.455 27.69-3.44 7.61-3.802 11.05-1.629 14.67h.181Zm2356.148 891.34c.91-12.49-3.62-20.28-6.15-24.8-.37.54-.73 1.45-1.09 1.99-3.08 6.88-7.96 19.01-6.15 21.54 1.08-.36 1.63-.72 4.88-5.07-14.48 24.44-30.23 49.42-31.67 51.41l-2 2.9c-5.06 8.14-7.6 13.39-11.04 22.81 21-11.05 51.23-41.82 53.4-70.96l-.18.18Zm97.21 281.12c.9-3.08.54-7.6 0-10.86-2.9.54-6.52 1.45-9.41 1.99-24.8 5.07-50.15 6.52-74.95 12.49-6.87 1.63-11.94 4.71-15.02 9.23-1.99 2.72-3.08 5.43-4.16 7.61-5.43 12.3-7.61 25.52-11.95 38.19-8.15 24.08-26.79 42.72-34.03 67.34-7.24 24.62-1.45 50.32-5.43 75.12 8.32-2.71 14.48-2.71 21.54-.36 0-.72 13.76-68.24 24.98-79.29 5.07 7.24 5.79 8.33 3.08 30.78-3.99 31.49 13.03 25.52 16.47 24.07-1.45 3.26-5.61 13.22-4.16 25.16.54.37 1.26.73 1.81 1.09 9.95-4.71 18.46-30.23 18.1-39.64-3.8 1.26-6.16 2.53-9.6 5.61 4.17-25.71-7.06-49.96-7.78-75.3 15.93 20.27 24.98-27.52 43.99-32.41-20.82-3.8-41.82 8.33-62.45-1.45-8.15-3.8-4.71-10.31 12.12-22.44 18.29-13.04 29.69-11.59 52.32-8.87 19.73 2.53 21.18 1.08 29.5-7.06-.9 1.27-2.17 3.08-3.25 4.34 11.22-13.27 17.31-21.72 18.28-25.34Zm36.93 124c-9.23.54-22.45 5.61-11.59 15.2 1.45 1.27 3.26 2.36 4.53 3.26-.73.55-.73.55-.91.91h.18c.37 0 .55-.18.91-.91 15.93 8.69 32.22 9.6 37.11 1.81 3.44-5.43-1.27-10.5-2.17-11.04 0 1.99 1.99 4.16 2.89 5.97-8.87-14.84-27.33-15.38-30.95-15.2Zm-89.61-446.03s0-.37-.18-.37c0 0 0 .37.18.37Zm7.61 383.4c-.55-.37-.91-.55-1.27-.55.36 0 .72.36 1.27.55Zm-10.32-339.6c3.98 8.69 19.73-5.61 19.91-5.79 2.71-2.53 4.34-5.25 4.52-7.78.37-3.8-1.08-5.62-5.61-10.68-9.95-11.23-12.31-14.67-14.12-17.74-.72.36-1.08 0-1.99-1.99v.54c0 1.81-.36 3.44-1.26 9.77-1.63 10.32-4.17 27.88-1.63 33.67h.18Zm-51.23 553.74 8.14 2.36s-.36.9-.54 1.44c-2.71.73-6.15 1.45-8.87 1.99 1.09 1.21 3.56 2.54 7.42 3.99l.73-.55c5.79-1.63 11.04-4.34 16.65-6.15-.36.9-.9 1.99-1.27 2.71 2.18-.36 5.25-.72 6.88-1.99 2.18-1.63 2.36-4.52 4.35-6.15.36-.36.9-.54 1.45-.73-.37 0-.91-.36-1.27-.54h-.18c-2.54-.36-4.89 1.09-7.42.36-5.44.55-8.15 1.09-11.41 2.18-6.33-7.25-15.57-.37-15.57-.37-16.11-4.7-41.81-2.71-55.03-.36-8.69 1.63-15.93 7.06-24.8 8.33-6.51.9-12.49-1.63-18.82-2.17 1.45 2.17 2.35 3.25 5.25 4.34-5.43 3.98-7.79.91-11.95-4.52-9.96 0-13.94 1.44-16.65 2.53-3.08-9.78-8.15-11.95-10.32-11.95-9.05 2.9-2.9 10.5 6.15 22.27l.55-.36c14.66 3.98 29.32-2.72 43.98-.19-4.34-11.04 51.23-4.88 51.78-4.7-.19.36-.55.9-.91 1.45 10.68-4.17 20.27-10.14 31.5-13.22h.18Zm-275.51-15.57h.54c-30.59-6.33-49.96-12.85-79.29-26.42 15.57-4.71 26.98-16.84 41.82-22.81 24.98-3.62 40.19 22.08 64.08 21.18 20.64-.73 40.19-10.32 61.18-8.15 1.45 0 3.44.36 4.89.54 14.12 2.9 15.93 9.78 17.38 15.75-7.96 5.43-17.02 9.78-28.6 5.25 5.97 9.6 7.06 11.41 25.88 14.3 28.61 4.35 25.53 15.57 23.9 18.83-.36.54-.91 1.45-1.27 1.99-3.62 3.98-22.26 11.4-22.26-7.06-3.44 13.03-29.87 6.34-108.25-13.58h.18l-.18.18Zm1.99 0c1.08 0 3.26 0 3.62-.18 0 0-5.07-.72-5.43-.36 0 0 .18.18 1.63.73l.18-.19Zm345.93 14.12c1.44-3.07-1.63-2.89-5.25-2.53-44.17 10.32-72.05 47.97-79.11 61.73 2.54-.91 8.69-2.72 28.42-13.58 18.1-9.96 51.59-36.75 55.76-45.62h.18Zm-178.67-127.62s16.65-5.24 3.26 11.23c3.98-4.53 8.87-11.04 11.58-16.47 7.79-15.39 5.8-33.49 13.22-49.06 9.05-19.01 26.25-32.4 34.75-51.77 5.98-13.58 5.43-19.37 4.71-29.33 10.86 13.58 15.57 5.79 17.02 1.81 3.8-9.95 2.53-29.87-23.9-68.24 2.42 1.57 4.41 2.71 5.98 3.44 0 0 .18-.91-8.33-14.85 3.62.37 15.2.37 11.95-11.94.36.36.72 1.08.9 1.44.36-.18 1.09-.54 1.45-.72 0-1.63-.54-4.89-2.54-11.58 9.06 8.14 14.85-2.36 14.31-9.06 0-1.99-1.27-4.52-2-6.33l.37-.36c2.89-3.26 28.05-31.86 13.93-32.22-4.88 0-14.11 3.98-18.46 6.15 2.41-1.57 3.98-3.08 4.71-4.53-1.93-.84-5.61-.96-11.05-.36 8.87-19.73-6.15-29.32-9.95-28.96-2.72.9-3.26 1.45-5.25 3.8v-1.81c-.18 0-26.61 1.45-37.11 67.34-.54-5.97-1.27-7.24-5.07-11.04-4.89 9.59-7.06 15.75-9.59 26.25-8.69-2-5.61-14.31-14.12-16.48-9.96 27.7-55.39 65.71-61.55 56.12-.36-.36-.36-1.09-.54-1.63-6.16 14.48-8.33 24.07-9.05 39.28-8.87-7.06-28.97-3.62-27.7-19.55-15.57 15.39-22.08 21.9-19.73 53.58 0 1.09 14.12 104.27 31.68 105.36 5.43.36 10.32-8.33 12.67-12.49 3.08 17.55 40.91 19.36 51.95 13.57-5.79 24.26 20.1 14.85 31.5 9.6v-.19Zm-60.28-785.26s-.9 1.27-1.27 1.99c.55-.54.91-1.08 1.27-1.99Zm137.03-59.92c7.24-13.03 9.78-18.1 8.33-23.53 0-.36-.36-.9-.54-1.27 1.44 2.36 3.25 5.62 3.62 13.04.54 9.59-1.99 21.54-4.17 32.04-3.98 19.73-5.97 30.41-2.71 40.55-3.74-4.59-7.42-8.27-11.04-11.05 0 0 .54.37.9.55-1.21-.97-1.93-1.69-2.17-2.17 0 0 1.45.72 1.99 1.08-11.04-13.57-6.88-26.79 5.61-49.24h.18Zm-1.99 53.04-2.9-2.89v.36l2.18 1.81.72.72Zm12.13 14.85h.18c-1.81-2.36-3.62-4.89-5.79-7.24v.36c.9 1.99 2.35 4.7 5.43 6.7l.18.18Zm-331.27 860.74c-1.08-1.26-1.81-1.99-2.17-1.99 0 0-.18 0-.18.37 0 .54 1.09 2.89 2.35 1.81v-.19Zm-192.24-688.05c-1.09-1.63-2.53-3.8-3.44-5.61-19.79 12.79-32.52 15.51-38.19 8.14-11.77-15.56-15.03-39.28-16.66-50.68-6.69-48.88-46.7-77.48-70.05-116.4-2.72-4.52-5.98-10.86-8.87-15.38-2.72-4.53-7.06-9.96-9.96-14.3-4.16.36-9.77.9-13.94 1.08-1.69 13.52-5.25 23.35-10.68 29.51-2.35-3.26-5.06-8.15-6.88-11.77-1.99 3.26-5.43 7.06-8.68 9.05-3.81-1.08-9.24-1.81-13.22-1.63-1.27 1.63-3.08 3.99-4.52 5.62-1.27-1.27-3.08-3.08-4.35-4.53-1.63 1.09-3.62 2.35-5.25 3.44-2.71-2.72-4.7-7.78-5.07-11.59-31.31 72.23-114.22 100.47-145.9 172.15-30.59 69.33-10.14 148.98-44.71 217.59-5.07 10.14-11.77 25.34-21.54 31.13-39.64 23.9-219.94-301.39-163.64-409.46-1.81-1.27-4.17-2.9-5.98-4.17-.36-3.8-1.44-8.87-2.89-12.49-1.81-.54-4.35-1.26-6.16-1.63 1.09 2.36 3.08 5.25 3.62 7.79 5.07 19.91-21.54 40.37-37.11 38.01-28.78-4.34-23.71-38.55-43.98-50.14 20.09-2.35 22.62-8.33 24.98-14.3-17.38.9-32.04-1.99-55.76-19.91-36.02-30.41-40.91-49.06-42.54-55.21-65.16-34.76-139.2 22.62-203.46-19.73-6.34-4.17-14.67-9.96-21.18-13.94-30.23-17.92-65.71 1.63-96.3-13.04-38.74-18.64-34.94-74.58-78.39-89.06-2.53-.9-6.15-.54-8.87-.9 0 0-9.41 11.04-24.8 21.36 15.21 3.8 17.38 7.24 23.9 37.11l46.16 99.01c25.16 28.06 118.02 25.71 122.37-50.14 17.56 18.83 3.26 46.16 17.74 65.71 14.48 19.55 44.35 14.85 57.56 36.39 4.17 6.69 4.89 18.28 3.26 26.06-5.07 25.17-40.37 93.23-138.48 170.7-1.99 1.45-192.24 151.16-234.42 110.79l-157.67-413.63c-1.81-4.71-4.16-11.04-5.79-15.75-10.14-30.23-7.78-47.97-5.07-68.61-19.37 26.07-19.19 34.94-18.46 52.86-19.01-26.07-25.16-40.91-27.52-66.25-19.548 33.85-21.358 59.01 17.56 128.16 19.55 34.76 44.05 104.99 73.5 210.71 18.82 67.52 38.73 103.54 71.14 128.7 15.2 11.77 43.8 33.85 49.96 48.7 8.14 19.37-.55 26.24-16.29 38.73 53.58 20.16 87.07 28.24 100.46 24.26 69.75-20.88 104.99-29.44 105.72-25.7.9 4.52 18.28 114.22-147.9 322.75-164.54 206.55-42.54 321.49-41.09 322.4-.36 2.53-.72 5.79-.9 8.33 2.71 40.36 29.14 74.21 31.31 114.76 2.72 50.69-54.85 59.92-68.6 99.2-17.74 50.87 45.07 80.92 33.3 130.16-4.34 18.46-19.55 29.68-27.69 35.66 24.26 22.99 47.24 44.71 16.83 125.26-29.5 78.02-97.57 58.47-98.29 58.11-13.21-5.97-171.426-174.14-178.123-181.38-49.419-52.68-152.962-209.26-153.505-210.35-27.877-53.76-20.455-116.94-44.712-171.79l-2.534-4.88c-.543-1.09-62.271-104.09-49.599-129.61-40.187-19.73-120.921-118.03-89.786-173.24-34.756-37.65 1.629-98.29-42.902-132.69-1.629 1.63-3.982 3.81-5.792 5.62-2.353-.73-5.25-1.81-7.603-2.54-2.715 3.44-8.327 6.52-12.671 7.24-41.394-41.51-67.943-57.92-79.649-49.23-83.269 61.72-93.406 38.01-110.422-1.63-.362-.91-39.824-114.59-50.323-273.16-4.345-64.63 21.722-126.35 19.731-190.8-.362 2.36-.905 5.61-1.267 7.97 9.594-136.13 155.857-375.44 157.306-377.43 22.446-32.58 32.583-45.25 38.919-47.79 9.051-3.8 15.024 4.17 22.627 5.61 6.879 1.45 9.775.37 37.29-18.64 25.162-17.38 34.937-22.45 49.962-26.25 4.224-1.08 27.997-3.2 71.321-6.33 14.482-.37 24.076-.73 10.5 29.86-9.413 21.18-26.067 39.29-28.783 63.54 6.336 44.53 112.414 128.16 132.145 64.26 9.051-29.5 20.274-35.84 28.058-35.84 3.258 0 7.784-.36 11.042.18 32.04 5.98 51.409 35.84 82.364 43.99 30.049 7.97 56.297-17.01 86.346-10.32 2.17 4.53 5.79 10.32 8.87 14.12 44.17-5.43 63.36-44.71 78.92-76.39 29.51-63.54 19.19-76.57 15.39-78.92 0 0-72.41 1.99-87.79 3.07-30.958 2-48.698-3.98-54.49-5.79 1.086-1.81 2.353-4.34 3.439-6.15-4.525-1.27-10.861-2.17-15.568-2.17 2.173-11.95.906-24.44 6.517-35.67-19.188-20.63 8.146-39.28 5.612-59.55-13.396-9.05-24.8-12.49-41.273-1.99-.362 4.89.724 11.4 2.716 15.75-4.345 0-10.137.9-14.482 1.99-.362 2.17-.905 5.07-1.267 7.42-1.991-4.89-5.25-11.22-8.327-15.57-5.249 22.27 11.585 41.82 8.146 63.9-1.267-1.81-3.077-4.34-4.345-6.33 0 3.98-2.172 9.59-5.068 12.49-3.258-2.54-9.051-4.17-13.033-3.81 1.448 2 3.439 4.53 4.887 6.52-3.439 3.08-7.965 6.88-11.585 9.78-.362 5.25-1.086 12.31-1.629 17.37-1.992 1.27-4.526 2.9-6.517 4.17-28.601-19.01-11.223-41.27-5.612-48.52-4.706-.36-14.3-.9-17.015-14.66-3.078-16.29 2.172-41.63 2.172-41.99 5.792-26.61-12.853-47.43-16.473-71.69-.905-6.33-5.431-14.12-5.974-20.45-.543-5.8 1.81-13.76 4.888-18.47-1.086-2.17-2.353-4.88-3.44-6.88-1.991.73-4.706 1.63-6.697 2.36-1.991-1.09-4.707-2.36-6.698-3.44-21.179 15.2-29.144 21-25.886 51.59 3.259 31.31 34.394 48.87 39.281 79.28-9.956 3.81-19.188-2.71-28.963-2.17l-.362.36s-2.896 39.29-20.998 60.47c-15.025-1.81-24.8 13.03-39.462 12.3-11.947-20.81 27.153-20.63 37.29-34.75 31.316-43.81-15.025-123.09-15.387-124-15.93-25.16-41.996 0-62.995-.36 0 0-.181 0-5.249.36-.362 0-68.426 54.85-104.086 116.4-23.714 41.27-48.514 65.16-75.848 72.95-9.956-7.24-8.689-19.92-14.843-29.15-2.172.55-5.069 1.27-7.06 1.99 9.413-21.24 16.413-36.32 20.998-45.25 0 0-1.086 1.27-1.448 1.99 36.566-77.48 70.356-115.55 101.371-114.22 24.438.9 85.26-73.5 61.728-114.769 13.938-8.689 14.662-8.87 36.023-14.482 13.938-34.937 161.65-116.758 163.098-117.301 1.629 1.449 3.621 3.44 5.069 4.888 16.291-17.559 25.704-40.005 41.815-57.564 2.715-2.716 6.336-6.155 9.232-8.508l.724-.362c12.491-10.318 17.74-11.042 24.8-12.129-12.309 13.215-20.998 29.869-36.747 40.187 2.353-.181 5.612-.543 8.146-.724-5.31 8.085-11.223 12.43-17.74 13.033.905-2.353 2.353-5.43 3.258-7.784-8.146 13.215-7.603 14.12-3.258 22.085 0 0 13.033-1.448 30.773-2.897-1.81 1.268-4.163 2.897-5.973 3.983 1.086 1.991 2.715 4.706 3.801 6.698.724 0 67.884-6.155 82.184-15.387 21.18-31.679 39.28-52.315 53.76-61.366 3.8 2.173 7.97 6.336 10.32 9.956 24.08-2.715 18.46-28.963 31.5-40.548 5.55-4.948 30.59-8.749 75.12-11.404-.72-2.716-1.63-6.155-2.53-8.87-2.36-1.267-5.43-2.715-7.61-3.983a42.301 42.301 0 0 1-.9-5.068c-39.83 7.12-63.42 9.413-70.78 6.879 12.07-18.344 41.03-45.195 86.89-80.554-27.88-19.731-35.66 3.982-38.2 11.766-93.22 36.023-88.51 64.262-86.34 77.839-66.5 57.926-107.89 87.432-124.182 88.518.905-2.534 1.991-5.974 2.896-8.508-13.395 13.758-22.084 22.145-26.066 25.162-1.992-.905-4.707-2.172-6.698-3.077 8.447-3.138 13.335-9.715 14.662-19.732 27.877 5.431 45.617-50.142 53.039-73.856-20.817 16.835-29.687 21.723-45.979 27.696a353.067 353.067 0 0 0-5.792-3.982c1.267-7.603 6.335-14.12 6.516-21.903 17.016-15.93 26.791-39.101 49.6-49.238 15.024-7.059 17.014-7.965 29.684-14.119 36.75-18.102 69.7-42.721 105.18-62.995h.72c16.11-10.499 19.91-13.033 23.35-16.111 1.09-.905 1.99-1.991 3.44-3.439-4.89 1.267-11.77 2.353-16.83 2.715 13.21-7.965 27.87-12.128 41.45-19.188-1.45 1.629-3.26 3.802-4.71 5.431 17.2-1.267 30.05-13.758 45.98-18.464 0 2.172-.18 4.887-.36 7.059 11.71-3.017 18.52-5.43 20.45-7.24 2.36.362 5.62.905 7.97 1.267 6.52-8.689 7.6-10.318 23.35-15.749 1.99 1.086 4.53 2.715 6.52 3.802-4.17 2.534-9.78 6.335-13.76 9.232 14.66-7.06 29.33-9.232 35.66-10.319-1.81 1.268-3.98 2.897-5.79 4.164 2.53-.724 5.97-1.81 8.51-2.534 2.17 1.267 5.06 2.896 7.24 4.163-5.07 1.629-11.59 3.982-16.66 5.612 15.57 1.086 24.32 1.749 26.25 1.991.36 1.991.91 4.887 1.45 6.879 39.28 8.508 53.94 11.585 58.11 21.541 5.61 13.214-18.11 29.506-29.33 31.678-21.18 4.164-36.75-12.128-56.3-14.662 8.21 33.187 16.96 48.634 26.25 46.341-1.08-4.345-3.44-10.137-5.61-13.939 28.6-.905 49.96-25.161 79.11-24.256 1.44 1.81 3.25 3.982 4.52 5.792 7.24-16.291 11.59-27.213 13.03-32.764-1.08-1.81-2.53-4.345-3.8-6.155 19.01-9.775 28.79-5.974 29.33 11.766-16.66.724-19.73 1.267-22.27 13.939 38.92 3.258 66.44-33.308 105.18-30.592-3.81 2.715-8.87 6.697-12.49 9.775 58.28-2.897 66.79-7.241 77.65-13.034-.48-.603-7.84-6.275-22.08-17.016 63.96 19.188 97.21 28.36 99.74 27.515-11.95-12.49-16.83-24.256-14.84-34.755 3.44-16.654 24.98-18.102 28.78-34.394 4.52.362 10.5 1.629 14.84 3.258h1.27c1.99.724 4.89 1.629 6.88 2.353 9.95 21.542 5.97 46.522 17.01 67.521-5.97 15.748-6.69 17.378-27.69 26.248 49.23-3.259 43.8-22.447 41.09-32.765 21-10.861 31.86 10.861 48.33 14.844-22.63-19.55-53.94-28.239-69.69-56.297 7.24-4.707 11.83-10.862 13.76-18.464 1.81 1.267 4.16 3.077 5.97 4.344.18 5.612 1.09 12.852 2.35 18.283 3.02 1.448 13.46 2.776 31.32 3.982-1.69-2.534-8.99-6.999-21.9-13.395 1.99.543 4.88 1.086 6.87 1.629 1.63-1.267 3.81-3.077 5.44-4.525-1.81-1.086-4.17-2.716-5.98-3.802 0 0 33.31 7.422 53.95 8.327-9.78-13.576-15.21-16.835-32.23-19.55l3.26-1.448c18.65-4.707 38.56.724 56.84-6.879-1.99-.905-4.7-1.991-6.88-2.896-3.98-19.188 5.98-19.007 47.97-18.283 3.08-3.258 8.51-5.974 12.86-6.879 0 0 11.76 3.44 41.09 1.991-1.81-1.448-4.17-3.258-5.98-4.525h6.52c4.95-6.396 10.74-10.318 17.38-11.766 84.35-1.811 152.42 61.184 236.77 59.736 1.09-1.629 2.72-3.982 3.8-5.612-.54-2.172-1.44-4.887-1.99-7.059 41.46 10.318 77.3 42.177 124 32.764-.72-2.353-1.63-5.611-2.35-7.965 21-6.878 40.55 3.802 60.64 5.612l-4.71-1.086c-1.45-1.267-3.62-3.077-5.07-4.526 5.19-.241 12.25.121 21.18 1.087-4.88-2.173-11.4-4.888-16.47-7.06-.72-1.992-1.81-4.707-2.53-6.698 77.83-6.517 83.27-2.172 103.54 13.939 35.3 28.42 76.21 8.869 114.4 13.576 33.49 4.163 67.34 4.707 101.01 8.87 4.17.543 9.42 3.077 12.86 5.249-2-.543-4.53-1.448-6.52-1.991 27.69 10.137 32.22 10.861 45.25 13.034-20.03-8.448-31.25-15.085-33.67-19.912 66.08-3.621 227 40.548 253.25 69.511h-7.24c3.26 1.448 19.91 9.413 33.67 20.093-38.38 20.093-59.74-19.55-90.69-25.886 10.38 6.879 17.38 11.706 21 14.482-1.09 1.629-2.72 3.982-3.8 5.612 26.79 14.119 55.57 24.075 80.55 41.815-8.87-3.439-10.5-3.982-23.17-5.068 1.63 2.715 3.62 6.516 5.07 9.413-1.45 1.81-3.26 4.163-4.71 5.792 8.33 7.603 10.14 9.232 19.37 24.981-.91 1.81-2.17 4.163-3.26 5.974-32.94-7.241-41.09-5.25-48.15-3.44 2.72 17.559 48.51 43.626 48.87 43.807.37.181 52.68 31.497 79.47 62.633-.18 2.534-.54 5.973-.9 8.689 4.34 5.309 12.79 14.179 25.34 26.609l-3.08 1.268c4.17 16.11 16.29 27.877 24.08 41.996 1.45 1.629 3.08 9.956 4.52 17.197-1.63-1.81-3.8-4.163-5.43-5.793h-.18c-1.08-2.534.55-6.335 1.09-8.689-52.68-57.021-122.91-92.139-180.48-143.186h.36c1.45-2.172 3.44-5.069 4.89-7.241-22.26-60.46-63.72-79.467-75.66-79.286 12.3 9.051 15.56 11.223 26.97 18.102-1.99 0-4.89.181-6.88.362 1.27 5.249 3.98 11.947 6.33 16.834-35.66-24.075-39.46-24.98-55.57-28.963-1.27 1.448-3.08 3.44-4.52 5.069 1.08 8.206 17.07 25.041 47.97 50.504-15.93 22.085-33.85 6.155-37.29 2.716 1.63-1.268 3.8-2.897 5.43-4.164l-.91-.543c-3.98-.543-9.41-1.086-13.39-1.086H2804.85c-4.89 0-11.41-.724-16.11-1.448.18.181.54.543.9.724-21.54 5.612-44.89-18.283-65.35 3.982-16.29 17.74-17.74 103.725 58.83 105.173-14.84-13.396-23.11-22.447-24.79-27.153 0 0 29.68 18.464 35.11 33.85 3.26-1.991 8.15-4.163 11.77-5.249-3.26-2.896-6.88-7.784-8.33-11.947 17.38 0 42.18 4.887 62.45 27.877a84.27 84.27 0 0 0-6.69-.906c117.12 69.693 146.62 201.478 128.52 240.758-2.35.9-5.43 1.99-7.78 2.71-5.92-2.89-12.01-7.78-18.29-14.66-1.26 1.45-3.07 3.44-4.52 5.07-1.09-1.63-2.54-3.98-3.62-5.61 2.17 4.7 3.62 11.76 3.26 17.01-2.18-.36-5.07-.72-7.24-1.08 29.86 25.52 2.17 64.8 21.9 92.86 17.38 24.62 51.41 30.41 65.71 58.65 3.74 7.48 8.45 24.2 14.12 50.14-3.98.55-9.05 1.99-12.85 3.44v6.52c-38.74 14.84-54.13-58.65-53.04-65.53 1.63 1.27 3.8 2.9 5.43 4.35-1.81-11.23-3.08-14.67-20.64-23.72l.73-.54h-1.81s.54.36.72.36c-12.85-4.34-26.43-5.43-38.92-10.86-1.09-4.16-.72-10.5 1.45-14.12-15.57-7.42-22.27-28.42-42.9-28.42-19.01 0-9.42 29.14-28.42 28.78-2.18 0-4.71-1.45-6.7-1.99-1.99-15.93-3.98-16.47-12.13-19.01 1.27-2.35 3.98-5.06 4.34-7.78.73-5.61-8.68-30.77-26.24-23.71-.55.18-50.69 34.75-26.61 61.36 29.68 32.77 73.49 10.5 107.16 28.06-3.26 17.56-22.99 28.24-20.45 48.15.9 7.78 1.62 13.76 32.22 47.61 26.43 28.24 47.42 47.61 67.88 62.81-1.63 1.09-3.62 2.54-5.25 3.62-10.5-4.7-17.02-15.75-28.78-18.46 1.08.54 27.51 11.95 30.95 46.16-1.26 1.45-2.89 3.26-4.16 4.52 19.43 4.23 31.01 13.46 34.75 27.7-.54 1.81-2.71 3.62-3.8 5.25 7.42 15.93 7.24 17.56 5.8 28.06-2 .36-4.71.72-6.7.9-3.26 9.78-7.42 55.76 1.08 74.76l2.18-2.17c-3.99 25.71-4.71 29.69-24.08 48.88-21.36 21-51.41 28.06-73.67 47.42-2.18-7.42-3.08-10.13-12.13-16.11 7.24 14.67 8.51 17.2-8.87 39.47-.36-.37-40.73-32.04-49.42 39.82 14.66 12.13 20.82 23.35 13.94 51.41-6.7 21-27.16 25.52-38.92 26.43 2.35-4.16 5.43-9.96 7.6-14.3 1.69-37.9 5.55-58.71 11.59-62.45 0-8.15 0-27.34-12.31-32.77-6.7-3.08-81.28 3.62-76.21 45.62 9.41 78.56 94.13 116.58 104.99 194.23 3.98 27.7-7.42 122.92-48.69 92.32-1.27 20.46-20.28 74.58-47.98 59.92 2.72-4.34 6.52-10.32 9.24-14.66-15.21-61.01-83.27-80.74-105.9-136.13-48.51 32.4-33.13 110.97-31.13 119.84 7.78 36.2 40.18 55.03 59.19 83.27 32.58 48.51 22.45 108.97 45.25 160.2 1.09 2.35 4.71 3.98 6.52 5.79-48.15 8.87-65.71-30.41-84.72-116.4-16.11-72.22-24.07-95.75-50.5-74.76-6.52-24.25-9.05-34.39-3.44-77.47 14.84-114.05-36.02-198.4-51.95-221.39.72 26.07-4.89 28.42-13.22 32.22l-.18-.36Zm-1184.41-778.93c3.14 1.45 6.7 1.39 10.68-.18-15.93 24.62-12.67 36.02 18.1 60.82 19.19 15.57 23.72 21.18 25.53 31.32-21.55-3.26-31.86 35.66-30.23 48.88 2.53 21.17 21.36 31.31 36.56 39.46 4.53 2.35 4.53 3.08 5.07 4.7h.54v.55c21.18 12.85 38.92-8.87 59.38-5.98h.36c-.91-75.84-1.63-121.46-34.03-153.32-22.81-22.27-23.53-27.51-24.8-36.02 2.71-3.44 8.87-5.61 13.21-6.52-3.62-7.96 6.76-14.42 31.14-19.37-5.61-4.52-6.7-5.61-3.8-18.1 1.99-8.87 4.88-22.08-22.45-23.35-29.87-1.45-40.55 31.68-66.61 37.11-3.62-.18-5.8-1.45-8.33-4.35-.18 15.57-13.4 28.24-9.96 44.53l-.36-.18Zm-200.03-55.03c-6.51 11.23 6.52 13.4 41.28 19.37 3.07-7.96 7.96-21.18 17.37-17.56 0-4.34-.18-4.88-4.88-7.42-4.35-2.17-4.53-2.9-4.35-7.6 8.15 1.08 16.11-1.27 24.62-7.24.91-.73 2.17-1.63 3.08-2.36-17.2-9.05-48.7 2.18-70.96 17.74.84-.84 1.39-1.44 1.63-1.81 0 0-4.71 3.44-6.88 5.8.72-.55 1.63-1.45 2.35-1.99l-2.35 2.17h-.36l-.73.72.18.18Zm38.74 131.6c28.42 2.54 43.99-15.74 47.97-21.36 15.03-20.81-13.94-56.47-50.5-78.92-26.07-15.93-52.32 13.39-78.38 0-.97-3.74 6.33-12.37 21.9-25.89-19.19-10.5-32.22-16.29-49.96-7.42l-2.35-2.71 1.26 2.35.73.54c-16.66 8.87-27.7 28.06-40.37 50.33-14.66 25.7-20.28 30.41-33.671 41.45 5.251 3.8 7.241 5.25 11.581 13.76 3.62 7.06 9.06 17.92 14.85 19.18 32.58 7.43 55.21-27.87 87.61-20.45 24.8 5.61 42.9 26.97 69.15 29.32l.18-.18Zm997.96 940.22c-.9.18-1.99 1.09-4.16 3.62 2.17 4.71 2.71 5.25 2.9 4.71 0-.37 0-1.45-.19-2.18.19 0 .55-.18.73-.36l.54-.54c.73-1.09 1.27-2.17 1.27-3.26 0-.54 0-2.17-1.09-1.99Zm1334.12 387.2-.37.18c7.97-27.51 5.98-54.3-1.44-53.4-1.81.54-2.9 1.63-5.07 4.71.36 1.45.36 2.71.54 6.33-.18-.18-.54-.54-.9-.54-1.45 1.09-2 2.53-2 3.26 0 0 .91-.48 2.72-1.45.9 8.33-1.09 34.76-1.09 34.94-.54 1.63-2.71 2.89-3.62 4.34-4.7 7.42-7.78 15.57-13.21 22.45-3.26 4.16-5.07 3.62-6.34 2.53-5.43-4.16-8.14-6.33-16.47 1.99-.96.85-2.47 7.12-4.53 18.83.91.54 24.8 12.67 43.99-43.08-.36 8.5 0 11.22.91 12.67h.72v.54c3.08-3.26 3.98-5.25 5.25-8.87l1.27-3.08v-1.26l-.36.54c0-.36.36-.72.36-1.09l-.36-.54Zm-1337.92-380.68c1.63 32.4.54 55.93-3.44 70.05-9.41 34.21-30.95 2.9-31.13 2.53-9.24-16.11-5.07-35.11-.37-57.2 5.07-23.17 7.61-38.19-.36-50.86-1.26 0-4.16-.91-4.89-5.07l2 1.26s-.73-.9-.91-1.26c1.63-1.27 2.72-1.63 4.89-1.81 2.35 0 14.66.54 29.32 18.64 3.81 4.71 9.42 13.76 4.17 20.64-.18.36-.55.54.72 2.89v.19Zm-24.8-32.95c-3.44-4.16-5.25-1.99-5.25-1.81 0 0-.9 2.35 1.99 2.35.37 0 1.27 0 2.9-.36h.18l.18-.18Zm1229.49 335.07c-31.5.54-34.58 40.91-63.36 45.43-11.59 1.81-4.89-34.39-4.89-34.75-.18.54-.54 1.08-.72 1.63 3.8-33.49 5.43-48.88-17.02-46.71-9.77 2.72-18.46 7.24-29.5 20.64 1.81-10.5-1.81-12.85-3.26-13.94-1.99.73-2.72 1.09-5.07 5.07 13.39 22.99 24.98 42.9 46.52 36.75-7.96 10.32-21.72 9.41-31.5 16.29 14.12 12.13-3.62 27.15 3.8 39.82 2.72.18 4.71.37 15.39-20.63-1.08 9.59-1.63 14.84 3.26 21.9 5.61 7.97 15.93 8.87 22.63 15.21 10.5 9.95 10.5 11.22 13.03 77.83-1.45-3.44-5.97-13.93-27.51 27.88 11.04-4.89 23.71-4.52 34.75-9.41-11.4 32.22 12.31 30.95 14.3 29.87 2.36-1.27 22.27-16.84 19.01-24.44-.54 0-1.09-.18-1.45-.36 7.12-3.5 11.47-5.98 13.03-7.43v-1.99l.55 1.63c2.53-3.26 4.16-5.43 6.88-13.03 2.71 9.96 13.39 15.02 15.74 25.16 3.99 16.11-4.7 32.77 2.36 48.88 8.51 19.55 18.46 9.95 18.64 9.95 3.62-3.8 3.99-11.58 4.89-16.65 2.9-19.01-5.79-37.47-3.08-56.48 2.72-19.73 15.93-35.84 18.47-55.57.72-5.61 0-13.22-.91-18.83-.18-1.08-28.06-103.54-64.62-103l-.36-.72Zm-667.97 116.94c-1.2-3.14-1.99-5.37-2.35-6.7h.36c6.16-3.08 13.4-.54 19.37-4.35 6.34-3.98 14.12-11.58 16.47-18.64 9.6-27.52.73-54.31-3.98-68.79 17.38 29.69 21.54 36.57 38.38 27.34-5.98-5.98-1.81-11.95.54-12.86 1.09.73 2.72 1.63 3.62.91l-2.89-2.9h.9s-1.09-1.08-1.45-1.45h-.18c-21.72-20.99-36.62-28.72-44.71-23.17-10.32-18.46-23.89-35.3-31.5-55.21-4.34-11.58-1.81-24.62-7.6-35.84-3.98-8.15-8.33-9.59-16.65-12.31-2.54 4.35-2.72 5.25-2.18 9.23-4.16-5.43-7.06-8.14-12.12-11.4 2.29.96 4.28 1.21 5.97.72 3.26-11.94-13.76-26.06-13.94-26.24-13.76-11.05-30.77-17.02-44.35-28.24-17.38-14.3-28.6-34.58-47.25-47.61-6.33-4.35-19.55-13.58-36.92-13.4-1.63 0-3.08 0-4.71.36 26.43 5.25 67.34 89.97 120.56 215.42 36.75 86.34 53.4 124 66.43 115.67l.18-.54Zm558.45-86.17s.54-.36.72-.54c0 0-.54.36-.72.54Zm69.33 223.56c-40.37 51.95-56.3 119.11-103.72 166.54-27.52 27.51-34.22-28.06-34.22-28.6-.72-11.11 15.39-47.13 48.34-108.07-2.06 2.17-6.16 6.21-12.31 12.13 0-5.98 3.8-11.05 4.34-17.02-3.98 8.69-21 3.68-51.05-15.02-11.58 22.32-20.33 34.27-26.25 35.84-19 5.07-45.25 26.61-56.65 71.14-8.69-4.53-9.96-4.89-22.45 0 1.63-16.11-16.29-20.46-19.91-33.49-2.36 2.9-48.88 50.5-72.05 59.74-1.08 10.13-1.81 12.85-6.7 23.53-.36-1.09-.9-2.54-1.26-3.62-2.42 2.41-4.83 6.33-7.24 11.76 0-5.24 0-10.68 3.8-27.51-11.41 7.06-20.46 12.67-43.99 40.37-22.99 26.97-30.77 32.76-42.9 39.46-20.46 11.4-44.35 13.58-65.53 22.99-26.61 11.95-45.8 38.19-77.3 41.09-.18-3.08.73-7.42 2.36-10.14-45.62 23.35-59.2 75.13-64.99 97.21-1.93 7.6-4.16 12.67-6.7 15.21.18-2.36 0-5.43-.72-7.61-28.96 33.85-18.65 82.37-43.81 117.49-15.57 21.54-40.91 33.85-53.94 57.74-.91 1.63-.54 4.35-.73 6.16 13.4 11.04 51.05-3.99 78.57-14.85 1.81-.72 182.1-66.98 215.23-42.36.36 4.11-10.26 24.62-31.86 61.55 24.44-16.84 51.05-30.41 73.86-49.42-14.85 28.96-46.89 35.84-69.7 54.31 9.6-1.27 12.86-3.62 38.92-22.45-.6.85-10.74 9.78-30.41 26.79 0 0 .36-.18.36-.36 1.09.36 2.54.9 3.62 1.27-7.42 22.62-36.92 29.32-39.64 55.39 2.41 1.93 18.71-1.87 48.88-11.41-3.87 3.62-7.67 6.28-11.41 7.97h4.16c-1.2 3.38-4.16 7.78-8.87 13.21 191.52-89.78 306.83-218.31 347.56-269.35-2.17 2.35-4.89 5.79-6.88 8.14 3.99-4.88 8.15-9.77 12.13-14.84-.72.9-1.81 2.17-2.53 3.26l1.26-1.63.73-.91c1.08-1.26 2.53-3.07 3.62-4.52-.73.9-1.63 2.17-2.35 3.07 4.88-6.69 20.09-27.33 30.04-53.58 8.51-22.62 19.19-44.53 26.98-67.52 6.69-20.27 1.81-42.54 11.58-62.27 26.19-52.25 39.65-87.55 40.37-105.89 1.99-48.88 11.22-63.18 22.81-81.46h-.36c-.19 0-.37 0-.73.36l-.36.18Zm-171.97-194.05c5.61 3.26 14.84-.36 17.2-6.52.54-1.27.54-2.35.54-3.26-.72-6.33-7.96-11.4-15.39-10.86-5.97 1.45-6.51 5.97-6.69 7.42-.37 2.72-1.09 10.14 4.52 13.22h-.18Zm-98.84-674.48v-.36s0-.18-.18-.37v.73h.18Zm60.65 355.16c-1.09 1.27-2.18 2.53-2.9 3.08 1.45-1.45 2.35-2.36 2.71-3.08h.19Zm72.22 2.71c.91 17.2 1.45 17.74 4.71 20.46 1.27-4.71 2.9-11.04 3.44-15.93 0-.72 8.69-64.81-13.94-91.96 0 0 .18-.36.36-.54 1.57-.85 2.05-7.66 1.45-20.46-1.45 3.8-3.08 7.61-4.52 11.59.36 1.63.72 3.62 1.08 5.25-5.07-3.38-8.21-16.84-9.41-40.37 15.57 6.52 10.86-17.38 6.33-28.06-5.97-14.12-7.78-13.94-21.72-12.13-7-24.13-12.01-36.44-15.02-36.92-3.02-.49-4.23 1.69-3.62 6.51-2.72-16.83-21.73-16.83-25.71-13.39-1.63 1.45-2.17 4.52-2.53 6.7-1.09-6.16-1.63-10.5-1.81-19.01h.18c.54-3.08.54-4.71.54-7.97 0-.9-.36-2.17-.36-3.07-1.45-29.69 7.96-59.92-3.8-89.25-8.69-21.72-38.74-7.42-47.97-28.24l-.55-1.08s.55 1.81.91 2.35c3.44 25.71-7.42 52.32 4.89 77.48-1.99-.55-4.53.72-6.34 1.63-3.98 15.02 3.62 43.62 17.74 54.48 5.07-2.89 5.79-6.33 2.54-12.12 4.82 3.13 6.15 13.03 3.98 29.68-1.45.18-3.44.55-4.89.73-3.8 9.77 1.45 15.75 21.18 38.01 11.59-14.12-2.17-29.69-11.4-37.65 4.16-1.27 9.05-2.35 19.36-.91-2.17 6.16.91 8.51 3.99 9.96 2.17-.91 4.34-1.99 1.81-8.51 12.31 4.17 16.65 17.02 26.61 23.9-1.81-9.42-6.52-12.86-7.97-13.76.36-3.8 1.09-15.21 12.85-2.72 7.06 7.43 13.22 19.01 15.03 22.81h-1.81c-1.09 6.76 3.74 17.8 14.48 33.13-3.44 2.9-5.79 3.62-8.51 0 .55 0 1.45-.36 1.99-.54.25-2.54-.36-5.07-1.81-7.61-1.63 1.63-2.35 2.36-.9 6.88l-1.09-2.17c-3.07 8.33-3.07 15.39.55 27.33-.37 0-.73-.18-1.09-.36l5.61 10.5 16.29 28.96c-2.29 7.85-12.07 21.3-29.32 40.37.36-.9.72-2.17 1.08-3.08-3.62-6.33-24.98-5.06-28.96 9.24-2.53 8.68-1.81 18.1-5.79 26.61 8.33-10.5 10.32-15.57 11.22-18.11 7.97 10.86 29.15-8.5 29.33 5.62 0 10.31-6.7 19.91-3.44 30.77 3.26 10.5 14.48 13.57 19.91 22.26 0-14.66 11.95-24.25 15.2-37.47l-.36.18Zm-64.44-72.58c3.8.18 11.95-13.04 15.57-20.28 0 0 1.99-11.22 2.35-16.65 1.45-17.74-6.7-16.11-6.7-16.11-8.32 6.51-17.92 52.49-11.04 53.04h-.18Zm10.5-83.45c4.71-9.96 7.06-15.93 7.06-20.64v-.91c5.97 5.43 11.77 15.75 11.04 25.35-.18 2.53-.9 4.34-1.27 5.43-4.88-11.05-10.5-12.49-18.46-4.89v.36c0-.72.36-1.81.36-2.53 0-3.26.36-3.44.73-3.8.18 0 .36.18.9 1.44l-.36.19Zm1.27-.55h.54v-1.08l-.72 1.08h.18Zm-80.38-202.02v-.18.18Zm158.76 531.3c-1.27 1.81-2.54 3.8-3.98 5.61 1.08-8.33 0-16.84 1.44-25.16.73-4.59 2.05-7.79 3.99-9.6 0 0-1.27.73-1.81 1.09-5.62 4.34-11.59 12.49-14.31 39.1-.24-.73-.48-1.27-.72-1.63-1.09 3.44.36 31.86 1.63 38.19 2.35 13.04 5.43 13.58 7.6 12.86-7.78-32.95 13.58-32.22 13.94-32.22-2.89-12.13-2.53-18.11 4.35-39.65-4.17-1.26-12.49 8.51-11.95 11.41h-.18ZM2175.8 2118.31s.37.54.55.91c-1.09-2.9-2.17-5.62-3.26-8.33 0 .9.18 1.99.36 2.9.73 1.63 1.63 3.07 2.54 4.52h-.19Zm-717.56 663.62-1.26-2.72s.36.91.36 1.45c-1.99-4.52-1.99-4.52-4.35-5.79-.6 1.57-1.08 11.95-1.44 31.13-2.9-4.88-3.44-6.15-5.07-11.58-7.61 18.64-7.79 27.88-1.99 75.3 7.06 59.02-3.99 174.14-37.84 176.68-11.76.9-35.12-16.11-43.26-43.63-7.78-25.88-17.74-160.56-17.56-161.47 1.09-18.28 19.01-23.35 27.7-35.66 2.71-3.8 3.62-8.32 6.33-11.94 1.27-1.81 3.62-3.99 5.25-5.62 13.4-13.75 15.03-33.48 24.8-49.05 5.79-9.42 7.97-20.82 16.29-28.6 10.32-2.9 18.47 21.36 23.54 42.17 3.8 16.3 5.24 21.73 8.68 29.33h-.18Zm-3.07-6.7c-.55-1.08-.73-2.35-1.45-3.44 0 .55.36 1.09.54 1.63.18.54.54 1.27.91 1.81Zm1612.16-972.98-.37-1.27s.18.91.37 1.27Z"/></g></svg>