<svg xmlns="http://www.w3.org/2000/svg" width="4123" height="3947" fill="none"><g  class="rotate-circle" opacity=".7"><path fill="#F3F3F3" d="M3847.46 2248.54c152.17-937.48-484.45-1820.827-1421.93-1973.002C1488.04 123.362 604.698 759.982 452.522 1697.47c-152.175 937.48 484.445 1820.83 1421.928 1973 937.49 152.18 1820.83-484.44 1973.01-1421.93Z"/><path fill="#DEDEDE" d="M3232.72 1055.17c17.56 9.42 34.04 20.64 52.32 28.78 19.73 8.69 16.83.37 15.21-3.98 1.44 1.81 2.71 3.62 4.16 5.61.54-3.25.9-5.79 6.33-7.42l-.36-.9c-1.33-7.61.73-14.55 6.16-20.82-1.27 7.24 1.26 14.66-.55 22.08-1.08.18-2.35.55-3.25.91h-.37c2.54 10.68 2.18 11.58 1.27 15.2-.9 0-2.17 0-3.08-.54l-.36-.36c5.43 7.06 14.3 8.87 20.82 14.3-.36 4.16-3.62 25.34-29.69 35.66 30.59 25.71 53.04 69.33 84.18 129.79-1.45-3.02-2.3-5.19-2.54-6.51 0 0 28.78 40.54 28.42 62.27-.36.36-.72.72-1.09 1.08-9.41-5.43-8.14-17.38-15.02-24.25-.36.54-.72 1.08-1.09 1.62.91 3.63 3.08 6.7 3.62 10.32-1.81-1.69-3.37-2.47-4.7-2.35.36 5.97 4.7 11.4 2.53 17.56-3.07-.73-10.5-6.7-6.7-11.77-.72-.72-1.99-1.45-3.07-1.81-1.63 2.17-2.72 3.62 1.81 14.66-3.26-.9-4.53-1.08-9.05-.9H3377c-5.25 0-5.98-.36-9.42-1.63.55 3.08 2.36 12.13.19 24.08-3.08 13.75-10.32 3.25-12.86 0-2.53-3.62-3.8-5.8-7.06-11.41.73 3.8 1.45 7.6 2.18 11.41 0 .9.36 1.99.54 2.71 1.08 6.52 2.35 13.03 3.44 19.55-6.16-4.52-9.05-5.25-10.68-2.89-1.09 1.44-1.09 6.15-1.09 8.32 0 7.6 0 9.05-1.08 12.31-9.96-11.58-18.83-17.74-30.42-21 9.6-.54 13.58-6.33 19.01-19.19 4.71-11.58 6.7-15.74 12.49-19.91-13.39-16.47-54.67-.54-60.64 15.21 3.8 1.27 4.89 1.81 8.87 4.7 20.09 16.48 32.04 49.24 34.39 61.55 3.26 17.02-4.16 14.48-6.15 12.85-15.57-11.94-22.81-30.23-35.12-44.71 0 0-.42-.3-1.27-.9 0 0-.54.9-.9 5.07-1.81-4.89-2.9-6.7-8.87-12.86-7.06-7.24-8.15-11.4-5.43-21.18 4.16-13.03 26.61-76.75 68.24-52.85-24.07-46.53-13.57-46.89-7.24-46.89 12.49-.18 12.67-57.74-33.49-101.37 5.8 3.98 12.67 6.52 17.74 11.41-1.93-2.9-6.15-8.45-12.67-16.66v1.63c-1.45 1.45-2.35 2.35-8.87 0-.54-.18-49.6-24.98-21.36-40.19-3.26-1.26-7.42-4.16-9.23-7.06-8.51-13.57-13.58-29.14-21.9-42.72-1.63-1.81-3.81-4.16-5.43-5.79l-.19.18ZM1471.95 489.305c4.89-.724 10.32-3.439 23.17-9.956 15.75-7.965 17.92-8.87 20.82-8.146.72 1.449 0 4.707-11.77 11.043 2.53 1.267 5.97 1.086 15.75-.906 7.42-1.629 8.32-1.629 12.13-1.991 1.44-4.706 1.63-5.973-.18-8.689-2.72-3.801-7.61-4.344-11.23-6.878 6.88-.362 19.73-.906 42.54-4.707 18.1-3.077 12.31-12.852 12.31-12.852-2.17-1.448-7.06-1.448-9.77-1.267-18.47 1.267-35.12 6.516-40.19 9.232v.543c-2.53.362-5.25 0-7.6.905-1.09.362-1.27 1.991-2.54 2.172 1.27.543 2.17.905 5.25 1.086a28.52 28.52 0 0 0-3.44 1.448c-4.7-2.353-9.23-.724-15.56 5.612-.37-2.715-4.53-4.888-2-7.965-2.17.905-8.69 3.982-13.93 1.81-.73-.362-1.81 0-2.36.181-2.71 1.629-3.62 5.431-6.7 6.698.37-1.086.37-1.931 0-2.534-2.35 0-5.61 5.249-4.7 6.516 1.45 2.173 2.53 0 3.98-2.896 7.06 1.991 14.48-1.086 21.36 1.81-21.36 8.206-32.46 13.034-33.31 14.482 1.09 3.077 8.33 5.068 8.51 5.068l-.54.181Zm-409.47 153.143c10.14-6.336 56.84-38.195 57.2-38.557-.54.543-1.08 1.086-1.63 1.629 5.07-.724 6.34-.905 21.91-9.775 15.2-9.594 36.56-8.508 46.34-27.334-4.16.362-7.97 2.172-11.95 3.258 7.6-4.525 15.21-9.051 22.99-13.214-2.9 3.077-6.33 5.792-9.59 8.508 6.15-.905 21.54-10.861 22.81-12.31-1.45.543-3.44 1.63-4.71 2.354 4.71-2.716 9.41-5.25 13.94-8.508-1.45.724-3.26 1.81-4.71 2.534l20.64-19.007c2.17.543 7.6 1.81 10.32-4.526.18.725.36 1.449.72 2.173 7.42 2.353 11.04-4.707 16.83-6.517-2.17.121-4.94 1.086-8.32 2.896 13.03-8.146 13.57-8.327 24.07-10.318 13.22-4.344 21.73-16.111 33.85-22.084-.72 0-1.63.362-2.17.543 0-.724 0-1.81.18-2.534 8.15-4.888 18.65-3.078 26.07-9.775h-2.17c2.71-1.449 5.97-2.173 8.32-4.345-1.2 0-4.16.724-8.87 2.172 28.42-14.843 59.74-22.446 89.07-34.755 1.99-.906 4.52-1.992 6.51-2.897-7.36-1.931-23.23 1.448-47.61 10.137 11.05-16.834 40.01-2.172 46.71-26.791-1.63-.543-3.8-1.086-5.43-1.086-8.15 1.086-18.83 4.164-23.35 5.974-.55.362-1.09.543-1.82.905l.91-.362h-.36l-1.27.724s-.36 0-.36.181h.36v-.362h.18s1.45-.905 2.17-1.086c-8.44 1.931-17.13 5.37-26.06 10.318 1.45-1.207 3.8-2.836 7.06-4.887-3.44 1.267-6.52 3.258-9.96 4.525.73-.362 1.45-.905 2.17-1.267-1.63.724-3.8 1.81-5.43 2.534 1.63-.905 3.99-2.172 5.61-2.896-3.98 1.991-8.87 4.525-13.93 7.06-78.93 40.91-154.23 87.613-225.37 139.928a1684.948 1684.948 0 0 0-116.04 93.225c16.84-14.482 48.7-41.273 58.29-47.246-4.34 4.163-9.41 7.602-14.12 11.404v-.543Zm2171.51 394.082c-4.89-7.42-9.41-12.31-32.22-32.95-20.45-18.462-24.26-22.626-26.07-27.694.18-.362.55-1.086.73-1.448 3.08-.724 4.7-.905 15.75 2.534-2.9-8.146-5.62-13.939-18.83-24.619-19.73-15.929-44.71-22.989-64.99-38.014-20.99-15.386-36.74-36.566-57.38-52.133-6.7-5.069-16.65-11.043-25.16-10.862-2.17.181-2.72.362-4.89 1.086 6.34 7.422 16.29 10.319 22.27 18.284 31.68 20.274 101.19 93.225 134.49 128.523 28.97 30.413 36.21 37.653 42.73 42.543-5.62-7.24-8.51-11.95-12.13-20.1 1.57.37 4.88 2.36 9.95 5.98 7.43 5.25 13.94 9.59 15.75 8.69v.18ZM1683.56 559.179c.36 1.086.9 2.172 5.25 3.439.9-.724 1.99-1.81 2.53-2.896-.36-.724-1.08-1.448-1.63-1.991.37-.724 1.09-1.811 1.81-2.354 11.23 17.197 24.26 20.456 39.83 9.776-3.98-8.146-10.68-14.482-14.12-22.809 11.22-2.896 21.54-12.128 24.62-21.722 5.97 2.896 13.21-1.448 30.41-11.586 18.46-10.861 40.37-8.326 59.92-14.3 2.35-.724 5.61-2.172 7.96-3.077-13.57-2.173-26.97-3.259-40.18-2.897-7.79.543-11.23.724-17.38 2.535-3.99 1.267-6.7 4.706-10.68 5.973-13.76 4.707-28.42 6.698-42.18 11.947 2.35 3.259 1.27 4.526-8.33 9.233-.36.181-43.44 27.514-42.72 33.307 3.44 1.991 7.79 1.629 10.86 3.982-4.34 1.449-5.07 1.63-5.97 3.259v.181Zm1543.37 766.801s.36.54.73.9c-.18-.36-.37-.72-.73-.9ZM946.448 872.524c-8.568 5.672-20.757 17.438-36.566 35.298 0 0-2.172 7.422 4.164 7.422 4.163 0 9.775-3.439 12.128-4.887-2.534 1.991-3.801 3.077-5.793 4.344 26.791-13.576 32.222-7.241 34.032-.362 3.439-11.585 15.387-14.843 22.265-23.17 8.87-10.68.725-9.956-3.439-9.413-2.353.181-2.534.181-3.62 0 5.068-5.974 12.671-14.844 11.042-18.826 6.517 2.353 16.835-43.988 16.654-44.531-.181-.543-1.086-1.086-1.448-1.629 15.023-6.336 39.823-27.877 40.733-35.48-2-2.353-5.07-.905-18.47 5.068 14.6-10.861 23.78-18.222 27.52-22.084-1.63 1.629-3.99 3.801-5.8 5.431-19 14.119-31.86 17.74-35.48 18.645.91-1.63 2.18-3.259 2.72-5.069h-.72c7.06-5.25 11.94-9.775 15.93-15.206-3.08 0-5.07 1.811-11.41 7.422-6.39 5.431-9.59 8.327-9.59 8.689-6.158 5.069-9.959 10.137-10.683 11.042 3.62-3.439 7.06-7.24 10.683-10.861v.905c.18 0 .36.362.54.543.72-.12 1.51-.422 2.35-.905-6.694 6.336-10.315 12.31-10.315 12.31 1.811.724 2.535-.725 3.983-3.259 0 .181 0 .543.181.724 1.267 0 1.991 0 6.331-2.896-.18 0-25.519 21.541-26.967 23.17 0 0 14.843-8.326 19.912-12.49-2.414 2.534-7.301 6.879-14.663 13.034 0 0 1.991-1.811 2.715-2.535-6.758 4.465-12.249 9.112-16.472 13.939 2.896-1.991 4.706-3.44 7.783-5.974-1.629 1.629-5.973 6.155-7.783 10.318.905 0 2.896 0 15.567-12.128-10.137 11.223-11.947 13.576-12.309 17.74 1.448 1.448 1.448 1.448 7.784 1.629-5.431 3.982-12.672 11.947-14.482 16.654.181.181.362.362.543.724.543 0 1.086-.362 1.63-.543-7.603 7.965-10.5 10.318-20.818 17.197h-.362ZM3321.42 1020.96c0-1.09-1.08-4.16-3.44-9.05 0-.18-.18-.36-.36-.54v.54c-.18 1.27-.54 3.44.18 5.97-.36-.18-.9-.54-1.26-.72 1.26 1.45 4.7 5.61 4.88 3.8Zm-2188.7-391.727c-3.8 1.087-7.97-.724-11.77.906-5.07 2.172-8.33 4.525-14.84 10.318 3.44-3.44 4.7-5.069 4.88-6.336-1.99-1.086-10.68 3.801-22.62 12.852 19.19-17.197 21.36-20.093 22.81-21.903h-.55c-2.89 1.991-7.06 5.431-12.13 10.137 1.09-1.448 1.09-1.629 1.27-2.353-.72 0-1.45-.362-10.86 8.327 0-.181.36-.543.36-.905-.72 0-1.08 0-7.24 4.344h.91c.18.905-.18 1.81 0 2.715 0 0 .36.181.54.362-.91.544-1.99 1.449-2.9 1.992-.54.905-.54.905-.54 1.448 0 0 .36.181.36.362 0 0-14.12 5.43-13.94 9.413.73.181.73.362 2 0-21.55 15.568-12.13 18.102-11.95 18.102 3.98.905 19.19-3.621 34.21-13.034 3.08-1.81 6.88-4.525 9.78-6.516 5.06-3.802 9.05-8.87 14.84-11.767-.18 0-.54-.362-.72-.543.54-1.448 1.62-4.344 18.46-17.559l-.36-.362Zm-123.1 56.298h-.18l-1.08 1.267c3.26-2.897 6.69-5.793 9.95-8.689a412.273 412.273 0 0 0-8.5 7.422h-.19Zm991.81-226.999v-.362c6.34-1.81 11.95-2.534 22.81-3.258-7.97.905-9.6 2.896-11.22 5.792 11.94 3.983 22.26 11.586 34.75 13.758 10.68 1.991 17.02-2.173 19.55-3.802.73-.543 2.72-1.991 4.89-4.525 0 0-1.27-.543-3.8-1.629-4.17-1.63-3.8-2.716 0-5.431-13.04.362-18.47-2.534-25.16-5.974-7.97-4.163-14.12-6.154-28.24-5.973-5.07 0-8.15.362-13.04.724.73 3.439.91 7.06-5.79 5.792 4.89 1.087 7.97 1.449 12.67 1.992-5.43 0-8.69 0-13.39-.543.9 1.086 3.44 3.982 5.97 3.62v-.181Zm434.45 46.522c-.61.241-1.21.362-1.81.362 4.16.543 8.5.181 12.67.724 14.66 1.81 28.78 6.698 43.44 8.146 9.6.905 16.29 0 17.74-1.629-1.45-3.439-26.25-7.241-26.43-7.241-6.15-.543-12.12-2.353-18.28-3.077-11.22.543-19.91-8.146-30.95-7.784-3.26.181-3.62 1.267-3.81 2.172 1.82 3.44 5.98 4.888 7.61 8.508l-.18-.181Zm-351.54-26.429h.36c17.74-.181 29.32-4.163 34.57-6.698.73-.362 1.45-.724 2.18-1.086-6.34-5.611-21.91-11.042-31.32-10.861-12.31.724-13.94 13.939-9.96 17.016 1.81 1.448 3.62 1.448 4.35 1.448l-.18.181Zm478.61 32.765s.18-.724.36-1.086c-12.67-7.965-23.17-11.043-36.38-10.681-5.61.362-9.41 1.087-15.39 3.44 1.63-.362 5.43.905 12.86 3.439 13.93 4.888 34.93 12.128 38.55 4.707v.181Zm730.6 451.281s0-.905-.55-1.629c-1.26-2.353-5.43-7.422-7.42-8.146.36 1.449 2.72 5.069 4.53 7.06.9 1.086 3.08 3.44 3.62 2.715h-.18Zm14.3 27.696v-.543c-.18-.724-1.63-1.267-2.72-1.629v.362c.36 2.535 2.36 2.353 2.72 1.81Zm12.49 44.893s-.18-.54-.36-.72c-.73-.25-1.27-.31-1.63-.18-1.45.54-1.99 2.35-1.63 5.61 0-.37-.36-.73-.55-1.09 0 .36 0 .72 4.53 10.32 1.99-1.27 4.16-4.16-.54-13.76l.18-.18Zm-7.97-36.385s.73 0 .73-.905c-1.09-1.086-2.54-2.534-3.08-2.353-.54.362 1.27 3.077 2.35 3.439v-.181ZM1742.21 453.644l8.87 2.173c2.53.362 5.07-.181 5.97-.362 0-1.086 0-1.267-.9-1.992.72 0 1.63-.362 2.17-.543 5.19 2.052 12.97.845 23.35-3.62 1.21 3.62 10.98 2.293 29.33-3.982 0 0-.73 1.448-1.09 1.991-1.81 1.81-1.99 1.991-2.17 2.534.54 0 2.35 0 5.07-.905l.9-1.81v-.543c.91-2.173.73-2.354.55-3.259-3.26-1.448-4.17-1.629-12.49-.905 1.08-1.086 2.71-2.353 3.8-3.258-5.43 0-10.32 2.715-15.75 2.896 0 .181.36 2.534 5.61 2.172-3.08 1.087-6.52 1.63-9.59 2.716-1.81 0-4.71.362-16.66 3.258 0 .362.36.905.36 1.448-1.99-.362-3.62-.362-5.97-.362 3.62-1.086 5.79-1.991 8.69-3.258-4.35-1.267-7.6-1.629-13.03-1.81 2.71-.362 7.06-1.448 9.59-2.354 3.44.906 11.77 2.897 12.67-.543a2.175 2.175 0 0 0-.9-.905c-2.36-.724-4.89-.181-7.06-1.267-5.98-2.715-6.7-2.534-7.43-2.353 0 0 .25 1.026.73 3.077-7.79 1.448-15.21 4.888-23.35 4.345l-1.63.905c.36 1.086.36 1.086.18 1.81-.54.362-.91.543-3.26-.543 0 .905 0 .905.36 2.172h-.54c-2.53-.543-5.25-1.086-10.68-.724v3.983c9.05-.362 13.7-.483 13.94-.363l.36.181Zm1556.41 518.259c-.55-.905-1.27-1.629-1.63-1.991h-.18s0 1.81 2.17 5.612c.54-.724.54-2.172-.36-3.621ZM1684.65 451.11c3.62-.543 10.13-1.448 17.55-.905-3.01.483-4.7.845-5.06 1.086 0 0 0 .362.36.543-3.26.724-5.07 1.086-7.6 1.086 1.62 3.621 6.33 3.983 18.28 1.087-.91.362-1.99.724-2.72 1.086 1.09.362 2.18.362 3.44.181-1.08 1.267-3.07 3.62 1.99 3.077 2.9-.362 7.43-1.629 9.05-2.172.37 0 .73-.181.91-.181-3.44-1.629-6.7-1.81-11.22-.905 1.81-.362 2.71-.905 4.52-1.992-.36 0-1.08-.181-1.45-.362 3.81-.905 7.43-1.991 11.23-2.896-.18-2.353-.55-6.517-13.4-6.336-9.05.543-19.01 2.716-29.32 6.698 1.99.362 2.89.543 3.8.543l-.36.362Zm1472.59 2893.96c-5.79 3.08-11.22 6.52-17.02 9.59 11.47-7.84 17.38-12.43 17.74-13.75-1.44.36-3.25.72-4.52 1.08-30.78 17.02-58.65 38.74-91.05 53.04-30.42 13.4-49.72 22.39-57.93 26.97-24.62 13.94-27.15 17.38-27.52 19.55 11.23 4.35 137.76-67.34 171.43-90.51 2.71-1.81 6.34-4.34 8.87-6.15v.18Zm-16.29 12.49c8.14-.54 79.47-48.51 103.54-68.61.36-.36.73-.72 1.09-.9-5.43 1.81-8.69 6.7-13.94 8.87 1.08-1.57 11.58-10.98 31.5-28.24-4.53 3.62-9.24 7.06-13.76 10.68 2.17-1.99 4.16-3.98 6.33-5.97-29.32 24.98-113.86 83.45-114.94 84.17h.18Zm160.2-126.89c-14.12 11.76-26.97 24.98-40.73 37.29 1.81-1.09 3.26-2.54 5.07-3.63-.36.55-1.09 1.27-1.81 2 13.58-12.86 27.15-25.71 41.27-38.2-1.08.72-2.53 1.81-3.62 2.54h-.18ZM3080.49 652.223s-.18 0-.36-.181c0 0 .18 0 .36.181Zm-.73-.362s.18 0 .37.181c0 0-.19 0-.37-.181ZM885.626 910.719c4.344-1.81 27.515-12.853 63.719-57.021 3.801-4.526 15.024-18.283 7.24-18.102-.543 0-1.086 0-1.629.181-14.119 4.525-23.713 16.835-37.29 22.627-2.353 6.336-4.706 9.232-9.956 12.49 2.715 3.078-2.172 8.689-14.844 21.361-6.697 6.698-27.152 26.791-7.24 18.464ZM3033.42 3251.48l.18-.18c-.36.18-.72.54-.9.91.18-.18.54-.37.72-.73Zm353.53-214.32c.91-1.09 1.81-2.18 2.72-3.26-.91 1.08-1.63 2.17-2.54 3.26h-.18Zm-123.45 229.17c-2.54 2.35-5.07 4.7-7.6 7.06 3.43-2.9 5.97-5.25 7.6-7.06Zm-259.77 80.91c-4.16 0-8.14-.72-12.3-.72-4.17.18-12.86.54-27.7 10.13-17.02 11.05-31.14 25.71-47.25 38.02 19.37-3.44 21.73-4.89 43.99-19.91 21.18-14.12 38.02-25.35 42-27.16.36 0 .9-.36 1.08-.36h.18ZM1543.45 1539.76c5.07.73 6.34.36 6.7 0 .54-.72-1.45-1.81-3.44-1.63-1.99 0-2.72.91-3.08 1.81l-.18-.18Zm-661.445-375.07v.72c-.543 2.54-1.448 5.43-4.525 14.48-5.612 16.66-15.025 44.35-7.06 39.29 7.241-4.53 20.636-27.52 26.972-41.46 7.965-17.38 3.258-17.19 1.629-17.01-.905 0-3.982.9-11.404 5.07-5.612 3.25-5.612 2.89-5.793-.91l.181-.18Zm-190.794 53.76s.362-.36.543-.72c0 0-.362.36-.543.72Zm206.905-63.35c2.534-3.63 10.137-14.31 18.102-30.78 2.715-5.79 4.707-10.5 5.431-12.31-.543.18-1.268.55-1.63.73-10.499 7.24-20.817 26.43-20.455 27.69-3.439 7.61-3.801 11.04-1.629 14.67h.181Zm2356.154 891.34c.9-12.49-3.62-20.28-6.16-24.8-.36.54-.72 1.44-1.08 1.99-3.08 6.88-7.97 19-6.16 21.54 1.09-.36 1.63-.73 4.89-5.07-14.48 24.44-30.23 49.42-31.68 51.41l-1.99 2.9c-5.07 8.14-7.6 13.39-11.04 22.8 20.99-11.04 51.22-41.81 53.4-70.96l-.18.19Zm97.2 281.12c.91-3.08.55-7.6 0-10.86-2.89.54-6.51 1.45-9.41 1.99-24.8 5.07-50.14 6.52-74.94 12.49-6.88 1.63-11.95 4.71-15.03 9.23-1.99 2.72-3.07 5.43-4.16 7.6-5.43 12.31-7.6 25.53-11.95 38.2-8.14 24.07-26.79 42.72-34.03 67.34-7.24 24.62-1.45 50.32-5.43 75.12 8.33-2.71 14.48-2.71 21.54-.36 0-.72 13.76-68.24 24.98-79.29 5.07 7.24 5.8 8.33 3.08 30.78-3.98 31.49 13.03 25.52 16.47 24.07-1.45 3.26-5.61 13.22-4.16 25.16.54.37 1.27.73 1.81 1.09 9.96-4.71 18.46-30.23 18.1-39.64-3.8 1.26-6.15 2.53-9.59 5.61 4.16-25.71-7.06-49.96-7.79-75.31 15.93 20.28 24.98-27.51 43.99-32.4-20.82-3.8-41.81 8.33-62.45-1.45-8.15-3.8-4.71-10.31 12.13-22.44 18.28-13.04 29.69-11.59 52.31-8.87 19.73 2.53 21.18 1.08 29.51-7.06-.91 1.26-2.17 3.07-3.26 4.34 11.22-13.27 17.32-21.72 18.28-25.34Zm36.93 124c-9.23.54-22.44 5.61-11.58 15.2 1.44 1.27 3.25 2.36 4.52 3.26-.72.54-.72.54-.9.91h.18c.36 0 .54-.18.9-.91 15.93 8.69 32.22 9.6 37.11 1.81 3.44-5.43-1.27-10.5-2.17-11.04 0 1.99 1.99 4.16 2.9 5.97-8.87-14.84-27.34-15.38-30.96-15.2Zm-89.6-446.03s0-.37-.18-.37c0 0 0 .37.18.37Zm7.6 383.39c-.54-.36-.91-.54-1.27-.54.36 0 .73.36 1.27.54Zm-10.32-339.59c3.98 8.69 19.73-5.61 19.91-5.79 2.72-2.54 4.35-5.25 4.53-7.78.36-3.81-1.09-5.62-5.61-10.69-9.96-11.22-12.31-14.66-14.12-17.73-.73.36-1.09 0-1.99-2v.55c0 1.81-.37 3.44-1.27 9.77-1.63 10.32-4.16 27.88-1.63 33.67h.18Zm-51.23 553.74 8.15 2.35s-.36.91-.54 1.45c-2.72.73-6.16 1.45-8.87 1.99 1.08 1.21 3.56 2.54 7.42 3.99l.72-.55c5.79-1.63 11.04-4.34 16.66-6.15-.37.9-.91 1.99-1.27 2.71 2.17-.36 5.25-.72 6.88-1.99 2.17-1.63 2.35-4.52 4.34-6.15.36-.36.91-.55 1.45-.73-.36 0-.91-.36-1.27-.54h-.18c-2.53-.36-4.89 1.09-7.42.36-5.43.55-8.15 1.09-11.4 2.17-6.34-7.24-15.57-.36-15.57-.36-16.11-4.7-41.82-2.71-55.03-.36-8.69 1.63-15.93 7.06-24.8 8.33-6.52.9-12.49-1.63-18.83-2.17 1.45 2.17 2.36 3.25 5.25 4.34-5.43 3.98-7.78.9-11.95-4.53-9.95 0-13.93 1.45-16.65 2.54-3.08-9.78-8.15-11.95-10.32-11.95-9.05 2.9-2.89 10.5 6.16 22.27l.54-.37c14.66 3.99 29.33-2.71 43.99-.18-4.35-11.04 51.23-4.88 51.77-4.7-.18.36-.54.9-.91 1.44 10.68-4.16 20.28-10.13 31.5-13.21h.18Zm-275.51-15.57h.54c-30.59-6.33-49.96-12.85-79.28-26.43 15.57-4.7 26.97-16.83 41.81-22.8 24.98-3.62 40.19 22.08 64.08 21.17 20.64-.72 40.19-10.31 61.19-8.14 1.45 0 3.44.36 4.89.54 14.12 2.9 15.93 9.78 17.37 15.75-7.96 5.43-17.01 9.78-28.6 5.25 5.98 9.59 7.06 11.4 25.89 14.3 28.6 4.35 25.52 15.57 23.89 18.83-.36.54-.9 1.45-1.26 1.99-3.62 3.98-22.27 11.4-22.27-7.06-3.44 13.03-29.87 6.33-108.25-13.58h.18l-.18.18Zm1.99 0c1.09 0 3.26 0 3.62-.18 0 0-5.07-.72-5.43-.36 0 0 .18.18 1.63.72l.18-.18Zm345.93 14.12c1.45-3.08-1.63-2.89-5.25-2.53-44.17 10.32-72.04 47.97-79.1 61.73 2.53-.91 8.68-2.72 28.42-13.58 18.1-9.96 51.59-36.75 55.75-45.62h.18ZM3138.59 2474s16.66-5.25 3.26 11.23c3.99-4.53 8.87-11.05 11.59-16.48 7.78-15.38 5.79-33.48 13.21-49.05 9.05-19.01 26.25-32.4 34.76-51.77 5.97-13.58 5.43-19.37 4.7-29.33 10.87 13.58 15.57 5.79 17.02 1.81 3.8-9.95 2.53-29.87-23.89-68.24 2.41 1.57 4.4 2.71 5.97 3.44 0 0 .18-.91-8.33-14.85 3.62.36 15.21.36 11.95-11.94.36.36.72 1.08.91 1.44l1.44-.72c0-1.63-.54-4.89-2.53-11.59 9.05 8.15 14.84-2.35 14.3-9.05 0-1.99-1.27-4.52-1.99-6.33l.36-.36c2.9-3.26 28.06-31.86 13.94-32.23-4.89 0-14.12 3.99-18.46 6.16 2.41-1.57 3.98-3.08 4.7-4.53-1.93-.84-5.61-.96-11.04-.36 8.87-19.73-6.16-29.32-9.96-28.96-2.71.9-3.26 1.45-5.25 3.8v-1.81c-.18 0-26.61 1.45-37.11 67.34-.54-5.98-1.26-7.24-5.06-11.04-4.89 9.59-7.06 15.75-9.6 26.24-8.69-1.99-5.61-14.3-14.12-16.47-9.95 27.7-55.39 65.71-61.54 56.12-.37-.36-.37-1.09-.55-1.63-6.15 14.48-8.32 24.07-9.05 39.28-8.87-7.06-28.96-3.62-27.69-19.55-15.57 15.39-22.09 21.9-19.74 53.58 0 1.09 14.12 104.27 31.68 105.35 5.43.37 10.32-8.32 12.67-12.49 3.08 17.56 40.92 19.37 51.96 13.58-5.8 24.26 20.09 14.84 31.49 9.59v-.18Zm-60.28-785.26s-.9 1.27-1.26 1.99c.54-.54.9-1.08 1.26-1.99Zm137.04-59.92c7.24-13.03 9.77-18.1 8.32-23.53 0-.36-.36-.9-.54-1.27 1.45 2.36 3.26 5.62 3.62 13.04.54 9.59-1.99 21.54-4.16 32.04-3.98 19.73-5.98 30.41-2.72 40.55-3.74-4.59-7.42-8.27-11.04-11.05 0 0 .54.37.91.55-1.21-.97-1.94-1.69-2.18-2.18 0 0 1.45.73 1.99 1.09-11.04-13.58-6.87-26.79 5.62-49.24h.18Zm-1.99 53.04-2.9-2.89v.36l2.17 1.81.73.72Zm12.12 14.85h.18c-1.81-2.36-3.62-4.89-5.79-7.25v.37c.91 1.99 2.36 4.7 5.43 6.69l.18.19Zm-331.26 860.74c-1.09-1.26-1.81-1.99-2.17-1.99 0 0-.18 0-.18.36 0 .55 1.08 2.9 2.35 1.81v-.18Zm-192.24-688.05c-1.09-1.63-2.54-3.8-3.44-5.61-19.8 12.79-32.53 15.5-38.2 8.14-11.77-15.57-15.02-39.28-16.65-50.68-6.7-48.88-46.71-77.48-70.06-116.4-2.71-4.52-5.97-10.86-8.87-15.39-2.71-4.52-7.06-9.95-9.95-14.3-4.17.37-9.78.91-13.94 1.09-1.69 13.52-5.25 23.35-10.68 29.51-2.36-3.26-5.07-8.15-6.88-11.77-1.99 3.26-5.43 7.06-8.69 9.05-3.8-1.08-9.23-1.81-13.21-1.63-1.27 1.63-3.08 3.98-4.53 5.61-1.27-1.26-3.08-3.07-4.34-4.52-1.63 1.08-3.62 2.35-5.25 3.44-2.72-2.72-4.71-7.79-5.07-11.59-31.32 72.23-114.23 100.47-145.9 172.15-30.6 69.33-10.14 148.98-44.72 217.59-5.06 10.13-11.76 25.34-21.54 31.13-39.64 23.9-219.94-301.39-163.64-409.46-1.81-1.27-4.16-2.9-5.97-4.17-.36-3.8-1.45-8.87-2.9-12.49-1.81-.54-4.34-1.26-6.15-1.63 1.08 2.36 3.07 5.25 3.62 7.79 5.07 19.91-21.54 40.36-37.11 38.01-28.78-4.34-23.72-38.56-43.99-50.14 20.09-2.35 22.63-8.33 24.98-14.3-17.38.9-32.04-1.99-55.75-19.91-36.03-30.41-40.91-49.06-42.54-55.21-65.17-34.76-139.21 22.62-203.47-19.74-6.33-4.16-14.66-9.95-21.18-13.93-30.23-17.93-65.71 1.63-96.3-13.04-38.74-18.64-34.94-74.58-78.38-89.06-2.54-.9-6.16-.54-8.87-.9 0 0-9.41 11.04-24.8 21.36 15.2 3.8 17.38 7.24 23.89 37.11l46.16 99.01c25.16 28.06 118.03 25.71 122.37-50.14 17.56 18.83 3.26 46.16 17.74 65.71 14.48 19.55 44.35 14.84 57.57 36.39 4.16 6.69 4.88 18.28 3.25 26.06-5.06 25.16-40.36 93.23-138.48 170.7-1.99 1.45-192.24 151.15-234.42 110.79l-157.66-413.63c-1.81-4.71-4.17-11.04-5.8-15.75-10.13-30.23-7.78-47.97-5.06-68.61-19.37 26.07-19.19 34.94-18.47 52.86-19.01-26.07-25.16-40.91-27.51-66.25-19.55 33.85-21.36 59.01 17.56 128.16 19.55 34.76 44.04 104.99 73.49 210.71 18.83 67.52 38.74 103.54 71.14 128.7 15.21 11.77 43.81 33.85 49.96 48.7 8.15 19.36-.54 26.24-16.29 38.73 53.58 20.16 87.07 28.24 100.47 24.26 69.75-20.88 104.99-29.45 105.71-25.7.91 4.52 18.28 114.22-147.89 322.75-164.55 206.55-42.54 321.49-41.09 322.4-.37 2.53-.73 5.79-.91 8.33 2.72 40.36 29.15 74.21 31.32 114.76 2.71 50.69-54.85 59.92-68.61 99.2-17.74 50.87 45.08 80.92 33.31 130.15-4.35 18.47-19.55 29.69-27.7 35.66 24.26 22.99 47.25 44.72 16.84 125.27-29.51 78.02-97.57 58.47-98.3 58.11-13.21-5.98-171.42-174.14-178.12-181.38-49.42-52.68-152.96-209.26-153.503-210.35-27.877-53.76-20.456-116.94-44.712-171.79l-2.535-4.88c-.543-1.09-62.27-104.09-49.599-129.61-40.186-19.74-120.921-118.03-89.786-173.24-34.755-37.65 1.63-98.29-42.901-132.69-1.629 1.63-3.983 3.8-5.793 5.61-2.353-.72-5.249-1.81-7.603-2.53-2.715 3.44-8.327 6.52-12.671 7.24-41.393-41.51-67.943-57.92-79.649-49.24-83.269 61.73-93.406 38.02-110.422-1.63-.362-.9-39.824-114.58-50.323-273.15-4.344-64.63 21.722-126.36 19.731-190.8-.362 2.35-.905 5.61-1.267 7.97 9.594-136.13 155.858-375.44 157.306-377.43 22.446-32.58 32.584-45.25 38.919-47.79 9.051-3.8 15.025 4.17 22.628 5.61 6.878 1.45 9.775.37 37.29-18.64 25.161-17.38 34.936-22.45 49.961-26.25 4.224-1.09 27.998-3.2 71.322-6.34 14.481-.36 24.075-.72 10.499 29.87-9.413 21.18-26.067 39.28-28.782 63.54 6.336 44.53 112.413 128.16 132.144 64.26 9.051-29.5 20.274-35.84 28.056-35.84 3.26 0 7.79-.36 11.04.18 32.04 5.98 51.41 35.84 82.37 43.99 30.05 7.96 56.3-17.02 86.34-10.32 2.18 4.53 5.8 10.32 8.87 14.12 44.17-5.43 63.36-44.71 78.93-76.39 29.51-63.54 19.19-76.57 15.39-78.92 0 0-72.41 1.99-87.8 3.07-30.95 1.99-48.69-3.98-54.49-5.79 1.09-1.81 2.36-4.34 3.44-6.15-4.52-1.27-10.86-2.18-15.56-2.18 2.17-11.94.9-24.43 6.51-35.66-19.19-20.63 8.15-39.28 5.61-59.55-13.39-9.05-24.8-12.49-41.27-1.99-.36 4.88.73 11.4 2.72 15.75-4.35 0-10.14.9-14.48 1.99-.37 2.17-.91 5.07-1.27 7.42-1.99-4.89-5.25-11.22-8.33-15.57-5.25 22.27 11.59 41.82 8.15 63.9-1.27-1.81-3.08-4.34-4.35-6.34 0 3.99-2.17 9.6-5.07 12.5-3.25-2.54-9.05-4.17-13.03-3.81 1.45 1.99 3.44 4.53 4.89 6.52-3.44 3.08-7.97 6.88-11.59 9.78-.36 5.25-1.08 12.3-1.63 17.37-1.99 1.27-4.52 2.9-6.51 4.17-28.6-19.01-11.23-41.28-5.61-48.52-4.71-.36-14.3-.9-17.02-14.66-3.08-16.29 2.17-41.63 2.17-42 5.79-26.61-12.85-47.42-16.47-71.68-.91-6.33-5.43-14.12-5.97-20.45-.55-5.8 1.81-13.76 4.88-18.47-1.08-2.17-2.35-4.89-3.44-6.88-1.99.73-4.7 1.63-6.69 2.36-1.995-1.09-4.71-2.36-6.702-3.44-21.179 15.2-29.144 20.99-25.885 51.59 3.258 31.31 34.397 48.87 39.277 79.28-9.952 3.81-19.184-2.71-28.959-2.17l-.362.36s-2.897 39.28-20.999 60.46c-15.024-1.81-24.799 13.04-39.462 12.31-11.947-20.81 27.153-20.63 37.29-34.75 31.317-43.81-15.024-123.1-15.386-124-15.93-25.16-41.997 0-62.995-.36 0 0-.181 0-5.25.36-.362 0-68.425 54.85-104.086 116.39-23.714 41.28-48.513 65.17-75.847 72.96-9.956-7.25-8.689-19.92-14.844-29.15-2.172.54-5.068 1.27-7.06 1.99 9.413-21.24 16.413-36.32 20.999-45.25 0 0-1.086 1.27-1.448 1.99 36.565-77.48 70.356-115.55 101.37-114.22 24.438.9 85.261-73.5 61.728-114.771 13.939-8.689 14.663-8.869 36.023-14.481 13.938-34.937 161.648-116.758 163.098-117.301 1.63 1.448 3.62 3.44 5.07 4.888 16.29-17.559 25.7-40.006 41.81-57.564 2.72-2.716 6.34-6.155 9.24-8.508l.72-.362c12.49-10.319 17.74-11.043 24.8-12.129-12.31 13.215-21 29.869-36.75 40.187 2.36-.181 5.61-.543 8.15-.724-5.31 8.085-11.22 12.43-17.74 13.033.9-2.353 2.35-5.431 3.26-7.784-8.15 13.215-7.61 14.12-3.26 22.085 0 0 13.03-1.449 30.77-2.897-1.81 1.267-4.16 2.896-5.97 3.983 1.09 1.991 2.71 4.706 3.8 6.697.72 0 67.88-6.154 82.18-15.386 21.18-31.679 39.28-52.315 53.77-61.366 3.8 2.172 7.96 6.336 10.31 9.956 24.08-2.715 18.47-28.963 31.5-40.548 5.55-4.948 30.59-8.75 75.12-11.404-.72-2.716-1.62-6.155-2.53-8.87-2.35-1.268-5.43-2.716-7.6-3.983a42.274 42.274 0 0 1-.91-5.068c-39.82 7.12-63.41 9.413-70.78 6.878 12.07-18.343 41.03-45.194 86.89-80.553-27.87-19.732-35.66 3.982-38.19 11.766-93.23 36.023-88.52 64.262-86.35 77.838-66.49 57.927-107.89 87.433-124.18 88.519.91-2.534 1.99-5.974 2.9-8.508-13.4 13.757-22.09 22.145-26.07 25.162-1.99-.905-4.7-2.173-6.7-3.078 8.45-3.137 13.34-9.714 14.67-19.731 27.87 5.431 45.61-50.142 53.04-73.856-20.82 16.835-29.69 21.723-45.98 27.696a348.291 348.291 0 0 0-5.8-3.982c1.27-7.603 6.34-14.12 6.52-21.904 17.02-15.929 26.79-39.1 49.6-49.237 15.02-7.06 17.02-7.965 29.69-14.119 36.74-18.102 69.69-42.721 105.17-62.995h.72c16.11-10.499 19.92-13.034 23.36-16.111 1.08-.905 1.99-1.991 3.43-3.439-4.88 1.267-11.76 2.353-16.83 2.715 13.21-7.965 27.88-12.128 41.45-19.188-1.45 1.629-3.26 3.801-4.7 5.431 17.19-1.268 30.05-13.758 45.98-18.465 0 2.173-.19 4.888-.37 7.06 11.71-3.017 18.53-5.43 20.46-7.241 2.35.362 5.61.906 7.96 1.268 6.52-8.689 7.61-10.319 23.36-15.749 1.99 1.086 4.52 2.715 6.51 3.801-4.16 2.535-9.77 6.336-13.76 9.232 14.67-7.059 29.33-9.232 35.67-10.318-1.81 1.267-3.99 2.897-5.8 4.164 2.54-.724 5.98-1.811 8.51-2.535 2.17 1.268 5.07 2.897 7.24 4.164-5.07 1.629-11.58 3.982-16.65 5.611 15.57 1.087 24.31 1.75 26.25 1.992.36 1.991.9 4.887 1.44 6.878 39.28 8.508 53.95 11.586 58.11 21.542 5.61 13.214-18.1 29.506-29.32 31.678-21.18 4.164-36.75-12.128-56.3-14.662 8.2 33.186 16.95 48.633 26.25 46.341-1.09-4.345-3.44-10.138-5.62-13.939 28.61-.905 49.97-25.162 79.11-24.257 1.45 1.811 3.26 3.983 4.53 5.793 7.24-16.292 11.58-27.213 13.03-32.764-1.09-1.811-2.54-4.345-3.8-6.155 19-9.775 28.78-5.974 29.32 11.766-16.65.724-19.73 1.267-22.26 13.939 38.92 3.258 66.43-33.308 105.17-30.593-3.8 2.716-8.87 6.698-12.49 9.775 58.29-2.896 66.8-7.24 77.66-13.033-.49-.603-7.85-6.275-22.09-17.016 63.96 19.188 97.21 28.36 99.74 27.515-11.94-12.49-16.83-24.257-14.84-34.756 3.44-16.653 24.98-18.102 28.78-34.393 4.53.362 10.5 1.629 14.85 3.258h1.26c1.99.724 4.89 1.629 6.88 2.353 9.96 21.542 5.98 46.522 17.02 67.521-5.98 15.748-6.7 17.377-27.7 26.247 49.24-3.258 43.81-22.446 41.09-32.764 21-10.861 31.86 10.861 48.34 14.843-22.63-19.55-53.95-28.239-69.7-56.297 7.24-4.706 11.83-10.861 13.76-18.464 1.81 1.268 4.16 3.078 5.97 4.345.19 5.611 1.09 12.852 2.36 18.283 3.01 1.448 13.45 2.775 31.31 3.982-1.69-2.534-8.99-6.999-21.9-13.395 1.99.543 4.89 1.086 6.88 1.629a119.15 119.15 0 0 0 5.43-4.526c-1.81-1.086-4.16-2.715-5.97-3.801 0 0 33.3 7.422 53.94 8.327-9.77-13.577-15.21-16.835-32.22-19.55l3.26-1.448c18.64-4.707 38.55.724 56.84-6.879-1.99-.905-4.71-1.991-6.88-2.896-3.98-19.188 5.97-19.007 47.97-18.283 3.08-3.259 8.51-5.974 12.85-6.879 0 0 11.77 3.439 41.09 1.991-1.81-1.448-4.16-3.258-5.97-4.525h6.52c4.94-6.396 10.74-10.318 17.37-11.767 84.36-1.81 152.42 61.185 236.78 59.737 1.08-1.629 2.71-3.983 3.8-5.612-.54-2.172-1.45-4.887-1.99-7.06 41.45 10.319 77.29 42.178 124 32.765-.73-2.353-1.63-5.612-2.36-7.965 21-6.879 40.55 3.802 60.64 5.612l-4.7-1.086c-1.45-1.268-3.62-3.078-5.07-4.526 5.19-.241 12.25.121 21.18 1.086-4.89-2.172-11.41-4.887-16.47-7.06-.73-1.991-1.82-4.706-2.54-6.697 77.84-6.517 83.27-2.172 103.54 13.938 35.3 28.42 76.21 8.87 114.41 13.577 33.49 4.163 67.34 4.706 101.01 8.87 4.16.543 9.41 3.077 12.85 5.249-1.99-.543-4.53-1.448-6.52-1.991 27.7 10.137 32.22 10.861 45.26 13.033-20.03-8.447-31.26-15.084-33.67-19.912 66.07-3.62 227 40.549 253.24 69.512h-7.24c3.26 1.448 19.92 9.413 33.67 20.093-38.37 20.093-59.73-19.55-90.69-25.886 10.38 6.879 17.38 11.706 21 14.482-1.09 1.629-2.71 3.982-3.8 5.611 26.79 14.12 55.57 24.076 80.55 41.816-8.87-3.44-10.5-3.983-23.17-5.069 1.63 2.716 3.62 6.517 5.07 9.413-1.45 1.811-3.26 4.164-4.71 5.793 8.33 7.603 10.14 9.232 19.37 24.981-.9 1.81-2.17 4.163-3.25 5.973-32.95-7.24-41.1-5.249-48.16-3.439 2.72 17.559 48.52 43.626 48.88 43.807.36.181 52.68 31.497 79.47 62.632-.18 2.535-.55 5.974-.91 8.689 4.35 5.31 12.79 14.18 25.34 26.61l-3.07 1.267c4.16 16.111 16.29 27.877 24.07 41.997 1.45 1.629 3.08 9.956 4.53 17.197-1.63-1.81-3.8-4.164-5.43-5.793h-.18c-1.09-2.534.54-6.336 1.08-8.689-52.67-57.021-122.91-92.139-180.47-143.186h.36c1.45-2.172 3.44-5.069 4.89-7.241-22.27-60.461-63.72-79.468-75.67-79.287 12.31 9.051 15.57 11.224 26.97 18.102-1.99 0-4.89.181-6.88.362 1.27 5.25 3.99 11.948 6.34 16.835-35.66-24.075-39.46-24.98-55.57-28.963-1.27 1.448-3.08 3.439-4.53 5.069 1.09 8.206 17.08 25.041 47.97 50.504-15.93 22.084-33.85 6.155-37.29 2.715 1.63-1.267 3.8-2.896 5.43-4.163l-.9-.543c-3.99-.543-9.42-1.086-13.4-1.086h-6.88c-4.89 0-11.4-.724-16.11-1.448.18.181.54.543.91.724-21.55 5.611-44.9-18.283-65.35 3.982-16.29 17.74-17.74 103.724 58.83 105.172-14.84-13.395-23.11-22.446-24.8-27.152 0 0 29.69 18.463 35.12 33.85 3.26-1.991 8.14-4.163 11.76-5.249-3.25-2.897-6.87-7.784-8.32-11.948 17.37 0 42.17 4.888 62.45 27.877a84.976 84.976 0 0 0-6.7-.905c117.12 69.693 146.63 201.479 128.52 240.759-2.35.9-5.43 1.99-7.78 2.71-5.91-2.89-12.01-7.78-18.28-14.66-1.27 1.45-3.08 3.44-4.53 5.07-1.08-1.63-2.53-3.98-3.62-5.61 2.17 4.7 3.62 11.76 3.26 17.01-2.17-.36-5.07-.72-7.24-1.08 29.87 25.52 2.17 64.8 21.9 92.86 17.38 24.62 51.41 30.41 65.71 58.65 3.74 7.48 8.45 24.2 14.12 50.14-3.98.55-9.05 1.99-12.85 3.44v6.52c-38.74 14.84-54.12-58.65-53.04-65.53 1.63 1.27 3.8 2.9 5.43 4.34-1.81-11.22-3.08-14.66-20.63-23.71l.72-.54h-1.81s.54.36.72.36c-12.85-4.35-26.43-5.43-38.92-10.86-1.08-4.17-.72-10.5 1.45-14.12-15.57-7.42-22.26-28.42-42.9-28.42-19.01 0-9.41 29.14-28.42 28.78-2.17 0-4.71-1.45-6.7-1.99-1.99-15.93-3.98-16.47-12.12-19.01 1.26-2.35 3.98-5.07 4.34-7.78.72-5.61-8.69-30.77-26.25-23.72-.54.19-50.68 34.76-26.61 61.37 29.69 32.76 73.5 10.5 107.17 28.06-3.26 17.56-22.99 28.24-20.46 48.15.91 7.78 1.63 13.76 32.22 47.61 26.43 28.24 47.43 47.61 67.88 62.81-1.63 1.09-3.62 2.54-5.25 3.62-10.49-4.7-17.01-15.75-28.78-18.46 1.09.54 27.52 11.95 30.96 46.16-1.27 1.45-2.9 3.26-4.17 4.52 19.43 4.23 31.02 13.46 34.76 27.7-.54 1.81-2.72 3.62-3.8 5.25 7.42 15.93 7.24 17.56 5.79 28.06-1.99.36-4.71.72-6.7.9-3.26 9.78-7.42 55.76 1.09 74.76l2.17-2.17c-3.98 25.71-4.71 29.69-24.07 48.88-21.37 20.99-51.41 28.05-73.68 47.42-2.17-7.42-3.08-10.13-12.13-16.11 7.24 14.67 8.51 17.2-8.87 39.46-.36-.36-40.73-32.04-49.42 39.83 14.67 12.13 20.82 23.35 13.94 51.41-6.7 21-27.15 25.52-38.92 26.43 2.36-4.17 5.43-9.96 7.61-14.3 1.69-37.9 5.55-58.71 11.58-62.45 0-8.15 0-27.34-12.31-32.77-6.7-3.08-81.28 3.62-76.21 45.62 9.42 78.56 94.13 116.57 104.99 194.23 3.99 27.7-7.42 122.91-48.69 92.32-1.27 20.46-20.27 74.58-47.97 59.92 2.71-4.35 6.52-10.32 9.23-14.66-15.2-61.01-83.27-80.74-105.9-136.13-48.51 32.4-33.12 110.96-31.13 119.83 7.78 36.21 40.19 55.03 59.19 83.27 32.59 48.52 22.45 108.98 45.26 160.21 1.08 2.35 4.7 3.98 6.51 5.79-48.15 8.87-65.71-30.41-84.71-116.4-16.11-72.22-24.08-95.76-50.51-74.76-6.51-24.25-9.05-34.39-3.44-77.47 14.85-114.05-36.02-198.4-51.95-221.39.73 26.07-4.89 28.42-13.21 32.22l-.18-.36Zm-1184.42-778.93c3.14 1.45 6.7 1.39 10.69-.18-15.93 24.62-12.68 36.02 18.1 60.82 19.19 15.57 23.71 21.18 25.52 31.32-21.54-3.26-31.86 35.66-30.23 48.87 2.53 21.18 21.36 31.32 36.57 39.47 4.52 2.35 4.52 3.07 5.06 4.7h.55v.55c21.18 12.85 38.92-8.87 59.37-5.98h.36c-.9-75.84-1.62-121.46-34.03-153.32-22.81-22.27-23.53-27.52-24.8-36.02 2.72-3.44 8.87-5.62 13.22-6.52-3.62-7.97 6.76-14.42 31.13-19.37-5.61-4.53-6.69-5.61-3.8-18.1 1.99-8.87 4.89-22.09-22.45-23.35-29.86-1.45-40.54 31.68-66.61 37.11-3.62-.19-5.79-1.45-8.33-4.35-.18 15.57-13.39 28.24-9.95 44.53l-.37-.18Zm-200.02-55.03c-6.52 11.22 6.51 13.4 41.27 19.37 3.08-7.96 7.97-21.18 17.38-17.56 0-4.34-.18-4.89-4.89-7.42-4.34-2.17-4.52-2.9-4.34-7.6 8.14 1.08 16.11-1.27 24.62-7.24.9-.73 2.17-1.63 3.07-2.36-17.19-9.05-48.69 2.18-70.96 17.74.85-.84 1.39-1.45 1.63-1.81 0 0-4.7 3.44-6.88 5.8.73-.55 1.63-1.45 2.36-2l-2.36 2.18h-.36l-.72.72.18.18Zm38.74 131.6c28.42 2.54 43.98-15.75 47.97-21.36 15.02-20.82-13.94-56.48-50.51-78.92-26.06-15.93-52.31 13.39-78.38 0-.96-3.74 6.34-12.37 21.9-25.89-19.18-10.5-32.22-16.29-49.96-7.42l-2.35-2.72 1.27 2.36.72.54c-16.65 8.87-27.7 28.06-40.37 50.32-14.66 25.71-20.27 30.42-33.67 41.46 5.25 3.8 7.24 5.25 11.59 13.76 3.62 7.06 9.05 17.92 14.84 19.18 32.59 7.43 55.21-27.87 87.62-20.45 24.8 5.61 42.9 26.97 69.15 29.32l.18-.18Zm997.96 940.22c-.91.18-1.99 1.08-4.17 3.62 2.18 4.7 2.72 5.25 2.9 4.7 0-.36 0-1.44-.18-2.17.18 0 .54-.18.72-.36l.55-.54c.72-1.09 1.26-2.17 1.26-3.26 0-.54 0-2.17-1.08-1.99Zm1334.11 387.2-.36.18c7.96-27.52 5.97-54.31-1.45-53.4-1.81.54-2.9 1.63-5.07 4.71.36 1.44.36 2.71.55 6.33-.19-.18-.55-.54-.91-.54-1.45 1.08-1.99 2.53-1.99 3.26 0 0 .9-.49 2.71-1.45.91 8.33-1.08 34.75-1.08 34.94-.54 1.62-2.72 2.89-3.62 4.34-4.71 7.42-7.79 15.57-13.22 22.45-3.26 4.16-5.07 3.62-6.33 2.53-5.43-4.16-8.15-6.34-16.48 1.99-.96.85-2.47 7.12-4.52 18.83.9.54 24.8 12.67 43.99-43.09-.37 8.51 0 11.23.9 12.68h.73v.54c3.07-3.26 3.98-5.25 5.25-8.87l1.26-3.08v-1.27l-.36.55c0-.36.36-.73.36-1.09l-.36-.54Zm-1337.91-380.69c1.62 32.41.54 55.94-3.44 70.06-9.42 34.21-30.96 2.9-31.14 2.53-9.23-16.11-5.07-35.11-.36-57.2 5.07-23.17 7.6-38.19-.36-50.87-1.27 0-4.17-.9-4.89-5.06l1.99 1.26s-.72-.9-.9-1.26c1.62-1.27 2.71-1.63 4.88-1.81 2.36 0 14.67.54 29.33 18.64 3.8 4.71 9.41 13.76 4.16 20.64-.18.36-.54.54.73 2.89v.18Zm-24.8-32.94c-3.44-4.16-5.25-1.99-5.25-1.81 0 0-.91 2.35 1.99 2.35.36 0 1.26 0 2.89-.36h.18l.19-.18Zm1229.48 335.07c-31.5.54-34.57 40.91-63.36 45.43-11.58 1.81-4.88-34.39-4.88-34.75-.18.54-.55 1.08-.73 1.63 3.8-33.49 5.43-48.88-17.01-46.71-9.78 2.72-18.47 7.24-29.51 20.64 1.81-10.5-1.81-12.85-3.26-13.94-1.99.72-2.71 1.09-5.07 5.07 13.4 22.99 24.98 42.9 46.53 36.75-7.97 10.31-21.73 9.41-31.5 16.29 14.12 12.13-3.62 27.15 3.8 39.82 2.71.18 4.71.36 15.39-20.63-1.09 9.59-1.63 14.84 3.25 21.9 5.62 7.96 15.93 8.87 22.63 15.2 10.5 9.96 10.5 11.23 13.04 77.84-1.45-3.44-5.98-13.94-27.52 27.88 11.04-4.89 23.71-4.53 34.76-9.41-11.41 32.22 12.31 30.95 14.3 29.87 2.35-1.27 22.26-16.84 19-24.44-.54 0-1.08-.18-1.44-.36 7.12-3.5 11.46-5.98 13.03-7.43v-1.99l.54 1.63c2.54-3.26 4.17-5.43 6.88-13.03 2.72 9.95 13.4 15.02 15.75 25.16 3.98 16.11-4.71 32.76 2.35 48.88 8.51 19.55 18.47 9.95 18.65 9.95 3.62-3.8 3.98-11.58 4.88-16.65 2.9-19.01-5.79-37.47-3.07-56.48 2.71-19.73 15.93-35.84 18.46-55.57.73-5.61 0-13.22-.9-18.83-.18-1.09-28.06-103.54-64.63-103l-.36-.72Zm-667.96 116.93c-1.21-3.13-1.99-5.37-2.35-6.69h.36c6.15-3.08 13.39-.55 19.37-4.35 6.33-3.98 14.12-11.58 16.47-18.64 9.59-27.52.72-54.31-3.98-68.79 17.37 29.69 21.54 36.57 38.37 27.33-5.97-5.97-1.81-11.94.55-12.85 1.08.73 2.71 1.63 3.62.91l-2.9-2.9h.9s-1.08-1.09-1.44-1.45h-.18c-21.73-21-36.63-28.72-44.72-23.17-10.31-18.46-23.89-35.3-31.49-55.21-4.35-11.58-1.81-24.62-7.61-35.84-3.98-8.15-8.32-9.59-16.65-12.31-2.53 4.34-2.72 5.25-2.17 9.23-4.17-5.43-7.06-8.14-12.13-11.4 2.29.96 4.28 1.2 5.97.72 3.26-11.95-13.75-26.07-13.94-26.25-13.75-11.04-30.77-17.01-44.35-28.24-17.37-14.3-28.6-34.57-47.24-47.6-6.34-4.35-19.55-13.58-36.93-13.4-1.63 0-3.08 0-4.71.36 26.43 5.25 67.34 89.97 120.56 215.42 36.75 86.34 53.4 124 66.44 115.67l.18-.55Zm558.44-86.16s.55-.36.73-.54c0 0-.55.36-.73.54Zm69.33 223.56c-40.36 51.95-56.29 119.11-103.72 166.54-27.52 27.51-34.21-28.06-34.21-28.6-.73-11.11 15.38-47.13 48.33-108.07-2.05 2.17-6.16 6.21-12.31 12.13 0-5.98 3.8-11.05 4.34-17.02-3.98 8.69-20.99 3.68-51.04-15.03-11.59 22.33-20.34 34.28-26.25 35.85-19.01 5.07-45.26 26.61-56.66 71.14-8.69-4.53-9.96-4.89-22.45 0 1.63-16.11-16.29-20.46-19.91-33.49-2.35 2.9-48.87 50.5-72.04 59.74-1.09 10.13-1.81 12.85-6.7 23.53-.36-1.09-.91-2.54-1.27-3.62-2.41 2.41-4.83 6.33-7.24 11.76 0-5.25 0-10.68 3.8-27.51-11.4 7.06-20.45 12.67-43.99 40.37-22.99 26.97-30.77 32.76-42.9 39.46-20.45 11.4-44.35 13.57-65.53 22.99-26.61 11.94-45.79 38.19-77.29 41.09-.18-3.08.72-7.42 2.35-10.14-45.62 23.35-59.19 75.13-64.98 97.21-1.94 7.6-4.17 12.67-6.7 15.21.18-2.36 0-5.44-.73-7.61-28.96 33.85-18.64 82.37-43.8 117.48-15.57 21.55-40.91 33.85-53.95 57.75-.9 1.63-.54 4.34-.72 6.15 13.39 11.05 51.05-3.98 78.56-14.84 1.81-.72 182.11-66.98 215.23-42.36.37 4.1-10.25 24.62-31.86 61.55 24.44-16.84 51.05-30.41 73.86-49.42-14.84 28.96-46.88 35.84-69.69 54.31 9.59-1.27 12.85-3.62 38.92-22.45-.61.84-10.74 9.77-30.41 26.79 0 0 .36-.18.36-.36 1.08.36 2.53.9 3.62 1.27-7.42 22.62-36.93 29.32-39.65 55.39 2.42 1.93 18.71-1.87 48.88-11.41-3.86 3.62-7.66 6.28-11.4 7.97h4.16c-1.21 3.38-4.16 7.78-8.87 13.21 191.52-89.78 306.83-218.31 347.56-269.35-2.18 2.35-4.89 5.79-6.88 8.14 3.98-4.89 8.14-9.77 12.13-14.84-.73.9-1.81 2.17-2.54 3.26l1.27-1.63.72-.91c1.09-1.27 2.54-3.08 3.62-4.52-.72.9-1.63 2.17-2.35 3.07 4.89-6.69 20.09-27.33 30.05-53.58 8.51-22.63 19.19-44.53 26.97-67.52 6.7-20.27 1.81-42.54 11.59-62.27 26.18-52.25 39.64-87.55 40.36-105.9 1.99-48.87 11.23-63.17 22.81-81.45h-.36c-.18 0-.36 0-.72.36l-.37.18Zm-171.96-194.05c5.61 3.25 14.84-.37 17.19-6.52.55-1.27.55-2.35.55-3.26-.73-6.34-7.97-11.4-15.39-10.86-5.97 1.45-6.52 5.97-6.7 7.42-.36 2.72-1.09 10.14 4.53 13.22h-.18Zm-98.84-674.48v-.37s0-.18-.18-.36v.73h.18Zm60.64 355.16c-1.09 1.26-2.17 2.53-2.9 3.07 1.45-1.44 2.36-2.35 2.72-3.07h.18Zm72.23 2.71c.9 17.2 1.45 17.74 4.7 20.46 1.27-4.71 2.9-11.04 3.44-15.93 0-.73 8.69-64.81-13.94-91.96 0 0 .19-.36.37-.54 1.57-.85 2.05-7.67 1.44-20.46-1.44 3.8-3.07 7.6-4.52 11.59.36 1.63.72 3.62 1.09 5.25-5.07-3.38-8.21-16.84-9.42-40.37 15.57 6.52 10.86-17.38 6.34-28.06-5.98-14.12-7.79-13.94-21.72-12.13-7-24.13-12.01-36.44-15.03-36.93-3.02-.48-4.22 1.69-3.62 6.52-2.71-16.83-21.72-16.83-25.7-13.39-1.63 1.44-2.18 4.52-2.54 6.69-1.08-6.15-1.63-10.5-1.81-19h.18c.55-3.08.55-4.71.55-7.97 0-.9-.37-2.17-.37-3.08-1.44-29.68 7.97-59.91-3.8-89.24-8.69-21.72-38.74-7.42-47.97-28.24l-.54-1.08s.54 1.81.9 2.35c3.44 25.71-7.42 52.31 4.89 77.48-1.99-.55-4.52.72-6.33 1.63-3.99 15.02 3.62 43.62 17.74 54.48 5.06-2.89 5.79-6.33 2.53-12.13 4.83 3.14 6.15 13.04 3.98 29.69-1.45.18-3.44.54-4.88.73-3.81 9.77 1.44 15.74 21.17 38.01 11.59-14.12-2.17-29.69-11.4-37.65 4.16-1.27 9.05-2.36 19.37-.91-2.17 6.16.9 8.51 3.98 9.96 2.17-.91 4.35-1.99 1.81-8.51 12.31 4.16 16.66 17.02 26.61 23.9-1.81-9.42-6.52-12.86-7.96-13.76.36-3.8 1.08-15.21 12.85-2.72 7.06 7.42 13.21 19.01 15.02 22.81h-1.81c-1.08 6.76 3.74 17.8 14.49 33.13-3.44 2.89-5.8 3.62-8.51 0 .54 0 1.45-.36 1.99-.55.24-2.53-.36-5.06-1.81-7.6-1.63 1.63-2.36 2.35-.91 6.88l-1.08-2.17c-3.08 8.33-3.08 15.38.54 27.33-.36 0-.72-.18-1.09-.36 0 0 1.87 3.5 5.62 10.5l16.29 28.96c-2.3 7.85-12.07 21.3-29.33 40.37.36-.91.73-2.17 1.09-3.08-3.62-6.33-24.98-5.07-28.96 9.23-2.54 8.69-1.81 18.11-5.8 26.61 8.33-10.49 10.32-15.56 11.23-18.1 7.96 10.86 29.14-8.51 29.32 5.61 0 10.32-6.7 19.92-3.44 30.78 3.26 10.5 14.48 13.57 19.91 22.26 0-14.66 11.95-24.25 15.21-37.47l-.36.18Zm-64.45-72.59c3.81.18 11.95-13.03 15.57-20.27 0 0 1.99-11.22 2.36-16.65 1.44-17.74-6.7-16.11-6.7-16.11-8.33 6.51-17.92 52.49-11.04 53.03h-.19Zm10.5-83.45c4.71-9.95 7.06-15.93 7.06-20.63v-.91c5.98 5.43 11.77 15.75 11.05 25.35-.19 2.53-.91 4.34-1.27 5.43-4.89-11.05-10.5-12.49-18.47-4.89v.36c0-.72.37-1.81.37-2.53 0-3.26.36-3.44.72-3.81.18 0 .36.19.91 1.45l-.37.18Zm1.27-.54h.54v-1.09l-.72 1.09h.18Zm-80.37-202.02v-.18.18Zm158.75 531.3c-1.26 1.81-2.53 3.8-3.98 5.61 1.09-8.33 0-16.84 1.45-25.16.72-4.59 2.05-7.79 3.98-9.6 0 0-1.27.73-1.81 1.09-5.61 4.34-11.59 12.49-14.3 39.1-.24-.73-.48-1.27-.72-1.63-1.09 3.44.36 31.86 1.62 38.19 2.36 13.04 5.44 13.58 7.61 12.86-7.79-32.95 13.57-32.23 13.94-32.23-2.9-12.12-2.54-18.1 4.34-39.64-4.16-1.27-12.49 8.51-11.95 11.41h-.18ZM2352.79 2118.3s.36.54.54.91c-1.08-2.9-2.17-5.62-3.26-8.33 0 .9.18 1.99.37 2.89.72 1.63 1.62 3.08 2.53 4.53h-.18Zm-717.56 663.62-1.27-2.72s.36.91.36 1.45c-1.99-4.52-1.99-4.52-4.34-5.79-.61 1.57-1.09 11.95-1.45 31.13-2.9-4.88-3.44-6.15-5.07-11.58-7.6 18.64-7.78 27.88-1.99 75.3 7.06 59.01-3.98 174.14-37.83 176.68-11.77.9-35.12-16.11-43.27-43.63-7.78-25.88-17.74-160.56-17.56-161.47 1.09-18.28 19.01-23.35 27.7-35.66 2.72-3.8 3.62-8.33 6.34-11.95 1.26-1.81 3.62-3.98 5.25-5.61 13.39-13.76 15.02-33.49 24.8-49.05 5.79-9.42 7.96-20.82 16.29-28.6 10.32-2.9 18.46 21.36 23.53 42.17 3.8 16.29 5.25 21.73 8.69 29.33h-.18Zm-3.08-6.7c-.54-1.09-.72-2.35-1.45-3.44 0 .54.36 1.09.55 1.63.18.54.54 1.27.9 1.81Zm1612.16-972.98-.36-1.27s.18.91.36 1.27Z"/></g>
<g>
	<ellipse style="transform: translateY(-100px)" cx="1106" cy="944.001" fill="#B3B3B3" rx="10" ry="4"/>
	<path style="transform: translateY(-100px)" fill="#fff" stroke="#FE7D00" d="m1106 944.001 15-16h97c11.05 0 20-8.954 20-20v-45c0-11.046-8.95-20-20-20H994c-11.046 0-20 8.954-20 20v45c0 11.046 8.954 20 20 20h97l15 16Z"/><path style="transform: translateY(-100px)" fill="#FE7D00" d="m998.795 907.735-.061-.046-.099-.075-.045-.038-.057-.082-.022-.044-.003-.12.008-.067.064-.186.042-.106.145-.285.041-.078.099-.182.053-.094.124-.217.066-.112.148-.255.078-.132.177-.298.092-.154.205-.345.34-.572 1.56-2.618 1.94.919.29.136.62.267.31.133.64.245.32.117.6.205.81.236.19.049.33.08.17.038.29.061.3.057.62.069.16.014.37.021.2.009.45.011.23.005.56.005 1 .004h.37l.63-.001.3-.002.5-.006.24-.005.4-.014.2-.01.33-.023.33-.028.57-.098.15-.028.31-.071.51-.129.41-.106.8-.244.4-.127.77-.292.39-.149.75-.334.37-.172.73-.376.36-.192.7-.416.35-.212.67-.455.33-.232.64-.493.32-.25.61-.528.3-.269.57-.562.28-.285.54-.593.27-.303.5-.625.24-.316.46-.655.23-.331.42-.683.2-.345.38-.71.18-.358.33-.735.45-1.127.17-.481.28-.993.13-.501.18-1.023.09-.515.09-1.042.04-.523v-1.576l-.09-1.046-.05-.521-.17-1.031-.1-.512-.27-1.001-.49-1.458-.22-.547-.48-1.036-.25-.508-.55-.967-.29-.476-.62-.9-.33-.444-.7-.843-.37-.415-.79-.789-.41-.389-.88-.743-.46-.367-.98-.701-1.58-1.011-.06-.034-.04-.112v-.036l.02-.093.01-.052.05-.134.04-.072.09-.183.05-.098.14-.242.08-.128.18-.31.34-.553.32-.519.67-1.128.16-.267.33-.587.12-.199.14-.252.07-.146.16-.266.07-.128.13-.211.06-.096.1-.131.09-.083h.08l.26.055.15.035.3.096.15.049.24.099.05.023.08.041.04.048v.023l-.06.148-.04.09-.13.258-.07.14-.18.339-.09.178-.21.39-.22.4-.48.83-.11.2-.23.373-.3.487-.65 1.031 1.5 1.094.61.495.3.253.6.548.31.279.58.59.29.299.56.622.28.312.52.639.25.321.47.646.23.323.41.639.54.94.19.364.36.784.17.4.3.842.15.428.26.882.12.446.21.905.1.454.15.908.06.454.1.894.03.442.03.862-.04 1.236-.03.442-.1.868-.06.433-.15.845-.08.421-.19.823-.11.408-.24.8-.13.396-.29.775-.15.384-.34.75-.18.371-.38.725-.2.359-.43.697-.22.345-.47.669-.24.332-.52.643-.27.318-.56.612-.29.304-.61.584-.31.289-.65.554-.33.274-.69.524-.35.258-.74.493-1.15.702-.33.188-.67.346-.34.17-.69.309-.35.149-.71.271-.36.131-.73.233-.74.223-1.51.333-.76.146-1.55.176-.78.07-1.57.02-.79-.011-1.58-.137-.79-.088-1.57-.298-2.32-.628-.35-.116-.74-.27-.17-.064-.3-.12-.34-.146-.61-.291-.34.666-.09.163-.2.372-.11.189-.24.403-.25.405-.53.793-.12.189-.24.342-.12.162-.203.268-.096.122-.152.17-.147.117-.066.011-.219-.071-.116-.046m86.719-.951-.14-.037-.26-.12-.13-.065-.25-.168-.13-.09-.24-.211-.12-.11-.21-.246-.22-.253-.33-.583-.08-.148-.11-.308-.13-.471-.04-.176.01-.426.02-.218.09-.468.06-.235.17-.455.33-.606.15-.211.35-.337.18-.154.44-.227.23-.099.55-.123.94-.071.17.002.3.011.15.008.26.028.12.016.21.044.1.025.17.063.08.035.13.082.06.042.1.104.15.389.01.107V901.476l-.05.062-.03.022-.12.001-.31-.047-.19-.036-.34-.057-.16-.025-.28-.04-.14-.015-.23-.021-.12-.008-.2-.001-.19.003-.3.065-.41.181-.21.121-.31.263-.14.138-.21.311-.09.163-.1.384-.06.682v.17l.03.315.02.151.08.277.04.134.12.241.06.115.17.203.08.096.21.167.1.077.25.129.13.059.29.091.48.095.23.028.44-.033.66-.194.16-.066.21-.083.1-.035.13-.019.07-.002.1.045.17.135.06.06.07.093.03.044.01.083-.01.044-.07.109-.21.223-.08.079-.19.139-.1.067-.23.114-.24.107-.56.131-.28.05-.61.009-.3-.011m9.5-.181-.25-.088-.42-.208-.2-.108-.35-.262-.16-.138-.28-.328-.37-.581-.09-.167-.13-.333-.06-.167-.08-.333-.03-.165-.02-.329-.01-.162.03-.323.02-.161.09-.314.05-.156.14-.306.08-.149.19-.293.35-.424.19-.204.38-.307.19-.139.4-.191.21-.081.48-.092.86-.05.29.001.54.067.27.042.47.147.23.083.41.224.19.121.33.296.15.156.25.365.11.189.17.428.07.222.07.487.01.793-.02.285-.14.521-.08.252-.25.452-.14.218-.37.381-.69.488-.22.124-.52.183-.26.078-.55.087-.28.03-.54-.016-.25-.02m1.87-1.307.2-.101.32-.275.15-.148.22-.352.09-.182.12-.399.05-.203.02-.417-.01-.209-.08-.41-.05-.2-.18-.373-.11-.179-.28-.307-.53-.359-.21-.095-.34-.123-.17-.05-.3-.036-.15-.008-.3.046-.5.162-.16.063-.28.167-.13.089-.23.216-.1.113-.18.254-.07.131-.12.285-.05.144-.05.306-.01.154.01.317.01.159.08.321.2.474.09.151.18.266.1.126.23.213.11.099.25.159.13.074.27.104.13.044.29.047.14.017.3-.012.15-.013.3-.072.15-.044m20.51 1.089-.14-.041-.29-.14-.15-.077-.25-.187-.12-.096-.17-.196-.11-.264v-.123l.08-.168.05-.073.18-.069.11-.021.28.035.53.167.24.099.4.125.18.05.31.028.14.002.23-.066.3-.208.07-.073.1-.138.04-.068.04-.129.02-.064-.01-.126-.02-.063-.07-.128-.04-.063-.14-.131-.07-.066-.21-.138-.11-.071-.27-.151-.48-.246-.23-.105-.38-.232-.18-.12-.3-.253-.13-.128-.22-.269-.09-.135-.12-.281-.06-.14-.03-.283v-.142l.05-.283.05-.14.15-.277.34-.402.13-.124.2-.169.1-.074.2-.086.11-.037.28-.031.08-.006.18-.005.33-.003h.3l.5.055.22.036.34.126.08.036.11.084.06.044.07.101.04.051.03.117v.192l-.01.09-.08.119-.06.051-.2.044-.06.006-.15-.001-.08-.002-.19-.017-.11-.011-.24-.035-.44-.069-.11-.019-.19-.016-.08-.001-.14.023-.07.018-.12.067-.18.158-.06.064-.08.128-.04.063-.03.127-.01.063.03.129.02.065.08.132.05.068.14.139.08.069.2.145.1.074.26.154.46.244.18.088.3.158.14.075.24.14.11.068.18.131.09.064.14.126.13.128.15.278.13.512.02.128V905.422l-.04.168-.02.082-.11.169-.23.289-.19.216-.42.317-.22.14-.48.17-.25.064-.53.021-.28-.01m9.65-.189-.18-.064-.33-.162-.15-.088-.26-.216-.13-.115-.21-.279-.1-.146-.16-.348-.07-.183-.11-.425-.05-.222-.07-.512-.03-.266-.02-.606v-1.022l.06-1.811.6-.047.6-.049.06 2.28v.254l.02.428v.202l.02.34.01.159.02.264.01.123.02.203.02.095.03.156.02.072.05.121.18.309.09.119.22.189.12.085.25.122.13.052.26.055.13.019.27-.011.13-.013.25-.074.12-.044.22-.135.1-.076.18-.195.19-.359.01-.04.03-.115.01-.063.03-.16.02-.17.04-.446.02-.238.03-.543.01-.87.01-2.096 1.24.097.06 1.496.01.362v.95l-.02.543-.02.26-.05.456-.03.218-.09.381-.05.182-.13.318-.07.153-.17.266-.09.128-.21.227-.38.308-.07.049-.17.087-.1.041-.21.066-.21.061-.5.063-.25.02-.52-.026-.24-.024m47.77-.113-.15-.054-.28-.134-.13-.07-.25-.166-.24-.175-.4-.429-.19-.226-.27-.51-.12-.261-.15-.561-.06-.281-.01-.578.01-.288.13-.566.09-.277.27-.521.08-.124.19-.24.32-.332.17-.145.32-.219.17-.099.36-.134.19-.058.45-.066.82-.036h.3l.51.052.24.034.39.12.18.068.25.179.22.337.03.113-.02.158-.03.069-.16.071-.09.025-.3-.011-.08-.008-.19-.031-.34-.069-.25-.057-.49-.032-.24-.003-.47.071-.22.047-.41.166-.51.348-.09.086-.15.219-.07.117-.1.266-.05.137-.06.296-.02.151-.02.308v.156l.03.307.02.152.07.286.04.14.12.252.23.318.13.126.28.21.14.096.31.151.15.068.33.089.16.036.32.03.16.007.29-.032.15-.023.26-.095.12-.055.21-.157.22-.307.07-.131.04-.203.01-.093-.07-.134-.05-.06-.18-.069-.41-.041h-.19l-.32-.054-.15-.036-.23-.115-.1-.063-.12-.163-.04-.289.01-.066.07-.096.04-.042.17-.055.05-.013.14-.019.07-.009.19-.015.09-.007.24-.011.43-.016 1.44-.046v1.403l-.01.282v.135l-.02.229-.02.11-.04.186-.03.088-.07.154-.08.145-.26.233-.07.057-.18.11-.32.17-.08.036-.2.065-.1.03-.24.048-.24.045-.57.037-.28.011-.54-.031-.13-.011-.24-.04-.11-.022m-71.1-6.606h.5l.26.08.35.195.02.018.07.067.04.038.09.104.11.11.28.312.15.167.34.392.17.201.56.652.37.436.18.215.33.398.16.19.26.32.05.074.1.126.11.151.04.047.05.07.03.028.04.024.02.004.03-.033.01-.025.02-.105.01-.063.01-.191.01-.105.01-.288v-3.609h1.16v6.613h-.52l-.13-.03-.06-.021-.15-.08-.08-.047-.18-.145-.1-.082-.22-.222-.13-.121-.28-.314-.16-.17-.36-.415-.19-.224-.45-.534-.12-.141-.26-.307-1.32-1.598-.09 4.451h-1.14v-6.613Zm32.18 0h1.32v5.511h3.14v1.102h-4.46v-6.613Zm9.74 1.102h-2.31v-1.102h5.8l-.05.511-.06.512-1.11.047-1.11.046v5.497h-1.16v-5.511Zm8.2 5.405-.01-.006-.01-.08-.01-.049-.01-.158-.01-.088-.01-.225-.01-.121-.01-.287v-.149l-.01-.337-.01-.175v-.38l-.01-1.251v-3.201h1.48v6.613h-.8l-.31-.032-.06-.009-.11-.024-.04-.012m7.27-6.536h.59l.19.049.09.034.22.147.06.044.13.115.07.061.15.151.08.082.18.194.31.343.15.168.34.393.17.201.35.42.17.21.32.401.4.52.81 1.094v-1.895l.04-.887.01-.211.02-.375.04-.441.01-.102.03-.17.01-.079.02-.126.02-.115.07-.127.04-.05.12-.03.3.012.51.047.09 6.535h-.55l-.13-.024-.07-.017-.15-.068-.08-.041-.17-.123-.09-.069-.21-.192-.11-.107-.26-.272-.14-.149-.32-.366-.17-.197-.4-.474-.71-.842-1.32-1.599-.09 4.54h-1.14v-6.613Zm-154.61 2.128-.67-.114-1.3-.345-.64-.191-1.26-.488-.62-.261-1.19-.622-.59-.328-1.11-.748-.55-.387-1.028-.864-.502-.446-.927-.97-.449-.497-.812-1.068-1.078-1.702-.164-.298-.298-.609-.146-.309-.257-.628-.249-.633-.375-1.31-.168-.661-.213-1.351-.086-.679-.051-1.369-.007-.687.111-1.368.076-.682.274-1.345.156-.667.436-1.301.119-.323.269-.629.449-.928.091-.171.231-.388.124-.2.285-.43.296-.434.688-.912.352-.45.713-.83.173-.195.332-.35.46-.441.164-.146.371-.301.18-.152.41-.306.41-.307.89-.595.45-.29.9-.515.21-.121.43-.217.59-.279.53-.227 1.03-.357.52-.165 1.06-.244.28-.054.56-.091.29-.043.6-.066.31-.031.64-.046 1.03-.046.46-.014.86-.001.41.003.78.033.38.02.72.073.35.041.67.115.34.063.65.16.32.087.65.209.32.112.66.263 1.01.456.39.183.74.398.36.204.7.434.35.222.66.473.33.239.62.507.3.256.58.541.28.274.54.571.26.29.5.601.24.304.44.63.22.318.4.657.2.332.35.682.17.344.31.706.15.356.26.727.12.367.2.748.1.376.15.767.08.386.1.784.09 1.195.03.633-.05 1.237-.03.614-.18 1.2-.11.595-.3 1.161-.17.573-.44 1.116-.23.553-.57 1.069-.3.529-.69 1.022-.36.504-.82.97-1.37 1.393-.32.301-.68.559-.34.272-.71.504-.36.246-.75.447-.38.217-.78.391-.4.189-.82.337-.41.16-.86.282-.43.132-.89.227-1.39.276-.21.036-.49.058-.25.027-.54.041-.56.036-1.19.019-.59.001-1.13-.052-.27-.017-.51-.049-.24-.026m6.53-1.561.59-.11 1.16-.337.58-.186 1.13-.48.56-.258 1.08-.611.54-.323 1.01-.732.5-.379.94-.841.46-.433.85-.937.41-.479.73-1.022.97-1.615.12-.233.22-.502.11-.257.21-.54.19-.548.32-1.162.14-.584.18-1.172.04-.289.05-.567.03-.819v-.151l-.02-.347-.01-.181-.03-.393-.04-.403-.13-.877-.07-.44-.17-.85-.05-.205-.09-.381-.14-.514-.1-.317-.23-.623-.13-.309-.27-.608-.14-.302-.32-.591-.16-.292-.36-.572-.18-.282-.4-.551-.2-.272-.43-.526-.44-.521-.97-.964-.5-.468-1.09-.844-.28-.201-.57-.381-.29-.186-.6-.345-.3-.168-.61-.307-.31-.15-.64-.269-.32-.128-.65-.228-.99-.291-.37-.096-.74-.156-.37-.073-.74-.108-.37-.051-.74-.063-.36-.025-.73-.017-.37-.003-.72.028-.36.021-.71.072-.36.043-.71.118-.35.064-.69.164-.35.087-.68.206-.33.108-.67.251-.33.13-.65.293-.32.153-.64.337-.31.173-.61.38-.31.193-.59.422-.3.216-.57.463-.83.74-.24.231-.482.511-.236.261-.461.562-.227.285-.434.6-.212.304-.401.626-.195.317-.359.642-.174.322-.31.645-.149.323-.255.638-.312.933-.061.213-.104.499-.05.26-.083.576-.036.294-.058.626-.024.316-.032.647-.011.323-.005.642.001.318.024.613.014.299.052.554.11.736.086.422.229.844.126.42.305.831.162.414.373.81.195.401.437.776.225.385.493.733.253.361.541.679.277.332.586.614.922.836.55.457 1.13.798.56.381 1.15.647.58.305 1.18.5.59.231 1.21.35.61.157 1.25.205.63.083 1.29.06.65.011 1.34-.085.68-.061m176.11-24.037 3.34.061.37.008.63.013.3.008.51.015.23.008.4.021.19.011.31.026.15.015.25.034.12.019.21.046.6.189.19.071.34.143.16.072.3.15.29.151.46.343.22.181.36.432.49.79.12.235.17.367.07.173.09.312.04.157.03.346.01.095V882.55l-.09.676-.02.159-.06.277-.11.332-.08.177-.19.335-.09.164-.22.307-.12.149-.26.276-.13.135-.29.246-.15.118-.31.212-.17.103-.34.176-.18.085-.38.142-.58.168-.23.054-.37.096-.08.022-.12.035-.09.034-.01.007.04.072.02.044.1.134.05.072.14.178.25.296.13.15.33.397.18.212.4.487.4.502.87 1.08.21.262.38.486.18.233.31.395.07.092.12.157.05.074.09.12.04.053.05.076.04.058v.013l-.08.023-.04.011-.15.019-.08.008-.2.011-.35.008h-.9l-.97-1.142-.17-.19-.6-.732-.46-.57-.47-.584-.96-1.241-.24-.301-.43-.562-.2-.271-.35-.466-.08-.108-.14-.191-.07-.091-.1-.151-.05-.071-.07-.106-.06-.101-.02-.055-.01-.074v-.031l.06-.033.03-.013.14.003.31.04.17.026.38.013.2.002.41-.037.43-.047.86-.217.21-.063.41-.15.2-.077.37-.176.18-.091.31-.199.38-.316.11-.109.21-.326.1-.175.18-.404.08-.207.12-.409.08-.537v-.208l-.09-.458-.05-.233-.17-.463-.1-.227-.23-.404-.39-.477-.24-.21-.47-.308-.13-.071-.27-.115-.14-.055-.31-.09-.16-.043-.37-.066-.19-.031-.44-.047-.23-.022-.53-.032-.9-.036-2.35-.069v14.205h-1.65v-15.616ZM1071.41 877.172h1.65v15.588h-1.65v-15.588Z"/>
	<path style="transform: translateY(-100px)" fill="#FE7D00" d="M1073.06 877.172h7.26v1.417h-7.26v-1.417ZM1073.06 884.257h6.93v1.417h-6.93v-1.417ZM1073.06 891.343h7.26v1.417h-7.26v-1.417ZM1136.6 877.172h1.65v15.588h-1.65v-15.588ZM1138.25 877.172h7.26v1.417h-7.26v-1.417ZM1138.25 884.257h6.93v1.417h-6.93v-1.417ZM1138.25 891.343h7.26v1.417h-7.26v-1.417ZM1209.08 877.172h1.65v15.588h-1.65v-15.588ZM1210.73 877.172h7.26v1.417h-7.26v-1.417ZM1210.73 884.257h6.93v1.417h-6.93v-1.417ZM1210.73 891.343h7.26v1.417h-7.26v-1.417Z"/>
	<path style="transform: translateY(-100px)" fill="#FE7D00" fill-rule="evenodd" d="M1096.33 893.232c4.74 0 8.59-3.666 8.59-8.188s-3.85-8.188-8.59-8.188-8.58 3.666-8.58 8.188 3.84 8.188 8.58 8.188Zm0-1.418c3.92 0 7.1-3.031 7.1-6.77 0-3.739-3.18-6.77-7.1-6.77-3.92 0-7.09 3.031-7.09 6.77 0 3.739 3.17 6.77 7.09 6.77Z" clip-rule="evenodd"/>
	<path style="transform: translateY(-100px)" fill="#FE7D00" d="M1174.08 877.172h9.24v1.417h-9.24v-1.417ZM1166.66 877.172h-1.65v13.068l-8.76-11.745a3.275 3.275 0 0 0-2.63-1.323v15.588h1.65v-12.833l8.74 11.518a3.33 3.33 0 0 0 2.65 1.315v-15.588ZM1063.31 885.674c-.33 4.227-4.04 7.558-8.55 7.558-4.75 0-8.59-3.666-8.59-8.188s3.84-8.188 8.59-8.188c3.31 0 6.18 1.789 7.61 4.409h-1.72c-1.28-1.805-3.44-2.991-5.89-2.991-3.92 0-7.1 3.031-7.1 6.77 0 3.739 3.18 6.77 7.1 6.77 3.17 0 5.85-1.984 6.76-4.723h-9.08v-1.417h10.87Z"/>
	<path style="transform: translateY(-100px)" fill="#FE7D00" d="M1128.89 888.823c-1.43 2.62-4.31 4.409-7.62 4.409-4.74 0-8.58-3.666-8.58-8.188s3.84-8.188 8.58-8.188c3.31 0 6.19 1.789 7.62 4.409h-1.73c-1.27-1.805-3.44-2.991-5.89-2.991-3.92 0-7.1 3.031-7.1 6.77 0 3.739 3.18 6.77 7.1 6.77 2.45 0 4.62-1.187 5.89-2.991h1.73ZM1177.87 877.172h1.66v15.588h-1.66v-15.588Z"/>
</g>

	<style>
		.rotate-circle {
			transform-origin: 50% 50%;
			animation: rotate 140s infinite linear;
		}
		
		@keyframes rotate {
			0% {
				transform: rotate(0deg);
			}
		
			100% {
				transform: rotate(360deg);
			}
		}
	</style>

</svg>
