<svg width="432" height="92" viewBox="0 0 432 92" fill="none" xmlns="http://www.w3.org/2000/svg">
<path d="M9.24757 91.456L9.12979 91.3626L8.93879 91.2081L8.85284 91.1309L8.74142 90.9635L8.70004 90.8733L8.69368 90.6287L8.70959 90.4903L8.83374 90.1104L8.91332 89.8948L9.19345 89.3121L9.27304 89.1512L9.46404 88.781L9.5659 88.5878L9.80465 88.1436L9.93199 87.915L10.2185 87.3936L10.3681 87.1232L10.7087 86.5148L10.887 86.1993L11.2817 85.4943L11.9407 84.3258L14.9489 78.9726L18.6893 80.8525L19.2432 81.1293L20.4402 81.6766L21.045 81.947L22.2738 82.4491L22.885 82.6873L24.0501 83.1058L25.6131 83.5887L25.9791 83.6884L26.6222 83.8526L26.9341 83.9299L27.5103 84.0554L28.0833 84.1713L29.2675 84.3129L29.5859 84.3419L30.2989 84.3838L30.6746 84.4031L31.5436 84.4256L32.002 84.4353L33.0843 84.4449L35.0039 84.4546H35.7201L36.933 84.4514L37.506 84.4482L38.4769 84.4353L38.9353 84.4256L39.7152 84.3966L40.0877 84.3773L40.7402 84.3291L41.3674 84.2711L42.4688 84.0715L42.7521 84.0136L43.3474 83.8687L44.3438 83.6048L45.1269 83.3891L46.6676 82.8901L47.4348 82.6294L48.931 82.0339L49.6758 81.7281L51.1274 81.0456L51.8469 80.6948L53.2507 79.9254L53.9447 79.5327L55.2944 78.6829L55.9629 78.2483L57.2585 77.318L57.8984 76.8448L59.1335 75.8372L59.7447 75.3254L60.9162 74.247L61.4955 73.6966L62.6034 72.5474L63.1477 71.9647L64.1855 70.7512L64.6948 70.1331L65.6593 68.8551L66.1337 68.2081L67.0218 66.869L67.4579 66.193L68.2665 64.7959L68.6612 64.091L69.387 62.6392L69.7404 61.9085L70.3802 60.4052L71.2429 58.1004L71.574 57.1186L72.1088 55.0873L72.3539 54.0637L72.7136 51.9713L72.8728 50.9187L73.0574 48.7877L73.1274 47.719L73.1402 45.5687L73.1242 44.4967L72.9619 42.3593L72.86 41.2938L72.5258 39.1853L72.3348 38.1391L71.8286 36.0918L70.8736 33.111L70.4566 31.994L69.5271 29.8759L69.0464 28.8361L67.9832 26.8596L67.4325 25.8875L66.2228 24.0462L65.5989 23.1384L64.2364 21.4162L63.5329 20.5664L62.0017 18.9537L61.2154 18.1586L59.5092 16.6392L58.6337 15.8892L56.746 14.4567L53.69 12.3901L53.5818 12.3192L53.5022 12.0907L53.4958 12.0167L53.5309 11.8267L53.5595 11.7205L53.6614 11.4469L53.725 11.2988L53.9033 10.9254L54.0052 10.7258L54.2726 10.2301L54.4158 9.96935L54.7724 9.3352L55.4249 8.20532L56.0425 7.14304L57.3349 4.83821L57.6374 4.29097L58.2899 3.09028L58.5064 2.68468L58.7738 2.16963L58.9234 1.87026L59.2195 1.32625L59.3627 1.0655L59.6174 0.63415L59.7352 0.437789L59.923 0.170608L60.0949 0H60.2477L60.757 0.112668L61.0308 0.183487L61.6261 0.379849L61.9126 0.479638L62.3773 0.682439L62.476 0.730722L62.6129 0.814415L62.6988 0.910987V0.959276L62.5811 1.26186L62.5047 1.44535L62.2595 1.97327L62.1227 2.25976L61.7789 2.95185L61.5974 3.31561L61.1868 4.11393L60.7634 4.93156L59.8498 6.628L59.6237 7.03681L59.1972 7.79972L58.6178 8.7944L57.3509 10.9029L60.2413 13.1401L61.4192 14.1509L62.0049 14.6691L63.17 15.7894L63.7493 16.3591L64.8794 17.5663L65.4397 18.1779L66.5188 19.4494L67.0473 20.0868L68.0532 21.3937L68.5434 22.0504L69.4539 23.3702L69.8963 24.0301L70.689 25.337L71.7299 27.2588L72.0992 28.0024L72.7773 29.6055L73.1051 30.4231L73.6972 32.1453L73.9806 33.0209L74.4803 34.8235L74.7191 35.7345L75.117 37.5854L75.3016 38.5125L75.5945 40.3699L75.725 41.297L75.9001 43.1254L75.9733 44.03L76.0243 45.7908L75.9542 48.3177L75.8937 49.2223L75.6964 50.9959L75.5881 51.8812L75.2985 53.6098L75.1457 54.4693L74.7637 56.1528L74.5631 56.9866L74.092 58.6218L73.8437 59.433L73.2802 61.0168L72.9905 61.8022L72.338 63.3345L72.0005 64.0942L71.262 65.575L70.88 66.3089L70.0523 67.7349L69.6258 68.4399L68.7122 69.808L68.2442 70.4872L67.2415 71.8006L66.7289 72.4508L65.6434 73.703L65.0895 74.3243L63.9181 75.5185L63.3228 76.1076L62.0685 77.2407L61.4287 77.8008L60.0917 78.8728L59.4137 79.4007L57.9907 80.4083L55.7719 81.844L55.1416 82.227L53.846 82.9352L53.1934 83.2829L51.8564 83.9138L51.1847 84.2196L49.8096 84.7733L49.1188 85.0405L47.7117 85.5169L46.2952 85.974L43.3824 86.6532L41.9149 86.9526L38.9226 87.3131L37.4168 87.4547L34.38 87.4966L32.8615 87.474L29.8119 87.194L28.2902 87.0137L25.2661 86.4053L20.7967 85.1209L20.1091 84.8827L18.683 84.3323L18.3519 84.2003L17.7757 83.9556L17.1231 83.6563L15.9548 83.0608L15.2927 84.4224L15.1272 84.7572L14.7261 85.5169L14.516 85.9031L14.0512 86.7272L13.5737 87.5545L12.5646 89.1769L12.3163 89.5632L11.8547 90.2617L11.6287 90.5933L11.2372 91.1405L11.0525 91.3916L10.7597 91.7393L10.4763 91.9775L10.349 92L9.92562 91.8551L9.70279 91.7618M176.939 89.8175L176.681 89.7402L176.175 89.4956L175.923 89.3636L175.433 89.0192L175.191 88.8357L174.73 88.4043L174.504 88.179L174.084 87.6768L173.676 87.1586L173.03 85.9675L172.887 85.6649L172.657 85.034L172.409 84.0715L172.342 83.711L172.358 82.8418L172.387 82.3944L172.575 81.4384L172.689 80.9587L173.02 80.0284L173.654 78.7891L173.934 78.3577L174.609 77.6689L174.968 77.3534L175.815 76.8899L176.261 76.6871L177.305 76.436L179.116 76.2911L179.447 76.2943L180.036 76.3169L180.32 76.333L180.816 76.3909L181.052 76.4231L181.462 76.5132L181.657 76.5647L181.985 76.6935L182.137 76.7643L182.389 76.9317L182.503 77.0186L182.685 77.2311L182.975 78.0262L183 78.2451L183.01 78.5348L183.003 78.6603L182.914 78.7859L182.854 78.8309L182.612 78.8342L182.02 78.7376L181.65 78.6635L181.001 78.5477L180.692 78.4961L180.148 78.4157L179.887 78.3835L179.428 78.3416L179.212 78.3255L178.827 78.3223L178.457 78.3288L177.868 78.4607L177.076 78.8309L176.684 79.0788L176.079 79.6164L175.803 79.8997L175.411 80.5338L175.239 80.8686L175.039 81.654L174.921 83.0479V83.3955L174.984 84.0393L175.026 84.3484L175.172 84.9149L175.255 85.1885L175.481 85.681L175.605 85.916L175.917 86.3313L176.083 86.5276L176.477 86.8689L176.681 87.0266L177.159 87.2906L177.407 87.4097L177.961 87.5964L178.89 87.7895L179.33 87.8475L180.18 87.7798L181.462 87.3839L181.759 87.2487L182.176 87.0781L182.36 87.0073L182.624 86.9686L182.745 86.9654L182.943 87.0556L183.264 87.3324L183.385 87.4547L183.532 87.6447L183.589 87.7348L183.595 87.9054L183.579 87.9955L183.436 88.2176L183.035 88.6748L182.885 88.8357L182.519 89.119L182.325 89.2574L181.88 89.4892L181.421 89.708L180.345 89.9752L179.794 90.0782L178.633 90.0976L178.053 90.075M196.364 89.7048L195.886 89.5246L195.068 89.0996L194.68 88.8775L194.014 88.3432L193.699 88.0599L193.158 87.3903L192.448 86.2025L192.279 85.8613L192.022 85.1789L191.907 84.8376L191.757 84.1584L191.697 83.8204L191.652 83.1477L191.643 82.8161L191.703 82.1562L191.748 81.8279L191.913 81.184L192.009 80.8654L192.279 80.2409L192.426 79.9351L192.801 79.3363L193.476 78.4704L193.849 78.0519L194.568 77.4242L194.931 77.1409L195.708 76.7514L196.109 76.5841L197.035 76.3973L198.697 76.2943L199.267 76.2976L200.311 76.4328L200.82 76.5197L201.737 76.819L202.18 76.9896L202.956 77.4468L203.329 77.6946L203.962 78.2998L204.258 78.6185L204.739 79.3653L204.955 79.7516L205.271 80.6272L205.407 81.081L205.554 82.0757L205.57 83.6981L205.525 84.2808L205.267 85.3463L205.111 85.8613L204.621 86.7852L204.351 87.2294L203.634 88.0084L202.31 89.0063L201.88 89.2606L200.887 89.634L200.378 89.795L199.311 89.972L198.777 90.0332L197.745 90.001L197.245 89.9591M200.862 87.2873L201.244 87.0813L201.861 86.518L202.148 86.2154L202.571 85.4975L202.759 85.1241L202.988 84.3097L203.077 83.8945L203.112 83.0414L203.106 82.6133L202.947 81.7763L202.842 81.3675L202.492 80.6046L202.294 80.2376L201.753 79.6099L200.725 78.876L200.33 78.6829L199.665 78.4318L199.346 78.3288L198.767 78.2547L198.477 78.2386L197.895 78.332L196.921 78.6635L196.615 78.7923L196.077 79.1335L195.822 79.317L195.386 79.758L195.183 79.9898L194.852 80.508L194.702 80.7752L194.485 81.3579L194.39 81.654L194.291 82.2785L194.256 82.594L194.282 83.241L194.31 83.5661L194.466 84.2228L194.848 85.1917L195.008 85.5008L195.374 86.0448L195.565 86.3023L195.994 86.7369L196.214 86.9397L196.695 87.2648L196.94 87.4161L197.462 87.6286L197.726 87.7187L198.274 87.8153L198.554 87.8507L199.124 87.8249L199.41 87.7992L199.989 87.6511L200.279 87.561M239.842 89.7885L239.565 89.7048L239.001 89.4183L238.724 89.2606L238.234 88.8775L238.008 88.6812L237.68 88.282L237.464 87.7412V87.4901L237.616 87.1457L237.718 86.9976L238.072 86.856L238.272 86.8141L238.817 86.885L239.838 87.2262L240.303 87.429L241.067 87.6833L241.427 87.7863L242.013 87.8442L242.286 87.8475L242.735 87.7122L243.305 87.2873L243.439 87.1393L243.63 86.856L243.712 86.7176L243.798 86.4536L243.83 86.3216L243.805 86.0641L243.779 85.9353L243.639 85.6746L243.553 85.5458L243.292 85.2787L243.146 85.1435L242.757 84.8602L242.544 84.7153L242.022 84.4063L241.086 83.9041L240.656 83.6884L239.921 83.2153L239.571 82.9706L238.998 82.4524L238.731 82.1916L238.32 81.6412L238.138 81.3643L237.9 80.7913L237.801 80.5048L237.737 79.9254L237.728 79.6357L237.839 79.0563L237.919 78.7698L238.215 78.2032L238.864 77.3824L239.116 77.1281L239.51 76.7836L239.701 76.6323L240.09 76.4553L240.3 76.3812L240.838 76.3169L240.988 76.304L241.344 76.2943L241.978 76.2879H242.56L243.512 76.4006L243.951 76.4746L244.604 76.7321L244.747 76.8062L244.973 76.9768L245.078 77.0669L245.225 77.2729L245.288 77.3792L245.355 77.6174L245.361 78.0101L245.336 78.1936L245.174 78.4382L245.069 78.5412L244.68 78.6314L244.566 78.6442L244.276 78.641L244.12 78.6378L243.744 78.6024L243.544 78.5798L243.069 78.509L242.232 78.3674L242.009 78.3288L241.653 78.2966L241.487 78.2934L241.217 78.3416L241.086 78.377L240.857 78.5155L240.51 78.8374L240.392 78.9693L240.233 79.2301L240.166 79.3589L240.112 79.6196L240.096 79.7484L240.147 80.0123L240.185 80.1443L240.345 80.4147L240.437 80.5531L240.707 80.8364L240.857 80.978L241.239 81.2742L241.446 81.4255L241.946 81.7409L242.831 82.2399L243.168 82.4202L243.744 82.7421L244.015 82.8966L244.476 83.1831L244.693 83.3215L245.049 83.5887L245.215 83.7206L245.482 83.9782L245.734 84.2389L246.027 84.8087L246.278 85.8549L246.313 86.1156L246.326 86.5309L246.323 86.7272L246.243 87.0717L246.192 87.2391L245.995 87.5835L245.549 88.1758L245.186 88.6168L244.368 89.2638L243.948 89.5503L243.022 89.898L242.544 90.03L241.51 90.0718L240.978 90.0525M259.588 89.6662L259.234 89.5342L258.61 89.2027L258.314 89.0224L257.805 88.5814L257.563 88.3464L257.159 87.7766L256.968 87.4773L256.662 86.7658L256.519 86.3924L256.306 85.5233L256.207 85.0694L256.08 84.0232L256.026 83.4792L255.975 82.2399L255.984 80.1507L256.086 76.4489L257.251 76.3523L258.413 76.2525L258.525 80.9137L258.534 81.4319L258.56 82.3075L258.572 82.7195L258.601 83.4148L258.617 83.74L258.655 84.2808L258.677 84.5318L258.725 84.9471L258.754 85.1402L258.821 85.4589L258.856 85.607L258.941 85.8549L259.301 86.4858L259.479 86.7304L259.903 87.1167L260.123 87.2906L260.606 87.5384L260.852 87.6447L261.361 87.7573L261.616 87.7959L262.125 87.7734L262.376 87.7477L262.857 87.5964L263.089 87.5062L263.513 87.2294L263.713 87.0749L264.051 86.6757L264.423 85.9418L264.452 85.8613L264.503 85.6263L264.528 85.4975L264.576 85.1692L264.624 84.8216L264.7 83.9106L264.735 83.4245L264.786 82.3139L264.821 80.5338L264.84 76.2493L267.228 76.4489L267.33 79.5069L267.352 80.2473L267.365 81.5575L267.361 82.1884L267.32 83.299L267.288 83.8301L267.183 84.7636L267.123 85.2078L266.951 85.9868L266.855 86.3603L266.607 87.0105L266.473 87.3228L266.145 87.8668L265.974 88.1275L265.56 88.591L264.837 89.222L264.7 89.3218L264.363 89.4988L264.184 89.5825L263.78 89.7177L263.36 89.8432L262.399 89.972L261.912 90.0139L260.925 89.9591L260.444 89.9109M352.585 89.6791L352.296 89.5696L351.761 89.296L351.5 89.1512L351.016 88.8132L350.548 88.4558L349.781 87.577L349.424 87.1167L348.896 86.0738L348.66 85.5394L348.377 84.3934L348.269 83.8172L348.247 82.6358L348.269 82.0468L348.52 80.8911L348.68 80.3246L349.214 79.2591L349.367 79.0048L349.727 78.5155L350.351 77.8363L350.669 77.5401L351.29 77.0927L351.608 76.8899L352.309 76.6162L352.675 76.4971L353.54 76.3619L355.123 76.2879H355.702L356.692 76.3941L357.157 76.4649L357.908 76.7096L358.252 76.848L358.742 77.215L359.162 77.9038L359.22 78.1356L359.169 78.4575L359.115 78.5992L358.815 78.744L358.634 78.7955L358.064 78.773L357.905 78.7569L357.529 78.6925L356.88 78.5509L356.405 78.435L355.457 78.3706L354.986 78.3642L354.091 78.509L353.655 78.6056L352.872 78.9436L351.888 79.655L351.713 79.8321L351.427 80.2795L351.296 80.5177L351.092 81.0617L351.003 81.3418L350.889 81.947L350.841 82.256L350.809 82.8869L350.806 83.2056L350.86 83.8333L350.901 84.1423L351.042 84.7282L351.124 85.0147L351.354 85.5297L351.799 86.18L352.035 86.4375L352.573 86.8656L352.85 87.062L353.445 87.371L353.747 87.5094L354.371 87.6929L354.683 87.767L355.298 87.8281L355.6 87.841L356.176 87.7766L356.456 87.7284L356.956 87.5352L357.195 87.4225L357.593 87.1006L358.029 86.4729L358.147 86.2057L358.23 85.7905L358.245 85.6006L358.115 85.327L358.023 85.2046L357.666 85.063L356.873 84.9793H356.514L355.899 84.8699L355.613 84.7958L355.167 84.5608L354.97 84.432L354.734 84.0973L354.658 83.5082L354.683 83.373L354.811 83.1766L354.893 83.0897L355.224 82.9771L355.326 82.9513L355.587 82.9127L355.731 82.8934L356.084 82.8644L356.272 82.8483L356.733 82.8258L357.558 82.7936L360.34 82.7002V85.5684L360.324 86.1446L360.311 86.4214L360.267 86.8882L360.238 87.1135L360.152 87.4933L360.101 87.6736L359.964 87.9891L359.815 88.2852L359.318 88.7617L359.175 88.8775L358.828 89.1029L358.207 89.4505L358.058 89.5246L357.682 89.6566L357.481 89.7177L357.02 89.8175L356.546 89.9076L355.463 89.9849L354.919 90.0074L353.872 89.9431L353.62 89.9205L353.168 89.84L352.952 89.795M215.817 76.2879H216.788L217.3 76.4521L217.966 76.8512L218.007 76.8866L218.138 77.0251L218.211 77.1023L218.399 77.3148L218.599 77.5401L219.137 78.1775L219.424 78.5187L220.086 79.3202L220.423 79.7323L221.502 81.0649L222.212 81.9566L222.559 82.3944L223.196 83.2088L223.498 83.5983L223.995 84.2518L224.106 84.4031L224.294 84.6606L224.514 84.9696L224.577 85.0662L224.683 85.2078L224.733 85.2658L224.813 85.3141L224.851 85.3237L224.909 85.2561L224.934 85.2046L224.972 84.989L224.991 84.8602L225.014 84.4707L225.026 84.255L225.036 83.6659L225.042 83.344L225.045 82.5328L225.049 81.0263V76.2879H227.277V89.8078H226.274L226.032 89.7467L225.905 89.7048L225.622 89.5407L225.472 89.4441L225.125 89.1479L224.937 88.9805L224.498 88.5267L224.262 88.2788L223.705 87.6382L223.409 87.2906L222.709 86.4407L222.34 85.9836L221.474 84.8924L221.245 84.6027L220.751 83.9749L218.204 80.7076L218.029 89.8078H215.817V76.2879ZM277.892 76.2879H280.439V87.5545H286.487V89.8078H277.892V76.2879ZM296.674 78.5412H292.217V76.2879H303.4L303.298 77.3341L303.199 78.3803L301.051 78.4768L298.902 78.5702V89.8078H296.674V78.5412ZM312.485 89.5922L312.469 89.5793L312.441 89.4151L312.428 89.3153L312.402 88.9934L312.39 88.8132L312.364 88.3528L312.355 88.105L312.335 87.5191L312.326 87.2133L312.307 86.5244L312.3 86.1671L312.288 85.3913L312.272 82.8322V76.2879H315.137V89.8078H313.58L312.991 89.7435L312.864 89.7241L312.663 89.6759L312.574 89.6501M326.597 76.2879H327.74L328.106 76.3877L328.29 76.4585L328.707 76.7579L328.819 76.848L329.067 77.083L329.198 77.2085L329.49 77.5176L329.643 77.685L329.993 78.0809L330.598 78.7826L330.888 79.1271L331.54 79.9286L331.872 80.3407L332.546 81.2001L332.878 81.6283L333.495 82.4491L334.269 83.5114L335.828 85.7486L335.832 82.7066V81.8729L335.892 80.0606L335.911 79.6293L335.959 78.8631L336.035 77.9618L336.061 77.7526L336.105 77.4049L336.128 77.2439L336.169 76.9864L336.217 76.7514L336.341 76.4907L336.417 76.3877L336.659 76.3265L337.229 76.3523L338.216 76.4489L338.388 89.8078H337.334L337.07 89.7596L336.936 89.7241L336.653 89.5857L336.503 89.502L336.172 89.251L335.997 89.1093L335.593 88.7166L335.38 88.4977L334.877 87.9408L334.612 87.6382L333.988 86.8882L333.657 86.4858L332.884 85.5169L331.531 83.7947L328.984 80.5274L328.809 89.8078H326.597V76.2879ZM28.4239 80.64L27.1411 80.405L24.6294 79.7001L23.3847 79.3106L20.9654 78.3127L19.7717 77.7783L17.4733 76.5068L16.3432 75.8372L14.1913 74.3082L13.1344 73.5163L11.1512 71.7491L10.1835 70.8381L8.39444 68.8551L7.52858 67.8379L5.96238 65.6554L3.88367 62.1757L3.56851 61.5672L2.99233 60.3215L2.7122 59.6906L2.2156 58.4062L1.73492 57.1121L1.0123 54.4339L0.6876 53.0819L0.276953 50.3199L0.111418 48.9325L0.012736 46.132L0 44.7285L0.213287 41.9311L0.359718 40.5373L0.888151 37.7882L1.19057 36.4234L2.03097 33.7645L2.26017 33.1046L2.77905 31.8169L3.64492 29.9209L3.81999 29.57L4.26566 28.7782L4.50441 28.3694L5.05513 27.4906L5.62495 26.6021L6.95239 24.7383L7.63044 23.8176L9.00564 22.1212L9.33989 21.722L9.97974 21.0074L10.8679 20.1061L11.183 19.8067L11.8897 19.1919L12.2526 18.8796L13.0325 18.2551L13.8284 17.6274L15.5506 16.4106L16.4164 15.8183L18.1418 14.7657L18.562 14.5178L19.3769 14.0736L20.5261 13.5039L21.5416 13.0403L23.5248 12.3096L24.5244 11.9716L26.584 11.4726L27.1092 11.3632L28.2011 11.1765L28.755 11.0896L29.9137 10.9544L30.5027 10.89L31.7473 10.7966L33.7306 10.7033L34.6219 10.6743L36.2677 10.6711L37.0699 10.6775L38.5692 10.7451L39.3014 10.787L40.6861 10.9351L41.3642 11.0188L42.6662 11.2537L43.3124 11.3825L44.5666 11.7108L45.1937 11.8879L46.4352 12.316L47.0592 12.5446L48.3261 13.0822L50.2839 14.0157L51.0224 14.3891L52.4485 15.2035L53.152 15.6188L54.505 16.5072L55.1703 16.9611L56.4468 17.9268L57.0771 18.4161L58.274 19.4526L58.8629 19.9773L59.9803 21.0815L60.5278 21.6416L61.5624 22.8101L62.0685 23.4024L63.0172 24.6321L63.4819 25.2533L64.3446 26.5409L64.768 27.1912L65.5416 28.5335L65.9172 29.2127L66.6016 30.6066L66.9295 31.3115L67.5216 32.7537L67.8049 33.4812L68.3015 34.9684L68.5371 35.7184L68.935 37.2474L69.1196 38.0168L69.4188 39.5845L69.5557 40.3731L69.7531 41.9762L69.9346 44.4195L69.9855 45.7135L69.8995 48.2437L69.8263 49.4991L69.4857 51.952L69.282 53.1688L68.6899 55.5412L68.3652 56.713L67.5216 58.9952L67.0696 60.1251L65.9809 62.3108L65.4047 63.3924L64.0677 65.4816L63.3705 66.5117L61.7916 68.4946L59.1526 71.3435L58.5255 71.9583L57.2203 73.1011L56.5582 73.6579L55.1862 74.688L54.4922 75.1902L53.0502 76.1044L52.3212 76.5486L50.8123 77.347L50.0483 77.7332L48.4662 78.4221L47.6672 78.7505L46.0182 79.3267L45.1842 79.5971L43.462 80.0606L40.7975 80.6239L40.3837 80.698L39.4414 80.8171L38.9576 80.8718L37.9071 80.9555L36.8407 81.0295L34.5487 81.0682L33.409 81.0714L31.2221 80.9652L30.6968 80.9297L29.7259 80.8299L29.258 80.7752M41.8512 77.5852L42.9845 77.3598L45.2287 76.671L46.3429 76.2911L48.5235 75.3093L49.6026 74.7814L51.6909 73.5324L52.7191 72.8725L54.6832 71.3756L55.6478 70.5999L57.4591 68.8809L58.3441 67.9957L59.9739 66.0803L60.7634 65.1018L62.1831 63.0126L64.039 59.7099L64.2714 59.2334L64.7075 58.2066L64.9208 57.6819L65.3124 56.5777L65.6912 55.4575L66.296 53.0819L66.5698 51.8876L66.9295 49.4927L67.0027 48.9004L67.0982 47.7415L67.1555 46.0676V45.7586L67.1237 45.0504L67.1014 44.6802L67.0313 43.8754L66.955 43.0514L66.7098 41.2584L66.573 40.3603L66.2451 38.622L66.1591 38.2035L65.9777 37.4245L65.7007 36.3719L65.5097 35.7248L65.0641 34.4501L64.8285 33.8192L64.3001 32.5766L64.0231 31.9586L63.4119 30.7514L63.0968 30.1527L62.406 28.9842L62.0526 28.408L61.2918 27.2813L60.9034 26.7244L60.0758 25.6493L59.229 24.5838L57.354 22.6137L56.3863 21.6577L54.2917 19.9323L53.7569 19.5202L52.6491 18.7412L52.0888 18.3614L50.9396 17.6564L50.3603 17.312L49.1697 16.6843L48.5712 16.3784L47.3456 15.828L46.7313 15.5673L45.477 15.1005L43.567 14.505L42.8508 14.3086L41.4215 13.9899L40.7084 13.8418L39.2823 13.6197L38.5724 13.5167L37.1526 13.388L36.4459 13.3365L35.0389 13.3011L34.3354 13.2946L32.9411 13.3526L32.2471 13.3944L30.8687 13.5425L30.1811 13.6294L28.8219 13.8708L28.147 14.0028L26.81 14.3376L26.1415 14.5146L24.83 14.9363L24.1774 15.1584L22.8945 15.6703L22.2547 15.9374L21.0004 16.5362L20.3765 16.8484L19.1573 17.5373L18.5524 17.8914L17.3682 18.6672L16.7793 19.0631L15.6365 19.9258L15.0699 20.3668L13.9684 21.3132L12.3672 22.8262L11.8961 23.2994L10.9698 24.3423L10.5145 24.8767L9.62639 26.0259L9.18709 26.6085L8.34987 27.835L7.94241 28.4563L7.16886 29.7374L6.79323 30.3845L6.09926 31.6978L5.76501 32.3545L5.16655 33.6743L4.88004 34.3342L4.38663 35.6379L3.78498 37.5468L3.6672 37.9814L3.46664 39.0018L3.37115 39.533L3.21198 40.7111L3.14195 41.3131L3.03053 42.591L2.98278 43.2381L2.9223 44.5611L2.90001 45.221L2.89046 46.5344L2.89365 47.1846L2.93822 48.4368L2.96686 49.0484L3.06555 50.1815L3.27883 51.6848L3.44436 52.5475L3.88685 54.2729L4.12878 55.1324L4.7177 56.8321L5.02966 57.6787L5.7491 59.3332L6.12473 60.1541L6.96831 61.7411L7.40124 62.5265L8.35306 64.0266L8.84011 64.7638L9.88424 66.1512L10.419 66.8304L11.5491 68.0858L13.3222 69.7951L14.395 70.7286L16.566 72.3607L17.6547 73.1397L19.8735 74.4627L20.9877 75.0872L23.2574 76.1076L24.4002 76.5808L26.7368 77.2955L27.9114 77.6174L30.3212 78.0358L31.5341 78.2064L34.0266 78.3288L35.2808 78.3513L37.8657 78.1775L39.1677 78.0519M378.803 28.9102L385.25 29.0357L385.969 29.0518L387.188 29.0775L387.764 29.0936L388.735 29.1258L389.194 29.1419L389.961 29.1838L390.321 29.2063L390.925 29.261L391.212 29.29L391.696 29.3608L391.928 29.3994L392.336 29.4928L393.491 29.8791L393.857 30.0239L394.51 30.3169L394.825 30.4649L395.395 30.7708L395.946 31.0798L396.84 31.7815L397.26 32.1517L397.964 33.0337L398.906 34.6497L399.138 35.1293L399.463 35.8794L399.606 36.2335L399.782 36.8708L399.852 37.1927L399.915 37.9009L399.925 38.0941L399.931 38.5222L399.928 39.2561L399.918 39.9675L399.759 41.3485L399.712 41.6736L399.591 42.2402L399.38 42.9194L399.231 43.2799L398.874 43.9656L398.686 44.3004L398.26 44.9281L398.037 45.2339L397.544 45.7972L397.289 46.074L396.732 46.5762L396.445 46.8176L395.831 47.2522L395.516 47.4614L394.847 47.822L394.507 47.9958L393.784 48.2855L392.651 48.63L392.212 48.7394L391.492 48.9358L391.336 48.9808L391.11 49.0517L390.938 49.1225L390.922 49.1353L390.992 49.2834L391.04 49.3736L391.225 49.6472L391.327 49.7952L391.597 50.159L392.075 50.7642L392.326 51.07L392.966 51.8812L393.307 52.3157L394.077 53.3104L394.863 54.3373L396.531 56.5456L396.932 57.0799L397.674 58.0746L398.024 58.551L398.616 59.359L398.75 59.5457L398.983 59.8676L399.088 60.0189L399.259 60.2635L399.333 60.373L399.435 60.5275L399.495 60.6466V60.6724L399.358 60.7207L399.272 60.7432L398.986 60.7818L398.83 60.7979L398.435 60.8204L397.763 60.8365H396.035L394.153 58.5027L393.841 58.1132L392.676 56.6164L391.791 55.4511L390.89 54.2568L389.022 51.7202L388.573 51.1054L387.742 49.9562L387.347 49.4025L386.676 48.4497L386.52 48.2276L386.252 47.8381L386.125 47.6514L385.918 47.3423L385.826 47.1975L385.692 46.9818L385.581 46.7758L385.539 46.6631L385.52 46.5118L385.527 46.4474L385.632 46.3798L385.702 46.3541L385.96 46.3605L386.555 46.441L386.889 46.4957L387.628 46.5215L388.003 46.5247L388.809 46.4507L389.62 46.3541L391.292 45.9099L391.702 45.7811L392.488 45.4753L392.874 45.3176L393.587 44.957L393.931 44.7703L394.529 44.3647L395.268 43.7177L395.471 43.4956L395.872 42.8293L396.07 42.4719L396.414 41.6446L396.573 41.223L396.799 40.386L396.948 39.2883V38.8634L396.786 37.9267L396.684 37.4502L396.353 36.5039L396.172 36.0403L395.723 35.213L394.968 34.2376L394.516 33.8095L393.596 33.1786L393.354 33.0337L392.835 32.7987L392.565 32.6861L391.963 32.5026L391.648 32.4157L390.938 32.2805L390.569 32.2161L389.719 32.1195L389.277 32.0745L388.261 32.0101L386.523 31.936L381.987 31.7944V60.8365H378.803V28.9102Z" fill="white"/>
<path d="M149.289 28.9707H152.472V60.8391H149.289V28.9707Z" fill="white"/>
<path d="M152.472 28.9707H166.479V31.8678H152.472V28.9707Z" fill="white"/>
<path d="M152.472 43.4564H165.842V46.3535H152.472V43.4564Z" fill="white"/>
<path d="M152.472 57.942H166.479V60.8391H152.472V57.942Z" fill="white"/>
<path d="M275.027 28.9707H278.211V60.8391H275.027V28.9707Z" fill="white"/>
<path d="M278.211 28.9707H292.217V31.8678H278.211V28.9707Z" fill="white"/>
<path d="M278.211 43.4564H291.581V46.3535H278.211V43.4564Z" fill="white"/>
<path d="M278.211 57.942H292.217V60.8391H278.211V57.942Z" fill="white"/>
<path d="M414.785 28.9707H417.968V60.8391H414.785V28.9707Z" fill="white"/>
<path d="M417.968 28.9707H431.975V31.8678H417.968V28.9707Z" fill="white"/>
<path d="M417.968 43.4564H431.338V46.3535H417.968V43.4564Z" fill="white"/>
<path d="M417.968 57.942H431.975V60.8391H417.968V57.942Z" fill="white"/>
<path fill-rule="evenodd" clip-rule="evenodd" d="M197.366 61.8061C206.508 61.8061 213.919 54.3118 213.919 45.0671C213.919 35.8224 206.508 28.3281 197.366 28.3281C188.224 28.3281 180.812 35.8224 180.812 45.0671C180.812 54.3118 188.224 61.8061 197.366 61.8061ZM197.366 58.9089C204.926 58.9089 211.054 52.7117 211.054 45.0671C211.054 37.4225 204.926 31.2253 197.366 31.2253C189.806 31.2253 183.677 37.4225 183.677 45.0671C183.677 52.7117 189.806 58.9089 197.366 58.9089Z" fill="white"/>
<path d="M260.133 52.7928C257.372 58.149 251.83 61.8061 245.444 61.8061C236.302 61.8061 228.891 54.3118 228.891 45.0671C228.891 35.8224 236.302 28.3281 245.444 28.3281C251.83 28.3281 257.372 31.9852 260.133 37.3414H256.803C254.345 33.6519 250.175 31.2253 245.444 31.2253C237.884 31.2253 231.756 37.4225 231.756 45.0671C231.756 52.7117 237.884 58.9089 245.444 58.9089C250.175 58.9089 254.345 56.4823 256.803 52.7928H260.133Z" fill="white"/>
<path d="M354.622 28.9707H357.806V60.8391H354.622V28.9707Z" fill="white"/>
<path d="M347.301 28.9707H365.127V31.8678H347.301V28.9707Z" fill="white"/>
<path d="M332.973 28.9707H329.789V55.6887L312.838 31.575C311.691 29.9423 309.82 28.9707 307.824 28.9707V60.8391H311.008V34.604L327.936 58.2507C329.099 59.8753 330.975 60.8391 332.973 60.8391V28.9707Z" fill="white"/>
<path d="M133.664 46.3547C133.014 54.9978 125.872 61.8061 117.159 61.8061C108.017 61.8061 100.605 54.3118 100.605 45.0671C100.605 35.8224 108.017 28.3281 117.159 28.3281C123.545 28.3281 129.087 31.9852 131.847 37.3414H128.518C126.06 33.6519 121.889 31.2253 117.159 31.2253C109.599 31.2253 103.47 37.4225 103.47 45.0671C103.47 52.7117 109.599 58.9089 117.159 58.9089C123.276 58.9089 128.456 54.851 130.21 49.2518H112.702V46.3547H133.664Z" fill="white"/>
</svg>
